<svg width="32" height="32" viewBox="0 0 32 32" fill="none" xmlns="http://www.w3.org/2000/svg">
<circle cx="16" cy="16" r="15.75" stroke="white" stroke-opacity="0.55" strokeWidth="0.5"/>
<g clipPath="url(#clip0_6797_15770)">
<path d="M26 16C26 10.4771 21.5229 6 16 6C10.4771 6 6 10.4771 6 16C6 20.9912 9.65684 25.1283 14.4375 25.8785V18.8906H11.8984V16H14.4375V13.7969C14.4375 11.2906 15.9305 9.90625 18.2146 9.90625C19.3084 9.90625 20.4531 10.1016 20.4531 10.1016V12.5625H19.1922C17.95 12.5625 17.5625 13.3334 17.5625 14.125V16H20.3359L19.8926 18.8906H17.5625V25.8785C22.3432 25.1283 26 20.9912 26 16Z" fill="white"/>
</g>
<defs>
<clipPath id="clip0_6797_15770">
<rect width="20" height="20" fill="white" transform="translate(6 6)"/>
</clipPath>
</defs>
</svg>
