<svg width="35" height="34" viewBox="0 0 35 34" fill="none" xmlns="http://www.w3.org/2000/svg">
<circle cx="17.25" cy="17" r="16.7344" stroke="#E46C27" stroke-opacity="0.55" strokeWidth="0.53125"/>
<g clipPath="url(#clip0_6823_8566)">
<path d="M25.4176 7.4375H10.0789C9.34414 7.4375 8.75 8.01758 8.75 8.73477V24.1367C8.75 24.8539 9.34414 25.4375 10.0789 25.4375H25.4176C26.1523 25.4375 26.75 24.8539 26.75 24.1402V8.73477C26.75 8.01758 26.1523 7.4375 25.4176 7.4375ZM14.0902 22.7762H11.4184V14.184H14.0902V22.7762ZM12.7543 13.0133C11.8965 13.0133 11.2039 12.3207 11.2039 11.4664C11.2039 10.6121 11.8965 9.91953 12.7543 9.91953C13.6086 9.91953 14.3012 10.6121 14.3012 11.4664C14.3012 12.3172 13.6086 13.0133 12.7543 13.0133ZM24.0887 22.7762H21.4203V18.5996C21.4203 17.6047 21.4027 16.3215 20.0316 16.3215C18.643 16.3215 18.432 17.4078 18.432 18.5293V22.7762H15.7672V14.184H18.3266V15.3582H18.3617C18.7168 14.6832 19.5887 13.9695 20.8859 13.9695C23.5895 13.9695 24.0887 15.7484 24.0887 18.0617V22.7762V22.7762Z" fill="#E46C27"/>
</g>
<defs>
<clipPath id="clip0_6823_8566">
<rect width="18" height="18" fill="white" transform="translate(8.75 7.4375)"/>
</clipPath>
</defs>
</svg>
