<svg width="35" height="34" viewBox="0 0 35 34" fill="none" xmlns="http://www.w3.org/2000/svg">
<circle cx="17.125" cy="17" r="16.7344" stroke="#E46C27" stroke-opacity="0.55" strokeWidth="0.53125"/>
<g clipPath="url(#clip0_6823_8572)">
<path d="M17 8.26582C19.8055 8.26582 20.1377 8.27812 21.241 8.32734C22.2664 8.37246 22.8201 8.54473 23.1893 8.68828C23.6773 8.87695 24.0301 9.10664 24.3951 9.47168C24.7643 9.84082 24.9898 10.1895 25.1785 10.6775C25.3221 11.0467 25.4943 11.6045 25.5395 12.6258C25.5887 13.7332 25.601 14.0654 25.601 16.8668C25.601 19.6723 25.5887 20.0045 25.5395 21.1078C25.4943 22.1332 25.3221 22.6869 25.1785 23.0561C24.9898 23.5441 24.7602 23.8969 24.3951 24.2619C24.026 24.6311 23.6773 24.8566 23.1893 25.0453C22.8201 25.1889 22.2623 25.3611 21.241 25.4062C20.1336 25.4555 19.8014 25.4678 17 25.4678C14.1945 25.4678 13.8623 25.4555 12.759 25.4062C11.7336 25.3611 11.1799 25.1889 10.8107 25.0453C10.3227 24.8566 9.96992 24.627 9.60488 24.2619C9.23574 23.8928 9.01016 23.5441 8.82148 23.0561C8.67793 22.6869 8.50566 22.1291 8.46055 21.1078C8.41133 20.0004 8.39902 19.6682 8.39902 16.8668C8.39902 14.0613 8.41133 13.7291 8.46055 12.6258C8.50566 11.6004 8.67793 11.0467 8.82148 10.6775C9.01016 10.1895 9.23984 9.83672 9.60488 9.47168C9.97402 9.10254 10.3227 8.87695 10.8107 8.68828C11.1799 8.54473 11.7377 8.37246 12.759 8.32734C13.8623 8.27812 14.1945 8.26582 17 8.26582ZM17 6.375C14.1494 6.375 13.7926 6.3873 12.6729 6.43652C11.5572 6.48574 10.7902 6.66621 10.1258 6.92461C9.43262 7.19531 8.84609 7.55215 8.26367 8.13867C7.67715 8.72109 7.32031 9.30762 7.04961 9.99668C6.79121 10.6652 6.61074 11.4281 6.56152 12.5437C6.5123 13.6676 6.5 14.0244 6.5 16.875C6.5 19.7256 6.5123 20.0824 6.56152 21.2021C6.61074 22.3178 6.79121 23.0848 7.04961 23.7492C7.32031 24.4424 7.67715 25.0289 8.26367 25.6113C8.84609 26.1937 9.43262 26.5547 10.1217 26.8213C10.7902 27.0797 11.5531 27.2602 12.6687 27.3094C13.7885 27.3586 14.1453 27.3709 16.9959 27.3709C19.8465 27.3709 20.2033 27.3586 21.323 27.3094C22.4387 27.2602 23.2057 27.0797 23.8701 26.8213C24.5592 26.5547 25.1457 26.1937 25.7281 25.6113C26.3105 25.0289 26.6715 24.4424 26.9381 23.7533C27.1965 23.0848 27.377 22.3219 27.4262 21.2063C27.4754 20.0865 27.4877 19.7297 27.4877 16.8791C27.4877 14.0285 27.4754 13.6717 27.4262 12.552C27.377 11.4363 27.1965 10.6693 26.9381 10.0049C26.6797 9.30762 26.3229 8.72109 25.7363 8.13867C25.1539 7.55625 24.5674 7.19531 23.8783 6.92871C23.2098 6.67031 22.4469 6.48984 21.3312 6.44063C20.2074 6.3873 19.8506 6.375 17 6.375Z" fill="#E46C27"/>
<path d="M16.999 11.4766C14.0213 11.4766 11.6055 13.8924 11.6055 16.8701C11.6055 19.8479 14.0213 22.2637 16.999 22.2637C19.9768 22.2637 22.3926 19.8479 22.3926 16.8701C22.3926 13.8924 19.9768 11.4766 16.999 11.4766ZM16.999 20.3687C15.0672 20.3687 13.5004 18.802 13.5004 16.8701C13.5004 14.9383 15.0672 13.3715 16.999 13.3715C18.9309 13.3715 20.4977 14.9383 20.4977 16.8701C20.4977 18.802 18.9309 20.3687 16.999 20.3687Z" fill="#E46C27"/>
<path d="M23.866 11.267C23.866 11.9643 23.3 12.5262 22.6068 12.5262C21.9096 12.5262 21.3477 11.9602 21.3477 11.267C21.3477 10.5697 21.9137 10.0078 22.6068 10.0078C23.3 10.0078 23.866 10.5738 23.866 11.267Z" fill="#E46C27"/>
</g>
<defs>
<clipPath id="clip0_6823_8572">
<rect width="21" height="21" fill="white" transform="translate(6.5 6.375)"/>
</clipPath>
</defs>
</svg>
