<svg width="34" height="34" viewBox="0 0 34 34" fill="none" xmlns="http://www.w3.org/2000/svg">
<circle cx="17" cy="17" r="16.7344" stroke="#E46C27" stroke-opacity="0.55" strokeWidth="0.53125"/>
<g clipPath="url(#clip0_6823_8569)">
<path d="M27.375 16.875C27.375 11.076 22.674 6.375 16.875 6.375C11.076 6.375 6.375 11.076 6.375 16.875C6.375 22.1158 10.2147 26.4597 15.2344 27.2474V19.9102H12.5684V16.875H15.2344V14.5617C15.2344 11.9302 16.802 10.4766 19.2004 10.4766C20.3488 10.4766 21.5508 10.6816 21.5508 10.6816V13.2656H20.2268C18.9225 13.2656 18.5156 14.0751 18.5156 14.9062V16.875H21.4277L20.9622 19.9102H18.5156V27.2474C23.5353 26.4597 27.375 22.1158 27.375 16.875Z" fill="#E46C27"/>
</g>
<defs>
<clipPath id="clip0_6823_8569">
<rect width="21" height="21" fill="white" transform="translate(6.375 6.375)"/>
</clipPath>
</defs>
</svg>
