<svg width="35" height="34" viewBox="0 0 35 34" fill="none" xmlns="http://www.w3.org/2000/svg">
<circle cx="17.375" cy="17" r="16.7344" stroke="#E46C27" stroke-opacity="0.55" strokeWidth="0.53125"/>
<g clipPath="url(#clip0_6823_8563)">
<path d="M21.6794 7.4375H18.6459V19.6983C18.6459 21.1592 17.4791 22.3593 16.0272 22.3593C14.5753 22.3593 13.4085 21.1592 13.4085 19.6983C13.4085 18.2636 14.5493 17.0897 15.9494 17.0375V13.9592C12.864 14.0114 10.375 16.5418 10.375 19.6983C10.375 22.881 12.9159 25.4375 16.0531 25.4375C19.1903 25.4375 21.7312 22.8549 21.7312 19.6983V13.4114C22.872 14.2462 24.2721 14.7419 25.75 14.768V11.6897C23.4684 11.6114 21.6794 9.73315 21.6794 7.4375Z" fill="#E46C27"/>
</g>
<defs>
<clipPath id="clip0_6823_8563">
<rect width="18" height="18" fill="white" transform="translate(8.875 7.4375)"/>
</clipPath>
</defs>
</svg>
