<svg width="32" height="32" viewBox="0 0 32 32" fill="none" xmlns="http://www.w3.org/2000/svg">
<circle cx="16" cy="16" r="15.75" stroke="white" stroke-opacity="0.55" strokeWidth="0.5"/>
<g clipPath="url(#clip0_6743_16179)">
<path d="M23.7416 7H9.25508C8.56113 7 8 7.54785 8 8.2252V22.7715C8 23.4488 8.56113 24 9.25508 24H23.7416C24.4355 24 25 23.4488 25 22.7748V8.2252C25 7.54785 24.4355 7 23.7416 7ZM13.0436 21.4865H10.5201V13.3717H13.0436V21.4865ZM11.7818 12.266C10.9717 12.266 10.3176 11.6119 10.3176 10.8051C10.3176 9.99824 10.9717 9.34414 11.7818 9.34414C12.5887 9.34414 13.2428 9.99824 13.2428 10.8051C13.2428 11.6086 12.5887 12.266 11.7818 12.266ZM22.4865 21.4865H19.9664V17.542C19.9664 16.6023 19.9498 15.3904 18.6549 15.3904C17.3434 15.3904 17.1441 16.4164 17.1441 17.4756V21.4865H14.6273V13.3717H17.0445V14.4807H17.0777C17.4131 13.8432 18.2365 13.1691 19.4617 13.1691C22.015 13.1691 22.4865 14.8492 22.4865 17.034V21.4865Z" fill="white"/>
</g>
<defs>
<clipPath id="clip0_6743_16179">
<rect width="17" height="17" fill="white" transform="translate(8 7)"/>
</clipPath>
</defs>
</svg>
