<svg width="32" height="32" viewBox="0 0 32 32" fill="none" xmlns="http://www.w3.org/2000/svg">
<circle cx="16" cy="16" r="15.75" stroke="white" stroke-opacity="0.55" strokeWidth="0.5"/>
<path d="M20.0943 7H17.2293V18.5797C17.2293 19.9594 16.1274 21.0928 14.7562 21.0928C13.3849 21.0928 12.283 19.9594 12.283 18.5797C12.283 17.2246 13.3604 16.1159 14.6827 16.0667V13.1594C11.7687 13.2087 9.41797 15.5986 9.41797 18.5797C9.41797 21.5855 11.8177 24 14.7807 24C17.7436 24 20.1433 21.5609 20.1433 18.5797V12.642C21.2207 13.4304 22.543 13.8986 23.9388 13.9232V11.0159C21.784 10.942 20.0943 9.16811 20.0943 7Z" fill="white"/>
</svg>
