<svg width="32" height="32" viewBox="0 0 32 32" fill="none" xmlns="http://www.w3.org/2000/svg">
<circle cx="16" cy="16" r="15.75" stroke="white" stroke-opacity="0.55" strokeWidth="0.5"/>
<path d="M25.8008 12.0039C25.8008 12.0039 25.6055 10.625 25.0039 10.0195C24.2422 9.22266 23.3906 9.21875 23 9.17187C20.2031 8.96875 16.0039 8.96875 16.0039 8.96875H15.9961C15.9961 8.96875 11.7969 8.96875 9 9.17187C8.60938 9.21875 7.75781 9.22266 6.99609 10.0195C6.39453 10.625 6.20312 12.0039 6.20312 12.0039C6.20312 12.0039 6 13.625 6 15.2422V16.7578C6 18.375 6.19922 19.9961 6.19922 19.9961C6.19922 19.9961 6.39453 21.375 6.99219 21.9805C7.75391 22.7773 8.75391 22.75 9.19922 22.8359C10.8008 22.9883 16 23.0352 16 23.0352C16 23.0352 20.2031 23.0273 23 22.8281C23.3906 22.7813 24.2422 22.7773 25.0039 21.9805C25.6055 21.375 25.8008 19.9961 25.8008 19.9961C25.8008 19.9961 26 18.3789 26 16.7578V15.2422C26 13.625 25.8008 12.0039 25.8008 12.0039ZM13.9336 18.5977V12.9766L19.3359 15.7969L13.9336 18.5977Z" fill="white"/>
</svg>
