<svg width="35" height="34" viewBox="0 0 35 34" fill="none" xmlns="http://www.w3.org/2000/svg">
<circle cx="17.5" cy="17" r="16.7344" stroke="#E46C27" stroke-opacity="0.55" strokeWidth="0.53125"/>
<g clipPath="url(#clip0_6823_8585)">
<path d="M27.6658 12.6791C27.6658 12.6791 27.4607 11.2313 26.8291 10.5955C26.0293 9.75879 25.1352 9.75469 24.725 9.70547C21.7883 9.49219 17.3791 9.49219 17.3791 9.49219H17.3709C17.3709 9.49219 12.9617 9.49219 10.025 9.70547C9.61484 9.75469 8.7207 9.75879 7.9209 10.5955C7.28926 11.2313 7.08828 12.6791 7.08828 12.6791C7.08828 12.6791 6.875 14.3813 6.875 16.0793V17.6707C6.875 19.3687 7.08418 21.0709 7.08418 21.0709C7.08418 21.0709 7.28926 22.5188 7.9168 23.1545C8.7166 23.9912 9.7666 23.9625 10.2342 24.0527C11.9158 24.2127 17.375 24.2619 17.375 24.2619C17.375 24.2619 21.7883 24.2537 24.725 24.0445C25.1352 23.9953 26.0293 23.9912 26.8291 23.1545C27.4607 22.5188 27.6658 21.0709 27.6658 21.0709C27.6658 21.0709 27.875 19.3729 27.875 17.6707V16.0793C27.875 14.3813 27.6658 12.6791 27.6658 12.6791ZM15.2053 19.6025V13.7004L20.8777 16.6617L15.2053 19.6025Z" fill="#E46C27"/>
</g>
<defs>
<clipPath id="clip0_6823_8585">
<rect width="21" height="21" fill="white" transform="translate(6.875 6.375)"/>
</clipPath>
</defs>
</svg>
