<svg width="457" height="276" viewBox="0 0 457 276" fill="none" xmlns="http://www.w3.org/2000/svg">
<g clip-path="url(#clip0_8014_1533)">
<path d="M0 8.00001C0 3.58173 3.58172 0 8 0H449C453.418 0 457 3.58172 457 8V278H0V8.00001Z" fill="#002252"/>
<g clip-path="url(#clip1_8014_1533)">
<rect x="70.9785" y="51" width="413.995" height="387.085" rx="16.8484" fill="white"/>
<mask id="path-3-inside-1_8014_1533" fill="white">
<path d="M69.9408 51H469.446V89.2945H69.9408V51Z"/>
</mask>
<path d="M69.9408 51H469.446V89.2945H69.9408V51Z" fill="white"/>
<path d="M469.446 88.4521H69.9408V90.137H469.446V88.4521Z" fill="#E9E9E9" mask="url(#path-3-inside-1_8014_1533)"/>
<path d="M90.4929 75.0742L93.9208 66.4176H95.0138L98.4292 75.0742H96.8643L94.4673 68.5165L92.0703 75.0742H90.4929ZM92.6292 73.2609L93.0763 71.9817H95.8459L96.3179 73.2609H92.6292ZM99.3748 77.6079V68.9512H100.741V70.6528L100.393 70.6652C100.501 70.2181 100.658 69.862 100.865 69.5971C101.08 69.3321 101.333 69.1417 101.623 69.0258C101.921 68.9016 102.235 68.8395 102.567 68.8395C103.113 68.8395 103.585 68.9802 103.983 69.2617C104.38 69.535 104.686 69.9117 104.902 70.3919C105.125 70.8722 105.237 71.4145 105.237 72.0189C105.237 72.673 105.117 73.2402 104.877 73.7205C104.637 74.1924 104.314 74.5567 103.908 74.8134C103.511 75.0618 103.063 75.186 102.567 75.186C102.219 75.186 101.896 75.1198 101.598 74.9873C101.308 74.8548 101.06 74.6561 100.853 74.3911C100.654 74.1262 100.513 73.8033 100.43 73.4224L100.741 73.3603V77.6079H99.3748ZM102.231 73.9316C102.554 73.9316 102.836 73.8529 103.076 73.6956C103.324 73.5383 103.515 73.3147 103.647 73.0249C103.78 72.7351 103.846 72.3998 103.846 72.0189C103.846 71.6381 103.78 71.3027 103.647 71.0129C103.515 70.7231 103.324 70.4996 103.076 70.3423C102.836 70.1849 102.554 70.1063 102.231 70.1063C101.908 70.1063 101.623 70.1849 101.374 70.3423C101.134 70.4996 100.948 70.7231 100.815 71.0129C100.683 71.3027 100.617 71.6381 100.617 72.0189C100.617 72.3998 100.683 72.7351 100.815 73.0249C100.948 73.3065 101.134 73.53 101.374 73.6956C101.623 73.8529 101.908 73.9316 102.231 73.9316ZM106.567 77.6079V68.9512H107.933V70.6528L107.586 70.6652C107.693 70.2181 107.851 69.862 108.058 69.5971C108.273 69.3321 108.525 69.1417 108.815 69.0258C109.113 68.9016 109.428 68.8395 109.759 68.8395C110.306 68.8395 110.777 68.9802 111.175 69.2617C111.572 69.535 111.879 69.9117 112.094 70.3919C112.318 70.8722 112.429 71.4145 112.429 72.0189C112.429 72.673 112.309 73.2402 112.069 73.7205C111.829 74.1924 111.506 74.5567 111.1 74.8134C110.703 75.0618 110.256 75.186 109.759 75.186C109.411 75.186 109.088 75.1198 108.79 74.9873C108.5 74.8548 108.252 74.6561 108.045 74.3911C107.846 74.1262 107.706 73.8033 107.623 73.4224L107.933 73.3603V77.6079H106.567ZM109.424 73.9316C109.747 73.9316 110.028 73.8529 110.268 73.6956C110.517 73.5383 110.707 73.3147 110.84 73.0249C110.972 72.7351 111.038 72.3998 111.038 72.0189C111.038 71.6381 110.972 71.3027 110.84 71.0129C110.707 70.7231 110.517 70.4996 110.268 70.3423C110.028 70.1849 109.747 70.1063 109.424 70.1063C109.101 70.1063 108.815 70.1849 108.567 70.3423C108.327 70.4996 108.14 70.7231 108.008 71.0129C107.875 71.3027 107.809 71.6381 107.809 72.0189C107.809 72.3998 107.875 72.7351 108.008 73.0249C108.14 73.3065 108.327 73.53 108.567 73.6956C108.815 73.8529 109.101 73.9316 109.424 73.9316ZM115.113 75.186C114.716 75.186 114.385 75.0659 114.12 74.8258C113.855 74.5774 113.722 74.1841 113.722 73.6459V66.4176H115.101V73.3727C115.101 73.5631 115.142 73.7039 115.225 73.795C115.316 73.8778 115.432 73.9192 115.573 73.9192C115.647 73.9192 115.722 73.9109 115.796 73.8943C115.879 73.8778 115.962 73.8571 116.045 73.8322V74.9997C115.887 75.0659 115.726 75.1115 115.56 75.1363C115.395 75.1694 115.246 75.186 115.113 75.186ZM117.143 75.0742V68.9512H118.522V75.0742H117.143ZM117.081 67.9452V66.4176H118.584V67.9452H117.081ZM122.773 75.186C122.292 75.186 121.866 75.1032 121.493 74.9376C121.129 74.7637 120.823 74.5277 120.574 74.2297C120.334 73.9233 120.152 73.5797 120.028 73.1988C119.904 72.8179 119.841 72.4205 119.841 72.0065C119.841 71.5925 119.904 71.1951 120.028 70.8142C120.152 70.4333 120.334 70.0939 120.574 69.7958C120.823 69.4977 121.129 69.2659 121.493 69.1003C121.866 68.9264 122.292 68.8395 122.773 68.8395C123.377 68.8395 123.903 68.9844 124.35 69.2741C124.805 69.5639 125.141 70.0111 125.356 70.6155L124.139 71.0874C124.039 70.7728 123.878 70.5203 123.654 70.3298C123.431 70.1311 123.137 70.0318 122.773 70.0318C122.408 70.0318 122.11 70.127 121.878 70.3174C121.655 70.5079 121.489 70.7521 121.382 71.0502C121.274 71.3483 121.22 71.667 121.22 72.0065C121.22 72.346 121.274 72.6689 121.382 72.9753C121.489 73.2733 121.655 73.5176 121.878 73.708C122.11 73.8902 122.408 73.9813 122.773 73.9813C123.137 73.9813 123.431 73.8861 123.654 73.6956C123.878 73.5052 124.039 73.2526 124.139 72.938L125.356 73.41C125.141 74.0061 124.805 74.4532 124.35 74.7513C123.903 75.0411 123.377 75.186 122.773 75.186ZM130.553 75.0742L130.454 74.0434V71.2116C130.454 70.8142 130.334 70.5161 130.094 70.3174C129.854 70.1104 129.518 70.0069 129.088 70.0069C128.757 70.0069 128.43 70.0732 128.107 70.2056C127.792 70.3298 127.502 70.5244 127.237 70.7894L126.467 69.8827C126.865 69.5101 127.287 69.2452 127.734 69.0879C128.181 68.9223 128.67 68.8395 129.2 68.8395C130.028 68.8395 130.669 69.0506 131.125 69.4729C131.588 69.8869 131.82 70.4665 131.82 71.2116V75.0742H130.553ZM128.653 75.186C128.198 75.186 127.792 75.1032 127.436 74.9376C127.088 74.772 126.815 74.5402 126.616 74.2421C126.426 73.944 126.331 73.5963 126.331 73.1988C126.331 72.8593 126.401 72.5654 126.542 72.317C126.691 72.0686 126.881 71.874 127.113 71.7333C127.312 71.6091 127.544 71.5221 127.809 71.4725C128.074 71.4145 128.351 71.3855 128.641 71.3855H130.566V72.4164H128.839C128.69 72.4164 128.541 72.4329 128.392 72.466C128.243 72.4909 128.111 72.5406 127.995 72.6151C127.912 72.6813 127.842 72.7641 127.784 72.8635C127.734 72.9628 127.709 73.0788 127.709 73.2112C127.709 73.4762 127.809 73.6873 128.007 73.8447C128.214 73.9937 128.488 74.0682 128.827 74.0682C129.125 74.0682 129.394 74.002 129.634 73.8695C129.883 73.737 130.081 73.5549 130.23 73.323C130.379 73.0912 130.454 72.8304 130.454 72.5406L130.876 73.2237C130.777 73.6542 130.62 74.0185 130.404 74.3166C130.189 74.6064 129.932 74.8258 129.634 74.9749C129.336 75.1156 129.009 75.186 128.653 75.186ZM135.583 75.186C135.276 75.186 134.987 75.128 134.713 75.0121C134.448 74.8879 134.237 74.6933 134.08 74.4284C133.923 74.1551 133.844 73.7991 133.844 73.3603V67.4608L135.235 66.6908V72.9753C135.235 73.323 135.285 73.5921 135.384 73.7826C135.492 73.9647 135.682 74.0558 135.955 74.0558C136.038 74.0558 136.133 74.0475 136.241 74.031C136.357 74.0061 136.477 73.9771 136.601 73.944V75.0121C136.436 75.0701 136.266 75.1115 136.092 75.1363C135.926 75.1694 135.757 75.186 135.583 75.186ZM132.676 70.0193V68.9512H136.601V70.0193H132.676ZM137.823 75.0742V68.9512H139.201V75.0742H137.823ZM137.761 67.9452V66.4176H139.263V67.9452H137.761ZM143.564 75.186C142.984 75.186 142.463 75.0494 141.999 74.7761C141.535 74.5029 141.171 74.1262 140.906 73.6459C140.649 73.1657 140.521 72.6192 140.521 72.0065C140.521 71.3938 140.649 70.8473 140.906 70.3671C141.171 69.8869 141.531 69.5143 141.987 69.2493C142.45 68.9761 142.976 68.8395 143.564 68.8395C144.16 68.8395 144.682 68.9761 145.129 69.2493C145.584 69.5143 145.944 69.8869 146.209 70.3671C146.474 70.8473 146.607 71.3938 146.607 72.0065C146.607 72.6192 146.474 73.1657 146.209 73.6459C145.953 74.1262 145.592 74.5029 145.129 74.7761C144.673 75.0494 144.152 75.186 143.564 75.186ZM143.576 73.9689C143.916 73.9689 144.21 73.8902 144.458 73.7329C144.706 73.5756 144.897 73.3479 145.029 73.0498C145.162 72.7517 145.228 72.404 145.228 72.0065C145.228 71.6008 145.162 71.253 145.029 70.9632C144.897 70.6652 144.706 70.4375 144.458 70.2802C144.21 70.1228 143.916 70.0442 143.576 70.0442C143.22 70.0442 142.918 70.127 142.67 70.2926C142.421 70.4499 142.231 70.6735 142.098 70.9632C141.966 71.253 141.9 71.6008 141.9 72.0065C141.9 72.404 141.966 72.7517 142.098 73.0498C142.231 73.3479 142.421 73.5756 142.67 73.7329C142.918 73.8902 143.22 73.9689 143.576 73.9689ZM147.938 75.0742V68.9512H149.317V70.305L149.069 70.3671C149.176 70.0111 149.334 69.7213 149.541 69.4977C149.748 69.2741 149.988 69.1085 150.261 69.0009C150.542 68.8933 150.836 68.8395 151.143 68.8395C151.83 68.8395 152.364 69.0382 152.745 69.4356C153.134 69.8248 153.329 70.3837 153.329 71.1123V75.0742H151.95V71.6215C151.95 71.075 151.851 70.6735 151.652 70.4168C151.453 70.1601 151.147 70.0318 150.733 70.0318C150.426 70.0318 150.166 70.1063 149.95 70.2553C149.743 70.3961 149.586 70.6196 149.478 70.926C149.371 71.2323 149.317 71.6215 149.317 72.0935V75.0742H147.938ZM156.963 75.186C156.524 75.186 156.135 75.1239 155.795 74.9997C155.456 74.8672 155.17 74.7016 154.938 74.5029C154.706 74.3042 154.516 74.1055 154.367 73.9068L155.311 73.087C155.468 73.3437 155.683 73.5714 155.957 73.7701C156.238 73.9689 156.578 74.0682 156.975 74.0682C157.306 74.0682 157.567 73.9978 157.757 73.8571C157.956 73.7163 158.055 73.5424 158.055 73.3354C158.055 73.1533 157.993 73.0125 157.869 72.9132C157.745 72.8055 157.584 72.7144 157.385 72.6399C157.186 72.5654 156.967 72.4992 156.727 72.4412C156.495 72.3833 156.259 72.3129 156.019 72.2301C155.779 72.139 155.555 72.0272 155.348 71.8947C155.149 71.7623 154.988 71.5925 154.864 71.3855C154.739 71.1785 154.677 70.9218 154.677 70.6155C154.677 70.0773 154.884 69.6467 155.298 69.3238C155.712 69.0009 156.255 68.8395 156.925 68.8395C157.406 68.8395 157.844 68.9347 158.242 69.1251C158.639 69.3155 158.95 69.6012 159.173 69.9821L158.316 70.6403C158.151 70.3919 157.944 70.2056 157.695 70.0814C157.447 69.9572 157.178 69.8951 156.888 69.8951C156.623 69.8951 156.399 69.949 156.217 70.0566C156.043 70.1642 155.957 70.305 155.957 70.4789C155.957 70.6114 155.998 70.719 156.081 70.8018C156.164 70.8846 156.292 70.9591 156.466 71.0253C156.64 71.0916 156.859 71.1578 157.124 71.2241C157.372 71.282 157.629 71.3524 157.894 71.4352C158.159 71.518 158.403 71.6298 158.627 71.7705C158.859 71.903 159.045 72.0852 159.186 72.317C159.335 72.5406 159.409 72.8304 159.409 73.1864C159.409 73.5838 159.306 73.9357 159.099 74.2421C158.9 74.5402 158.614 74.772 158.242 74.9376C157.877 75.1032 157.451 75.186 156.963 75.186Z" fill="#201C1A"/>
<rect x="90.2595" y="275.441" width="77.1167" height="8.11755" rx="4.05877" fill="#DBDBDB"/>
<rect x="90.0009" y="245.996" width="207" height="14" rx="7" fill="#CCCCCC" fill-opacity="0.49"/>
<path d="M90.3961 117.207L93.824 108.55H94.917L98.3324 117.207H96.7675L94.3705 110.649L91.9735 117.207H90.3961ZM92.5324 115.394L92.9795 114.114H95.7491L96.2211 115.394H92.5324ZM99.278 119.741V111.084H100.644V112.786L100.296 112.798C100.404 112.351 100.561 111.995 100.768 111.73C100.984 111.465 101.236 111.274 101.526 111.159C101.824 111.034 102.139 110.972 102.47 110.972C103.016 110.972 103.488 111.113 103.886 111.395C104.283 111.668 104.59 112.045 104.805 112.525C105.028 113.005 105.14 113.547 105.14 114.152C105.14 114.806 105.02 115.373 104.78 115.853C104.54 116.325 104.217 116.69 103.811 116.946C103.414 117.195 102.967 117.319 102.47 117.319C102.122 117.319 101.799 117.253 101.501 117.12C101.211 116.988 100.963 116.789 100.756 116.524C100.557 116.259 100.416 115.936 100.334 115.555L100.644 115.493V119.741H99.278ZM102.135 116.064C102.457 116.064 102.739 115.986 102.979 115.828C103.227 115.671 103.418 115.448 103.55 115.158C103.683 114.868 103.749 114.533 103.749 114.152C103.749 113.771 103.683 113.436 103.55 113.146C103.418 112.856 103.227 112.632 102.979 112.475C102.739 112.318 102.457 112.239 102.135 112.239C101.812 112.239 101.526 112.318 101.278 112.475C101.037 112.632 100.851 112.856 100.719 113.146C100.586 113.436 100.52 113.771 100.52 114.152C100.52 114.533 100.586 114.868 100.719 115.158C100.851 115.439 101.037 115.663 101.278 115.828C101.526 115.986 101.812 116.064 102.135 116.064ZM106.47 119.741V111.084H107.837V112.786L107.489 112.798C107.596 112.351 107.754 111.995 107.961 111.73C108.176 111.465 108.429 111.274 108.718 111.159C109.016 111.034 109.331 110.972 109.662 110.972C110.209 110.972 110.681 111.113 111.078 111.395C111.476 111.668 111.782 112.045 111.997 112.525C112.221 113.005 112.333 113.547 112.333 114.152C112.333 114.806 112.212 115.373 111.972 115.853C111.732 116.325 111.409 116.69 111.004 116.946C110.606 117.195 110.159 117.319 109.662 117.319C109.314 117.319 108.992 117.253 108.693 117.12C108.404 116.988 108.155 116.789 107.948 116.524C107.75 116.259 107.609 115.936 107.526 115.555L107.837 115.493V119.741H106.47ZM109.327 116.064C109.65 116.064 109.931 115.986 110.171 115.828C110.42 115.671 110.61 115.448 110.743 115.158C110.875 114.868 110.941 114.533 110.941 114.152C110.941 113.771 110.875 113.436 110.743 113.146C110.61 112.856 110.42 112.632 110.171 112.475C109.931 112.318 109.65 112.239 109.327 112.239C109.004 112.239 108.718 112.318 108.47 112.475C108.23 112.632 108.044 112.856 107.911 113.146C107.779 113.436 107.712 113.771 107.712 114.152C107.712 114.533 107.779 114.868 107.911 115.158C108.044 115.439 108.23 115.663 108.47 115.828C108.718 115.986 109.004 116.064 109.327 116.064ZM115.016 117.319C114.619 117.319 114.288 117.199 114.023 116.959C113.758 116.71 113.625 116.317 113.625 115.779V108.55H115.004V115.506C115.004 115.696 115.045 115.837 115.128 115.928C115.219 116.011 115.335 116.052 115.476 116.052C115.551 116.052 115.625 116.044 115.7 116.027C115.782 116.011 115.865 115.99 115.948 115.965V117.133C115.791 117.199 115.629 117.244 115.464 117.269C115.298 117.302 115.149 117.319 115.016 117.319ZM117.046 117.207V111.084H118.425V117.207H117.046ZM116.984 110.078V108.55H118.487V110.078H116.984ZM122.676 117.319C122.195 117.319 121.769 117.236 121.396 117.07C121.032 116.897 120.726 116.661 120.477 116.362C120.237 116.056 120.055 115.713 119.931 115.332C119.807 114.951 119.745 114.553 119.745 114.139C119.745 113.725 119.807 113.328 119.931 112.947C120.055 112.566 120.237 112.227 120.477 111.929C120.726 111.631 121.032 111.399 121.396 111.233C121.769 111.059 122.195 110.972 122.676 110.972C123.28 110.972 123.806 111.117 124.253 111.407C124.708 111.697 125.044 112.144 125.259 112.748L124.042 113.22C123.943 112.906 123.781 112.653 123.558 112.463C123.334 112.264 123.04 112.165 122.676 112.165C122.311 112.165 122.013 112.26 121.781 112.45C121.558 112.641 121.392 112.885 121.285 113.183C121.177 113.481 121.123 113.8 121.123 114.139C121.123 114.479 121.177 114.802 121.285 115.108C121.392 115.406 121.558 115.65 121.781 115.841C122.013 116.023 122.311 116.114 122.676 116.114C123.04 116.114 123.334 116.019 123.558 115.828C123.781 115.638 123.943 115.385 124.042 115.071L125.259 115.543C125.044 116.139 124.708 116.586 124.253 116.884C123.806 117.174 123.28 117.319 122.676 117.319ZM130.457 117.207L130.357 116.176V113.344C130.357 112.947 130.237 112.649 129.997 112.45C129.757 112.243 129.422 112.14 128.991 112.14C128.66 112.14 128.333 112.206 128.01 112.338C127.695 112.463 127.405 112.657 127.14 112.922L126.37 112.016C126.768 111.643 127.19 111.378 127.637 111.221C128.084 111.055 128.573 110.972 129.103 110.972C129.931 110.972 130.572 111.183 131.028 111.606C131.492 112.02 131.723 112.599 131.723 113.344V117.207H130.457ZM128.556 117.319C128.101 117.319 127.695 117.236 127.339 117.07C126.991 116.905 126.718 116.673 126.519 116.375C126.329 116.077 126.234 115.729 126.234 115.332C126.234 114.992 126.304 114.698 126.445 114.45C126.594 114.201 126.784 114.007 127.016 113.866C127.215 113.742 127.447 113.655 127.712 113.605C127.977 113.547 128.254 113.518 128.544 113.518H130.469V114.549H128.743C128.594 114.549 128.445 114.566 128.296 114.599C128.146 114.624 128.014 114.673 127.898 114.748C127.815 114.814 127.745 114.897 127.687 114.996C127.637 115.096 127.612 115.212 127.612 115.344C127.612 115.609 127.712 115.82 127.91 115.977C128.117 116.127 128.391 116.201 128.73 116.201C129.028 116.201 129.297 116.135 129.537 116.002C129.786 115.87 129.985 115.688 130.134 115.456C130.283 115.224 130.357 114.963 130.357 114.673L130.779 115.356C130.68 115.787 130.523 116.151 130.308 116.449C130.092 116.739 129.836 116.959 129.537 117.108C129.239 117.248 128.912 117.319 128.556 117.319ZM135.486 117.319C135.18 117.319 134.89 117.261 134.617 117.145C134.352 117.021 134.14 116.826 133.983 116.561C133.826 116.288 133.747 115.932 133.747 115.493V109.594L135.138 108.824V115.108C135.138 115.456 135.188 115.725 135.287 115.915C135.395 116.098 135.585 116.189 135.859 116.189C135.941 116.189 136.037 116.18 136.144 116.164C136.26 116.139 136.38 116.11 136.504 116.077V117.145C136.339 117.203 136.169 117.244 135.995 117.269C135.83 117.302 135.66 117.319 135.486 117.319ZM132.58 112.152V111.084H136.504V112.152H132.58ZM137.726 117.207V111.084H139.104V117.207H137.726ZM137.664 110.078V108.55H139.167V110.078H137.664ZM143.467 117.319C142.887 117.319 142.366 117.182 141.902 116.909C141.438 116.636 141.074 116.259 140.809 115.779C140.553 115.299 140.424 114.752 140.424 114.139C140.424 113.527 140.553 112.98 140.809 112.5C141.074 112.02 141.434 111.647 141.89 111.382C142.353 111.109 142.879 110.972 143.467 110.972C144.063 110.972 144.585 111.109 145.032 111.382C145.487 111.647 145.848 112.02 146.112 112.5C146.377 112.98 146.51 113.527 146.51 114.139C146.51 114.752 146.377 115.299 146.112 115.779C145.856 116.259 145.496 116.636 145.032 116.909C144.577 117.182 144.055 117.319 143.467 117.319ZM143.479 116.102C143.819 116.102 144.113 116.023 144.361 115.866C144.61 115.708 144.8 115.481 144.933 115.183C145.065 114.885 145.131 114.537 145.131 114.139C145.131 113.734 145.065 113.386 144.933 113.096C144.8 112.798 144.61 112.57 144.361 112.413C144.113 112.256 143.819 112.177 143.479 112.177C143.123 112.177 142.821 112.26 142.573 112.425C142.324 112.583 142.134 112.806 142.001 113.096C141.869 113.386 141.803 113.734 141.803 114.139C141.803 114.537 141.869 114.885 142.001 115.183C142.134 115.481 142.324 115.708 142.573 115.866C142.821 116.023 143.123 116.102 143.479 116.102ZM147.842 117.207V111.084H149.22V112.438L148.972 112.5C149.079 112.144 149.237 111.854 149.444 111.631C149.651 111.407 149.891 111.241 150.164 111.134C150.446 111.026 150.74 110.972 151.046 110.972C151.733 110.972 152.267 111.171 152.648 111.568C153.037 111.958 153.232 112.516 153.232 113.245V117.207H151.853V113.754C151.853 113.208 151.754 112.806 151.555 112.55C151.356 112.293 151.05 112.165 150.636 112.165C150.33 112.165 150.069 112.239 149.854 112.388C149.647 112.529 149.489 112.752 149.382 113.059C149.274 113.365 149.22 113.754 149.22 114.226V117.207H147.842ZM156.866 117.319C156.427 117.319 156.038 117.257 155.698 117.133C155.359 117 155.073 116.834 154.841 116.636C154.609 116.437 154.419 116.238 154.27 116.04L155.214 115.22C155.371 115.477 155.586 115.704 155.86 115.903C156.141 116.102 156.481 116.201 156.878 116.201C157.209 116.201 157.47 116.131 157.661 115.99C157.859 115.849 157.959 115.675 157.959 115.468C157.959 115.286 157.897 115.145 157.772 115.046C157.648 114.938 157.487 114.847 157.288 114.773C157.089 114.698 156.87 114.632 156.63 114.574C156.398 114.516 156.162 114.446 155.922 114.363C155.682 114.272 155.458 114.16 155.251 114.028C155.052 113.895 154.891 113.725 154.767 113.518C154.643 113.311 154.58 113.055 154.58 112.748C154.58 112.21 154.787 111.78 155.201 111.457C155.615 111.134 156.158 110.972 156.828 110.972C157.309 110.972 157.748 111.067 158.145 111.258C158.542 111.448 158.853 111.734 159.076 112.115L158.219 112.773C158.054 112.525 157.847 112.338 157.598 112.214C157.35 112.09 157.081 112.028 156.791 112.028C156.526 112.028 156.303 112.082 156.121 112.189C155.947 112.297 155.86 112.438 155.86 112.612C155.86 112.744 155.901 112.852 155.984 112.935C156.067 113.017 156.195 113.092 156.369 113.158C156.543 113.224 156.762 113.291 157.027 113.357C157.276 113.415 157.532 113.485 157.797 113.568C158.062 113.651 158.306 113.763 158.53 113.903C158.762 114.036 158.948 114.218 159.089 114.45C159.238 114.673 159.312 114.963 159.312 115.319C159.312 115.717 159.209 116.069 159.002 116.375C158.803 116.673 158.518 116.905 158.145 117.07C157.781 117.236 157.354 117.319 156.866 117.319ZM164.386 119.728L165.603 116.797L163.268 111.084H164.783L166.335 115.419L167.913 111.084H169.403L165.876 119.728H164.386ZM173.001 117.319C172.421 117.319 171.899 117.182 171.436 116.909C170.972 116.636 170.608 116.259 170.343 115.779C170.086 115.299 169.958 114.752 169.958 114.139C169.958 113.527 170.086 112.98 170.343 112.5C170.608 112.02 170.968 111.647 171.423 111.382C171.887 111.109 172.413 110.972 173.001 110.972C173.597 110.972 174.118 111.109 174.565 111.382C175.021 111.647 175.381 112.02 175.646 112.5C175.911 112.98 176.043 113.527 176.043 114.139C176.043 114.752 175.911 115.299 175.646 115.779C175.389 116.259 175.029 116.636 174.565 116.909C174.11 117.182 173.588 117.319 173.001 117.319ZM173.013 116.102C173.352 116.102 173.646 116.023 173.895 115.866C174.143 115.708 174.334 115.481 174.466 115.183C174.599 114.885 174.665 114.537 174.665 114.139C174.665 113.734 174.599 113.386 174.466 113.096C174.334 112.798 174.143 112.57 173.895 112.413C173.646 112.256 173.352 112.177 173.013 112.177C172.657 112.177 172.355 112.26 172.106 112.425C171.858 112.583 171.668 112.806 171.535 113.096C171.403 113.386 171.336 113.734 171.336 114.139C171.336 114.537 171.403 114.885 171.535 115.183C171.668 115.481 171.858 115.708 172.106 115.866C172.355 116.023 172.657 116.102 173.013 116.102ZM179.499 117.319C179.019 117.319 178.613 117.224 178.282 117.033C177.959 116.843 177.715 116.569 177.549 116.213C177.383 115.857 177.301 115.427 177.301 114.922V111.084H178.679V114.549C178.679 114.872 178.716 115.154 178.791 115.394C178.874 115.626 179.002 115.804 179.176 115.928C179.358 116.052 179.602 116.114 179.909 116.114C180.265 116.114 180.542 116.023 180.741 115.841C180.948 115.65 181.093 115.377 181.176 115.021C181.267 114.657 181.312 114.222 181.312 113.717V111.084H182.691V117.207H181.312V115.891L181.548 115.977C181.358 116.441 181.08 116.781 180.716 116.996C180.36 117.211 179.954 117.319 179.499 117.319ZM187.539 117.207V108.55H188.918V112.438L188.669 112.5C188.777 112.144 188.934 111.854 189.141 111.631C189.356 111.407 189.601 111.241 189.874 111.134C190.147 111.026 190.437 110.972 190.743 110.972C191.431 110.972 191.965 111.171 192.345 111.568C192.735 111.958 192.929 112.516 192.929 113.245V117.207H191.551V113.754C191.551 113.208 191.451 112.806 191.253 112.55C191.054 112.293 190.747 112.165 190.333 112.165C189.87 112.165 189.518 112.33 189.278 112.661C189.038 112.993 188.918 113.514 188.918 114.226V117.207H187.539ZM198.426 117.207L198.327 116.176V113.344C198.327 112.947 198.207 112.649 197.967 112.45C197.726 112.243 197.391 112.14 196.961 112.14C196.629 112.14 196.302 112.206 195.979 112.338C195.665 112.463 195.375 112.657 195.11 112.922L194.34 112.016C194.737 111.643 195.16 111.378 195.607 111.221C196.054 111.055 196.542 110.972 197.072 110.972C197.9 110.972 198.542 111.183 198.997 111.606C199.461 112.02 199.693 112.599 199.693 113.344V117.207H198.426ZM196.526 117.319C196.071 117.319 195.665 117.236 195.309 117.07C194.961 116.905 194.688 116.673 194.489 116.375C194.299 116.077 194.203 115.729 194.203 115.332C194.203 114.992 194.274 114.698 194.415 114.45C194.564 114.201 194.754 114.007 194.986 113.866C195.185 113.742 195.416 113.655 195.681 113.605C195.946 113.547 196.224 113.518 196.513 113.518H198.439V114.549H196.712C196.563 114.549 196.414 114.566 196.265 114.599C196.116 114.624 195.984 114.673 195.868 114.748C195.785 114.814 195.714 114.897 195.657 114.996C195.607 115.096 195.582 115.212 195.582 115.344C195.582 115.609 195.681 115.82 195.88 115.977C196.087 116.127 196.36 116.201 196.7 116.201C196.998 116.201 197.267 116.135 197.507 116.002C197.755 115.87 197.954 115.688 198.103 115.456C198.252 115.224 198.327 114.963 198.327 114.673L198.749 115.356C198.65 115.787 198.492 116.151 198.277 116.449C198.062 116.739 197.805 116.959 197.507 117.108C197.209 117.248 196.882 117.319 196.526 117.319ZM202.975 117.207L200.479 111.084H201.994L203.547 115.419L205.124 111.084H206.614L204.118 117.207H202.975ZM210.137 117.319C209.624 117.319 209.177 117.236 208.796 117.07C208.423 116.905 208.117 116.673 207.877 116.375C207.637 116.077 207.459 115.741 207.343 115.369C207.227 114.988 207.169 114.595 207.169 114.189C207.169 113.783 207.223 113.39 207.33 113.009C207.446 112.62 207.62 112.272 207.852 111.966C208.084 111.659 208.382 111.419 208.746 111.246C209.11 111.063 209.541 110.972 210.038 110.972C210.51 110.972 210.92 111.055 211.267 111.221C211.623 111.378 211.917 111.602 212.149 111.891C212.381 112.173 212.551 112.496 212.658 112.86C212.774 113.224 212.832 113.614 212.832 114.028C212.832 114.086 212.828 114.168 212.82 114.276C212.82 114.384 212.811 114.491 212.795 114.599H208.547C208.58 115.087 208.746 115.46 209.044 115.717C209.342 115.973 209.723 116.102 210.187 116.102C210.526 116.102 210.837 116.048 211.118 115.94C211.4 115.833 211.656 115.663 211.888 115.431L212.646 116.35C212.389 116.582 212.133 116.768 211.876 116.909C211.619 117.05 211.35 117.153 211.069 117.219C210.795 117.286 210.485 117.319 210.137 117.319ZM211.478 113.903C211.495 113.837 211.503 113.771 211.503 113.705C211.512 113.638 211.516 113.572 211.516 113.506C211.516 113.324 211.483 113.15 211.416 112.984C211.358 112.819 211.267 112.674 211.143 112.55C211.019 112.417 210.866 112.314 210.684 112.239C210.501 112.156 210.294 112.115 210.063 112.115C209.74 112.115 209.466 112.185 209.243 112.326C209.028 112.467 208.858 112.649 208.734 112.873C208.618 113.088 208.547 113.324 208.523 113.58H211.926L211.478 113.903ZM221.35 117.207L221.25 116.176V113.344C221.25 112.947 221.13 112.649 220.89 112.45C220.65 112.243 220.315 112.14 219.884 112.14C219.553 112.14 219.226 112.206 218.903 112.338C218.588 112.463 218.298 112.657 218.033 112.922L217.263 112.016C217.661 111.643 218.083 111.378 218.53 111.221C218.977 111.055 219.466 110.972 219.996 110.972C220.824 110.972 221.465 111.183 221.921 111.606C222.384 112.02 222.616 112.599 222.616 113.344V117.207H221.35ZM219.449 117.319C218.994 117.319 218.588 117.236 218.232 117.07C217.884 116.905 217.611 116.673 217.412 116.375C217.222 116.077 217.127 115.729 217.127 115.332C217.127 114.992 217.197 114.698 217.338 114.45C217.487 114.201 217.677 114.007 217.909 113.866C218.108 113.742 218.34 113.655 218.605 113.605C218.87 113.547 219.147 113.518 219.437 113.518H221.362V114.549H219.636C219.487 114.549 219.337 114.566 219.188 114.599C219.039 114.624 218.907 114.673 218.791 114.748C218.708 114.814 218.638 114.897 218.58 114.996C218.53 115.096 218.505 115.212 218.505 115.344C218.505 115.609 218.605 115.82 218.803 115.977C219.01 116.127 219.284 116.201 219.623 116.201C219.921 116.201 220.19 116.135 220.43 116.002C220.679 115.87 220.878 115.688 221.027 115.456C221.176 115.224 221.25 114.963 221.25 114.673L221.672 115.356C221.573 115.787 221.416 116.151 221.2 116.449C220.985 116.739 220.729 116.959 220.43 117.108C220.132 117.248 219.805 117.319 219.449 117.319ZM225.509 117.319C225.112 117.319 224.781 117.199 224.516 116.959C224.251 116.71 224.118 116.317 224.118 115.779V108.55H225.497V115.506C225.497 115.696 225.538 115.837 225.621 115.928C225.712 116.011 225.828 116.052 225.969 116.052C226.044 116.052 226.118 116.044 226.193 116.027C226.275 116.011 226.358 115.99 226.441 115.965V117.133C226.284 117.199 226.122 117.244 225.957 117.269C225.791 117.302 225.642 117.319 225.509 117.319ZM227.552 117.207V111.084H228.943V112.736L228.682 112.773C228.723 112.417 228.843 112.107 229.042 111.842C229.241 111.568 229.481 111.357 229.762 111.208C230.052 111.051 230.338 110.972 230.619 110.972C230.818 110.972 231.009 110.997 231.191 111.047C231.373 111.096 231.563 111.179 231.762 111.295L231.091 112.537C231 112.479 230.88 112.434 230.731 112.401C230.59 112.359 230.454 112.338 230.321 112.338C230.148 112.338 229.974 112.372 229.8 112.438C229.634 112.504 229.485 112.608 229.353 112.748C229.22 112.881 229.121 113.055 229.055 113.27C229.013 113.386 228.98 113.539 228.955 113.729C228.939 113.912 228.93 114.168 228.93 114.5V117.207H227.552ZM235.11 117.319C234.597 117.319 234.15 117.236 233.769 117.07C233.396 116.905 233.09 116.673 232.85 116.375C232.61 116.077 232.432 115.741 232.316 115.369C232.2 114.988 232.142 114.595 232.142 114.189C232.142 113.783 232.196 113.39 232.303 113.009C232.419 112.62 232.593 112.272 232.825 111.966C233.057 111.659 233.355 111.419 233.719 111.246C234.083 111.063 234.514 110.972 235.011 110.972C235.483 110.972 235.893 111.055 236.24 111.221C236.596 111.378 236.89 111.602 237.122 111.891C237.354 112.173 237.524 112.496 237.631 112.86C237.747 113.224 237.805 113.614 237.805 114.028C237.805 114.086 237.801 114.168 237.793 114.276C237.793 114.384 237.785 114.491 237.768 114.599H233.52C233.554 115.087 233.719 115.46 234.017 115.717C234.315 115.973 234.696 116.102 235.16 116.102C235.499 116.102 235.81 116.048 236.091 115.94C236.373 115.833 236.63 115.663 236.861 115.431L237.619 116.35C237.362 116.582 237.106 116.768 236.849 116.909C236.592 117.05 236.323 117.153 236.042 117.219C235.768 117.286 235.458 117.319 235.11 117.319ZM236.452 113.903C236.468 113.837 236.476 113.771 236.476 113.705C236.485 113.638 236.489 113.572 236.489 113.506C236.489 113.324 236.456 113.15 236.389 112.984C236.331 112.819 236.24 112.674 236.116 112.55C235.992 112.417 235.839 112.314 235.657 112.239C235.475 112.156 235.268 112.115 235.036 112.115C234.713 112.115 234.44 112.185 234.216 112.326C234.001 112.467 233.831 112.649 233.707 112.873C233.591 113.088 233.52 113.324 233.496 113.58H236.899L236.452 113.903ZM243.096 117.207L242.997 116.176V113.344C242.997 112.947 242.877 112.649 242.637 112.45C242.397 112.243 242.061 112.14 241.631 112.14C241.3 112.14 240.973 112.206 240.65 112.338C240.335 112.463 240.045 112.657 239.78 112.922L239.01 112.016C239.408 111.643 239.83 111.378 240.277 111.221C240.724 111.055 241.213 110.972 241.743 110.972C242.571 110.972 243.212 111.183 243.668 111.606C244.131 112.02 244.363 112.599 244.363 113.344V117.207H243.096ZM241.196 117.319C240.741 117.319 240.335 117.236 239.979 117.07C239.631 116.905 239.358 116.673 239.159 116.375C238.969 116.077 238.874 115.729 238.874 115.332C238.874 114.992 238.944 114.698 239.085 114.45C239.234 114.201 239.424 114.007 239.656 113.866C239.855 113.742 240.087 113.655 240.352 113.605C240.617 113.547 240.894 113.518 241.184 113.518H243.109V114.549H241.382C241.233 114.549 241.084 114.566 240.935 114.599C240.786 114.624 240.654 114.673 240.538 114.748C240.455 114.814 240.385 114.897 240.327 114.996C240.277 115.096 240.252 115.212 240.252 115.344C240.252 115.609 240.352 115.82 240.55 115.977C240.757 116.127 241.031 116.201 241.37 116.201C241.668 116.201 241.937 116.135 242.177 116.002C242.426 115.87 242.624 115.688 242.773 115.456C242.922 115.224 242.997 114.963 242.997 114.673L243.419 115.356C243.32 115.787 243.163 116.151 242.947 116.449C242.732 116.739 242.475 116.959 242.177 117.108C241.879 117.248 241.552 117.319 241.196 117.319ZM248.287 117.319C247.741 117.319 247.265 117.182 246.859 116.909C246.461 116.627 246.155 116.247 245.94 115.766C245.725 115.286 245.617 114.744 245.617 114.139C245.617 113.477 245.733 112.91 245.965 112.438C246.205 111.966 246.528 111.606 246.933 111.357C247.339 111.101 247.79 110.972 248.287 110.972C248.635 110.972 248.954 111.043 249.244 111.183C249.542 111.324 249.79 111.531 249.989 111.804C250.196 112.069 250.341 112.396 250.423 112.786L250.1 112.798V108.55H251.479V117.207H250.1V115.506L250.473 115.419C250.365 115.866 250.2 116.23 249.976 116.512C249.761 116.785 249.508 116.988 249.219 117.12C248.929 117.253 248.618 117.319 248.287 117.319ZM248.623 116.052C248.945 116.052 249.227 115.973 249.467 115.816C249.707 115.659 249.893 115.435 250.026 115.145C250.158 114.856 250.225 114.52 250.225 114.139C250.225 113.758 250.158 113.427 250.026 113.146C249.893 112.856 249.707 112.632 249.467 112.475C249.227 112.309 248.945 112.227 248.623 112.227C248.3 112.227 248.014 112.305 247.766 112.463C247.525 112.62 247.335 112.844 247.194 113.133C247.062 113.423 246.996 113.758 246.996 114.139C246.996 114.52 247.062 114.856 247.194 115.145C247.335 115.435 247.525 115.659 247.766 115.816C248.014 115.973 248.3 116.052 248.623 116.052ZM253.629 119.728L254.846 116.797L252.511 111.084H254.026L255.579 115.419L257.156 111.084H258.647L255.119 119.728H253.629ZM262.907 119.741V111.084H264.273V112.786L263.926 112.798C264.033 112.351 264.19 111.995 264.397 111.73C264.613 111.465 264.865 111.274 265.155 111.159C265.453 111.034 265.768 110.972 266.099 110.972C266.645 110.972 267.117 111.113 267.515 111.395C267.912 111.668 268.219 112.045 268.434 112.525C268.657 113.005 268.769 113.547 268.769 114.152C268.769 114.806 268.649 115.373 268.409 115.853C268.169 116.325 267.846 116.69 267.44 116.946C267.043 117.195 266.596 117.319 266.099 117.319C265.751 117.319 265.428 117.253 265.13 117.12C264.84 116.988 264.592 116.789 264.385 116.524C264.186 116.259 264.046 115.936 263.963 115.555L264.273 115.493V119.741H262.907ZM265.764 116.064C266.087 116.064 266.368 115.986 266.608 115.828C266.857 115.671 267.047 115.448 267.18 115.158C267.312 114.868 267.378 114.533 267.378 114.152C267.378 113.771 267.312 113.436 267.18 113.146C267.047 112.856 266.857 112.632 266.608 112.475C266.368 112.318 266.087 112.239 265.764 112.239C265.441 112.239 265.155 112.318 264.907 112.475C264.667 112.632 264.48 112.856 264.348 113.146C264.215 113.436 264.149 113.771 264.149 114.152C264.149 114.533 264.215 114.868 264.348 115.158C264.48 115.439 264.667 115.663 264.907 115.828C265.155 115.986 265.441 116.064 265.764 116.064ZM274.049 117.207L273.95 116.176V113.344C273.95 112.947 273.83 112.649 273.589 112.45C273.349 112.243 273.014 112.14 272.583 112.14C272.252 112.14 271.925 112.206 271.602 112.338C271.288 112.463 270.998 112.657 270.733 112.922L269.963 112.016C270.36 111.643 270.783 111.378 271.23 111.221C271.677 111.055 272.165 110.972 272.695 110.972C273.523 110.972 274.165 111.183 274.62 111.606C275.084 112.02 275.316 112.599 275.316 113.344V117.207H274.049ZM272.149 117.319C271.693 117.319 271.288 117.236 270.932 117.07C270.584 116.905 270.311 116.673 270.112 116.375C269.921 116.077 269.826 115.729 269.826 115.332C269.826 114.992 269.897 114.698 270.037 114.45C270.186 114.201 270.377 114.007 270.609 113.866C270.807 113.742 271.039 113.655 271.304 113.605C271.569 113.547 271.847 113.518 272.136 113.518H274.061V114.549H272.335C272.186 114.549 272.037 114.566 271.888 114.599C271.739 114.624 271.606 114.673 271.49 114.748C271.408 114.814 271.337 114.897 271.279 114.996C271.23 115.096 271.205 115.212 271.205 115.344C271.205 115.609 271.304 115.82 271.503 115.977C271.71 116.127 271.983 116.201 272.323 116.201C272.621 116.201 272.89 116.135 273.13 116.002C273.378 115.87 273.577 115.688 273.726 115.456C273.875 115.224 273.95 114.963 273.95 114.673L274.372 115.356C274.273 115.787 274.115 116.151 273.9 116.449C273.685 116.739 273.428 116.959 273.13 117.108C272.832 117.248 272.505 117.319 272.149 117.319ZM276.843 117.207V111.084H278.221V117.207H276.843ZM276.781 110.078V108.55H278.283V110.078H276.781ZM282.211 117.319C281.665 117.319 281.189 117.182 280.783 116.909C280.386 116.627 280.079 116.247 279.864 115.766C279.649 115.286 279.541 114.744 279.541 114.139C279.541 113.477 279.657 112.91 279.889 112.438C280.129 111.966 280.452 111.606 280.858 111.357C281.263 111.101 281.715 110.972 282.211 110.972C282.559 110.972 282.878 111.043 283.168 111.183C283.466 111.324 283.714 111.531 283.913 111.804C284.12 112.069 284.265 112.396 284.348 112.786L284.025 112.798V108.55H285.403V117.207H284.025V115.506L284.397 115.419C284.29 115.866 284.124 116.23 283.9 116.512C283.685 116.785 283.433 116.988 283.143 117.12C282.853 117.253 282.543 117.319 282.211 117.319ZM282.547 116.052C282.87 116.052 283.151 115.973 283.391 115.816C283.631 115.659 283.818 115.435 283.95 115.145C284.083 114.856 284.149 114.52 284.149 114.139C284.149 113.758 284.083 113.427 283.95 113.146C283.818 112.856 283.631 112.632 283.391 112.475C283.151 112.309 282.87 112.227 282.547 112.227C282.224 112.227 281.938 112.305 281.69 112.463C281.45 112.62 281.259 112.844 281.118 113.133C280.986 113.423 280.92 113.758 280.92 114.139C280.92 114.52 280.986 114.856 281.118 115.145C281.259 115.435 281.45 115.659 281.69 115.816C281.938 115.973 282.224 116.052 282.547 116.052ZM290.73 117.207V112.152H289.562V111.084H290.742V110.389C290.742 109.883 290.825 109.49 290.991 109.209C291.156 108.919 291.376 108.72 291.649 108.612C291.93 108.497 292.241 108.439 292.58 108.439C292.82 108.439 293.032 108.463 293.214 108.513C293.404 108.555 293.582 108.617 293.748 108.699L293.301 109.743C293.218 109.693 293.127 109.656 293.027 109.631C292.936 109.598 292.837 109.581 292.729 109.581C292.506 109.581 292.344 109.656 292.245 109.805C292.154 109.946 292.108 110.14 292.108 110.389V111.084H293.45V112.152H292.108V117.207H290.73ZM297.029 117.319C296.45 117.319 295.928 117.182 295.464 116.909C295.001 116.636 294.636 116.259 294.371 115.779C294.115 115.299 293.986 114.752 293.986 114.139C293.986 113.527 294.115 112.98 294.371 112.5C294.636 112.02 294.997 111.647 295.452 111.382C295.916 111.109 296.441 110.972 297.029 110.972C297.625 110.972 298.147 111.109 298.594 111.382C299.05 111.647 299.41 112.02 299.675 112.5C299.94 112.98 300.072 113.527 300.072 114.139C300.072 114.752 299.94 115.299 299.675 115.779C299.418 116.259 299.058 116.636 298.594 116.909C298.139 117.182 297.617 117.319 297.029 117.319ZM297.042 116.102C297.381 116.102 297.675 116.023 297.924 115.866C298.172 115.708 298.362 115.481 298.495 115.183C298.627 114.885 298.694 114.537 298.694 114.139C298.694 113.734 298.627 113.386 298.495 113.096C298.362 112.798 298.172 112.57 297.924 112.413C297.675 112.256 297.381 112.177 297.042 112.177C296.686 112.177 296.383 112.26 296.135 112.425C295.887 112.583 295.696 112.806 295.564 113.096C295.431 113.386 295.365 113.734 295.365 114.139C295.365 114.537 295.431 114.885 295.564 115.183C295.696 115.481 295.887 115.708 296.135 115.866C296.383 116.023 296.686 116.102 297.042 116.102ZM301.404 117.207V111.084H302.795V112.736L302.534 112.773C302.575 112.417 302.695 112.107 302.894 111.842C303.093 111.568 303.333 111.357 303.615 111.208C303.904 111.051 304.19 110.972 304.471 110.972C304.67 110.972 304.861 110.997 305.043 111.047C305.225 111.096 305.415 111.179 305.614 111.295L304.943 112.537C304.852 112.479 304.732 112.434 304.583 112.401C304.443 112.359 304.306 112.338 304.173 112.338C304 112.338 303.826 112.372 303.652 112.438C303.486 112.504 303.337 112.608 303.205 112.748C303.072 112.881 302.973 113.055 302.907 113.27C302.865 113.386 302.832 113.539 302.807 113.729C302.791 113.912 302.782 114.168 302.782 114.5V117.207H301.404Z" fill="#201C1A"/>
<rect x="90.2595" y="159.748" width="52.7641" height="8.11755" rx="4.05877" fill="#DBDBDB"/>
<rect x="90.2595" y="133.664" width="77.1167" height="8.11755" rx="4.05877" fill="#DBDBDB"/>
<rect x="167.376" y="159.748" width="52.7641" height="8.11755" rx="4.05877" fill="#DBDBDB" fill-opacity="0.5"/>
<rect x="244.493" y="159.748" width="52.7641" height="8.11755" rx="4.05877" fill="#EEEEEE"/>
<rect x="321.61" y="159.748" width="52.7641" height="8.11755" rx="4.05877" fill="#DBDBDB" fill-opacity="0.46"/>
<rect x="90.2595" y="177.021" width="52.7641" height="8.11755" rx="4.05877" fill="#DBDBDB" fill-opacity="0.53"/>
<rect x="90.2587" y="211.256" width="52.7641" height="14" rx="7" fill="#DBDBDB"/>
<rect x="151.001" y="210.998" width="69" height="14" rx="7" fill="#FF6B26"/>
<rect x="167.376" y="177.021" width="47.6906" height="8.11755" rx="4.05877" fill="#DBDBDB" fill-opacity="0.5"/>
<rect x="244.493" y="177.021" width="32.4702" height="8.11755" rx="4.05877" fill="#EEEEEE"/>
<rect x="321.61" y="177.021" width="46.6759" height="8.11755" rx="4.05877" fill="#FDF3F4"/>
<rect x="398.723" y="177.021" width="52.7641" height="8.11755" rx="4.05877" fill="#FFD3B6"/>
<line x1="90.2595" y1="197.663" x2="467.726" y2="197.663" stroke="#E9E9E9" stroke-width="1.01469"/>
<line x1="90.2595" y1="149.383" x2="467.726" y2="149.383" stroke="#E9E9E9" stroke-width="1.01469"/>
<path d="M159.233 220.076C158.845 220.076 158.503 219.986 158.207 219.806C157.915 219.626 157.687 219.372 157.523 219.044C157.359 218.716 157.277 218.336 157.277 217.904C157.277 217.472 157.359 217.094 157.523 216.77C157.687 216.442 157.915 216.188 158.207 216.008C158.503 215.828 158.845 215.738 159.233 215.738C159.661 215.738 160.031 215.844 160.343 216.056C160.659 216.268 160.885 216.562 161.021 216.938L160.451 217.148C160.351 216.888 160.197 216.686 159.989 216.542C159.781 216.394 159.529 216.32 159.233 216.32C158.961 216.32 158.723 216.386 158.519 216.518C158.319 216.646 158.163 216.828 158.051 217.064C157.943 217.296 157.889 217.576 157.889 217.904C157.889 218.232 157.943 218.514 158.051 218.75C158.163 218.986 158.319 219.17 158.519 219.302C158.723 219.43 158.961 219.494 159.233 219.494C159.529 219.494 159.781 219.422 159.989 219.278C160.197 219.13 160.351 218.926 160.451 218.666L161.021 218.87C160.885 219.242 160.659 219.536 160.343 219.752C160.031 219.968 159.661 220.076 159.233 220.076ZM162.965 220.052C162.685 220.052 162.435 219.986 162.215 219.854C161.995 219.722 161.821 219.54 161.693 219.308C161.569 219.076 161.507 218.812 161.507 218.516C161.507 218.22 161.569 217.958 161.693 217.73C161.817 217.498 161.989 217.316 162.209 217.184C162.433 217.052 162.685 216.986 162.965 216.986C163.249 216.986 163.499 217.052 163.715 217.184C163.931 217.316 164.101 217.498 164.225 217.73C164.353 217.958 164.417 218.22 164.417 218.516C164.417 218.812 164.353 219.076 164.225 219.308C164.101 219.536 163.929 219.718 163.709 219.854C163.493 219.986 163.245 220.052 162.965 220.052ZM162.965 219.53C163.141 219.53 163.293 219.488 163.421 219.404C163.553 219.32 163.653 219.202 163.721 219.05C163.793 218.898 163.829 218.72 163.829 218.516C163.829 218.308 163.793 218.128 163.721 217.976C163.653 217.824 163.553 217.708 163.421 217.628C163.293 217.544 163.141 217.502 162.965 217.502C162.785 217.502 162.629 217.544 162.497 217.628C162.369 217.712 162.269 217.83 162.197 217.982C162.129 218.13 162.095 218.308 162.095 218.516C162.095 218.72 162.129 218.898 162.197 219.05C162.269 219.202 162.369 219.32 162.497 219.404C162.629 219.488 162.785 219.53 162.965 219.53ZM165.096 219.998V217.04H165.69V217.682L165.57 217.718C165.622 217.554 165.696 217.42 165.792 217.316C165.892 217.208 166.008 217.126 166.14 217.07C166.276 217.014 166.422 216.986 166.578 216.986C166.906 216.986 167.162 217.082 167.346 217.274C167.534 217.462 167.628 217.738 167.628 218.102V219.998H167.04V218.318C167.04 218.034 166.988 217.826 166.884 217.694C166.784 217.562 166.628 217.496 166.416 217.496C166.256 217.496 166.122 217.532 166.014 217.604C165.91 217.676 165.83 217.79 165.774 217.946C165.718 218.102 165.69 218.3 165.69 218.54V219.998H165.096ZM169.445 220.052C169.301 220.052 169.167 220.024 169.043 219.968C168.923 219.912 168.827 219.822 168.755 219.698C168.687 219.57 168.653 219.406 168.653 219.206V216.284L169.247 215.954V219.05C169.247 219.214 169.271 219.342 169.319 219.434C169.371 219.522 169.465 219.566 169.601 219.566C169.641 219.566 169.687 219.562 169.739 219.554C169.795 219.542 169.855 219.528 169.919 219.512V219.968C169.839 219.996 169.759 220.016 169.679 220.028C169.599 220.044 169.521 220.052 169.445 220.052ZM168.065 217.496V217.04H169.919V217.496H168.065ZM170.522 219.998V217.04H171.11V219.998H170.522ZM170.48 216.53V215.816H171.146V216.53H170.48ZM171.923 219.998V217.04H172.517V217.682L172.397 217.718C172.449 217.554 172.523 217.42 172.619 217.316C172.719 217.208 172.835 217.126 172.967 217.07C173.103 217.014 173.249 216.986 173.405 216.986C173.733 216.986 173.989 217.082 174.173 217.274C174.361 217.462 174.455 217.738 174.455 218.102V219.998H173.867V218.318C173.867 218.034 173.815 217.826 173.711 217.694C173.611 217.562 173.455 217.496 173.243 217.496C173.083 217.496 172.949 217.532 172.841 217.604C172.737 217.676 172.657 217.79 172.601 217.946C172.545 218.102 172.517 218.3 172.517 218.54V219.998H171.923ZM176.253 220.052C176.033 220.052 175.843 220.008 175.683 219.92C175.527 219.828 175.407 219.698 175.323 219.53C175.243 219.358 175.203 219.15 175.203 218.906V217.04H175.791V218.72C175.791 218.896 175.813 219.046 175.857 219.17C175.901 219.29 175.969 219.382 176.061 219.446C176.157 219.506 176.277 219.536 176.421 219.536C176.589 219.536 176.725 219.494 176.829 219.41C176.937 219.326 177.017 219.202 177.069 219.038C177.121 218.87 177.147 218.662 177.147 218.414V217.04H177.729V219.998H177.147V219.362L177.267 219.386C177.179 219.606 177.045 219.772 176.865 219.884C176.685 219.996 176.481 220.052 176.253 220.052ZM179.827 220.052C179.587 220.052 179.379 220.012 179.203 219.932C179.027 219.852 178.881 219.742 178.765 219.602C178.649 219.458 178.561 219.296 178.501 219.116C178.445 218.932 178.417 218.74 178.417 218.54C178.417 218.34 178.445 218.148 178.501 217.964C178.557 217.776 178.641 217.61 178.753 217.466C178.865 217.318 179.005 217.202 179.173 217.118C179.345 217.03 179.547 216.986 179.779 216.986C180.011 216.986 180.211 217.026 180.379 217.106C180.547 217.182 180.685 217.29 180.793 217.43C180.901 217.566 180.981 217.72 181.033 217.892C181.089 218.064 181.117 218.246 181.117 218.438C181.117 218.458 181.115 218.496 181.111 218.552C181.111 218.604 181.107 218.654 181.099 218.702H179.005C179.017 218.966 179.097 219.17 179.245 219.314C179.397 219.454 179.597 219.524 179.845 219.524C180.013 219.524 180.163 219.498 180.295 219.446C180.427 219.39 180.549 219.304 180.661 219.188L181.021 219.56C180.905 219.676 180.785 219.77 180.661 219.842C180.541 219.914 180.413 219.966 180.277 219.998C180.145 220.034 179.995 220.052 179.827 220.052ZM180.535 218.408C180.543 218.376 180.547 218.344 180.547 218.312C180.551 218.28 180.553 218.248 180.553 218.216C180.553 218.124 180.537 218.034 180.505 217.946C180.473 217.858 180.425 217.78 180.361 217.712C180.297 217.64 180.217 217.584 180.121 217.544C180.029 217.5 179.921 217.478 179.797 217.478C179.633 217.478 179.493 217.516 179.377 217.592C179.261 217.664 179.171 217.76 179.107 217.88C179.047 218 179.011 218.13 178.999 218.27H180.727L180.535 218.408ZM184.386 220.052C184.242 220.052 184.108 220.024 183.984 219.968C183.864 219.912 183.768 219.822 183.696 219.698C183.628 219.57 183.594 219.406 183.594 219.206V216.284L184.188 215.954V219.05C184.188 219.214 184.212 219.342 184.26 219.434C184.312 219.522 184.406 219.566 184.542 219.566C184.582 219.566 184.628 219.562 184.68 219.554C184.736 219.542 184.796 219.528 184.86 219.512V219.968C184.78 219.996 184.7 220.016 184.62 220.028C184.54 220.044 184.462 220.052 184.386 220.052ZM183.006 217.496V217.04H184.86V217.496H183.006ZM186.731 220.052C186.451 220.052 186.201 219.986 185.981 219.854C185.761 219.722 185.587 219.54 185.459 219.308C185.335 219.076 185.273 218.812 185.273 218.516C185.273 218.22 185.335 217.958 185.459 217.73C185.583 217.498 185.755 217.316 185.975 217.184C186.199 217.052 186.451 216.986 186.731 216.986C187.015 216.986 187.265 217.052 187.481 217.184C187.697 217.316 187.867 217.498 187.991 217.73C188.119 217.958 188.183 218.22 188.183 218.516C188.183 218.812 188.119 219.076 187.991 219.308C187.867 219.536 187.695 219.718 187.475 219.854C187.259 219.986 187.011 220.052 186.731 220.052ZM186.731 219.53C186.907 219.53 187.059 219.488 187.187 219.404C187.319 219.32 187.419 219.202 187.487 219.05C187.559 218.898 187.595 218.72 187.595 218.516C187.595 218.308 187.559 218.128 187.487 217.976C187.419 217.824 187.319 217.708 187.187 217.628C187.059 217.544 186.907 217.502 186.731 217.502C186.551 217.502 186.395 217.544 186.263 217.628C186.135 217.712 186.035 217.83 185.963 217.982C185.895 218.13 185.861 218.308 185.861 218.516C185.861 218.72 185.895 218.898 185.963 219.05C186.035 219.202 186.135 219.32 186.263 219.404C186.395 219.488 186.551 219.53 186.731 219.53ZM190.421 221.222V217.04H191.009V217.892L190.841 217.838C190.893 217.642 190.969 217.482 191.069 217.358C191.173 217.234 191.297 217.142 191.441 217.082C191.585 217.018 191.745 216.986 191.921 216.986C192.185 216.986 192.415 217.054 192.611 217.19C192.811 217.322 192.965 217.504 193.073 217.736C193.181 217.968 193.235 218.23 193.235 218.522C193.235 218.834 193.177 219.106 193.061 219.338C192.945 219.566 192.787 219.742 192.587 219.866C192.387 219.99 192.165 220.052 191.921 220.052C191.745 220.052 191.583 220.018 191.435 219.95C191.291 219.882 191.169 219.788 191.069 219.668C190.969 219.544 190.899 219.398 190.859 219.23L191.009 219.146V221.222H190.421ZM191.795 219.512C191.967 219.512 192.115 219.472 192.239 219.392C192.367 219.308 192.467 219.192 192.539 219.044C192.611 218.892 192.647 218.718 192.647 218.522C192.647 218.326 192.611 218.154 192.539 218.006C192.467 217.854 192.367 217.736 192.239 217.652C192.115 217.568 191.967 217.526 191.795 217.526C191.627 217.526 191.479 217.568 191.351 217.652C191.227 217.736 191.129 217.854 191.057 218.006C190.989 218.154 190.955 218.326 190.955 218.522C190.955 218.718 190.989 218.892 191.057 219.044C191.129 219.192 191.227 219.308 191.351 219.392C191.479 219.472 191.627 219.512 191.795 219.512ZM195.851 219.998L195.803 219.452V218.138C195.803 217.93 195.743 217.77 195.623 217.658C195.503 217.546 195.329 217.49 195.101 217.49C194.941 217.49 194.787 217.522 194.639 217.586C194.495 217.65 194.357 217.754 194.225 217.898L193.859 217.52C194.035 217.336 194.229 217.202 194.441 217.118C194.657 217.03 194.891 216.986 195.143 216.986C195.539 216.986 195.845 217.088 196.061 217.292C196.281 217.492 196.391 217.774 196.391 218.138V219.998H195.851ZM194.897 220.052C194.677 220.052 194.483 220.012 194.315 219.932C194.147 219.852 194.017 219.742 193.925 219.602C193.833 219.458 193.787 219.292 193.787 219.104C193.787 218.94 193.821 218.8 193.889 218.684C193.957 218.564 194.045 218.472 194.153 218.408C194.253 218.344 194.367 218.3 194.495 218.276C194.627 218.248 194.767 218.234 194.915 218.234H195.857V218.678H194.999C194.919 218.678 194.835 218.686 194.747 218.702C194.663 218.714 194.591 218.742 194.531 218.786C194.483 218.822 194.445 218.868 194.417 218.924C194.389 218.976 194.375 219.038 194.375 219.11C194.375 219.25 194.429 219.362 194.537 219.446C194.645 219.53 194.789 219.572 194.969 219.572C195.121 219.572 195.259 219.538 195.383 219.47C195.511 219.398 195.613 219.302 195.689 219.182C195.765 219.058 195.803 218.918 195.803 218.762L196.013 219.038C195.977 219.246 195.907 219.428 195.803 219.584C195.699 219.736 195.569 219.852 195.413 219.932C195.261 220.012 195.089 220.052 194.897 220.052ZM197.37 221.216L197.946 219.824L196.806 217.04H197.454L198.258 219.236L199.074 217.04H199.71L198.012 221.216H197.37ZM200.253 219.998V217.04H200.847V217.802L200.721 217.844C200.757 217.688 200.807 217.556 200.871 217.448C200.935 217.34 201.009 217.252 201.093 217.184C201.181 217.116 201.275 217.066 201.375 217.034C201.475 217.002 201.577 216.986 201.681 216.986C201.853 216.986 202.007 217.02 202.143 217.088C202.283 217.152 202.399 217.254 202.491 217.394C202.587 217.53 202.651 217.71 202.683 217.934L202.347 218C202.407 217.768 202.485 217.578 202.581 217.43C202.681 217.282 202.801 217.172 202.941 217.1C203.085 217.024 203.249 216.986 203.433 216.986C203.681 216.986 203.879 217.042 204.027 217.154C204.179 217.266 204.289 217.412 204.357 217.592C204.429 217.768 204.465 217.962 204.465 218.174V219.998H203.883V218.318C203.883 218.146 203.863 218 203.823 217.88C203.783 217.756 203.721 217.662 203.637 217.598C203.553 217.53 203.441 217.496 203.301 217.496C203.165 217.496 203.049 217.532 202.953 217.604C202.857 217.672 202.783 217.776 202.731 217.916C202.683 218.056 202.659 218.23 202.659 218.438V219.998H202.071V218.282C202.071 218.018 202.021 217.822 201.921 217.694C201.825 217.562 201.685 217.496 201.501 217.496C201.365 217.496 201.247 217.532 201.147 217.604C201.051 217.672 200.977 217.776 200.925 217.916C200.873 218.056 200.847 218.23 200.847 218.438V219.998H200.253ZM206.523 220.052C206.283 220.052 206.075 220.012 205.899 219.932C205.723 219.852 205.577 219.742 205.461 219.602C205.345 219.458 205.257 219.296 205.197 219.116C205.141 218.932 205.113 218.74 205.113 218.54C205.113 218.34 205.141 218.148 205.197 217.964C205.253 217.776 205.337 217.61 205.449 217.466C205.561 217.318 205.701 217.202 205.869 217.118C206.041 217.03 206.243 216.986 206.475 216.986C206.707 216.986 206.907 217.026 207.075 217.106C207.243 217.182 207.381 217.29 207.489 217.43C207.597 217.566 207.677 217.72 207.729 217.892C207.785 218.064 207.813 218.246 207.813 218.438C207.813 218.458 207.811 218.496 207.807 218.552C207.807 218.604 207.803 218.654 207.795 218.702H205.701C205.713 218.966 205.793 219.17 205.941 219.314C206.093 219.454 206.293 219.524 206.541 219.524C206.709 219.524 206.859 219.498 206.991 219.446C207.123 219.39 207.245 219.304 207.357 219.188L207.717 219.56C207.601 219.676 207.481 219.77 207.357 219.842C207.237 219.914 207.109 219.966 206.973 219.998C206.841 220.034 206.691 220.052 206.523 220.052ZM207.231 218.408C207.239 218.376 207.243 218.344 207.243 218.312C207.247 218.28 207.249 218.248 207.249 218.216C207.249 218.124 207.233 218.034 207.201 217.946C207.169 217.858 207.121 217.78 207.057 217.712C206.993 217.64 206.913 217.584 206.817 217.544C206.725 217.5 206.617 217.478 206.493 217.478C206.329 217.478 206.189 217.516 206.073 217.592C205.957 217.664 205.867 217.76 205.803 217.88C205.743 218 205.707 218.13 205.695 218.27H207.423L207.231 218.408ZM208.491 219.998V217.04H209.085V217.682L208.965 217.718C209.017 217.554 209.091 217.42 209.187 217.316C209.287 217.208 209.403 217.126 209.535 217.07C209.671 217.014 209.817 216.986 209.973 216.986C210.301 216.986 210.557 217.082 210.741 217.274C210.929 217.462 211.023 217.738 211.023 218.102V219.998H210.435V218.318C210.435 218.034 210.383 217.826 210.279 217.694C210.179 217.562 210.023 217.496 209.811 217.496C209.651 217.496 209.517 217.532 209.409 217.604C209.305 217.676 209.225 217.79 209.169 217.946C209.113 218.102 209.085 218.3 209.085 218.54V219.998H208.491ZM212.839 220.052C212.695 220.052 212.561 220.024 212.437 219.968C212.317 219.912 212.221 219.822 212.149 219.698C212.081 219.57 212.047 219.406 212.047 219.206V216.284L212.641 215.954V219.05C212.641 219.214 212.665 219.342 212.713 219.434C212.765 219.522 212.859 219.566 212.995 219.566C213.035 219.566 213.081 219.562 213.133 219.554C213.189 219.542 213.249 219.528 213.313 219.512V219.968C213.233 219.996 213.153 220.016 213.073 220.028C212.993 220.044 212.915 220.052 212.839 220.052ZM211.459 217.496V217.04H213.313V217.496H211.459Z" fill="white"/>
<g filter="url(#filter0_d_8014_1533)">
<path d="M194.377 223.976C194.315 223.68 194.632 223.45 194.895 223.6L205.35 229.592C205.616 229.745 205.572 230.141 205.278 230.231L200.204 231.792C200.125 231.816 200.058 231.867 200.013 231.936L197.473 235.848C197.303 236.111 196.901 236.036 196.837 235.729L194.377 223.976Z" fill="#201C1A"/>
<path d="M194.72 223.904L205.175 229.896L200.101 231.457C199.944 231.506 199.809 231.608 199.719 231.745L197.18 235.658L194.72 223.904Z" stroke="white" stroke-width="0.70093"/>
</g>
</g>
</g>
<defs>
<filter id="filter0_d_8014_1533" x="192.968" y="222.852" width="13.9601" height="15.2588" filterUnits="userSpaceOnUse" color-interpolation-filters="sRGB">
<feFlood flood-opacity="0" result="BackgroundImageFix"/>
<feColorMatrix in="SourceAlpha" type="matrix" values="0 0 0 0 0 0 0 0 0 0 0 0 0 0 0 0 0 0 127 0" result="hardAlpha"/>
<feOffset dy="0.70093"/>
<feGaussianBlur stdDeviation="0.70093"/>
<feColorMatrix type="matrix" values="0 0 0 0 0 0 0 0 0 0 0 0 0 0 0 0 0 0 0.28 0"/>
<feBlend mode="normal" in2="BackgroundImageFix" result="effect1_dropShadow_8014_1533"/>
<feBlend mode="normal" in="SourceGraphic" in2="effect1_dropShadow_8014_1533" result="shape"/>
</filter>
<clipPath id="clip0_8014_1533">
<rect width="457" height="276" fill="white"/>
</clipPath>
<clipPath id="clip1_8014_1533">
<rect x="70.9785" y="51" width="413.995" height="387.085" rx="16.8484" fill="white"/>
</clipPath>
</defs>
</svg>
