<svg width="457" height="276" viewBox="0 0 457 276" fill="none" xmlns="http://www.w3.org/2000/svg">
<g clip-path="url(#clip0_8014_1430)">
<path d="M0 8.00001C0 3.58173 3.58172 0 8 0H449C453.418 0 457 3.58172 457 8V278H0V8.00001Z" fill="#002252"/>
<g clip-path="url(#clip1_8014_1430)">
<rect x="68" y="51" width="400.385" height="374.36" rx="16.2945" fill="white"/>
<mask id="path-3-inside-1_8014_1430" fill="white">
<path d="M66.999 51H453.37V88.0356H66.999V51Z"/>
</mask>
<path d="M66.999 51H453.37V88.0356H66.999V51Z" fill="white"/>
<path d="M453.37 87.2209H66.999V88.8503H453.37V87.2209Z" fill="#E9E9E9" mask="url(#path-3-inside-1_8014_1430)"/>
<path d="M87.5934 74.748V66.376H89.9957C91.3731 66.376 92.4421 66.7484 93.2028 67.4931C93.9635 68.2298 94.3439 69.2748 94.3439 70.6281C94.3439 71.9574 93.9675 72.9783 93.2148 73.691C92.4701 74.3957 91.3931 74.748 89.9837 74.748H87.5934ZM88.9868 73.4748H89.8516C90.5002 73.4748 91.0567 73.3867 91.5212 73.2106C91.9856 73.0264 92.338 72.7221 92.5782 72.2977C92.8184 71.8733 92.9386 71.3007 92.9386 70.58C92.9386 69.8593 92.8184 69.2868 92.5782 68.8624C92.346 68.43 92.0057 68.1217 91.5572 67.9375C91.1168 67.7453 90.5883 67.6492 89.9717 67.6492H88.9868V73.4748ZM98.3051 74.8562C97.7446 74.8562 97.2401 74.724 96.7916 74.4598C96.3432 74.1955 95.9909 73.8312 95.7346 73.3667C95.4864 72.9023 95.3623 72.3738 95.3623 71.7812C95.3623 71.1886 95.4864 70.6601 95.7346 70.1957C95.9909 69.7312 96.3392 69.3709 96.7796 69.1146C97.2281 68.8504 97.7365 68.7183 98.3051 68.7183C98.8816 68.7183 99.3861 68.8504 99.8185 69.1146C100.259 69.3709 100.607 69.7312 100.864 70.1957C101.12 70.6601 101.248 71.1886 101.248 71.7812C101.248 72.3738 101.12 72.9023 100.864 73.3667C100.615 73.8312 100.267 74.1955 99.8185 74.4598C99.3781 74.724 98.8736 74.8562 98.3051 74.8562ZM98.3171 73.679C98.6454 73.679 98.9297 73.6029 99.1699 73.4508C99.4102 73.2987 99.5943 73.0784 99.7225 72.7902C99.8506 72.5019 99.9146 72.1656 99.9146 71.7812C99.9146 71.3888 99.8506 71.0525 99.7225 70.7722C99.5943 70.4839 99.4102 70.2637 99.1699 70.1116C98.9297 69.9594 98.6454 69.8834 98.3171 69.8834C97.9728 69.8834 97.6805 69.9634 97.4403 70.1236C97.2 70.2757 97.0159 70.492 96.8877 70.7722C96.7596 71.0525 96.6955 71.3888 96.6955 71.7812C96.6955 72.1656 96.7596 72.5019 96.8877 72.7902C97.0159 73.0784 97.2 73.2987 97.4403 73.4508C97.6805 73.6029 97.9728 73.679 98.3171 73.679ZM105.094 74.8562C104.63 74.8562 104.217 74.7761 103.857 74.6159C103.505 74.4478 103.208 74.2195 102.968 73.9313C102.736 73.635 102.56 73.3027 102.44 72.9343C102.32 72.5659 102.26 72.1816 102.26 71.7812C102.26 71.3808 102.32 70.9964 102.44 70.6281C102.56 70.2597 102.736 69.9314 102.968 69.6431C103.208 69.3549 103.505 69.1306 103.857 68.9705C104.217 68.8023 104.63 68.7183 105.094 68.7183C105.679 68.7183 106.187 68.8584 106.62 69.1387C107.06 69.4189 107.384 69.8513 107.593 70.4359L106.416 70.8923C106.319 70.588 106.163 70.3438 105.947 70.1596C105.731 69.9675 105.447 69.8714 105.094 69.8714C104.742 69.8714 104.454 69.9634 104.229 70.1476C104.013 70.3318 103.853 70.568 103.749 70.8563C103.645 71.1446 103.593 71.4529 103.593 71.7812C103.593 72.1095 103.645 72.4218 103.749 72.7181C103.853 73.0064 104.013 73.2426 104.229 73.4268C104.454 73.6029 104.742 73.691 105.094 73.691C105.447 73.691 105.731 73.5989 105.947 73.4148C106.163 73.2306 106.319 72.9864 106.416 72.6821L107.593 73.1385C107.384 73.7151 107.06 74.1475 106.62 74.4357C106.187 74.716 105.679 74.8562 105.094 74.8562ZM110.854 74.8562C110.389 74.8562 109.997 74.7641 109.676 74.5799C109.364 74.3957 109.128 74.1315 108.968 73.7871C108.808 73.4428 108.728 73.0264 108.728 72.5379V68.8264H110.061V72.1776C110.061 72.4899 110.097 72.7621 110.169 72.9944C110.249 73.2186 110.373 73.3907 110.541 73.5109C110.717 73.631 110.954 73.691 111.25 73.691C111.594 73.691 111.863 73.6029 112.055 73.4268C112.255 73.2426 112.395 72.9783 112.475 72.634C112.563 72.2817 112.607 71.8613 112.607 71.3728V68.8264H113.941V74.748H112.607V73.4748L112.835 73.5589C112.651 74.0073 112.383 74.3357 112.031 74.5439C111.686 74.7521 111.294 74.8562 110.854 74.8562ZM115.509 74.748V68.8264H116.842V70.3638L116.554 70.532C116.626 70.1877 116.726 69.8994 116.854 69.6672C116.991 69.4349 117.147 69.2508 117.323 69.1146C117.499 68.9705 117.687 68.8704 117.887 68.8143C118.096 68.7503 118.304 68.7183 118.512 68.7183C118.832 68.7183 119.133 68.7823 119.413 68.9104C119.693 69.0306 119.929 69.2307 120.122 69.511C120.322 69.7833 120.458 70.1556 120.53 70.6281L119.749 70.8443C119.869 70.3318 120.038 69.9234 120.254 69.6191C120.47 69.3068 120.722 69.0786 121.01 68.9345C121.307 68.7903 121.627 68.7183 121.971 68.7183C122.476 68.7183 122.88 68.8304 123.185 69.0546C123.497 69.2708 123.725 69.5591 123.869 69.9194C124.013 70.2717 124.085 70.6521 124.085 71.0605V74.748H122.752V71.3848C122.752 71.0565 122.712 70.7802 122.632 70.556C122.56 70.3318 122.444 70.1636 122.284 70.0515C122.124 69.9314 121.919 69.8714 121.671 69.8714C121.407 69.8714 121.187 69.9394 121.01 70.0756C120.834 70.2037 120.698 70.4039 120.602 70.6761C120.514 70.9484 120.47 71.2847 120.47 71.6851V74.748H119.137V71.3248C119.137 70.8363 119.045 70.4719 118.86 70.2317C118.676 69.9915 118.416 69.8714 118.08 69.8714C117.815 69.8714 117.591 69.9394 117.407 70.0756C117.223 70.2117 117.083 70.4159 116.987 70.6881C116.891 70.9524 116.842 71.2847 116.842 71.6851V74.748H115.509ZM128.168 74.8562C127.672 74.8562 127.239 74.7761 126.871 74.6159C126.51 74.4558 126.214 74.2316 125.982 73.9433C125.75 73.655 125.578 73.3307 125.465 72.9703C125.353 72.602 125.297 72.2216 125.297 71.8292C125.297 71.4369 125.349 71.0565 125.453 70.6881C125.566 70.3118 125.734 69.9755 125.958 69.6792C126.182 69.3829 126.47 69.1507 126.823 68.9825C127.175 68.8063 127.591 68.7183 128.072 68.7183C128.528 68.7183 128.925 68.7983 129.261 68.9585C129.605 69.1106 129.89 69.3268 130.114 69.6071C130.338 69.8794 130.502 70.1917 130.606 70.544C130.718 70.8963 130.775 71.2727 130.775 71.6731C130.775 71.7291 130.771 71.8092 130.763 71.9133C130.763 72.0174 130.755 72.1215 130.739 72.2256H126.631C126.663 72.6981 126.823 73.0584 127.111 73.3067C127.399 73.5549 127.768 73.679 128.216 73.679C128.544 73.679 128.845 73.627 129.117 73.5229C129.389 73.4188 129.637 73.2546 129.862 73.0304L130.594 73.9193C130.346 74.1435 130.098 74.3236 129.85 74.4598C129.601 74.5959 129.341 74.696 129.069 74.7601C128.805 74.8241 128.504 74.8562 128.168 74.8562ZM129.465 71.553C129.481 71.4889 129.489 71.4249 129.489 71.3608C129.497 71.2967 129.501 71.2327 129.501 71.1686C129.501 70.9924 129.469 70.8243 129.405 70.6641C129.349 70.504 129.261 70.3638 129.141 70.2437C129.021 70.1156 128.873 70.0155 128.697 69.9434C128.52 69.8634 128.32 69.8233 128.096 69.8233C127.784 69.8233 127.519 69.8914 127.303 70.0275C127.095 70.1636 126.931 70.3398 126.811 70.556C126.699 70.7642 126.631 70.9924 126.607 71.2407H129.898L129.465 71.553ZM132.072 74.748V68.8264H133.405V70.1356L133.165 70.1957C133.269 69.8513 133.421 69.5711 133.621 69.3549C133.822 69.1387 134.054 68.9785 134.318 68.8744C134.59 68.7703 134.875 68.7183 135.171 68.7183C135.836 68.7183 136.352 68.9104 136.72 69.2948C137.097 69.6712 137.285 70.2117 137.285 70.9164V74.748H135.952V71.4088C135.952 70.8803 135.856 70.492 135.663 70.2437C135.471 69.9955 135.175 69.8714 134.775 69.8714C134.478 69.8714 134.226 69.9434 134.018 70.0876C133.818 70.2237 133.666 70.4399 133.561 70.7362C133.457 71.0325 133.405 71.4088 133.405 71.8653V74.748H132.072ZM140.932 74.8562C140.635 74.8562 140.355 74.8001 140.091 74.688C139.835 74.5679 139.63 74.3797 139.478 74.1234C139.326 73.8592 139.25 73.5149 139.25 73.0905V67.385L140.595 66.6403V72.7181C140.595 73.0544 140.643 73.3147 140.739 73.4988C140.844 73.675 141.028 73.7631 141.292 73.7631C141.372 73.7631 141.464 73.7551 141.568 73.7391C141.68 73.7151 141.796 73.687 141.917 73.655V74.688C141.756 74.744 141.592 74.7841 141.424 74.8081C141.264 74.8401 141.1 74.8562 140.932 74.8562ZM138.121 69.8593V68.8264H141.917V69.8593H138.121ZM146.23 74.748V66.376H147.563V70.1356L147.323 70.1957C147.427 69.8513 147.579 69.5711 147.78 69.3549C147.988 69.1387 148.224 68.9785 148.488 68.8744C148.753 68.7703 149.033 68.7183 149.329 68.7183C149.994 68.7183 150.51 68.9104 150.879 69.2948C151.255 69.6712 151.443 70.2117 151.443 70.9164V74.748H150.11V71.4088C150.11 70.8803 150.014 70.492 149.822 70.2437C149.629 69.9955 149.333 69.8714 148.933 69.8714C148.484 69.8714 148.144 70.0315 147.912 70.3518C147.68 70.6721 147.563 71.1766 147.563 71.8653V74.748H146.23ZM154.994 74.8562C154.529 74.8562 154.137 74.7641 153.817 74.5799C153.504 74.3957 153.268 74.1315 153.108 73.7871C152.948 73.4428 152.868 73.0264 152.868 72.5379V68.8264H154.201V72.1776C154.201 72.4899 154.237 72.7621 154.309 72.9944C154.389 73.2186 154.513 73.3907 154.681 73.5109C154.858 73.631 155.094 73.691 155.39 73.691C155.734 73.691 156.003 73.6029 156.195 73.4268C156.395 73.2426 156.535 72.9783 156.615 72.634C156.703 72.2817 156.747 71.8613 156.747 71.3728V68.8264H158.081V74.748H156.747V73.4748L156.976 73.5589C156.791 74.0073 156.523 74.3357 156.171 74.5439C155.826 74.7521 155.434 74.8562 154.994 74.8562ZM162.736 74.8562C162.416 74.8562 162.112 74.7921 161.823 74.664C161.543 74.5358 161.299 74.3397 161.091 74.0754C160.882 73.8031 160.726 73.4508 160.622 73.0184L160.971 73.1025V74.748H159.649V66.376H160.971V70.4839H160.67C160.75 70.1076 160.886 69.7913 161.079 69.535C161.279 69.2708 161.519 69.0706 161.799 68.9345C162.088 68.7903 162.4 68.7183 162.736 68.7183C163.217 68.7183 163.649 68.8424 164.033 69.0906C164.426 69.3308 164.738 69.6792 164.97 70.1356C165.203 70.5921 165.319 71.1406 165.319 71.7812C165.319 72.3658 165.211 72.8903 164.994 73.3547C164.786 73.8192 164.49 74.1875 164.106 74.4598C163.721 74.724 163.265 74.8562 162.736 74.8562ZM162.412 73.631C162.724 73.631 162.996 73.5549 163.229 73.4028C163.469 73.2506 163.653 73.0344 163.781 72.7541C163.909 72.4739 163.973 72.1495 163.973 71.7812C163.973 71.4128 163.909 71.0885 163.781 70.8083C163.653 70.528 163.469 70.3118 163.229 70.1596C162.996 70.0075 162.724 69.9314 162.412 69.9314C162.1 69.9314 161.823 70.0115 161.583 70.1716C161.351 70.3238 161.171 70.54 161.043 70.8203C160.914 71.0925 160.85 71.4128 160.85 71.7812C160.85 72.1495 160.914 72.4739 161.043 72.7541C161.171 73.0344 161.351 73.2506 161.583 73.4028C161.823 73.5549 162.1 73.631 162.412 73.631Z" fill="#201C1A"/>
<rect x="84.6827" y="105.555" width="98.1335" height="13.7387" rx="6.86935" fill="#DBDBDB"/>
<rect x="84.6836" y="128.188" width="236.502" height="8" rx="4" fill="#DBDBDB" fill-opacity="0.5"/>
<rect x="85" y="142" width="149" height="8" rx="4" fill="#DBDBDB" fill-opacity="0.3"/>
<rect x="96.4587" y="212.717" width="60.8428" height="6.86935" rx="3.43467" fill="#DBDBDB"/>
<rect x="305.485" y="212.717" width="60.8428" height="6.86935" rx="3.43467" fill="#DBDBDB"/>
<rect x="96.4587" y="260.801" width="62.8055" height="14.72" rx="7.36001" fill="#ECECEC"/>
<rect x="305.485" y="260.801" width="62.8055" height="14.72" rx="7.36001" fill="#DBDBDB" fill-opacity="0.52"/>
<rect x="96.4587" y="223.512" width="35.3281" height="6.86935" rx="3.43467" fill="#DBDBDB" fill-opacity="0.55"/>
<rect x="305.485" y="223.512" width="35.3281" height="6.86935" rx="3.43467" fill="#DBDBDB" fill-opacity="0.54"/>
<rect x="85.0901" y="167.001" width="196.434" height="119.89" rx="6.11042" stroke="#D9E2EC" stroke-width="0.814723"/>
<rect x="294.112" y="167.001" width="196.434" height="119.89" rx="6.11042" stroke="#D9E2EC" stroke-width="0.814723"/>
<path d="M97.389 190.377V182.169H99.8385C100.726 182.169 101.401 182.365 101.864 182.758C102.335 183.15 102.57 183.727 102.57 184.489C102.57 185.25 102.335 185.835 101.864 186.244C101.393 186.644 100.718 186.844 99.8385 186.844H98.4136V190.377H97.389ZM98.4136 185.926H99.7325C100.298 185.926 100.737 185.812 101.051 185.584C101.373 185.349 101.534 184.987 101.534 184.501C101.534 184.022 101.377 183.669 101.063 183.441C100.757 183.213 100.313 183.099 99.7325 183.099H98.4136V185.926ZM107.459 190.377L107.388 189.211V186.738C107.388 186.291 107.262 185.945 107.011 185.702C106.768 185.459 106.403 185.337 105.916 185.337C105.602 185.337 105.307 185.404 105.033 185.537C104.758 185.663 104.491 185.879 104.232 186.185L103.514 185.572C103.835 185.196 104.204 184.921 104.621 184.748C105.037 184.567 105.492 184.477 105.987 184.477C106.748 184.477 107.337 184.673 107.753 185.066C108.169 185.459 108.377 186.016 108.377 186.738V190.377H107.459ZM105.539 190.471C105.099 190.471 104.715 190.397 104.385 190.247C104.063 190.09 103.812 189.875 103.631 189.6C103.459 189.325 103.372 189.007 103.372 188.646C103.372 188.324 103.435 188.053 103.561 187.833C103.694 187.606 103.863 187.429 104.067 187.303C104.271 187.17 104.503 187.08 104.762 187.033C105.029 186.978 105.307 186.95 105.598 186.95H107.482V187.704H105.739C105.567 187.704 105.386 187.719 105.198 187.751C105.009 187.782 104.844 187.849 104.703 187.951C104.601 188.03 104.518 188.128 104.456 188.245C104.401 188.363 104.373 188.501 104.373 188.658C104.373 188.964 104.487 189.207 104.715 189.388C104.942 189.568 105.249 189.659 105.633 189.659C105.955 189.659 106.246 189.584 106.505 189.435C106.772 189.286 106.984 189.082 107.141 188.823C107.305 188.556 107.388 188.257 107.388 187.928L107.8 188.351C107.753 188.768 107.627 189.137 107.423 189.458C107.219 189.78 106.956 190.032 106.634 190.212C106.32 190.385 105.955 190.471 105.539 190.471ZM111.922 190.471C111.53 190.471 111.176 190.412 110.862 190.295C110.548 190.177 110.277 190.02 110.05 189.823C109.83 189.627 109.653 189.419 109.52 189.199L110.215 188.611C110.364 188.909 110.584 189.156 110.874 189.352C111.172 189.541 111.526 189.635 111.934 189.635C112.303 189.635 112.597 189.557 112.817 189.4C113.037 189.243 113.147 189.031 113.147 188.764C113.147 188.544 113.08 188.371 112.947 188.245C112.813 188.12 112.637 188.018 112.417 187.939C112.197 187.861 111.957 187.79 111.698 187.727C111.479 187.672 111.255 187.606 111.027 187.527C110.807 187.449 110.607 187.351 110.427 187.233C110.246 187.115 110.101 186.962 109.991 186.773C109.881 186.585 109.826 186.353 109.826 186.079C109.826 185.6 110.01 185.215 110.379 184.925C110.756 184.626 111.247 184.477 111.851 184.477C112.291 184.477 112.691 184.571 113.053 184.76C113.422 184.94 113.708 185.215 113.912 185.584L113.276 186.055C113.119 185.78 112.911 185.584 112.652 185.466C112.401 185.341 112.122 185.278 111.816 185.278C111.51 185.278 111.255 185.341 111.051 185.466C110.847 185.592 110.745 185.765 110.745 185.984C110.745 186.149 110.792 186.283 110.886 186.385C110.98 186.487 111.117 186.573 111.298 186.644C111.486 186.715 111.714 186.781 111.981 186.844C112.224 186.899 112.472 186.966 112.723 187.044C112.974 187.123 113.206 187.225 113.418 187.351C113.63 187.476 113.798 187.645 113.924 187.857C114.058 188.061 114.124 188.328 114.124 188.658C114.124 189.019 114.034 189.337 113.853 189.612C113.673 189.886 113.418 190.098 113.088 190.247C112.758 190.397 112.37 190.471 111.922 190.471ZM117.454 190.471C117.061 190.471 116.708 190.412 116.394 190.295C116.08 190.177 115.809 190.02 115.581 189.823C115.361 189.627 115.185 189.419 115.051 189.199L115.746 188.611C115.895 188.909 116.115 189.156 116.406 189.352C116.704 189.541 117.057 189.635 117.465 189.635C117.834 189.635 118.129 189.557 118.349 189.4C118.568 189.243 118.678 189.031 118.678 188.764C118.678 188.544 118.612 188.371 118.478 188.245C118.345 188.12 118.168 188.018 117.948 187.939C117.728 187.861 117.489 187.79 117.23 187.727C117.01 187.672 116.786 187.606 116.559 187.527C116.339 187.449 116.139 187.351 115.958 187.233C115.778 187.115 115.632 186.962 115.522 186.773C115.412 186.585 115.358 186.353 115.358 186.079C115.358 185.6 115.542 185.215 115.911 184.925C116.288 184.626 116.778 184.477 117.383 184.477C117.823 184.477 118.223 184.571 118.584 184.76C118.953 184.94 119.24 185.215 119.444 185.584L118.808 186.055C118.651 185.78 118.443 185.584 118.184 185.466C117.933 185.341 117.654 185.278 117.348 185.278C117.041 185.278 116.786 185.341 116.582 185.466C116.378 185.592 116.276 185.765 116.276 185.984C116.276 186.149 116.323 186.283 116.417 186.385C116.512 186.487 116.649 186.573 116.83 186.644C117.018 186.715 117.246 186.781 117.513 186.844C117.756 186.899 118.003 186.966 118.254 187.044C118.506 187.123 118.737 187.225 118.949 187.351C119.161 187.476 119.33 187.645 119.456 187.857C119.589 188.061 119.656 188.328 119.656 188.658C119.656 189.019 119.565 189.337 119.385 189.612C119.204 189.886 118.949 190.098 118.619 190.247C118.29 190.397 117.901 190.471 117.454 190.471ZM121.066 192.779V184.571H122.055V186.302L121.737 186.079C121.839 185.741 121.988 185.455 122.184 185.219C122.389 184.976 122.636 184.791 122.926 184.666C123.217 184.54 123.546 184.477 123.915 184.477C124.441 184.477 124.901 184.611 125.293 184.878C125.694 185.137 126.004 185.494 126.224 185.949C126.443 186.397 126.553 186.907 126.553 187.48C126.553 188.085 126.436 188.614 126.2 189.07C125.964 189.517 125.647 189.863 125.246 190.106C124.846 190.349 124.402 190.471 123.915 190.471C123.546 190.471 123.217 190.404 122.926 190.271C122.636 190.138 122.392 189.953 122.196 189.717C122 189.482 121.859 189.215 121.772 188.917L122.055 188.646V192.779H121.066ZM123.751 189.564C124.104 189.564 124.414 189.478 124.681 189.305C124.956 189.125 125.168 188.877 125.317 188.563C125.474 188.249 125.552 187.888 125.552 187.48C125.552 187.072 125.474 186.711 125.317 186.397C125.168 186.083 124.956 185.839 124.681 185.667C124.414 185.486 124.104 185.396 123.751 185.396C123.397 185.396 123.087 185.486 122.82 185.667C122.553 185.839 122.345 186.083 122.196 186.397C122.047 186.711 121.972 187.072 121.972 187.48C121.972 187.888 122.047 188.249 122.196 188.563C122.345 188.877 122.553 189.125 122.82 189.305C123.087 189.478 123.397 189.564 123.751 189.564ZM130.533 190.471C129.991 190.471 129.504 190.346 129.072 190.094C128.648 189.835 128.315 189.478 128.071 189.023C127.828 188.567 127.706 188.049 127.706 187.468C127.706 186.887 127.824 186.373 128.06 185.926C128.303 185.47 128.637 185.117 129.061 184.866C129.492 184.607 129.983 184.477 130.533 184.477C131.082 184.477 131.565 184.607 131.981 184.866C132.405 185.117 132.739 185.47 132.982 185.926C133.225 186.373 133.347 186.887 133.347 187.468C133.347 188.049 133.225 188.567 132.982 189.023C132.739 189.47 132.405 189.823 131.981 190.083C131.557 190.342 131.074 190.471 130.533 190.471ZM130.533 189.588C130.902 189.588 131.22 189.502 131.486 189.329C131.761 189.148 131.973 188.901 132.122 188.587C132.271 188.265 132.346 187.892 132.346 187.468C132.346 187.036 132.271 186.664 132.122 186.35C131.973 186.028 131.761 185.78 131.486 185.608C131.22 185.435 130.902 185.349 130.533 185.349C130.156 185.349 129.83 185.439 129.555 185.619C129.28 185.792 129.068 186.036 128.919 186.35C128.77 186.664 128.696 187.036 128.696 187.468C128.696 187.892 128.77 188.265 128.919 188.587C129.068 188.901 129.28 189.148 129.555 189.329C129.83 189.502 130.156 189.588 130.533 189.588ZM134.774 190.377V184.571H135.775V186.126L135.516 186.185C135.571 185.839 135.7 185.541 135.904 185.29C136.116 185.031 136.36 184.83 136.634 184.689C136.917 184.548 137.192 184.477 137.459 184.477C137.639 184.477 137.812 184.497 137.977 184.536C138.142 184.575 138.31 184.642 138.483 184.736L137.989 185.631C137.894 185.584 137.78 185.545 137.647 185.513C137.521 185.482 137.4 185.466 137.282 185.466C137.094 185.466 136.905 185.502 136.717 185.572C136.536 185.643 136.371 185.753 136.222 185.902C136.073 186.051 135.959 186.251 135.881 186.503C135.849 186.613 135.822 186.758 135.798 186.938C135.782 187.111 135.775 187.351 135.775 187.657V190.377H134.774ZM141.5 190.471C141.226 190.471 140.974 190.42 140.747 190.318C140.527 190.208 140.354 190.035 140.229 189.8C140.103 189.564 140.04 189.262 140.04 188.893V183.017L141.053 182.452V188.634C141.053 188.956 141.104 189.207 141.206 189.388C141.308 189.56 141.493 189.647 141.76 189.647C141.838 189.647 141.932 189.639 142.042 189.623C142.152 189.6 142.27 189.572 142.395 189.541V190.318C142.246 190.373 142.093 190.412 141.936 190.436C141.787 190.459 141.642 190.471 141.5 190.471ZM138.839 185.349V184.571H142.395V185.349H138.839ZM148.619 190.471C148.226 190.471 147.873 190.412 147.559 190.295C147.245 190.177 146.974 190.02 146.746 189.823C146.526 189.627 146.35 189.419 146.216 189.199L146.911 188.611C147.06 188.909 147.28 189.156 147.571 189.352C147.869 189.541 148.222 189.635 148.63 189.635C148.999 189.635 149.294 189.557 149.514 189.4C149.733 189.243 149.843 189.031 149.843 188.764C149.843 188.544 149.777 188.371 149.643 188.245C149.51 188.12 149.333 188.018 149.113 187.939C148.893 187.861 148.654 187.79 148.395 187.727C148.175 187.672 147.951 187.606 147.724 187.527C147.504 187.449 147.304 187.351 147.123 187.233C146.943 187.115 146.797 186.962 146.687 186.773C146.578 186.585 146.523 186.353 146.523 186.079C146.523 185.6 146.707 185.215 147.076 184.925C147.453 184.626 147.944 184.477 148.548 184.477C148.988 184.477 149.388 184.571 149.749 184.76C150.118 184.94 150.405 185.215 150.609 185.584L149.973 186.055C149.816 185.78 149.608 185.584 149.349 185.466C149.098 185.341 148.819 185.278 148.513 185.278C148.207 185.278 147.951 185.341 147.747 185.466C147.543 185.592 147.441 185.765 147.441 185.984C147.441 186.149 147.488 186.283 147.582 186.385C147.677 186.487 147.814 186.573 147.995 186.644C148.183 186.715 148.411 186.781 148.678 186.844C148.921 186.899 149.168 186.966 149.419 187.044C149.671 187.123 149.902 187.225 150.114 187.351C150.326 187.476 150.495 187.645 150.621 187.857C150.754 188.061 150.821 188.328 150.821 188.658C150.821 189.019 150.731 189.337 150.55 189.612C150.369 189.886 150.114 190.098 149.785 190.247C149.455 190.397 149.066 190.471 148.619 190.471ZM152.219 190.377V184.571H153.208V190.377H152.219ZM152.125 183.523V182.169H153.302V183.523H152.125ZM154.475 190.377V189.67L158.149 185.148L158.196 185.372H154.64V184.571H159.115V185.325L155.464 189.871L155.429 189.564H159.091V190.377H154.475ZM162.765 190.471C162.309 190.471 161.909 190.397 161.563 190.247C161.226 190.09 160.943 189.875 160.716 189.6C160.496 189.325 160.327 189.011 160.209 188.658C160.099 188.297 160.044 187.916 160.044 187.515C160.044 187.115 160.099 186.734 160.209 186.373C160.319 186.004 160.48 185.678 160.692 185.396C160.912 185.113 161.187 184.889 161.516 184.724C161.846 184.56 162.231 184.477 162.67 184.477C163.118 184.477 163.503 184.556 163.824 184.713C164.154 184.862 164.421 185.07 164.625 185.337C164.837 185.604 164.994 185.902 165.096 186.232C165.198 186.562 165.249 186.903 165.249 187.256C165.249 187.288 165.245 187.362 165.238 187.48C165.238 187.59 165.23 187.688 165.214 187.774H161.034C161.057 188.34 161.222 188.779 161.528 189.093C161.834 189.407 162.25 189.564 162.776 189.564C163.114 189.564 163.408 189.509 163.66 189.4C163.911 189.29 164.146 189.113 164.366 188.87L165.061 189.482C164.849 189.71 164.625 189.898 164.39 190.047C164.154 190.189 163.903 190.295 163.636 190.365C163.377 190.436 163.087 190.471 162.765 190.471ZM164.26 187.268C164.276 187.205 164.284 187.142 164.284 187.08C164.292 187.017 164.296 186.954 164.296 186.891C164.296 186.703 164.26 186.514 164.19 186.326C164.127 186.138 164.029 185.969 163.895 185.82C163.77 185.663 163.605 185.541 163.401 185.455C163.204 185.36 162.969 185.313 162.694 185.313C162.356 185.313 162.066 185.392 161.823 185.549C161.579 185.706 161.391 185.914 161.257 186.173C161.124 186.432 161.045 186.719 161.022 187.033H164.59L164.26 187.268ZM169.734 192.779V184.571H170.723V186.302L170.405 186.079C170.507 185.741 170.656 185.455 170.852 185.219C171.057 184.976 171.304 184.791 171.594 184.666C171.885 184.54 172.215 184.477 172.584 184.477C173.11 184.477 173.569 184.611 173.961 184.878C174.362 185.137 174.672 185.494 174.892 185.949C175.111 186.397 175.221 186.907 175.221 187.48C175.221 188.085 175.104 188.614 174.868 189.07C174.633 189.517 174.315 189.863 173.914 190.106C173.514 190.349 173.07 190.471 172.584 190.471C172.215 190.471 171.885 190.404 171.594 190.271C171.304 190.138 171.061 189.953 170.864 189.717C170.668 189.482 170.527 189.215 170.44 188.917L170.723 188.646V192.779H169.734ZM172.419 189.564C172.772 189.564 173.082 189.478 173.349 189.305C173.624 189.125 173.836 188.877 173.985 188.563C174.142 188.249 174.22 187.888 174.22 187.48C174.22 187.072 174.142 186.711 173.985 186.397C173.836 186.083 173.624 185.839 173.349 185.667C173.082 185.486 172.772 185.396 172.419 185.396C172.065 185.396 171.755 185.486 171.488 185.667C171.221 185.839 171.013 186.083 170.864 186.397C170.715 186.711 170.641 187.072 170.641 187.48C170.641 187.888 170.715 188.249 170.864 188.563C171.013 188.877 171.221 189.125 171.488 189.305C171.755 189.478 172.065 189.564 172.419 189.564ZM176.645 190.377V182.169H177.646V185.808L177.399 185.902C177.509 185.604 177.662 185.349 177.858 185.137C178.054 184.925 178.286 184.764 178.553 184.654C178.82 184.536 179.11 184.477 179.424 184.477C180.06 184.477 180.559 184.666 180.92 185.042C181.281 185.411 181.462 185.961 181.462 186.691V190.377H180.461V187.056C180.461 186.467 180.351 186.036 180.131 185.761C179.919 185.478 179.593 185.337 179.154 185.337C178.675 185.337 178.302 185.51 178.035 185.855C177.776 186.193 177.646 186.734 177.646 187.48V190.377H176.645ZM185.641 190.471C185.099 190.471 184.612 190.346 184.18 190.094C183.757 189.835 183.423 189.478 183.179 189.023C182.936 188.567 182.814 188.049 182.814 187.468C182.814 186.887 182.932 186.373 183.168 185.926C183.411 185.47 183.745 185.117 184.169 184.866C184.6 184.607 185.091 184.477 185.641 184.477C186.19 184.477 186.673 184.607 187.089 184.866C187.513 185.117 187.847 185.47 188.09 185.926C188.333 186.373 188.455 186.887 188.455 187.468C188.455 188.049 188.333 188.567 188.09 189.023C187.847 189.47 187.513 189.823 187.089 190.083C186.665 190.342 186.182 190.471 185.641 190.471ZM185.641 189.588C186.01 189.588 186.328 189.502 186.595 189.329C186.869 189.148 187.081 188.901 187.23 188.587C187.38 188.265 187.454 187.892 187.454 187.468C187.454 187.036 187.38 186.664 187.23 186.35C187.081 186.028 186.869 185.78 186.595 185.608C186.328 185.435 186.01 185.349 185.641 185.349C185.264 185.349 184.938 185.439 184.663 185.619C184.388 185.792 184.177 186.036 184.027 186.35C183.878 186.664 183.804 187.036 183.804 187.468C183.804 187.892 183.878 188.265 184.027 188.587C184.177 188.901 184.388 189.148 184.663 189.329C184.938 189.502 185.264 189.588 185.641 189.588ZM191.687 190.471C191.412 190.471 191.161 190.42 190.933 190.318C190.713 190.208 190.54 190.035 190.415 189.8C190.289 189.564 190.226 189.262 190.226 188.893V183.017L191.239 182.452V188.634C191.239 188.956 191.29 189.207 191.392 189.388C191.494 189.56 191.679 189.647 191.946 189.647C192.024 189.647 192.118 189.639 192.228 189.623C192.338 189.6 192.456 189.572 192.582 189.541V190.318C192.432 190.373 192.279 190.412 192.122 190.436C191.973 190.459 191.828 190.471 191.687 190.471ZM189.025 185.349V184.571H192.582V185.349H189.025ZM196.267 190.471C195.725 190.471 195.238 190.346 194.806 190.094C194.383 189.835 194.049 189.478 193.806 189.023C193.562 188.567 193.44 188.049 193.44 187.468C193.44 186.887 193.558 186.373 193.794 185.926C194.037 185.47 194.371 185.117 194.795 184.866C195.226 184.607 195.717 184.477 196.267 184.477C196.816 184.477 197.299 184.607 197.715 184.866C198.139 185.117 198.473 185.47 198.716 185.926C198.959 186.373 199.081 186.887 199.081 187.468C199.081 188.049 198.959 188.567 198.716 189.023C198.473 189.47 198.139 189.823 197.715 190.083C197.291 190.342 196.808 190.471 196.267 190.471ZM196.267 189.588C196.636 189.588 196.954 189.502 197.221 189.329C197.495 189.148 197.707 188.901 197.856 188.587C198.006 188.265 198.08 187.892 198.08 187.468C198.08 187.036 198.006 186.664 197.856 186.35C197.707 186.028 197.495 185.78 197.221 185.608C196.954 185.435 196.636 185.349 196.267 185.349C195.89 185.349 195.564 185.439 195.289 185.619C195.015 185.792 194.803 186.036 194.653 186.35C194.504 186.664 194.43 187.036 194.43 187.468C194.43 187.892 194.504 188.265 194.653 188.587C194.803 188.901 195.015 189.148 195.289 189.329C195.564 189.502 195.89 189.588 196.267 189.588Z" fill="#201C1A"/>
<path d="M306.415 190.377V182.169H308.865C309.752 182.169 310.427 182.365 310.89 182.758C311.361 183.15 311.597 183.727 311.597 184.489C311.597 185.25 311.361 185.835 310.89 186.244C310.419 186.644 309.744 186.844 308.865 186.844H307.44V190.377H306.415ZM307.44 185.926H308.759C309.324 185.926 309.764 185.812 310.078 185.584C310.4 185.349 310.561 184.987 310.561 184.501C310.561 184.022 310.404 183.669 310.09 183.441C309.783 183.213 309.34 183.099 308.759 183.099H307.44V185.926ZM316.485 190.377L316.414 189.211V186.738C316.414 186.291 316.289 185.945 316.037 185.702C315.794 185.459 315.429 185.337 314.942 185.337C314.628 185.337 314.334 185.404 314.059 185.537C313.784 185.663 313.517 185.879 313.258 186.185L312.54 185.572C312.862 185.196 313.231 184.921 313.647 184.748C314.063 184.567 314.518 184.477 315.013 184.477C315.774 184.477 316.363 184.673 316.779 185.066C317.195 185.459 317.403 186.016 317.403 186.738V190.377H316.485ZM314.565 190.471C314.126 190.471 313.741 190.397 313.411 190.247C313.09 190.09 312.838 189.875 312.658 189.6C312.485 189.325 312.399 189.007 312.399 188.646C312.399 188.324 312.461 188.053 312.587 187.833C312.721 187.606 312.889 187.429 313.093 187.303C313.298 187.17 313.529 187.08 313.788 187.033C314.055 186.978 314.334 186.95 314.624 186.95H316.508V187.704H314.766C314.593 187.704 314.412 187.719 314.224 187.751C314.036 187.782 313.871 187.849 313.729 187.951C313.627 188.03 313.545 188.128 313.482 188.245C313.427 188.363 313.4 188.501 313.4 188.658C313.4 188.964 313.513 189.207 313.741 189.388C313.969 189.568 314.275 189.659 314.66 189.659C314.982 189.659 315.272 189.584 315.531 189.435C315.798 189.286 316.01 189.082 316.167 188.823C316.332 188.556 316.414 188.257 316.414 187.928L316.826 188.351C316.779 188.768 316.654 189.137 316.45 189.458C316.245 189.78 315.982 190.032 315.661 190.212C315.347 190.385 314.982 190.471 314.565 190.471ZM320.948 190.471C320.556 190.471 320.203 190.412 319.889 190.295C319.575 190.177 319.304 190.02 319.076 189.823C318.856 189.627 318.68 189.419 318.546 189.199L319.241 188.611C319.39 188.909 319.61 189.156 319.9 189.352C320.199 189.541 320.552 189.635 320.96 189.635C321.329 189.635 321.624 189.557 321.843 189.4C322.063 189.243 322.173 189.031 322.173 188.764C322.173 188.544 322.106 188.371 321.973 188.245C321.84 188.12 321.663 188.018 321.443 187.939C321.223 187.861 320.984 187.79 320.725 187.727C320.505 187.672 320.281 187.606 320.054 187.527C319.834 187.449 319.634 187.351 319.453 187.233C319.272 187.115 319.127 186.962 319.017 186.773C318.907 186.585 318.852 186.353 318.852 186.079C318.852 185.6 319.037 185.215 319.406 184.925C319.783 184.626 320.273 184.477 320.878 184.477C321.317 184.477 321.718 184.571 322.079 184.76C322.448 184.94 322.735 185.215 322.939 185.584L322.303 186.055C322.146 185.78 321.938 185.584 321.679 185.466C321.427 185.341 321.149 185.278 320.843 185.278C320.536 185.278 320.281 185.341 320.077 185.466C319.873 185.592 319.771 185.765 319.771 185.984C319.771 186.149 319.818 186.283 319.912 186.385C320.006 186.487 320.144 186.573 320.324 186.644C320.513 186.715 320.74 186.781 321.007 186.844C321.251 186.899 321.498 186.966 321.749 187.044C322 187.123 322.232 187.225 322.444 187.351C322.656 187.476 322.825 187.645 322.95 187.857C323.084 188.061 323.151 188.328 323.151 188.658C323.151 189.019 323.06 189.337 322.88 189.612C322.699 189.886 322.444 190.098 322.114 190.247C321.785 190.397 321.396 190.471 320.948 190.471ZM326.48 190.471C326.087 190.471 325.734 190.412 325.42 190.295C325.106 190.177 324.835 190.02 324.608 189.823C324.388 189.627 324.211 189.419 324.078 189.199L324.772 188.611C324.922 188.909 325.141 189.156 325.432 189.352C325.73 189.541 326.084 189.635 326.492 189.635C326.861 189.635 327.155 189.557 327.375 189.4C327.595 189.243 327.705 189.031 327.705 188.764C327.705 188.544 327.638 188.371 327.505 188.245C327.371 188.12 327.194 188.018 326.975 187.939C326.755 187.861 326.515 187.79 326.256 187.727C326.036 187.672 325.813 187.606 325.585 187.527C325.365 187.449 325.165 187.351 324.984 187.233C324.804 187.115 324.659 186.962 324.549 186.773C324.439 186.585 324.384 186.353 324.384 186.079C324.384 185.6 324.568 185.215 324.937 184.925C325.314 184.626 325.805 184.477 326.409 184.477C326.849 184.477 327.249 184.571 327.611 184.76C327.979 184.94 328.266 185.215 328.47 185.584L327.834 186.055C327.677 185.78 327.469 185.584 327.21 185.466C326.959 185.341 326.68 185.278 326.374 185.278C326.068 185.278 325.813 185.341 325.609 185.466C325.404 185.592 325.302 185.765 325.302 185.984C325.302 186.149 325.35 186.283 325.444 186.385C325.538 186.487 325.675 186.573 325.856 186.644C326.044 186.715 326.272 186.781 326.539 186.844C326.782 186.899 327.03 186.966 327.281 187.044C327.532 187.123 327.764 187.225 327.976 187.351C328.188 187.476 328.356 187.645 328.482 187.857C328.615 188.061 328.682 188.328 328.682 188.658C328.682 189.019 328.592 189.337 328.411 189.612C328.231 189.886 327.976 190.098 327.646 190.247C327.316 190.397 326.927 190.471 326.48 190.471ZM330.092 192.779V184.571H331.081V186.302L330.763 186.079C330.865 185.741 331.014 185.455 331.211 185.219C331.415 184.976 331.662 184.791 331.953 184.666C332.243 184.54 332.573 184.477 332.942 184.477C333.468 184.477 333.927 184.611 334.32 184.878C334.72 185.137 335.03 185.494 335.25 185.949C335.47 186.397 335.58 186.907 335.58 187.48C335.58 188.085 335.462 188.614 335.226 189.07C334.991 189.517 334.673 189.863 334.273 190.106C333.872 190.349 333.429 190.471 332.942 190.471C332.573 190.471 332.243 190.404 331.953 190.271C331.662 190.138 331.419 189.953 331.223 189.717C331.026 189.482 330.885 189.215 330.799 188.917L331.081 188.646V192.779H330.092ZM332.777 189.564C333.13 189.564 333.44 189.478 333.707 189.305C333.982 189.125 334.194 188.877 334.343 188.563C334.5 188.249 334.579 187.888 334.579 187.48C334.579 187.072 334.5 186.711 334.343 186.397C334.194 186.083 333.982 185.839 333.707 185.667C333.44 185.486 333.13 185.396 332.777 185.396C332.424 185.396 332.114 185.486 331.847 185.667C331.58 185.839 331.372 186.083 331.223 186.397C331.073 186.711 330.999 187.072 330.999 187.48C330.999 187.888 331.073 188.249 331.223 188.563C331.372 188.877 331.58 189.125 331.847 189.305C332.114 189.478 332.424 189.564 332.777 189.564ZM339.559 190.471C339.017 190.471 338.53 190.346 338.099 190.094C337.675 189.835 337.341 189.478 337.098 189.023C336.854 188.567 336.733 188.049 336.733 187.468C336.733 186.887 336.85 186.373 337.086 185.926C337.329 185.47 337.663 185.117 338.087 184.866C338.519 184.607 339.009 184.477 339.559 184.477C340.108 184.477 340.591 184.607 341.007 184.866C341.431 185.117 341.765 185.47 342.008 185.926C342.252 186.373 342.373 186.887 342.373 187.468C342.373 188.049 342.252 188.567 342.008 189.023C341.765 189.47 341.431 189.823 341.007 190.083C340.583 190.342 340.101 190.471 339.559 190.471ZM339.559 189.588C339.928 189.588 340.246 189.502 340.513 189.329C340.788 189.148 341 188.901 341.149 188.587C341.298 188.265 341.372 187.892 341.372 187.468C341.372 187.036 341.298 186.664 341.149 186.35C341 186.028 340.788 185.78 340.513 185.608C340.246 185.435 339.928 185.349 339.559 185.349C339.182 185.349 338.856 185.439 338.582 185.619C338.307 185.792 338.095 186.036 337.946 186.35C337.796 186.664 337.722 187.036 337.722 187.468C337.722 187.892 337.796 188.265 337.946 188.587C338.095 188.901 338.307 189.148 338.582 189.329C338.856 189.502 339.182 189.588 339.559 189.588ZM343.8 190.377V184.571H344.801V186.126L344.542 186.185C344.597 185.839 344.726 185.541 344.931 185.29C345.143 185.031 345.386 184.83 345.661 184.689C345.943 184.548 346.218 184.477 346.485 184.477C346.666 184.477 346.838 184.497 347.003 184.536C347.168 184.575 347.337 184.642 347.51 184.736L347.015 185.631C346.921 185.584 346.807 185.545 346.673 185.513C346.548 185.482 346.426 185.466 346.308 185.466C346.12 185.466 345.932 185.502 345.743 185.572C345.563 185.643 345.398 185.753 345.249 185.902C345.099 186.051 344.986 186.251 344.907 186.503C344.876 186.613 344.848 186.758 344.825 186.938C344.809 187.111 344.801 187.351 344.801 187.657V190.377H343.8ZM350.527 190.471C350.252 190.471 350.001 190.42 349.773 190.318C349.553 190.208 349.381 190.035 349.255 189.8C349.129 189.564 349.067 189.262 349.067 188.893V183.017L350.079 182.452V188.634C350.079 188.956 350.13 189.207 350.232 189.388C350.334 189.56 350.519 189.647 350.786 189.647C350.864 189.647 350.959 189.639 351.069 189.623C351.178 189.6 351.296 189.572 351.422 189.541V190.318C351.273 190.373 351.12 190.412 350.963 190.436C350.813 190.459 350.668 190.471 350.527 190.471ZM347.865 185.349V184.571H351.422V185.349H347.865Z" fill="#201C1A"/>
<rect x="96.4587" y="242.172" width="62.8055" height="14.72" rx="7.36001" fill="#FF6B26"/>
<path d="M119.823 251.609C119.319 251.609 118.933 251.475 118.665 251.207C118.401 250.939 118.269 250.543 118.269 250.019V247.349H118.881V249.947C118.881 250.187 118.911 250.389 118.971 250.553C119.031 250.717 119.129 250.841 119.265 250.925C119.405 251.009 119.591 251.051 119.823 251.051C120.055 251.051 120.241 251.009 120.381 250.925C120.525 250.837 120.627 250.713 120.687 250.553C120.747 250.389 120.777 250.187 120.777 249.947V247.349H121.383V249.989C121.383 250.521 121.251 250.925 120.987 251.201C120.723 251.473 120.335 251.609 119.823 251.609ZM122.207 252.755V248.573H122.795V249.425L122.627 249.371C122.679 249.175 122.755 249.015 122.855 248.891C122.959 248.767 123.083 248.675 123.227 248.615C123.371 248.551 123.531 248.519 123.707 248.519C123.971 248.519 124.201 248.587 124.397 248.723C124.597 248.855 124.751 249.037 124.859 249.269C124.967 249.501 125.021 249.763 125.021 250.055C125.021 250.367 124.963 250.639 124.847 250.871C124.731 251.099 124.573 251.275 124.373 251.399C124.173 251.523 123.951 251.585 123.707 251.585C123.531 251.585 123.369 251.551 123.221 251.483C123.077 251.415 122.955 251.321 122.855 251.201C122.755 251.077 122.685 250.931 122.645 250.763L122.795 250.679V252.755H122.207ZM123.581 251.045C123.753 251.045 123.901 251.005 124.025 250.925C124.153 250.841 124.253 250.725 124.325 250.577C124.397 250.425 124.433 250.251 124.433 250.055C124.433 249.859 124.397 249.687 124.325 249.539C124.253 249.387 124.153 249.269 124.025 249.185C123.901 249.101 123.753 249.059 123.581 249.059C123.413 249.059 123.265 249.101 123.137 249.185C123.013 249.269 122.915 249.387 122.843 249.539C122.775 249.687 122.741 249.859 122.741 250.055C122.741 250.251 122.775 250.425 122.843 250.577C122.915 250.725 123.013 250.841 123.137 250.925C123.265 251.005 123.413 251.045 123.581 251.045ZM126.335 251.585C126.147 251.585 125.993 251.527 125.873 251.411C125.753 251.295 125.693 251.111 125.693 250.859V247.349H126.275V250.745C126.275 250.849 126.297 250.925 126.341 250.973C126.389 251.017 126.451 251.039 126.527 251.039C126.559 251.039 126.595 251.037 126.635 251.033C126.679 251.025 126.723 251.013 126.767 250.997V251.495C126.695 251.527 126.619 251.549 126.539 251.561C126.463 251.577 126.395 251.585 126.335 251.585ZM128.636 251.585C128.356 251.585 128.106 251.519 127.886 251.387C127.666 251.255 127.492 251.073 127.364 250.841C127.24 250.609 127.178 250.345 127.178 250.049C127.178 249.753 127.24 249.491 127.364 249.263C127.488 249.031 127.66 248.849 127.88 248.717C128.104 248.585 128.356 248.519 128.636 248.519C128.92 248.519 129.17 248.585 129.386 248.717C129.602 248.849 129.772 249.031 129.896 249.263C130.024 249.491 130.088 249.753 130.088 250.049C130.088 250.345 130.024 250.609 129.896 250.841C129.772 251.069 129.6 251.251 129.38 251.387C129.164 251.519 128.916 251.585 128.636 251.585ZM128.636 251.063C128.812 251.063 128.964 251.021 129.092 250.937C129.224 250.853 129.324 250.735 129.392 250.583C129.464 250.431 129.5 250.253 129.5 250.049C129.5 249.841 129.464 249.661 129.392 249.509C129.324 249.357 129.224 249.241 129.092 249.161C128.964 249.077 128.812 249.035 128.636 249.035C128.456 249.035 128.3 249.077 128.168 249.161C128.04 249.245 127.94 249.363 127.868 249.515C127.8 249.663 127.766 249.841 127.766 250.049C127.766 250.253 127.8 250.431 127.868 250.583C127.94 250.735 128.04 250.853 128.168 250.937C128.3 251.021 128.456 251.063 128.636 251.063ZM132.699 251.531L132.651 250.985V249.671C132.651 249.463 132.591 249.303 132.471 249.191C132.351 249.079 132.177 249.023 131.949 249.023C131.789 249.023 131.635 249.055 131.487 249.119C131.343 249.183 131.205 249.287 131.073 249.431L130.707 249.053C130.883 248.869 131.077 248.735 131.289 248.651C131.505 248.563 131.739 248.519 131.991 248.519C132.387 248.519 132.693 248.621 132.909 248.825C133.129 249.025 133.239 249.307 133.239 249.671V251.531H132.699ZM131.745 251.585C131.525 251.585 131.331 251.545 131.163 251.465C130.995 251.385 130.865 251.275 130.773 251.135C130.681 250.991 130.635 250.825 130.635 250.637C130.635 250.473 130.669 250.333 130.737 250.217C130.805 250.097 130.893 250.005 131.001 249.941C131.101 249.877 131.215 249.833 131.343 249.809C131.475 249.781 131.615 249.767 131.763 249.767H132.705V250.211H131.847C131.767 250.211 131.683 250.219 131.595 250.235C131.511 250.247 131.439 250.275 131.379 250.319C131.331 250.355 131.293 250.401 131.265 250.457C131.237 250.509 131.223 250.571 131.223 250.643C131.223 250.783 131.277 250.895 131.385 250.979C131.493 251.063 131.637 251.105 131.817 251.105C131.969 251.105 132.107 251.071 132.231 251.003C132.359 250.931 132.461 250.835 132.537 250.715C132.613 250.591 132.651 250.451 132.651 250.295L132.861 250.571C132.825 250.779 132.755 250.961 132.651 251.117C132.547 251.269 132.417 251.385 132.261 251.465C132.109 251.545 131.937 251.585 131.745 251.585ZM135.201 251.585C134.933 251.585 134.701 251.519 134.505 251.387C134.309 251.251 134.155 251.067 134.043 250.835C133.935 250.599 133.881 250.337 133.881 250.049C133.881 249.733 133.939 249.461 134.055 249.233C134.175 249.005 134.335 248.829 134.535 248.705C134.735 248.581 134.957 248.519 135.201 248.519C135.377 248.519 135.537 248.555 135.681 248.627C135.829 248.699 135.953 248.799 136.053 248.927C136.153 249.055 136.223 249.205 136.263 249.377L136.113 249.425V247.349H136.695V251.531H136.113V250.679L136.287 250.685C136.235 250.877 136.157 251.041 136.053 251.177C135.949 251.309 135.823 251.411 135.675 251.483C135.531 251.551 135.373 251.585 135.201 251.585ZM135.321 251.045C135.493 251.045 135.641 251.003 135.765 250.919C135.893 250.835 135.991 250.719 136.059 250.571C136.131 250.419 136.167 250.245 136.167 250.049C136.167 249.853 136.131 249.681 136.059 249.533C135.991 249.381 135.893 249.265 135.765 249.185C135.641 249.101 135.493 249.059 135.321 249.059C135.153 249.059 135.005 249.101 134.877 249.185C134.749 249.265 134.649 249.381 134.577 249.533C134.509 249.681 134.475 249.853 134.475 250.049C134.475 250.245 134.509 250.419 134.577 250.571C134.649 250.719 134.749 250.835 134.877 250.919C135.005 251.003 135.153 251.045 135.321 251.045Z" fill="white"/>
<g filter="url(#filter0_d_8014_1430)">
<path d="M143.133 253.643C143.095 253.446 143.308 253.297 143.48 253.399L150.355 257.489C150.53 257.593 150.497 257.855 150.301 257.912L146.916 258.894C146.864 258.909 146.819 258.942 146.788 258.987L145.061 261.556C144.945 261.729 144.678 261.675 144.639 261.471L143.133 253.643Z" fill="#201C1A"/>
<path d="M146.852 258.67L146.916 258.894L146.852 258.67C146.747 258.701 146.656 258.767 146.595 258.857L144.868 261.427L143.362 253.599L150.236 257.689L146.852 258.67Z" stroke="white" stroke-width="0.465282"/>
</g>
<rect x="305.485" y="242.172" width="62.8055" height="14.72" rx="7.36001" fill="#FF6B26"/>
<rect x="202.443" y="205.859" width="65.7495" height="70.6561" rx="3.92534" fill="#EFEFEF"/>
<rect x="198.518" y="205.859" width="65.7495" height="70.6561" rx="3.92534" fill="#E8E7E7"/>
<rect x="194.593" y="205.859" width="65.7495" height="70.6561" rx="3.92534" fill="#DBDBDB"/>
<rect x="411.471" y="205.859" width="65.7495" height="70.6561" rx="3.92534" fill="#EFEFEF"/>
<rect x="407.54" y="205.859" width="65.7495" height="70.6561" rx="3.92534" fill="#E8E7E7"/>
<rect x="403.616" y="205.859" width="65.7495" height="70.6561" rx="3.92534" fill="#DBDBDB"/>
<circle cx="261.814" cy="186.718" r="8.34135" fill="#DBDBDB"/>
</g>
</g>
<defs>
<filter id="filter0_d_8014_1430" x="142.198" y="252.9" width="9.20158" height="10.1561" filterUnits="userSpaceOnUse" color-interpolation-filters="sRGB">
<feFlood flood-opacity="0" result="BackgroundImageFix"/>
<feColorMatrix in="SourceAlpha" type="matrix" values="0 0 0 0 0 0 0 0 0 0 0 0 0 0 0 0 0 0 127 0" result="hardAlpha"/>
<feOffset dy="0.465282"/>
<feGaussianBlur stdDeviation="0.465282"/>
<feColorMatrix type="matrix" values="0 0 0 0 0 0 0 0 0 0 0 0 0 0 0 0 0 0 0.28 0"/>
<feBlend mode="normal" in2="BackgroundImageFix" result="effect1_dropShadow_8014_1430"/>
<feBlend mode="normal" in="SourceGraphic" in2="effect1_dropShadow_8014_1430" result="shape"/>
</filter>
<clipPath id="clip0_8014_1430">
<rect width="457" height="276" fill="white"/>
</clipPath>
<clipPath id="clip1_8014_1430">
<rect x="68" y="51" width="400.385" height="374.36" rx="16.2945" fill="white"/>
</clipPath>
</defs>
</svg>
