<svg width="103" height="71" viewBox="0 0 103 71" fill="none" xmlns="http://www.w3.org/2000/svg">
<g clip-path="url(#clip0_8014_1215)">
<path d="M63.4336 54.2444L62.9182 54.9774C63.9329 55.8664 65.165 56.5376 66.5586 56.8958C68.8853 57.4938 71.3127 57.1278 73.3325 55.9247C73.8091 59.4448 76.3783 62.4229 79.9371 63.338C80.6789 63.5284 81.4225 63.6195 82.1553 63.6195C86.0734 63.6195 89.6602 61.0139 90.7416 57.085C90.921 57.1439 91.1015 57.1963 91.2832 57.2427C96.0378 58.4648 100.901 55.5963 102.125 50.848C102.718 48.5477 102.379 46.1551 101.169 44.1101C99.9595 42.065 98.0249 40.6126 95.7221 40.0205C93.8583 39.5415 91.9279 39.6742 90.172 40.3853C89.8408 39.0667 89.211 37.841 88.3161 36.789C87.1227 35.3859 85.5455 34.4006 83.7545 33.9406C81.4684 33.3528 79.0905 33.683 77.0528 34.8695L72.5752 41.2397L72.0574 41.9757L63.9531 53.5054L63.4342 54.2438L63.4336 54.2444ZM81.9373 48.0639C82.3668 48.537 82.5867 49.1493 82.5557 49.7871C82.5247 50.425 82.2465 51.0128 81.7728 51.4424C81.3283 51.8453 80.7623 52.063 80.1665 52.063C80.1272 52.063 80.0872 52.0619 80.0473 52.0601C79.4086 52.0291 78.82 51.7513 78.3898 51.2782C77.9596 50.8052 77.7403 50.1929 77.7713 49.5551C77.8023 48.9172 78.0805 48.3293 78.5542 47.8997C79.0279 47.4707 79.6404 47.2506 80.2797 47.2821C80.9184 47.313 81.5071 47.5909 81.9373 48.0639Z" fill="#FFE600"/>
<path d="M38.4999 27.2482L39.735 27.031L41.1274 26.7859L65.6572 22.4696L66.5414 22.3143L67.4256 22.159C66.9269 20.2591 65.8574 18.5389 64.3309 17.24C65.1466 16.5778 65.8556 15.7852 66.4163 14.9046C67.2468 13.6009 67.7402 12.155 67.8831 10.608C68.3765 5.27541 64.4334 0.536108 59.0937 0.0440293C56.506 -0.194572 53.9822 0.587279 51.9844 2.245C49.9866 3.90271 48.7545 6.23875 48.5156 8.82171C48.4548 9.47564 48.4613 10.1278 48.5334 10.774C47.5485 10.3247 46.4928 10.0421 45.4072 9.94153C42.8207 9.70293 40.2957 10.4848 38.2979 12.1425C36.3001 13.8002 35.068 16.1362 34.8291 18.7192C34.5901 21.3022 35.373 23.8239 37.033 25.819C37.4763 26.3515 37.9684 26.8293 38.5005 27.2488L38.4999 27.2482Z" fill="#FFE600"/>
<path d="M44.8298 48.2227L41.3419 55.2111L47.1237 50.5289L44.8298 48.2227Z" fill="white"/>
<path d="M44.1101 45.9697L73.9622 26.7715L65.4772 30.8539L58.2494 34.3318L41.0154 42.6239L40.0126 53.8733L43.727 46.4302C43.7484 46.3874 43.7734 46.3475 43.8008 46.3094C43.8717 46.1726 43.9766 46.0548 44.1095 45.9691L44.1101 45.9697Z" fill="white"/>
<path d="M55.0719 33.8796L56.3231 33.2775L57.8418 32.5468L64.3368 29.4218L65.8532 28.6923L67.105 28.0895L75.4649 24.0672L76.2996 23.6662L77.1504 23.2562L80.4197 21.6836L76.4515 22.3815L75.5215 22.5452L74.6099 22.7058L67.7163 23.9191L66.8309 24.0744L65.9449 24.2309L50.4406 26.959L49.5546 27.1149L48.9856 27.2149L42.9107 28.2841L40.9093 28.6364L29.7264 30.6041L40.3469 40.9645L55.0719 33.8796Z" fill="white"/>
<path d="M78.5023 25.9737L46.0059 46.8718L57.9741 58.9031L61.6747 53.6383L62.2151 52.8696L62.768 52.083L70.3158 41.3453L70.8663 40.5617L71.4091 39.7899L81.0679 26.0492L81.9015 24.8628L83.1449 23.0938L83.2808 22.9004L81.4254 24.0934L79.6236 25.2525L78.5023 25.9737Z" fill="white"/>
<path d="M96.7338 14.8559C95.6309 14.5726 94.4917 14.6143 93.4335 14.9665C92.824 13.0857 91.2785 11.5922 89.3164 11.0876C87.8007 10.6979 86.2242 10.921 84.877 11.716C83.6365 12.4478 82.7267 13.5837 82.2858 14.9403C82.004 14.8184 81.7114 14.7178 81.41 14.6405C79.8942 14.2507 78.3177 14.4739 76.9705 15.2688C75.6234 16.0637 74.6665 17.3347 74.2763 18.8478C74.0916 19.5636 74.0493 20.2836 74.1303 20.9774L75.0115 20.8221L75.8957 20.6668L86.4809 18.8044C86.4857 18.8038 86.4905 18.8032 86.4947 18.8026C86.5101 18.8002 86.5256 18.7984 86.5417 18.7966C86.553 18.7955 86.5644 18.7943 86.5757 18.7937C86.5894 18.7925 86.6031 18.7925 86.6168 18.7919C86.6299 18.7919 86.643 18.7913 86.6561 18.7919C86.6674 18.7919 86.6788 18.7931 86.6901 18.7937C86.705 18.7949 86.7205 18.7955 86.7354 18.7972C86.7443 18.7984 86.7532 18.7996 86.7622 18.8014C86.7789 18.8038 86.7955 18.8062 86.8122 18.8091C86.8194 18.8103 86.8259 18.8127 86.8331 18.8139C86.851 18.8181 86.8694 18.8222 86.8867 18.827C86.8921 18.8288 86.8974 18.8306 86.9034 18.8323C86.9225 18.8383 86.9409 18.8442 86.9594 18.8514C86.9636 18.8532 86.9671 18.855 86.9713 18.8567C87.1483 18.9281 87.2996 19.0561 87.4009 19.2227C87.4074 19.234 87.4146 19.2447 87.4211 19.256C87.4253 19.2643 87.4295 19.2727 87.4337 19.281C87.4414 19.2965 87.4491 19.3119 87.4563 19.328C87.4599 19.3357 87.4629 19.3441 87.4658 19.3524C87.4724 19.3691 87.4789 19.3857 87.4849 19.403C87.4855 19.4053 87.4867 19.4071 87.4873 19.4095C87.4897 19.4167 87.4909 19.4238 87.4932 19.4315C87.498 19.447 87.5022 19.4631 87.5064 19.4785C87.5093 19.4898 87.5111 19.5017 87.5135 19.513C87.5159 19.5267 87.5189 19.5404 87.5207 19.5541C87.5224 19.5672 87.5242 19.5803 87.5254 19.5934C87.5266 19.6059 87.5278 19.6184 87.5284 19.6309C87.529 19.6445 87.5296 19.6582 87.5296 19.6719C87.5296 19.6838 87.5296 19.6963 87.5296 19.7082C87.5296 19.7219 87.5284 19.735 87.5278 19.7487C87.5266 19.7612 87.5254 19.7743 87.5242 19.7868C87.523 19.7992 87.5212 19.8117 87.5189 19.8242C87.5165 19.8379 87.5141 19.8516 87.5111 19.8647C87.5087 19.876 87.5063 19.8873 87.5034 19.8986C87.4998 19.9129 87.4956 19.9272 87.4915 19.9415C87.4885 19.9522 87.4849 19.9623 87.4813 19.9724C87.4766 19.9867 87.4712 20.0004 87.4652 20.0146C87.4611 20.0248 87.4569 20.0349 87.4527 20.045C87.4468 20.0581 87.4402 20.0712 87.4343 20.0837C87.4289 20.0944 87.4235 20.1051 87.4176 20.1158C87.411 20.1271 87.4045 20.1384 87.3973 20.1497C87.3902 20.1616 87.383 20.1729 87.3753 20.1842C87.3729 20.1878 87.3705 20.1914 87.3681 20.1949L84.193 24.7123L83.487 25.7173L82.8608 26.608C83.5591 28.2283 84.9771 29.5004 86.783 29.9645C87.2698 30.0895 87.7631 30.1513 88.2535 30.1513C89.2884 30.1513 90.3085 29.8753 91.2225 29.3362C92.4421 28.6168 93.3418 27.5071 93.7904 26.1808C93.7988 26.1832 93.8065 26.185 93.8149 26.1873C96.9435 26.9912 100.144 25.1038 100.949 21.98C101.339 20.4663 101.115 18.8919 100.319 17.5465C99.5234 16.2012 98.2507 15.2456 96.7349 14.8559H96.7338Z" fill="#A4CAFF"/>
<path d="M16.4612 57.918C17.7678 58.0382 19.081 57.802 20.2559 57.2463C20.6927 58.2328 21.3445 59.1111 22.1757 59.8257C23.2499 60.7485 24.55 61.3293 25.952 61.5155L27.4594 60.6658L30.8799 58.7374C31.1052 58.6106 31.362 58.5928 31.5902 58.6654C31.7975 58.7314 31.9822 58.8719 32.0972 59.0759C32.1419 59.1557 32.1735 59.239 32.1919 59.3235C33.2906 58.1763 34.0241 56.6655 34.1814 54.9656C34.3923 52.6831 33.5236 50.475 31.872 48.9517C33.2668 47.7326 34.1397 46.0421 34.3136 44.1619C34.493 42.2245 33.9061 40.3335 32.6608 38.8371C31.4156 37.3406 29.6615 36.4177 27.7215 36.2386C25.7815 36.0595 23.888 36.6462 22.389 37.8892C20.8905 39.1328 19.9664 40.8845 19.787 42.8219C19.7614 43.0974 19.7525 43.3717 19.7584 43.6454L20.6545 43.2568L21.5822 42.8546L27.7388 40.1866C28.1916 39.9902 28.7177 40.1979 28.9143 40.6501C29.111 41.1023 28.903 41.6277 28.4502 41.824L21.6937 44.7521L20.8631 45.1121L20.5318 45.2555L19.4993 45.703L11.8818 49.0041L10.8474 49.4522L9.8816 49.8704C9.87683 49.9115 9.87266 49.9526 9.86849 49.9936C9.68915 51.931 10.2766 53.822 11.5213 55.3184C12.7665 56.8149 14.5206 57.7378 16.4606 57.9169L16.4612 57.918ZM17.321 50.97C17.3519 50.3322 17.6302 49.7443 18.1039 49.3147C18.5775 48.8851 19.19 48.6655 19.8293 48.6971C20.4681 48.728 21.0567 49.0059 21.4869 49.4789C21.9171 49.952 22.1363 50.5642 22.1054 51.2021C22.0744 51.84 21.7961 52.4278 21.3225 52.8574C20.878 53.2603 20.312 53.478 19.7161 53.478C19.6768 53.478 19.6369 53.4768 19.597 53.4751C18.9583 53.4441 18.3696 53.1662 17.9394 52.6932C17.5098 52.2202 17.29 51.6079 17.321 50.97Z" fill="#A4CAFF"/>
<path d="M14.0124 46.1366L15.9637 45.2911L18.1289 44.3528L19.4742 43.7696C18.935 43.5858 18.3744 43.465 17.8024 43.412C14.6267 43.1193 11.7322 44.915 10.4852 47.6652L11.8311 47.0821L14.0124 46.1366Z" fill="#A4CAFF"/>
<path d="M80.0467 52.0603C80.0866 52.062 80.126 52.0632 80.1659 52.0632C80.7617 52.0632 81.3283 51.8455 81.7722 51.4426C82.2459 51.0136 82.5241 50.4257 82.5551 49.7873C82.5861 49.1488 82.3668 48.5372 81.9367 48.0641C81.5065 47.5911 80.9184 47.3132 80.2791 47.2823C79.6398 47.2507 79.0273 47.4703 78.5536 47.8999C78.0799 48.3289 77.8017 48.9168 77.7707 49.5552C77.7397 50.1931 77.959 50.8054 78.3892 51.2784C78.8193 51.7514 79.4074 52.0293 80.0467 52.0603Z" fill="#1C334E"/>
<path d="M24.8843 19.8232C24.9236 19.825 24.9629 19.8262 25.0022 19.8262C26.2695 19.8262 27.3307 18.8283 27.3932 17.5508C27.4576 16.2334 26.4364 15.1101 25.1172 15.0458C23.7999 14.9821 22.6726 16.0014 22.6088 17.3188C22.5445 18.6361 23.5657 19.7595 24.8849 19.8238L24.8843 19.8232Z" fill="#201C1A"/>
<path d="M75.5519 10.1637C75.5918 10.1655 75.6311 10.1667 75.671 10.1667C76.2668 10.1667 76.8335 9.94888 77.2773 9.54605C77.751 9.11704 78.0293 8.52917 78.0602 7.89071C78.0912 7.25226 77.872 6.64058 77.4418 6.16755C77.0116 5.69451 76.4235 5.41664 75.7842 5.38569C75.1437 5.35475 74.5324 5.57372 74.0587 6.00332C73.5851 6.43292 73.3068 7.02021 73.2758 7.65866C73.2449 8.29652 73.4641 8.90879 73.8943 9.38183C74.3239 9.85486 74.9125 10.1327 75.5519 10.1637Z" fill="#201C1A"/>
<path d="M18.5031 28.2106C18.543 28.2124 18.5823 28.2136 18.6222 28.2136C19.2181 28.2136 19.7847 27.9959 20.2286 27.593C20.7022 27.164 20.9805 26.5761 21.0115 25.9377C21.0758 24.6203 20.0546 23.4969 18.7355 23.4327C18.0961 23.4011 17.4836 23.6207 17.01 24.0503C16.5363 24.4793 16.2581 25.0672 16.2271 25.7056C16.1961 26.3435 16.4153 26.9558 16.8455 27.4288C17.2751 27.9018 17.8638 28.1797 18.5031 28.2106Z" fill="#201C1A"/>
<path d="M19.597 53.4743C19.6369 53.4761 19.6763 53.4773 19.7162 53.4773C20.312 53.4773 20.8786 53.2595 21.3225 52.8567C21.7962 52.4277 22.0744 51.8398 22.1054 51.2014C22.1364 50.5635 21.9171 49.9512 21.4869 49.4782C21.0568 49.0052 20.4687 48.7273 19.8294 48.6963C19.1901 48.6648 18.5776 48.8844 18.1039 49.314C17.6302 49.7436 17.352 50.3309 17.321 50.9693C17.29 51.6072 17.5093 52.2194 17.9395 52.6925C18.369 53.1655 18.9577 53.4434 19.597 53.4743Z" fill="#1C334E"/>
<path d="M87.5242 19.5931C87.523 19.58 87.5212 19.5669 87.5194 19.5538C87.5176 19.5401 87.5147 19.5265 87.5123 19.5128C87.5099 19.5015 87.5081 19.4896 87.5051 19.4783C87.5016 19.4622 87.4968 19.4467 87.492 19.4313C87.4896 19.4241 87.4884 19.417 87.4861 19.4092C87.4855 19.4069 87.4843 19.4051 87.4837 19.4027C87.4777 19.3854 87.4712 19.3688 87.4646 19.3521C87.4616 19.3438 87.4587 19.3361 87.4551 19.3277C87.4479 19.3117 87.4402 19.2962 87.4324 19.2807C87.4283 19.2724 87.4247 19.2635 87.4199 19.2557C87.414 19.2444 87.4068 19.2337 87.3997 19.2224C87.3848 19.198 87.3693 19.1748 87.352 19.1522C87.3449 19.1421 87.3365 19.1326 87.3288 19.123C87.3186 19.1105 87.3085 19.0986 87.2978 19.0867C87.2912 19.0796 87.2859 19.0719 87.2787 19.0647C87.2751 19.0612 87.271 19.0576 87.2674 19.054C87.2585 19.0451 87.2489 19.0362 87.2394 19.0278C87.2203 19.0106 87.2013 18.9939 87.181 18.9784C87.1697 18.9695 87.159 18.9612 87.147 18.9529C87.1363 18.9451 87.125 18.938 87.1137 18.9308C87.1 18.9219 87.0857 18.9136 87.072 18.9059C87.0624 18.9005 87.0529 18.8951 87.0434 18.8904C87.0189 18.8779 86.9945 18.866 86.9695 18.8559C86.9653 18.8541 86.9617 18.8523 86.9576 18.8505C86.9391 18.8434 86.9206 18.8374 86.9016 18.8315C86.8962 18.8297 86.8908 18.8273 86.8849 18.8261C86.867 18.8208 86.8491 18.8166 86.8313 18.813C86.8241 18.8112 86.8176 18.8095 86.8104 18.8083C86.7937 18.8047 86.777 18.8029 86.7604 18.8005C86.7514 18.7993 86.7425 18.7976 86.7335 18.7964C86.7186 18.7946 86.7038 18.794 86.6883 18.7928C86.6769 18.7922 86.6656 18.791 86.6543 18.791C86.6412 18.791 86.6281 18.791 86.615 18.791C86.6013 18.791 86.5876 18.791 86.5739 18.7928C86.5625 18.7934 86.5512 18.7946 86.5399 18.7958C86.5244 18.7976 86.5089 18.7993 86.4928 18.8017C86.4881 18.8023 86.4833 18.8029 86.4791 18.8035L75.8939 20.6659L75.0097 20.8212L74.1285 20.9765L67.4231 22.1564L66.539 22.3117L65.6548 22.467L41.125 26.7833L39.7326 27.0284L38.4975 27.2456L27.6989 29.1461C27.3688 29.2044 27.0989 29.4418 27 29.7613C26.9011 30.0815 26.9899 30.4295 27.2294 30.6634L39.2404 42.381L37.8111 58.4173C37.8099 58.4334 37.8093 58.4495 37.8087 58.4655C37.8087 58.4745 37.8075 58.4834 37.8075 58.4923C37.8075 58.5191 37.8081 58.5465 37.8105 58.5732V58.5744C37.8129 58.6018 37.8164 58.6286 37.8218 58.6553C37.8236 58.6649 37.826 58.6744 37.8284 58.6839C37.8319 58.7006 37.8355 58.7178 37.8403 58.7345C37.8439 58.7464 37.8474 58.7577 37.851 58.7696C37.8558 58.7839 37.8605 58.7981 37.8659 58.8124C37.8707 58.8243 37.8754 58.8362 37.8808 58.8481C37.8868 58.8618 37.8927 58.8755 37.8993 58.8886C37.9046 58.8999 37.9106 58.9106 37.9165 58.9219C37.9243 58.9362 37.9332 58.9505 37.9416 58.9647C37.9475 58.9743 37.9529 58.9832 37.9588 58.9921C37.9714 59.0106 37.9845 59.0284 37.9988 59.0463C38.0017 59.0498 38.0041 59.054 38.0071 59.0576C38.0071 59.0576 38.0083 59.0588 38.0089 59.0594C38.0286 59.0838 38.0494 59.1064 38.0715 59.1278C38.078 59.1343 38.0846 59.1403 38.0911 59.1462C38.1072 59.1611 38.1233 59.1754 38.14 59.1891C38.1483 59.1956 38.1567 59.2022 38.165 59.2087C38.1829 59.2224 38.2013 59.2349 38.2204 59.2468C38.227 59.251 38.2335 59.2557 38.2401 59.2599C38.2651 59.2748 38.2901 59.2884 38.3163 59.3009C38.3259 59.3057 38.336 59.3093 38.3455 59.3134C38.3634 59.3212 38.3813 59.3283 38.3992 59.3349C38.4105 59.339 38.4218 59.3426 38.4337 59.3462C38.4421 59.3485 38.4498 59.3521 38.4581 59.3545C38.4712 59.3581 38.4844 59.361 38.4981 59.364C38.5028 59.3652 38.5076 59.3664 38.513 59.3676C38.541 59.3735 38.5696 59.3783 38.5982 59.3813C38.6035 59.3819 38.6089 59.3825 38.6142 59.383C38.6434 59.386 38.6732 59.3878 38.7024 59.3878C38.7257 59.3878 38.7489 59.3866 38.7715 59.3848C38.7787 59.3848 38.7858 59.383 38.793 59.3825C38.8079 59.3807 38.8234 59.3789 38.8383 59.3765C38.8478 59.3747 38.8579 59.3735 38.8675 59.3711C38.88 59.3688 38.8919 59.3664 38.9044 59.3634C38.9151 59.361 38.9259 59.3587 38.9366 59.3557C38.9479 59.3527 38.9586 59.3491 38.9699 59.3456C38.9807 59.342 38.992 59.339 39.0027 59.3349C39.0224 59.3277 39.0414 59.32 39.0605 59.3116C39.07 59.3075 39.079 59.3027 39.0885 59.298C39.1004 59.292 39.1123 59.2867 39.1237 59.2801C39.1326 59.2754 39.1409 59.2706 39.1493 59.2652C39.1624 59.2575 39.1749 59.2498 39.1874 59.242C39.1946 59.2379 39.2011 59.2331 39.2083 59.2283C39.2261 59.2164 39.2434 59.2034 39.2601 59.1897C39.2613 59.1885 39.2631 59.1879 39.2643 59.1867L39.2661 59.1849L39.269 59.1825L48.3874 51.7978L57.4557 60.9146C57.6244 61.0842 57.8526 61.1782 58.0897 61.1782C58.1147 61.1782 58.1403 61.177 58.1654 61.1752C58.4287 61.1526 58.6688 61.0152 58.8207 60.7986L62.9146 54.974L63.43 54.2409L63.9489 53.5025L72.0532 41.9729L72.571 41.2368L77.0486 34.8666L82.856 26.6048L83.4822 25.714L84.1882 24.7091L87.3633 20.1917C87.3657 20.1881 87.3681 20.1845 87.3705 20.181C87.3782 20.1697 87.3854 20.1578 87.3925 20.1465C87.3991 20.1352 87.4062 20.1244 87.4128 20.1125C87.4187 20.1018 87.4241 20.0911 87.4295 20.0804C87.436 20.0673 87.4426 20.0548 87.4479 20.0417C87.4527 20.0316 87.4563 20.0215 87.4604 20.0114C87.4658 19.9977 87.4718 19.9834 87.4765 19.9691C87.4801 19.959 87.4831 19.9483 87.4867 19.9382C87.4908 19.9239 87.495 19.9096 87.4986 19.8954C87.5016 19.8841 87.5039 19.8728 87.5063 19.8614C87.5093 19.8478 87.5117 19.8341 87.5141 19.821C87.5159 19.8085 87.5176 19.796 87.5194 19.7835C87.5206 19.771 87.5224 19.7579 87.523 19.7454C87.5242 19.7317 87.5248 19.7186 87.5248 19.705C87.5248 19.6931 87.5248 19.6806 87.5248 19.6687C87.5248 19.655 87.5242 19.6413 87.5236 19.6276C87.523 19.6151 87.5218 19.6026 87.5206 19.5901L87.5242 19.5931ZM81.0679 26.0502L71.4098 39.7909L70.867 40.5633L70.3164 41.3469L62.7686 52.0846L62.2157 52.8712L61.6753 53.6399L57.9747 58.9047L46.0065 46.8728L78.5023 25.9747L79.6237 25.2535L81.426 24.0944L83.2814 22.9014L83.1455 23.0948L81.9021 24.8644L81.0685 26.0502H81.0679ZM41.3425 55.2114L44.8304 48.2229L47.1243 50.5292L41.3425 55.2114ZM48.9856 27.2141L49.5552 27.1141L50.4412 26.9582L65.9455 24.2301L66.8315 24.0742L67.7169 23.9183L74.6099 22.705L75.5215 22.5444L76.4515 22.3808L80.4197 21.6822L77.1504 23.2554L76.2996 23.6648L75.4655 24.0664L67.1056 28.0887L65.8538 28.6909L64.3374 29.4204L57.8424 32.5454L56.3237 33.2761L55.0731 33.8777L40.3481 40.9625L29.7276 30.6021L40.9105 28.6344L42.9113 28.2821L48.9862 27.2129L48.9856 27.2141ZM44.1101 45.969C43.9772 46.0541 43.8723 46.1725 43.8014 46.3093C43.7746 46.3474 43.749 46.3867 43.7275 46.4301L40.0132 53.8732L41.016 42.6238L58.25 34.3317L65.4778 30.8538L73.9628 26.7714L44.1106 45.9696L44.1101 45.969Z" fill="#201C1A"/>
<path d="M20.5324 45.2563L20.8637 45.1129L21.6943 44.7529L28.4508 41.8248C28.9037 41.6285 29.1116 41.1031 28.915 40.6508C28.7184 40.1986 28.1923 39.991 27.7394 40.1873L21.5829 42.8554L20.6552 43.2576L19.7591 43.6462L19.4749 43.7693L18.1295 44.3524L15.9643 45.2908L14.013 46.1363L11.8317 47.0818L10.4858 47.6649L0.53804 51.9746C0.0852194 52.171 -0.12272 52.6964 0.0738989 53.1486C0.219874 53.4853 0.548764 53.6859 0.894338 53.6859C1.01291 53.6859 1.13386 53.6621 1.24944 53.6121L9.88163 49.8712L10.8474 49.4529L11.8818 49.0049L19.4993 45.7037L20.5318 45.2563H20.5324Z" fill="#201C1A"/>
<path d="M50.0867 59.1893C49.8382 58.7633 49.2907 58.6193 48.8647 58.868L33.4259 67.8557C32.9993 68.1039 32.8551 68.6507 33.1041 69.0761C33.2704 69.3605 33.5695 69.5194 33.8769 69.5194C34.03 69.5194 34.1849 69.4801 34.3262 69.398L49.7649 60.4103C50.1915 60.1622 50.3357 59.6153 50.0867 59.1899V59.1893Z" fill="#201C1A"/>
<path d="M12.8023 69.9531C12.9668 70.2435 13.2694 70.4071 13.5816 70.4071C13.7306 70.4071 13.8813 70.3702 14.0202 70.2916L31.7588 60.2918C32.1091 60.0943 32.2748 59.6962 32.1926 59.3237C32.1741 59.2392 32.1425 59.1553 32.0978 59.0762C31.9822 58.8721 31.7981 58.7311 31.5908 58.6656C31.3626 58.593 31.1058 58.6109 30.8806 58.7376L27.46 60.6661L25.9526 61.5157L13.1425 68.7375C12.7129 68.9796 12.561 69.5241 12.8035 69.9537L12.8023 69.9531Z" fill="#201C1A"/>
</g>
<defs>
<clipPath id="clip0_8014_1215">
<rect width="102.409" height="70.4065" fill="white"/>
</clipPath>
</defs>
</svg>
