<svg width="74" height="66" viewBox="0 0 74 66" fill="none" xmlns="http://www.w3.org/2000/svg">
<path d="M15.83 21.4686C13.2843 19.2865 10.021 13.0642 17.3342 5.63235L68.2948 14.7872C71.1329 16.852 74.9612 22.9126 67.5698 30.6366M15.83 21.4686C11.5216 24.6968 11.7033 31.5152 12.3083 34.6121M15.83 21.4686L67.5698 30.6366M67.5698 30.6366C68.5116 33.6933 69.0965 40.711 64.2926 42.8673M64.2926 42.8673C65.2539 46.5814 65.8954 54.4099 60.3795 57.4711L3.52488 49.8675C2.02665 47.1834 0.322559 40.205 5.49196 33.7639L12.3083 34.6121M64.2926 42.8673L12.3083 34.6121" stroke="#93C4FE" strokeWidth="1.5119"/>
<path d="M21.4129 6.72827C17.444 11.642 16.8771 18.0675 18.2 21.2803" stroke="#93C4FE" strokeWidth="1.13393" stroke-linecap="round"/>
<path d="M19.5233 22.0361C15.5544 26.9498 15.3655 31.8635 16.6884 35.0763" stroke="#93C4FE" strokeWidth="1.13393" stroke-linecap="round"/>
<path d="M54.8637 41.502C53.6069 45.3715 51.1727 53.737 51.4902 56.243" stroke="#93C4FE" strokeWidth="1.5119" stroke-linecap="round"/>
<path d="M51.4633 41.1238C50.2065 44.9933 47.7723 53.3588 48.0898 55.8648" stroke="#93C4FE" strokeWidth="1.5119" stroke-linecap="round"/>
<path d="M22.8997 17.2287C22.8793 17.1803 22.8363 17.1444 22.7707 17.1211C22.7051 17.0978 22.6021 17.0783 22.4616 17.0628C22.4046 17.0613 22.3477 17.0476 22.2907 17.0217C22.2338 16.9957 22.1901 16.9638 22.1597 16.9259C22.1293 16.8881 22.1207 16.8539 22.134 16.8235C22.1461 16.7765 22.2104 16.7342 22.3272 16.6966C22.4439 16.6591 22.5881 16.6528 22.7597 16.6776L23.0112 16.714L23.0909 16.6048C23.1142 16.5637 23.1342 16.518 23.1509 16.4677C23.1715 16.418 23.2035 16.3498 23.2467 16.2631C23.272 16.2101 23.309 16.1366 23.3576 16.0426C23.4061 15.9486 23.4577 15.8489 23.5123 15.7436C23.5675 15.6344 23.6168 15.5364 23.66 15.4497C23.7033 15.3629 23.7319 15.3023 23.7459 15.2679C23.7679 15.2348 23.7998 15.1789 23.8417 15.1001C23.8843 15.0173 23.9249 14.9342 23.9635 14.8508C24.0068 14.764 24.0358 14.7015 24.0504 14.663C24.2068 14.3664 24.3113 14.1592 24.3639 14.0413C24.4172 13.9195 24.4362 13.8552 24.421 13.8486C24.4051 13.8459 24.367 13.8415 24.3067 13.8354C24.2464 13.8293 24.1798 13.8242 24.1068 13.8201C24.0346 13.812 23.97 13.8072 23.913 13.8057C23.856 13.8043 23.8209 13.8065 23.8076 13.8125C23.783 13.837 23.7499 13.8273 23.7082 13.7834C23.6672 13.7356 23.6441 13.6908 23.6389 13.6491C23.641 13.6126 23.6467 13.5788 23.656 13.5477C23.6654 13.5166 23.681 13.4967 23.7029 13.4881C23.7347 13.469 23.7968 13.4529 23.8889 13.4398C23.9817 13.4228 24.0838 13.4114 24.1952 13.4057C24.3105 13.4006 24.4149 13.3998 24.5084 13.4033C24.5773 13.4068 24.6472 13.4043 24.7182 13.3958C24.7898 13.3834 24.8482 13.3646 24.8933 13.3395C24.9311 13.3336 24.9665 13.3294 24.9997 13.3268C25.0368 13.3249 25.0729 13.3289 25.108 13.339C25.1365 13.3642 25.1885 13.3832 25.264 13.3959C25.3435 13.4094 25.4273 13.4215 25.5155 13.4323C25.7415 13.45 25.8952 13.4841 25.9766 13.5346C26.0626 13.5819 26.1149 13.6357 26.1333 13.696C26.1405 13.7749 26.1257 13.8378 26.0892 13.8848C26.0533 13.9278 26.0019 13.9416 25.935 13.9263C25.8979 13.9282 25.8468 13.9277 25.7819 13.925C25.7176 13.9182 25.6335 13.9081 25.5294 13.8946C25.263 13.8742 25.1172 13.8782 25.0919 13.9066C25.0734 13.9198 25.0568 13.9334 25.0421 13.9473C25.0315 13.9618 25.0166 13.9777 24.9973 13.9949C24.9986 14.0115 24.9806 14.0575 24.9433 14.133C24.9107 14.2052 24.8711 14.2823 24.8245 14.3644C24.7999 14.4134 24.7636 14.4829 24.7157 14.573C24.6678 14.663 24.6173 14.7567 24.564 14.854C24.5155 14.948 24.4702 15.0344 24.4283 15.1132C24.387 15.188 24.3581 15.2383 24.3415 15.2642C24.3195 15.2973 24.2989 15.3347 24.2796 15.3764C24.2649 15.4148 24.2539 15.4436 24.2466 15.4628C24.1581 15.6482 24.0828 15.8032 24.0209 15.9276C23.963 16.0528 23.9118 16.1627 23.8671 16.2574C23.8232 16.3481 23.7816 16.4372 23.7423 16.5246C23.7037 16.608 23.6591 16.7027 23.6085 16.8087C23.6085 16.8087 23.6426 16.8124 23.7109 16.8198C23.7798 16.8233 23.8666 16.8297 23.9713 16.8392C24.1615 16.8509 24.2908 16.8604 24.359 16.8679C24.4273 16.8753 24.466 16.888 24.4753 16.9059C24.4852 16.9198 24.4931 16.9457 24.499 16.9835C24.5604 17.1043 24.5393 17.1927 24.4358 17.2488C24.3362 17.3056 24.1755 17.3132 23.9535 17.2717C23.7455 17.2447 23.5914 17.2249 23.4913 17.2121C23.3946 17.2039 23.3313 17.2034 23.3014 17.2107C23.2716 17.2179 23.2543 17.2354 23.2496 17.2633C23.2429 17.3275 23.1967 17.3586 23.1112 17.3564C23.0291 17.3589 22.9586 17.3163 22.8997 17.2287ZM25.5841 17.7555C25.5119 17.7474 25.458 17.7035 25.4223 17.6239C25.3867 17.5443 25.3749 17.481 25.3869 17.4339C25.4017 17.371 25.435 17.2826 25.4869 17.1687C25.5388 17.0548 25.5951 16.9396 25.6557 16.823C25.7162 16.7065 25.7684 16.6151 25.8123 16.5489C25.839 16.488 25.8623 16.4347 25.8822 16.389C25.9069 16.34 25.9225 16.3079 25.9292 16.2927C25.9438 16.2788 25.9687 16.2401 26.004 16.1765C26.0432 16.1136 26.0762 16.0517 26.1028 15.9908C26.1161 15.9603 26.1421 15.9034 26.1807 15.82C26.224 15.7332 26.2735 15.6332 26.3295 15.52C26.3893 15.4075 26.4469 15.2966 26.5022 15.1873C26.5614 15.0787 26.6123 14.9831 26.6549 14.9003C26.6975 14.8175 26.7251 14.7629 26.7377 14.7364C26.7776 14.6941 26.8092 14.6524 26.8324 14.6113C26.8557 14.5703 26.8707 14.5422 26.8774 14.5269C26.9039 14.515 26.9212 14.4975 26.9292 14.4743C26.9378 14.4472 26.9435 14.4257 26.9462 14.4097C26.9496 14.3899 26.9582 14.375 26.9721 14.3651C26.9901 14.3558 27.0004 14.3432 27.003 14.3273C27.021 14.3181 27.0312 14.3178 27.0339 14.3264C27.0365 14.335 27.0494 14.3311 27.0727 14.3146L27.1367 14.1168L27.6684 14.2005C27.6524 14.2468 27.6304 14.3045 27.6025 14.3733C27.5751 14.4382 27.5219 14.5233 27.4429 14.6285C27.4096 14.7047 27.3736 14.7722 27.3351 14.8311C27.3005 14.8907 27.2835 14.9308 27.2841 14.9513C27.2748 14.9579 27.2502 14.9947 27.2103 15.0615C27.1744 15.129 27.1298 15.2115 27.0766 15.3088C27.0273 15.4068 26.9761 15.5044 26.9228 15.6018C26.8736 15.6998 26.8283 15.7862 26.7871 15.861C26.7505 15.9325 26.7265 15.9775 26.7152 15.996C26.6727 16.0543 26.6211 16.1417 26.5606 16.2582C26.5 16.3747 26.4122 16.5316 26.2971 16.7289C26.2546 16.7872 26.1987 16.8759 26.1295 16.995C26.0643 17.1149 26.0091 17.2241 25.9638 17.3228C25.8939 17.4704 25.8354 17.575 25.7882 17.6366C25.745 17.6988 25.7084 17.7335 25.6786 17.7407C25.6481 17.7519 25.6166 17.7569 25.5841 17.7555ZM26.2297 14.2581C26.064 14.2465 25.956 14.2079 25.9058 14.1421C25.8595 14.0771 25.8497 14.0141 25.8764 13.9532C25.8963 13.9075 25.9309 13.8724 25.98 13.848C26.0337 13.8203 26.1242 13.8049 26.2515 13.8018C26.2966 13.8013 26.3539 13.8007 26.4235 13.8002C26.4971 13.8004 26.5667 13.7998 26.6323 13.7986C26.7662 13.8049 26.8759 13.8091 26.9614 13.8113C27.0508 13.8141 27.142 13.8193 27.2347 13.8267C27.3275 13.8342 27.4441 13.8457 27.5846 13.8613C27.7013 13.8728 27.7997 13.8833 27.8799 13.8927C27.9647 13.8988 28.0071 13.9019 28.0071 13.9019C28.019 13.9039 28.0601 13.915 28.1303 13.935C28.2005 13.955 28.2764 13.978 28.3578 14.0041C28.4393 14.0301 28.4986 14.0544 28.5357 14.077C28.6237 14.1123 28.6912 14.1605 28.7382 14.2216C28.7851 14.2827 28.8108 14.3483 28.8153 14.4186C28.8192 14.4683 28.8128 14.5061 28.7962 14.5319C28.7802 14.5537 28.755 14.5699 28.7205 14.5805C28.6244 14.5929 28.5448 14.604 28.4818 14.6138C28.4235 14.6203 28.3682 14.6089 28.3159 14.5796C28.2994 14.5564 28.2785 14.5345 28.2534 14.5139C28.2322 14.4939 28.1905 14.4746 28.1282 14.4559C28.0706 14.434 27.9769 14.4079 27.847 14.3778C27.7337 14.371 27.6353 14.3605 27.5518 14.3464C27.4683 14.3323 27.4249 14.3352 27.4215 14.3551L27.0667 14.3136L26.7695 14.2941C26.729 14.2913 26.6724 14.2879 26.5995 14.2838C26.5272 14.2757 26.4567 14.2699 26.3877 14.2664C26.3195 14.259 26.2668 14.2562 26.2297 14.2581Z" fill="#C396B9"/>
<path d="M46.0307 34.4531C46.0168 34.4631 45.988 34.4613 45.9442 34.4477C45.9 34.4372 45.8678 34.4103 45.8475 34.367C45.8337 34.3217 45.8298 34.272 45.8359 34.2179C45.8419 34.1637 45.8545 34.0891 45.8736 33.9942C45.9091 33.8929 45.9621 33.7608 46.0325 33.5979C46.1029 33.435 46.1811 33.2534 46.267 33.0533C46.3564 32.8506 46.4466 32.6435 46.5375 32.4319C46.582 32.3321 46.6177 32.2477 46.6447 32.1786C46.6746 32.1101 46.6956 32.0584 46.7076 32.0237C46.7231 31.9864 46.7309 31.9678 46.7309 31.9678C46.7269 31.9733 46.7214 31.9785 46.7144 31.9834C46.7104 31.9889 46.7064 31.9943 46.7025 31.9998C46.6985 32.0053 46.6945 32.0107 46.6905 32.0162C46.6905 32.0162 46.6828 32.0256 46.6673 32.0445C46.6548 32.0638 46.6279 32.0961 46.5866 32.1412C46.5567 32.173 46.5273 32.211 46.4984 32.2551C46.4694 32.2993 46.4231 32.3559 46.3593 32.4249C46.2965 32.5063 46.2255 32.6001 46.1462 32.7063C46.0669 32.8125 46.0007 32.8964 45.9473 32.9579C45.9209 32.9872 45.8968 33.0122 45.8749 33.0331C45.8559 33.0544 45.8422 33.072 45.8337 33.0859C45.8163 33.1167 45.7901 33.1537 45.7552 33.1969C45.7203 33.24 45.6812 33.281 45.6379 33.3197C45.6155 33.3435 45.5863 33.3708 45.5505 33.4015C45.5176 33.4327 45.4882 33.4615 45.4623 33.4878C45.4369 33.5111 45.4242 33.5228 45.4242 33.5228C45.4152 33.5397 45.3911 33.5647 45.3517 33.5979C45.3124 33.6312 45.2648 33.6676 45.2091 33.7073C45.1568 33.7444 45.1035 33.7784 45.0493 33.8091C44.9308 33.875 44.8356 33.9125 44.7635 33.9218C44.6943 33.9316 44.6226 33.8935 44.5482 33.8073C44.5175 33.753 44.4942 33.7001 44.4784 33.6483C44.4631 33.5936 44.4628 33.523 44.4774 33.4366C44.492 33.3501 44.5273 33.2318 44.5833 33.0818C44.6207 32.987 44.6607 32.8864 44.7032 32.7801C44.7486 32.6743 44.7933 32.573 44.8373 32.4761C44.8817 32.3763 44.9207 32.2909 44.9542 32.2199C44.9911 32.1464 45.0166 32.0955 45.0305 32.0672C45.0521 31.9941 45.0601 31.9556 45.0546 31.9516C45.0497 31.9447 45.032 31.9586 45.0016 31.9933C44.9752 32.0226 44.9249 32.0846 44.8506 32.1794C44.7763 32.2742 44.6916 32.3856 44.5964 32.5137C44.5041 32.6422 44.4134 32.771 44.3241 32.9001C44.1636 33.1061 44.0288 33.278 43.9197 33.416C43.8105 33.554 43.7213 33.6646 43.652 33.748C43.5833 33.8284 43.5302 33.8884 43.4928 33.9281C43.4579 33.9713 43.4315 34.0006 43.4136 34.016C43.3982 34.0348 43.3869 34.0467 43.38 34.0517C43.3358 34.0412 43.3005 34.0137 43.2743 33.9694C43.248 33.9251 43.229 33.8744 43.2172 33.8172C43.2162 33.7864 43.217 33.7543 43.2196 33.721C43.2222 33.6877 43.2312 33.6524 43.2467 33.6152C43.2656 33.5755 43.2911 33.5338 43.323 33.4901C43.3748 33.4191 43.4232 33.3598 43.468 33.3122C43.5128 33.2645 43.5407 33.2355 43.5517 33.2251C43.5701 33.2067 43.5858 33.1864 43.5988 33.1641C43.6118 33.1417 43.6215 33.1204 43.628 33.1C43.6459 33.0846 43.6746 33.0511 43.714 32.9995C43.7563 32.9484 43.7995 32.8928 43.8433 32.8327C43.8737 32.798 43.9156 32.7499 43.9689 32.6883C44.0227 32.6238 44.0803 32.5553 44.1416 32.4829C44.2034 32.4075 44.258 32.3385 44.3053 32.2759C44.4763 32.0625 44.6123 31.8923 44.7135 31.7653C44.8152 31.6352 44.8857 31.5536 44.925 31.5204C44.9484 31.509 44.9711 31.4837 44.993 31.4445C45.0185 31.4028 45.0389 31.3725 45.0544 31.3536C45.1102 31.2772 45.1635 31.2156 45.2143 31.169C45.2686 31.1199 45.3122 31.0981 45.345 31.1037C45.3688 31.1077 45.3971 31.1217 45.4299 31.1456C45.4656 31.17 45.4986 31.2017 45.5289 31.2405C45.5551 31.2848 45.5761 31.342 45.5919 31.4121C45.6111 31.4798 45.603 31.5643 45.5675 31.6656C45.5565 31.7128 45.5392 31.7697 45.5157 31.8363C45.4927 31.8999 45.4697 31.9634 45.4467 32.027C45.4237 32.0906 45.4025 32.1437 45.383 32.1865C45.3365 32.3166 45.288 32.4403 45.2376 32.5575C45.1906 32.6722 45.1466 32.7783 45.1057 32.8756C45.0647 32.973 45.0302 33.0592 45.0022 33.1342C44.9747 33.2062 44.954 33.2655 44.94 33.3122C44.9289 33.3594 44.9296 33.3918 44.942 33.4092C44.9504 33.4137 44.9629 33.4127 44.9793 33.4063C44.9992 33.3974 45.0146 33.3877 45.0256 33.3773C45.0475 33.3565 45.0679 33.3354 45.0868 33.314C45.1058 33.2927 45.1302 33.2662 45.1601 33.2344C45.2189 33.1769 45.2801 33.1136 45.3439 33.0446C45.4112 32.9732 45.4904 32.8854 45.5816 32.7812C45.6763 32.6745 45.7889 32.5432 45.9194 32.3874C46.0505 32.2286 46.211 32.0318 46.4009 31.7971C46.4871 31.7043 46.5703 31.611 46.6505 31.5172C46.7307 31.4235 46.801 31.3525 46.8612 31.3044C46.914 31.2643 46.9719 31.2572 47.035 31.2832C47.1011 31.3096 47.1574 31.3575 47.204 31.4267C47.2506 31.4959 47.2695 31.5742 47.2609 31.6617C47.2569 31.7039 47.2353 31.777 47.1963 31.8808C47.1608 31.9821 47.1156 32.0956 47.0607 32.2213C47.0057 32.3469 46.9468 32.4688 46.8839 32.587C46.8664 32.6362 46.8402 32.7008 46.8052 32.7807C46.7703 32.8607 46.7336 32.9419 46.6951 33.0243C46.6567 33.1068 46.6212 33.1805 46.5888 33.2456C46.5508 33.3434 46.5193 33.4209 46.4943 33.478C46.4723 33.5356 46.4548 33.6032 46.4417 33.6807C46.4068 33.7239 46.3774 33.7895 46.3533 33.8774C46.3293 33.9654 46.3092 34.057 46.2931 34.1524C46.2615 34.2667 46.2223 34.3444 46.1755 34.3856C46.1317 34.4273 46.1041 34.4456 46.0926 34.4406C46.0703 34.4276 46.0497 34.4318 46.0307 34.4531ZM47.6318 34.4106C47.5338 34.4462 47.4334 34.4599 47.3305 34.4518C47.2311 34.4411 47.1409 34.4121 47.06 34.3647C46.9796 34.3143 46.9183 34.2503 46.8762 34.1727C46.853 34.1289 46.8349 34.063 46.8222 33.975C46.81 33.884 46.8251 33.7669 46.8677 33.6238C46.9087 33.4897 46.9739 33.3581 47.0631 33.229C47.1553 33.1005 47.2597 32.9908 47.3762 32.9001C47.4927 32.8094 47.6124 32.7545 47.7352 32.7353C47.7795 32.7275 47.823 32.7241 47.8657 32.7252C47.912 32.7238 47.9704 32.7321 48.0409 32.7501C48.108 32.7706 48.1661 32.7989 48.2152 32.8347C48.2649 32.8677 48.2991 32.901 48.3179 32.9349C48.3576 32.9906 48.3811 33.0421 48.3884 33.0894C48.3958 33.1366 48.3945 33.1809 48.3844 33.2221C48.3534 33.315 48.2928 33.4106 48.2027 33.5088C48.1155 33.6075 48.0047 33.6732 47.8704 33.7057C47.8162 33.718 47.7543 33.7214 47.6847 33.7158C47.6151 33.7102 47.5227 33.6854 47.4075 33.6414C47.3385 33.6144 47.2895 33.6138 47.2606 33.6396C47.2347 33.6659 47.2159 33.7225 47.2043 33.8095C47.2012 33.8641 47.2051 33.9139 47.2159 33.9586C47.2303 34.0009 47.263 34.034 47.3142 34.058C47.3807 34.0815 47.4297 34.0913 47.461 34.0874C47.4928 34.0805 47.5329 34.0704 47.5811 34.0571C47.6075 34.0462 47.6326 34.0336 47.6565 34.0192C47.6834 34.0053 47.7088 33.9912 47.7327 33.9769C47.7595 33.963 47.7812 33.9528 47.7976 33.9464C47.8145 33.937 47.8307 33.9321 47.8461 33.9316C47.8615 33.9311 47.8767 33.9322 47.8916 33.9347C47.9239 33.9432 47.9522 33.9664 47.9764 34.0042C48.0007 34.042 48.0148 34.0766 48.0187 34.1079C48.0147 34.1318 47.994 34.1636 47.9566 34.2033C47.9198 34.24 47.872 34.2779 47.8132 34.317C47.758 34.3537 47.6975 34.3849 47.6318 34.4106ZM47.742 33.4035C47.7644 33.398 47.7978 33.3822 47.8421 33.3559C47.8893 33.3302 47.9324 33.3022 47.9712 33.2719C48.0106 33.2387 48.032 33.2117 48.0355 33.1908C48.0411 33.158 48.0235 33.1259 47.9828 33.0945C47.9451 33.0636 47.8907 33.0498 47.8196 33.0532C47.7947 33.0551 47.7636 33.0667 47.7263 33.088C47.689 33.1093 47.6509 33.1351 47.6121 33.1653C47.5737 33.1926 47.5399 33.2206 47.5105 33.2494C47.4816 33.2752 47.4612 33.2962 47.4492 33.3126C47.4586 33.3295 47.4804 33.3455 47.5147 33.3605C47.549 33.3755 47.587 33.3865 47.6287 33.3935C47.6735 33.4011 47.7112 33.4044 47.742 33.4035ZM49.4584 34.8983C49.4181 34.9007 49.3811 34.8838 49.3474 34.8474C49.3161 34.8145 49.2958 34.7804 49.2865 34.7451C49.2766 34.6944 49.2722 34.6477 49.2733 34.6049C49.2779 34.5597 49.2835 34.5085 49.29 34.4513L49.3112 34.2985L49.0999 34.433C48.9825 34.5113 48.8755 34.5638 48.779 34.5905C48.686 34.6146 48.6037 34.6207 48.5321 34.6086C48.5003 34.5971 48.4636 34.5694 48.4219 34.5256C48.3838 34.4793 48.3491 34.4305 48.3178 34.3792C48.2901 34.3255 48.2713 34.2824 48.2614 34.2501C48.2506 34.2053 48.2545 34.1462 48.273 34.0727C48.2945 33.9996 48.3263 33.9207 48.3682 33.8357C48.4131 33.7513 48.4637 33.6694 48.5201 33.59C48.5794 33.5111 48.6427 33.4451 48.7099 33.392C48.8334 33.2596 48.9713 33.1878 49.1234 33.1766C49.2761 33.1625 49.4038 33.1964 49.5065 33.2781C49.5556 33.314 49.5926 33.331 49.6175 33.329C49.6423 33.3271 49.6605 33.3102 49.672 33.2785C49.692 33.2328 49.713 33.1903 49.7349 33.1511C49.7569 33.1118 49.7883 33.0528 49.8292 32.9738C49.942 32.7598 50.0361 32.5932 50.1114 32.474C50.1897 32.3554 50.2593 32.2521 50.3201 32.1643C50.3645 32.1012 50.4053 32.0591 50.4426 32.0378C50.48 32.0165 50.5103 32.0093 50.5337 32.0163C50.5665 32.0219 50.6047 32.0406 50.6484 32.0725C50.695 32.1049 50.7223 32.1432 50.7302 32.1875C50.7376 32.2163 50.7372 32.2454 50.7292 32.2747C50.7242 32.3046 50.71 32.3344 50.6865 32.3641C50.6357 32.4291 50.5734 32.5168 50.4996 32.627C50.4293 32.7347 50.3554 32.8541 50.2781 32.9852C50.2038 33.1168 50.1327 33.2473 50.0648 33.3769C49.9969 33.5066 49.9393 33.621 49.8918 33.7203C49.8629 33.7829 49.8339 33.8639 49.8048 33.9632C49.7788 34.0631 49.7537 34.1662 49.7296 34.2725C49.709 34.3764 49.6932 34.4703 49.6821 34.5543C49.6714 34.6353 49.6671 34.6882 49.669 34.7131C49.6769 34.7758 49.6693 34.8205 49.6464 34.8473C49.6235 34.8741 49.5949 34.8892 49.5606 34.8926C49.5257 34.899 49.4917 34.9009 49.4584 34.8983ZM48.8118 34.2326C48.856 34.2247 48.8963 34.2131 48.9327 34.1978C48.969 34.1825 49.0123 34.1622 49.0625 34.1369C49.1635 34.0835 49.2377 34.0346 49.285 33.9905C49.3353 33.9469 49.3787 33.8898 49.4151 33.8193C49.4376 33.7771 49.4441 33.7383 49.4348 33.703C49.4284 33.6682 49.4113 33.6331 49.3835 33.5977C49.3553 33.5654 49.3153 33.5479 49.2636 33.5453C49.2124 33.5397 49.149 33.5612 49.0733 33.6098C48.9907 33.6633 48.9167 33.729 48.8514 33.8069C48.7862 33.8848 48.7235 34.0015 48.6636 34.157C48.6526 34.1858 48.6595 34.2084 48.6843 34.2249C48.7091 34.2413 48.7516 34.2439 48.8118 34.2326ZM50.365 34.9594C50.2935 34.9473 50.2372 34.8995 50.1961 34.8159C50.1585 34.7298 50.1428 34.6321 50.149 34.5227C50.156 34.4994 50.1647 34.4656 50.1753 34.4214C50.1888 34.3777 50.2025 34.3324 50.2166 34.2857C50.238 34.2311 50.2668 34.1608 50.3027 34.0749C50.3387 33.989 50.3762 33.9033 50.4151 33.8179C50.4546 33.7295 50.4888 33.654 50.5178 33.5914C50.5472 33.5258 50.5645 33.4874 50.5694 33.4759C50.5944 33.4372 50.6364 33.4336 50.6955 33.465C50.7546 33.4965 50.8007 33.5502 50.8338 33.6264C50.8477 33.6532 50.8534 33.6833 50.8508 33.7166C50.8512 33.7504 50.8387 33.7974 50.8132 33.8575C50.7907 33.9181 50.7513 34.0065 50.6949 34.1227C50.6419 34.2364 50.6002 34.329 50.5698 34.4006C50.5428 34.4696 50.524 34.5446 50.5134 34.6256C50.4783 34.7608 50.4505 34.8527 50.43 34.9014C50.41 34.9471 50.3884 34.9664 50.365 34.9594ZM51.0898 33.1728C51.0764 33.1797 51.0637 33.1822 51.0518 33.1802C51.0433 33.1757 51.0284 33.164 51.0071 33.145C50.9867 33.1385 50.9622 33.1206 50.9334 33.0912C50.9081 33.0593 50.8858 33.028 50.8665 32.9971C50.8501 32.9667 50.8425 32.9486 50.8435 32.9426C50.8455 32.9123 50.8551 32.8648 50.8721 32.8002C50.8921 32.7362 50.9188 32.6778 50.9522 32.6252C50.9891 32.5701 51.0302 32.5448 51.0754 32.5494C51.0874 32.5514 51.1117 32.5616 51.1485 32.5801C51.1882 32.5991 51.2289 32.6213 51.2706 32.6467C51.2869 32.6955 51.2995 32.7574 51.3082 32.8325C51.317 32.9076 51.3067 32.9779 51.2772 33.0434C51.2513 33.1065 51.1888 33.1496 51.0898 33.1728ZM51.3242 35.0891C51.2586 35.078 51.21 35.0667 51.1782 35.0552C51.1493 35.0443 51.1285 35.0315 51.1156 35.0171C51.1027 35.0026 51.0861 34.983 51.0658 34.9581C51.0579 34.9322 51.042 34.8989 51.0183 34.8581C50.995 34.8143 50.9784 34.7854 50.9685 34.7715C50.9641 34.7247 50.9699 34.6628 50.986 34.5858C51.0051 34.5093 51.0326 34.4281 51.0685 34.3422C51.1045 34.2562 51.1434 34.18 51.1853 34.1135C51.2013 34.0916 51.2157 34.0696 51.2287 34.0472C51.2417 34.0249 51.2482 34.0137 51.2482 34.0137C51.2507 33.9988 51.2746 33.966 51.32 33.9154C51.3683 33.8653 51.4201 33.8127 51.4754 33.7577C51.5337 33.7031 51.58 33.6649 51.6143 33.6431C51.6392 33.6228 51.6748 33.6027 51.7211 33.5829C51.7703 33.5637 51.8124 33.5508 51.8472 33.5444C51.882 33.538 51.9292 33.5307 51.9889 33.5223C52.0491 33.511 52.1015 33.5092 52.1462 33.5167C52.188 33.5238 52.2312 33.5403 52.2759 33.5662C52.3206 33.5921 52.3555 33.6302 52.3808 33.6805C52.4254 33.7432 52.4489 33.8131 52.4512 33.8902C52.4535 33.9672 52.4442 34.0316 52.4232 34.0832C52.3982 34.1404 52.3601 34.1845 52.3088 34.2157C52.2581 34.244 52.2071 34.2553 52.1559 34.2497C52.1052 34.2412 52.064 34.2127 52.0323 34.1645C52.0244 34.1386 52.0217 34.1182 52.0242 34.1033C52.0273 34.0854 52.0375 34.0611 52.055 34.0303C52.0739 33.9906 52.0862 33.9543 52.0917 33.9215C52.0973 33.8887 52.0866 33.87 52.0598 33.8655C52.021 33.859 51.9877 33.8656 51.9598 33.8854C51.9324 33.9023 51.8906 33.932 51.8344 33.9746C51.8095 33.995 51.7768 34.0247 51.7365 34.0639C51.6961 34.1031 51.655 34.1468 51.6132 34.1949C51.5748 34.2406 51.5392 34.2882 51.5063 34.3379C51.4568 34.4307 51.4252 34.4913 51.4112 34.5196C51.4007 34.5454 51.3954 34.5583 51.3954 34.5583C51.3934 34.5703 51.3899 34.5819 51.3849 34.5934C51.3804 34.6018 51.3772 34.612 51.3752 34.6239C51.3691 34.6597 51.3852 34.6915 51.4234 34.7195C51.4527 34.7459 51.4778 34.7608 51.4987 34.7644C51.523 34.7654 51.5705 34.7566 51.6411 34.7378C51.6929 34.722 51.7429 34.6983 51.7912 34.6665C51.8424 34.6353 51.8944 34.6088 51.9472 34.5871C51.9835 34.5717 52.0119 34.5581 52.0323 34.5462C52.0556 34.5349 52.0663 34.5351 52.0643 34.5471C52.0623 34.559 52.0658 34.5657 52.0747 34.5672C52.0837 34.5687 52.0951 34.5645 52.109 34.5546C52.131 34.5338 52.1548 34.5286 52.1807 34.5391C52.207 34.5466 52.2296 34.5581 52.2484 34.5735C52.2703 34.5895 52.2805 34.6019 52.2789 34.6109C52.2684 34.6367 52.2706 34.6601 52.2855 34.681C52.2835 34.6929 52.2763 34.7086 52.2638 34.7279C52.2548 34.7448 52.2433 34.7582 52.2294 34.7681C52.211 34.7865 52.1836 34.8125 52.1472 34.8462C52.1138 34.8805 52.0827 34.9105 52.0538 34.9363C52.0249 34.9621 52.0105 34.975 52.0105 34.975C51.9991 34.97 51.9866 34.9709 51.9732 34.9779C51.9627 34.9853 51.9505 34.994 51.9366 35.0039C51.9092 35.0207 51.8841 35.0333 51.8612 35.0418C51.8388 35.0472 51.8217 35.0489 51.8098 35.0469C51.7869 35.0553 51.7692 35.06 51.7568 35.0609C51.7473 35.0624 51.7416 35.0691 51.7396 35.081C51.7047 35.1058 51.6476 35.1176 51.568 35.1165C51.489 35.1123 51.4077 35.1032 51.3242 35.0891ZM52.8137 35.2945C52.7764 35.2974 52.738 35.2802 52.6983 35.2428C52.6586 35.2055 52.6246 35.1614 52.5964 35.1107C52.5682 35.0599 52.5526 35.0159 52.5497 34.9786C52.5483 34.9139 52.5641 34.8384 52.5971 34.752C52.6336 34.6631 52.6842 34.572 52.7491 34.4786C52.8144 34.3823 52.8911 34.291 52.9793 34.2047C53.068 34.1154 53.1638 34.0381 53.2669 33.9727C53.3699 33.9073 53.4774 33.861 53.5893 33.8339C53.638 33.8176 53.6719 33.808 53.6908 33.805C53.7102 33.7991 53.728 33.8021 53.7444 33.8141C53.7613 33.8231 53.7901 33.8433 53.8308 33.8747C53.8705 33.8936 53.9097 33.9156 53.9485 33.9405C53.9907 33.963 54.0244 33.9993 54.0497 34.0496C54.066 34.0984 54.0763 34.1461 54.0807 34.1928C54.0851 34.2396 54.0869 34.292 54.0863 34.3502C54.0976 34.4288 54.0982 34.4795 54.0882 34.5023C54.0787 34.5222 54.067 34.5371 54.0531 34.547C54.0242 34.5728 54.0157 34.5867 54.0277 34.5887C54.0277 34.5887 54.0252 34.5944 54.0202 34.6058C54.0187 34.6148 54.0102 34.6287 53.9947 34.6475C53.9628 34.7096 53.9358 34.7694 53.9138 34.8271C53.8953 34.8822 53.8882 34.9331 53.8926 34.9799C53.9054 35.0495 53.9302 35.0935 53.9669 35.112C54.0066 35.131 54.0648 35.1132 54.1415 35.0587C54.1783 35.0404 54.2181 35.0317 54.2609 35.0328C54.3041 35.0309 54.3237 35.0419 54.3197 35.0658C54.3197 35.0658 54.3234 35.071 54.3309 35.0814C54.3388 35.0889 54.3487 35.0937 54.3607 35.0957C54.3756 35.0982 54.379 35.1141 54.371 35.1434C54.3635 35.1698 54.3522 35.2001 54.3373 35.2343C54.3223 35.2686 54.3053 35.2964 54.2864 35.3177C54.2341 35.3549 54.2067 35.3809 54.2042 35.3959C54.2042 35.3959 54.1972 35.4008 54.1833 35.4107C54.1728 35.4182 54.1539 35.4303 54.1265 35.4471C54.0673 35.4709 53.996 35.4757 53.9125 35.4616C53.832 35.448 53.7722 35.4211 53.733 35.3807C53.6938 35.3404 53.6558 35.2926 53.6192 35.2373C53.5855 35.1826 53.5662 35.1333 53.5613 35.0895L53.5465 35.041L53.4025 35.1041C53.3641 35.1314 53.336 35.1527 53.3181 35.1681C53.3006 35.1805 53.285 35.1916 53.271 35.2015C53.2601 35.212 53.2479 35.2206 53.2344 35.2276C53.224 35.235 53.2128 35.2377 53.2009 35.2357C53.1889 35.2337 53.1785 35.2319 53.1696 35.2304C53.1606 35.2289 53.1561 35.2281 53.1561 35.2281C53.1541 35.2401 53.1305 35.2529 53.0852 35.2668C53.0405 35.2776 52.9915 35.2862 52.9383 35.2926C52.8851 35.2989 52.8436 35.2996 52.8137 35.2945ZM52.9711 34.9347C52.989 34.9377 53.0176 34.9318 53.0569 34.917C53.0996 34.8997 53.1462 34.8784 53.1964 34.8532C53.2467 34.8279 53.2925 34.8019 53.3338 34.7751C53.3781 34.7489 53.411 34.7268 53.4324 34.709C53.4463 34.6991 53.463 34.682 53.4824 34.6576C53.5049 34.6338 53.5283 34.6132 53.5527 34.5959C53.6343 34.5299 53.6879 34.4761 53.7133 34.4344C53.7392 34.3897 53.7404 34.3378 53.7166 34.2786C53.7102 34.2438 53.6983 34.2234 53.6809 34.2174C53.6636 34.2114 53.6245 34.2155 53.5639 34.2298C53.5245 34.2446 53.48 34.2724 53.4302 34.313C53.3804 34.3537 53.3281 34.4001 53.2733 34.4521C53.2215 34.5047 53.1724 34.5593 53.1261 34.6159C53.0797 34.6725 53.0404 34.7241 53.008 34.7707C52.9785 34.8179 52.9613 34.8564 52.9563 34.8862C52.9542 34.8981 52.9555 34.9091 52.9599 34.919C52.9674 34.9295 52.9711 34.9347 52.9711 34.9347ZM54.4186 35.7862C54.3824 35.7648 54.3551 35.7357 54.3368 35.6988C54.318 35.665 54.3121 35.618 54.3192 35.5579C54.3228 35.5186 54.3338 35.4622 54.3524 35.3887C54.3714 35.3121 54.3949 35.2364 54.4229 35.1614C54.4239 35.1554 54.4249 35.1495 54.4259 35.1435C54.4304 35.1351 54.4329 35.1293 54.4334 35.1264C54.4384 35.1149 54.4444 35.0975 54.4514 35.0742C54.4589 35.0479 54.4654 35.0275 54.4709 35.0131C54.4799 34.9962 54.4832 34.9952 54.4806 35.0101L54.5279 34.8939C54.5489 34.8423 54.5716 34.7894 54.5961 34.7352C54.6205 34.6811 54.6422 34.6342 54.6612 34.5944C54.6837 34.5522 54.6969 34.5284 54.7009 34.5229C54.7009 34.5229 54.7081 34.5073 54.7226 34.476C54.7406 34.4422 54.7585 34.4085 54.7765 34.3747C54.8494 34.2337 54.915 34.1175 54.9733 34.0261C55.0347 33.9353 55.0855 33.8703 55.1259 33.8311C55.1304 33.8226 55.1366 33.813 55.1446 33.802C55.153 33.7881 55.1595 33.777 55.164 33.7685C55.1696 33.7357 55.1751 33.7121 55.1806 33.6977C55.1891 33.6838 55.1988 33.6717 55.2097 33.6612C55.2177 33.6503 55.2292 33.6369 55.2441 33.621C55.2596 33.6022 55.2773 33.5791 55.2972 33.5518L55.3234 33.5056C55.3478 33.4699 55.3777 33.4289 55.4131 33.3828C55.449 33.3336 55.4752 33.2967 55.4917 33.2718C55.5051 33.2465 55.5283 33.2182 55.5612 33.187C55.5946 33.1528 55.6286 33.1324 55.6635 33.1261L55.6597 33.1208C55.6792 33.0965 55.711 33.0804 55.7553 33.0726C55.8001 33.0617 55.8359 33.0586 55.8627 33.0631C55.9044 33.0701 55.9337 33.0873 55.9506 33.1147C55.9704 33.1426 55.9768 33.1774 55.9697 33.2192C55.9622 33.2639 55.9552 33.2964 55.9487 33.3168C55.9456 33.3347 55.9317 33.3538 55.9068 33.3741L55.9113 33.3749C55.9182 33.3699 55.9152 33.3786 55.9022 33.401C55.8893 33.4233 55.8791 33.4384 55.8716 33.4464C55.8631 33.4603 55.8529 33.4754 55.8409 33.4918C55.8319 33.5087 55.8222 33.5208 55.8118 33.5283C55.8008 33.5387 55.7699 33.5764 55.7191 33.6414C55.6687 33.7035 55.6116 33.7782 55.5478 33.8655C55.4845 33.9499 55.423 34.033 55.3631 34.1149C55.3068 34.1943 55.2657 34.2564 55.2397 34.3011L55.206 34.3644C55.201 34.3758 55.198 34.3845 55.197 34.3905C55.1846 34.4098 55.1721 34.4292 55.1596 34.4486C55.1472 34.4679 55.1352 34.4843 55.1237 34.4977L55.0054 34.7629L54.9716 34.8538L54.914 34.9499L54.8728 35.0303C54.8638 35.0472 54.8561 35.0658 54.8496 35.0862C54.8431 35.1066 54.8346 35.1205 54.8242 35.1279C54.8237 35.1309 54.8214 35.1351 54.8174 35.1406C54.8169 35.1436 54.8164 35.1465 54.8159 35.1495C54.7959 35.1952 54.7637 35.2588 54.7193 35.3402C54.6779 35.4222 54.6454 35.5148 54.6218 35.6181C54.6213 35.6211 54.6193 35.6239 54.6158 35.6263C54.6153 35.6293 54.6148 35.6323 54.6143 35.6353C54.5948 35.6964 54.5674 35.7408 54.532 35.7686C54.4991 35.7998 54.4613 35.8057 54.4186 35.7862Z" fill="#7FD1AC"/>
<path d="M8.31937 45.4931C8.16075 45.3603 8.07218 45.2359 8.05366 45.12C8.03914 45.0045 8.09001 44.9193 8.20628 44.8642C8.23223 44.8511 8.2785 44.8547 8.3451 44.8749C8.41571 44.8956 8.46685 44.9261 8.49854 44.9665C8.56992 45.0481 8.65468 45.103 8.75282 45.1311C8.85448 45.1636 8.98177 45.1688 9.1347 45.1466C9.30908 45.1148 9.44489 45.0662 9.54211 45.0008C9.64382 44.9318 9.75891 44.836 9.88738 44.7134C9.98446 44.6155 10.0553 44.5164 10.0998 44.4162C10.1484 44.3165 10.1757 44.2243 10.1819 44.1398C10.1925 44.0517 10.1804 43.9833 10.1457 43.9344C10.0625 43.7823 9.94997 43.6712 9.80814 43.6014C9.66678 43.5275 9.47216 43.5081 9.22428 43.5432C9.19578 43.5438 9.15279 43.5468 9.0953 43.5521C9.03781 43.5573 8.98633 43.5633 8.94086 43.57C8.89586 43.5727 8.87136 43.5738 8.86736 43.5733C8.83838 43.578 8.81588 43.5793 8.79987 43.5774C8.78386 43.5755 8.76143 43.5931 8.73259 43.6302C8.70824 43.6638 8.66681 43.738 8.60832 43.8528C8.55031 43.9636 8.46256 44.1357 8.34509 44.3693C8.23162 44.6033 8.1386 44.7688 8.06602 44.8656C7.99793 44.9589 7.94235 44.9989 7.89928 44.9856C7.85669 44.9683 7.81196 44.9183 7.76508 44.8355C7.73981 44.7756 7.71126 44.7092 7.67943 44.6363C7.6516 44.5639 7.66204 44.4941 7.71075 44.4269C7.7351 44.3933 7.75497 44.3632 7.77035 44.3366C7.78622 44.306 7.80874 44.2539 7.83791 44.1803C7.86516 44.1227 7.91572 44.0232 7.9896 43.8818C8.06796 43.7369 8.15923 43.5692 8.26339 43.3787C8.36804 43.1842 8.47741 42.9842 8.59151 42.7787C8.7056 42.5731 8.81425 42.3791 8.91745 42.1966C9.02465 42.0146 9.11423 41.8609 9.18618 41.7356C9.25716 41.6183 9.30204 41.5323 9.3208 41.4777C9.33955 41.4231 9.33917 41.3926 9.31964 41.3862C9.32205 41.3662 9.31821 41.3474 9.30813 41.33C9.29853 41.3085 9.2967 41.29 9.30263 41.2745C9.30456 41.2585 9.34124 41.2406 9.41266 41.2208C9.48808 41.2014 9.56727 41.1846 9.65022 41.1702C9.73317 41.1558 9.79218 41.1548 9.82724 41.1671C9.84725 41.1695 9.87127 41.1724 9.89929 41.1758C9.92779 41.1752 9.943 41.1669 9.94493 41.1509C9.95694 41.1523 9.99545 41.1529 10.0605 41.1526C10.1255 41.1523 10.1955 41.1607 10.2706 41.1779C10.5359 41.2342 10.7467 41.3388 10.9029 41.4916C11.0596 41.6404 11.1188 41.8567 11.0805 42.1404C11.0683 42.208 11.0297 42.2927 10.9647 42.3945C10.8996 42.4963 10.8205 42.5964 10.7275 42.6949C10.6384 42.7938 10.545 42.8779 10.4473 42.9474C10.39 42.9852 10.3284 43.0244 10.2626 43.0652C10.2012 43.1025 10.1466 43.1345 10.0987 43.1612C10.0553 43.1844 10.0336 43.196 10.0336 43.196C10.0336 43.196 10.0489 43.204 10.0795 43.2198C10.11 43.2357 10.1426 43.2518 10.1772 43.2682C10.3531 43.3584 10.4869 43.4618 10.5784 43.5784C10.6739 43.6955 10.7326 43.8488 10.7545 44.0382C10.7633 44.1002 10.7544 44.1742 10.7277 44.2604C10.7051 44.347 10.6765 44.4329 10.6419 44.518C10.6077 44.5992 10.573 44.6681 10.5378 44.7248C10.5064 44.7494 10.4808 44.7768 10.4609 44.8069C10.4415 44.833 10.4318 44.846 10.4318 44.846C10.4308 44.854 10.411 44.8841 10.3722 44.9363C10.3339 44.9845 10.2889 45.0379 10.2372 45.0967C10.1854 45.1554 10.1366 45.2064 10.0908 45.2496C10.0469 45.2768 9.98359 45.3139 9.90078 45.3607C9.8215 45.4121 9.73445 45.4605 9.63964 45.5059C9.54883 45.5518 9.46371 45.5842 9.38428 45.6031C9.26642 45.6376 9.13647 45.6545 8.99445 45.6536C8.85594 45.6572 8.72561 45.6435 8.60345 45.6126C8.48081 45.5856 8.38612 45.5458 8.31937 45.4931ZM9.05181 43.0534C9.05181 43.0534 9.08456 43.0513 9.15005 43.047C9.22002 43.0392 9.296 43.0321 9.37799 43.0257C9.46046 43.0153 9.52267 43.0045 9.56462 42.9934C9.58608 42.9838 9.61603 42.9711 9.65447 42.9555C9.69691 42.9403 9.74055 42.9151 9.7854 42.8799C9.84771 42.8346 9.91474 42.7838 9.9865 42.7274C10.0587 42.6671 10.1295 42.6025 10.1987 42.5337C10.2719 42.4654 10.3358 42.3898 10.3904 42.307C10.4999 42.174 10.5624 42.076 10.5781 42.0129C10.5939 41.9498 10.5788 41.8891 10.5331 41.8308C10.5024 41.7825 10.4562 41.7444 10.3945 41.7167C10.3334 41.685 10.2648 41.6645 10.1887 41.6553C10.1172 41.6427 10.0461 41.6422 9.97569 41.6541C9.92173 41.6638 9.87929 41.679 9.84837 41.6996C9.81794 41.7163 9.80008 41.7466 9.79477 41.7906C9.79043 41.8267 9.77385 41.8632 9.74501 41.9004C9.72065 41.934 9.69726 41.9596 9.67484 41.9772C9.66746 42.0047 9.65008 42.0311 9.62269 42.0562C9.59978 42.0778 9.58832 42.0886 9.58832 42.0886C9.5864 42.1046 9.55435 42.1515 9.49219 42.2293C9.43451 42.3036 9.36849 42.4134 9.29413 42.5588C9.20135 42.7222 9.13837 42.8405 9.10519 42.9137C9.07201 42.9868 9.05422 43.0334 9.05181 43.0534ZM12.3143 45.5235C12.2791 45.4787 12.2536 45.4208 12.2377 45.3498C12.2224 45.2749 12.2083 45.1899 12.1953 45.095C12.1912 45.062 12.1915 45.0255 12.1963 44.9855C12.2052 44.9459 12.209 44.9139 12.2079 44.8894C12.1925 44.916 12.1682 44.9496 12.1349 44.9902C12.1055 45.0314 12.0777 45.0605 12.0512 45.0776C12.0333 45.0917 11.9934 45.1194 11.9316 45.1607C11.8702 45.198 11.8099 45.2272 11.7505 45.2485C11.6082 45.3167 11.4853 45.3425 11.3817 45.3259C11.2826 45.3059 11.2008 45.2432 11.1364 45.138C11.0786 45.0782 11.0345 45.0059 11.0041 44.9211C10.9737 44.8362 10.9773 44.7391 11.0148 44.63C11.0397 44.4908 11.0761 44.3571 11.124 44.2289C11.1724 44.0967 11.2602 43.9245 11.3873 43.7124C11.4911 43.5584 11.5706 43.438 11.6257 43.3513C11.6808 43.2645 11.7153 43.2138 11.7293 43.1993C11.7917 43.1865 11.8655 43.1974 11.9507 43.232C12.0364 43.2627 12.0798 43.3065 12.0811 43.3635C12.1003 43.4064 12.0911 43.4824 12.0536 43.5916C12.0165 43.6968 11.9536 43.8151 11.8646 43.9465C11.7922 44.0759 11.7223 44.2015 11.6548 44.3233C11.5913 44.4456 11.5483 44.5501 11.5257 44.6367C11.5071 44.7238 11.5246 44.7807 11.5782 44.8075C11.6118 44.8318 11.6641 44.8361 11.735 44.8203C11.81 44.8049 11.9027 44.743 12.0132 44.6345C12.1238 44.526 12.2487 44.3481 12.3882 44.101C12.4298 44.0248 12.4623 43.9576 12.4855 43.8995C12.5093 43.8374 12.5277 43.7685 12.5409 43.693C12.5386 43.644 12.5567 43.5954 12.595 43.5472C12.6373 43.4995 12.6841 43.4645 12.7355 43.4423C12.7539 43.4242 12.7781 43.4089 12.8081 43.3962C12.8385 43.3796 12.8565 43.3818 12.8621 43.4027L12.9589 43.4083C12.9754 43.4062 12.9915 43.4244 13.0072 43.4628C13.0228 43.5013 13.0397 43.5297 13.0578 43.5481C13.0975 43.5895 13.1081 43.6699 13.0896 43.7895C13.0712 43.9091 13.0029 44.0715 12.8848 44.2765C12.789 44.4315 12.722 44.5493 12.6838 44.63C12.6497 44.7111 12.6258 44.7915 12.6122 44.8711C12.6035 44.9431 12.602 45.0059 12.6077 45.0594C12.614 45.1089 12.644 45.1632 12.6977 45.2225C12.7384 45.2558 12.7566 45.3068 12.7524 45.3753C12.7527 45.4403 12.748 45.4966 12.7382 45.5441C12.7258 45.5792 12.6909 45.5994 12.6334 45.6046C12.5795 45.6144 12.521 45.6114 12.4579 45.5956C12.3988 45.5804 12.3509 45.5564 12.3143 45.5235ZM13.432 45.7069C13.3026 45.6345 13.2096 45.5644 13.1527 45.4966C13.1004 45.4253 13.0831 45.3664 13.1009 45.3198C13.1118 45.2968 13.1285 45.2764 13.1509 45.2588C13.1734 45.2412 13.2183 45.2385 13.2859 45.2507C13.358 45.2594 13.4659 45.2907 13.6096 45.3445C13.6537 45.3498 13.6979 45.3531 13.7425 45.3544C13.787 45.3557 13.8277 45.3546 13.8647 45.3509C13.9057 45.3477 13.9389 45.3416 13.9644 45.3324C13.9854 45.3268 13.9926 45.3176 13.986 45.3046C13.9799 45.2876 13.9679 45.2699 13.9498 45.2515C13.9362 45.2296 13.9196 45.2154 13.9001 45.209C13.881 45.1985 13.8635 45.1924 13.8475 45.1904C13.8419 45.1695 13.8263 45.1473 13.8007 45.1239C13.7791 45.101 13.7517 45.0754 13.7186 45.047C13.6392 44.9643 13.5668 44.8907 13.5015 44.8259C13.4362 44.7612 13.4133 44.7158 13.4327 44.6897C13.4346 44.6737 13.4356 44.6657 13.4356 44.6657C13.436 44.6617 13.4363 44.6597 13.4363 44.6597C13.4083 44.6563 13.3868 44.6152 13.372 44.5362C13.3576 44.4533 13.3543 44.3798 13.362 44.3157C13.3716 44.2357 13.3973 44.1575 13.4389 44.0813C13.4846 44.0056 13.5378 43.9349 13.5985 43.8691C13.6632 43.8038 13.727 43.7465 13.7898 43.6972C13.8745 43.6343 13.963 43.5739 14.0553 43.516C14.152 43.4546 14.2538 43.4018 14.3606 43.3579C14.4714 43.3143 14.5908 43.2841 14.7188 43.267C14.7762 43.2617 14.841 43.2634 14.9131 43.2721C14.9851 43.2808 15.0359 43.2971 15.0656 43.3209C15.1 43.3048 15.1393 43.3156 15.1835 43.3534C15.2281 43.3872 15.2713 43.433 15.3131 43.4909C15.3549 43.5487 15.3846 43.6051 15.4024 43.66C15.3966 43.708 15.3874 43.7678 15.3747 43.8394C15.3665 43.9074 15.3552 43.967 15.341 44.0181C15.3267 44.0691 15.3056 44.093 15.2775 44.0896C15.2775 44.0896 15.2713 44.0909 15.2588 44.0934C15.2508 44.0925 15.2456 44.102 15.2432 44.122C15.2384 44.162 15.2028 44.2045 15.1365 44.2493C15.0542 44.2921 14.977 44.3255 14.9051 44.3493C14.8332 44.3731 14.781 44.3689 14.7483 44.3365C14.7262 44.3176 14.7061 44.299 14.688 44.2805C14.67 44.2621 14.6544 44.2399 14.6412 44.214C14.6412 44.214 14.6362 44.2053 14.6261 44.1878C14.6205 44.1668 14.6187 44.1483 14.6206 44.1323C14.6225 44.1163 14.6302 44.103 14.6437 44.0925C14.6576 44.0779 14.6646 44.0706 14.6646 44.0706C14.7269 44.0253 14.7747 43.9823 14.808 43.9417C14.8454 43.9015 14.872 43.8661 14.8878 43.8356C14.9042 43.801 14.9136 43.7737 14.916 43.7537C14.9189 43.7297 14.9145 43.7149 14.903 43.7095C14.896 43.7005 14.8764 43.6941 14.8444 43.6902C14.8244 43.6878 14.7785 43.6985 14.7065 43.7224C14.6386 43.7467 14.5658 43.7785 14.4879 43.8179C14.4106 43.8532 14.3497 43.8865 14.3054 43.9177C14.286 43.9438 14.2718 43.9603 14.2628 43.9674C14.2579 43.9749 14.2474 43.9777 14.2314 43.9758C14.2333 43.9598 14.223 43.9606 14.2006 43.9782C14.1782 43.9958 14.1508 44.0209 14.1184 44.0535C14.0861 44.0862 14.0535 44.1209 14.0206 44.1575C13.9878 44.1942 13.9619 44.2235 13.943 44.2456C13.9347 44.2812 13.9206 44.314 13.9007 44.3441C13.8853 44.3706 13.8777 44.4002 13.8778 44.4327C13.877 44.4732 13.8925 44.5136 13.9241 44.554C13.9558 44.5944 14.0023 44.6467 14.0636 44.7109C14.1912 44.8318 14.2854 44.9264 14.3462 44.9947C14.411 45.0634 14.4553 45.1175 14.4789 45.1569C14.5026 45.1963 14.5163 45.2345 14.52 45.2714C14.5731 45.4037 14.568 45.5128 14.5049 45.5986C14.4423 45.6804 14.354 45.7388 14.2402 45.7738C14.1977 45.789 14.1255 45.7985 14.0235 45.8025C13.921 45.8105 13.814 45.8057 13.7024 45.7882C13.5943 45.7752 13.5042 45.7481 13.432 45.7069ZM15.6442 45.9307C15.5482 45.9192 15.4701 45.859 15.4101 45.7502C15.3546 45.638 15.3276 45.5088 15.3289 45.3628C15.3368 45.3313 15.3463 45.2857 15.3575 45.2261C15.3728 45.1671 15.3883 45.106 15.404 45.0429C15.4292 44.9688 15.463 44.8734 15.5055 44.7567C15.5479 44.6399 15.5924 44.5235 15.6389 44.4073C15.6859 44.287 15.7267 44.1843 15.7613 44.0992C15.7964 44.01 15.8169 43.9576 15.8229 43.9421C15.8536 43.889 15.9094 43.8815 15.99 43.9196C16.0707 43.9577 16.1355 44.0265 16.1845 44.1258C16.2047 44.1607 16.2141 44.2004 16.2128 44.2449C16.2155 44.2899 16.2018 44.3532 16.1716 44.4349C16.1455 44.517 16.0985 44.6372 16.0307 44.7956C15.9674 44.9504 15.9177 45.0764 15.8816 45.1735C15.8501 45.2672 15.8298 45.3683 15.8207 45.4769C15.7825 45.6591 15.7514 45.7832 15.7271 45.8493C15.7034 45.9115 15.6758 45.9386 15.6442 45.9307ZM16.4968 43.5055C16.4793 43.5156 16.4626 43.5197 16.4466 43.5177C16.435 43.5123 16.4145 43.4976 16.3849 43.4738C16.3573 43.4664 16.3235 43.444 16.2833 43.4067C16.2476 43.3659 16.2159 43.3255 16.1882 43.2856C16.1646 43.2462 16.1532 43.2225 16.1542 43.2145C16.155 43.174 16.1647 43.1102 16.1833 43.0231C16.2059 42.9365 16.2378 42.8571 16.279 42.7849C16.3247 42.7092 16.3778 42.6729 16.4383 42.6761C16.4543 42.6781 16.4874 42.6902 16.5375 42.7125C16.5916 42.7352 16.6472 42.7622 16.7044 42.7935C16.7292 42.8574 16.7498 42.939 16.7662 43.0385C16.7827 43.1379 16.7733 43.2322 16.7382 43.3214C16.7076 43.4071 16.6271 43.4684 16.4968 43.5055ZM18.314 46.234C18.254 46.2268 18.1981 46.2018 18.1464 46.159C18.0952 46.1122 18.0557 46.0527 18.0278 45.9803C18.0005 45.9039 17.9926 45.8177 18.0042 45.7216C18.0114 45.6615 18.0315 45.5787 18.0646 45.473C18.1021 45.3638 18.153 45.2278 18.2173 45.065C18.232 45.01 18.2424 44.9746 18.2483 44.9591C18.2582 44.9441 18.2642 44.9285 18.2661 44.9125C18.2671 44.9045 18.2658 44.8983 18.2623 44.8938C18.2632 44.8858 18.2597 44.8813 18.2517 44.8803C18.2197 44.8765 18.173 44.8932 18.1116 44.9305C18.0548 44.9642 17.989 45.005 17.9142 45.0529C17.9012 45.0594 17.886 45.0678 17.8685 45.0778C17.8551 45.0884 17.8396 45.0987 17.8221 45.1088C17.8087 45.1194 17.7932 45.1297 17.7758 45.1398C17.7329 45.159 17.6653 45.1975 17.573 45.2554C17.4848 45.3138 17.392 45.3758 17.2948 45.4412C17.2016 45.5071 17.1198 45.5623 17.0495 45.6066C17.0146 45.6268 16.9842 45.6434 16.9582 45.6565C16.9363 45.6701 16.9213 45.6764 16.9133 45.6755C16.9053 45.6745 16.8745 45.6606 16.8208 45.6339C16.7717 45.6036 16.7235 45.5653 16.6763 45.519C16.6336 45.4692 16.6156 45.4163 16.6223 45.3602C16.6267 45.3242 16.6494 45.2538 16.6904 45.1491C16.7354 45.0449 16.7949 44.9221 16.8688 44.7808C16.9427 44.6394 17.0248 44.497 17.1152 44.3536C17.1355 44.3195 17.1533 44.2729 17.1685 44.2138C17.1838 44.1548 17.1988 44.0977 17.2135 44.0426C17.2328 43.984 17.2581 43.9424 17.2895 43.9177C17.3039 43.8992 17.3196 43.8869 17.3366 43.8808C17.358 43.8712 17.3788 43.8676 17.3988 43.87C17.4388 43.8748 17.4756 43.8894 17.5092 43.9138C17.5433 43.9341 17.574 43.9662 17.6012 44.0101C17.6535 44.0814 17.6764 44.1613 17.6698 44.2498C17.6677 44.3349 17.6518 44.4162 17.6221 44.4938C17.5925 44.5715 17.5625 44.6349 17.5322 44.684C17.5024 44.7292 17.488 44.7477 17.4889 44.7397C17.5059 44.7337 17.5303 44.7163 17.5622 44.6876C17.5981 44.6595 17.6567 44.628 17.7381 44.5931C17.8518 44.5256 17.9386 44.4792 17.9985 44.4539C18.0589 44.4246 18.104 44.4037 18.134 44.391C18.1679 44.3789 18.1981 44.3642 18.2246 44.3471C18.2465 44.3335 18.2617 44.3252 18.2702 44.3222C18.2827 44.3196 18.2889 44.3183 18.2889 44.3183C18.3009 44.3198 18.3219 44.3142 18.3519 44.3016C18.3858 44.2894 18.4168 44.285 18.4448 44.2884C18.4849 44.2932 18.5257 44.3083 18.5673 44.3336C18.6094 44.3549 18.6445 44.3835 18.6727 44.4194C18.7013 44.4513 18.7137 44.4832 18.7099 44.5152C18.7084 44.5272 18.7112 44.5377 18.7183 44.5467C18.7253 44.5557 18.7321 44.5666 18.7387 44.5796C18.7558 44.606 18.7737 44.6427 18.7924 44.6896C18.8156 44.733 18.8217 44.8008 18.8106 44.8928C18.8029 44.9569 18.7775 45.0493 18.7346 45.17C18.6916 45.2907 18.6469 45.4092 18.6004 45.5254C18.5534 45.6456 18.5254 45.7438 18.5162 45.8198C18.5115 45.8923 18.5128 45.9493 18.52 45.9908C18.5276 46.0283 18.53 46.059 18.5271 46.0831C18.5233 46.1151 18.5027 46.1512 18.4654 46.1913C18.4285 46.2275 18.3781 46.2417 18.314 46.234ZM19.5604 46.3537C19.412 46.2709 19.3165 46.1538 19.2738 46.0024C19.2311 45.8511 19.2382 45.657 19.2952 45.4202C19.3181 45.2971 19.324 45.2146 19.3128 45.1726C19.3021 45.1267 19.2772 45.081 19.238 45.0357C19.2279 45.0182 19.203 44.9888 19.1633 44.9475C19.1241 44.9022 19.1077 44.8697 19.1141 44.8502C19.1135 44.8217 19.1236 44.7884 19.1444 44.7503C19.1657 44.7082 19.1826 44.6859 19.1951 44.6833C19.2246 44.6747 19.2543 44.6641 19.2842 44.6514C19.3182 44.6393 19.3427 44.6382 19.3577 44.6481C19.3737 44.65 19.3966 44.6629 19.4262 44.6868C19.4598 44.7111 19.4756 44.7313 19.4737 44.7473C19.4863 44.7773 19.5118 44.7682 19.5501 44.72C19.5924 44.6723 19.6384 44.6108 19.688 44.5356C19.7358 44.4764 19.793 44.4224 19.8598 44.3735C19.9266 44.3247 19.9927 44.2819 20.058 44.2451C20.1279 44.2048 20.1863 44.1753 20.2332 44.1566C20.2542 44.151 20.2936 44.1436 20.3516 44.1343C20.4136 44.1255 20.4771 44.121 20.5421 44.1207C20.6076 44.1164 20.6561 44.1182 20.6876 44.126C20.7592 44.1387 20.8316 44.1779 20.9049 44.2436C20.9782 44.3093 21.034 44.3688 21.0723 44.4221C21.1199 44.4644 21.1472 44.5246 21.1541 44.6025C21.1654 44.677 21.1643 44.754 21.1506 44.8336C21.137 44.9132 21.1128 44.9793 21.078 45.0319C21.0612 45.0705 21.0124 45.1215 20.9316 45.1849C20.8509 45.2482 20.7624 45.3087 20.6662 45.3661C20.5744 45.42 20.497 45.4554 20.4341 45.4722C20.3806 45.4779 20.3174 45.4804 20.2444 45.4798C20.1718 45.4751 20.1038 45.4669 20.0402 45.4552C19.9811 45.4399 19.9403 45.4249 19.9177 45.41C19.8916 45.3906 19.8669 45.3937 19.8435 45.4193C19.8246 45.4414 19.8024 45.5077 19.7769 45.6184C19.7676 45.6619 19.763 45.6999 19.7632 45.7324C19.7673 45.7654 19.7724 45.7904 19.7785 45.8074C19.8007 45.8588 19.8244 45.8982 19.8495 45.9256C19.8751 45.949 19.9265 45.9613 20.0035 45.9624C20.0805 45.9636 20.1621 45.9267 20.2483 45.8518C20.3389 45.7734 20.4194 45.712 20.4897 45.6677C20.5091 45.6416 20.5453 45.6277 20.5983 45.6259C20.6558 45.6207 20.7214 45.6326 20.795 45.6618C20.8357 45.6951 20.8504 45.7416 20.8391 45.8011C20.8319 45.8612 20.7893 45.9454 20.7113 46.0538C20.6959 46.0803 20.6568 46.1183 20.594 46.1675C20.5357 46.2133 20.4711 46.2604 20.4003 46.3087C20.334 46.3535 20.2794 46.3855 20.2365 46.4047C20.1087 46.4543 19.987 46.4701 19.8714 46.4521C19.7558 46.4341 19.6521 46.4013 19.5604 46.3537ZM20.1674 45.0563C20.2294 45.0475 20.2814 45.0375 20.3233 45.0263C20.3693 45.0156 20.4145 44.9947 20.4588 44.9635C20.5032 44.9323 20.5557 44.8838 20.6165 44.818C20.6378 44.7759 20.6504 44.7388 20.6542 44.7068C20.6621 44.6753 20.6625 44.655 20.6554 44.646C20.6273 44.6101 20.5925 44.5958 20.551 44.603C20.514 44.6067 20.4715 44.6218 20.4237 44.6486C20.3942 44.6572 20.351 44.6784 20.2942 44.7122C20.2418 44.7424 20.1887 44.7786 20.1349 44.8209C20.0856 44.8596 20.0445 44.8973 20.0116 44.934C19.9833 44.9671 19.9766 44.9886 19.9917 44.9986C19.9817 45.0136 20.0025 45.0263 20.0541 45.0365C20.1096 45.0473 20.1474 45.0539 20.1674 45.0563ZM21.7463 46.7145C21.5341 46.6889 21.3862 46.6021 21.3025 46.4539C21.2822 46.3865 21.2759 46.3208 21.2837 46.2567C21.2959 46.1891 21.3177 46.143 21.3491 46.1184C21.3809 46.0897 21.4142 46.0998 21.449 46.1487C21.4971 46.187 21.5693 46.2119 21.6653 46.2235C21.7134 46.2293 21.7554 46.2343 21.7914 46.2387C21.8319 46.2395 21.8784 46.241 21.931 46.2433C22.024 46.2464 22.0854 46.2254 22.1152 46.1802C22.149 46.1356 22.1478 46.0948 22.1117 46.058L22.1177 46.0587C22.013 46.0177 21.9117 45.9648 21.8139 45.9003C21.7161 45.8357 21.635 45.7671 21.5707 45.6943C21.5068 45.6176 21.4725 45.5485 21.4677 45.487C21.4516 45.3511 21.476 45.2159 21.5409 45.0816C21.6058 44.9473 21.6906 44.8337 21.7952 44.7407C21.8341 44.721 21.8883 44.693 21.9576 44.6567C22.0274 44.6164 22.0766 44.5959 22.1051 44.5953L22.1044 44.6013C22.1901 44.5304 22.2838 44.4767 22.3857 44.4402C22.488 44.3998 22.6059 44.3652 22.7393 44.3366L22.8368 44.3362C22.8858 44.334 22.9283 44.335 22.9643 44.3394C22.9603 44.3389 22.9699 44.3441 22.9929 44.355C23.016 44.3659 23.0353 44.3743 23.0508 44.3802C23.0734 44.3951 23.0967 44.404 23.1207 44.4069C23.1757 44.4217 23.2262 44.4582 23.2719 44.5165C23.3222 44.5713 23.3592 44.6347 23.3831 44.7066C23.4114 44.7749 23.4181 44.8367 23.4034 44.8917C23.3803 44.9824 23.3352 45.0703 23.268 45.1556C23.2014 45.237 23.1353 45.2798 23.0698 45.2841C23.0783 45.281 23.0713 45.272 23.0487 45.2571C23.0261 45.2422 23.0056 45.2276 22.987 45.2132L22.9615 45.2223C22.9615 45.2223 22.9603 45.216 22.9577 45.2035C22.9592 45.1915 22.9568 45.177 22.9508 45.1601C22.9381 45.1301 22.9297 45.0987 22.9256 45.0657C22.9254 45.0332 22.9298 44.9971 22.9386 44.9576C22.9519 44.9145 22.9571 44.8887 22.954 44.8803C22.951 44.8718 22.9277 44.8629 22.8841 44.8536C22.8335 44.8353 22.7668 44.8333 22.6838 44.8477C22.6014 44.8581 22.523 44.8852 22.4486 44.929C22.3623 44.9714 22.2972 45.0062 22.2533 45.0334C22.2135 45.0611 22.1816 45.0897 22.1577 45.1194C22.1343 45.145 22.1072 45.1843 22.0765 45.2375C22.0571 45.2636 22.0399 45.2879 22.025 45.3105C22.0106 45.3291 22.0022 45.3483 21.9998 45.3684C21.995 45.4084 22.0239 45.4545 22.0867 45.5067C22.1499 45.555 22.2462 45.6153 22.3755 45.6877C22.4783 45.7448 22.5411 45.8133 22.564 45.8932C22.5909 45.9736 22.6142 46.0495 22.634 46.1209C22.6401 46.1379 22.6445 46.1689 22.6472 46.2138C22.6544 46.2553 22.6535 46.2796 22.6445 46.2866C22.6516 46.2956 22.6546 46.3041 22.6536 46.3121L22.6544 46.3061C22.6791 46.37 22.6654 46.4333 22.6132 46.496C22.5655 46.5553 22.4942 46.6076 22.3994 46.653C22.305 46.6945 22.2004 46.7204 22.0854 46.7309L22.0914 46.7317C22.0304 46.7324 21.9696 46.7312 21.9091 46.728C21.8526 46.7252 21.7983 46.7207 21.7463 46.7145ZM23.5699 46.928C23.4406 46.8556 23.3475 46.7855 23.2907 46.7178C23.2384 46.6465 23.2211 46.5875 23.2389 46.541C23.2498 46.5179 23.2665 46.4976 23.2889 46.48C23.3113 46.4624 23.3563 46.4597 23.4239 46.4719C23.4959 46.4805 23.6038 46.5118 23.7476 46.5657C23.7916 46.571 23.8359 46.5743 23.8804 46.5756C23.9249 46.5769 23.9657 46.5757 24.0027 46.572C24.0437 46.5689 24.0769 46.5627 24.1023 46.5536C24.1233 46.548 24.1305 46.5387 24.124 46.5257C24.1179 46.5088 24.1058 46.4911 24.0877 46.4726C24.0741 46.4507 24.0576 46.4365 24.038 46.4301C24.019 46.4197 24.0015 46.4135 23.9854 46.4116C23.9798 46.3906 23.9642 46.3684 23.9386 46.345C23.917 46.3221 23.8897 46.2965 23.8565 46.2681C23.7771 46.1855 23.7048 46.1118 23.6395 46.0471C23.5742 45.9824 23.5512 45.937 23.5706 45.9109C23.5726 45.8949 23.5735 45.8869 23.5735 45.8869C23.574 45.8828 23.5743 45.8808 23.5743 45.8808C23.5462 45.8775 23.5248 45.8363 23.5099 45.7574C23.4956 45.6744 23.4922 45.6009 23.4999 45.5369C23.5096 45.4568 23.5352 45.3787 23.5769 45.3025C23.6226 45.2268 23.6758 45.156 23.7365 45.0902C23.8012 45.0249 23.865 44.9676 23.9277 44.9184C24.0125 44.8555 24.101 44.7951 24.1932 44.7371C24.29 44.6757 24.3917 44.623 24.4986 44.579C24.6094 44.5355 24.7288 44.5052 24.8567 44.4881C24.9142 44.4829 24.979 44.4846 25.051 44.4933C25.1231 44.5019 25.1739 44.5182 25.2035 44.5421C25.2379 44.5259 25.2773 44.5368 25.3214 44.5746C25.3661 44.6084 25.4093 44.6542 25.4511 44.712C25.4928 44.7698 25.5226 44.8262 25.5403 44.8811C25.5346 44.9292 25.5253 44.989 25.5126 45.0605C25.5044 45.1286 25.4932 45.1881 25.4789 45.2392C25.4647 45.2903 25.4435 45.3141 25.4155 45.3108C25.4155 45.3108 25.4092 45.312 25.3968 45.3146C25.3888 45.3136 25.3835 45.3232 25.3811 45.3432C25.3763 45.3832 25.3407 45.4256 25.2744 45.4704C25.1921 45.5133 25.115 45.5466 25.0431 45.5705C24.9712 45.5943 24.9189 45.59 24.8863 45.5577C24.8642 45.5388 24.8441 45.5201 24.826 45.5017C24.8079 45.4833 24.7923 45.4611 24.7792 45.4351C24.7792 45.4351 24.7742 45.4264 24.7641 45.4089C24.7585 45.388 24.7567 45.3695 24.7586 45.3535C24.7605 45.3374 24.7682 45.3242 24.7817 45.3136C24.7956 45.299 24.8026 45.2917 24.8026 45.2917C24.8649 45.2465 24.9127 45.2035 24.946 45.1628C24.9833 45.1227 25.0099 45.0873 25.0258 45.0567C25.0421 45.0221 25.0515 44.9948 25.0539 44.9748C25.0568 44.9508 25.0525 44.9361 25.041 44.9306C25.0339 44.9217 25.0144 44.9152 24.9824 44.9114C24.9624 44.909 24.9164 44.9197 24.8445 44.9435C24.7766 44.9678 24.7037 44.9996 24.6259 45.039C24.5485 45.0744 24.4877 45.1076 24.4433 45.1388C24.4239 45.1649 24.4098 45.1815 24.4008 45.1885C24.3958 45.1961 24.3853 45.1989 24.3693 45.1969C24.3712 45.1809 24.361 45.1817 24.3386 45.1993C24.3161 45.2169 24.2888 45.242 24.2564 45.2747C24.224 45.3073 24.1914 45.342 24.1586 45.3786C24.1258 45.4153 24.0999 45.4447 24.081 45.4668C24.0726 45.5023 24.0585 45.5351 24.0387 45.5652C24.0233 45.5918 24.0157 45.6213 24.0158 45.6538C24.015 45.6943 24.0304 45.7348 24.0621 45.7751C24.0938 45.8155 24.1403 45.8678 24.2016 45.932C24.3291 46.053 24.4233 46.1476 24.4841 46.2158C24.549 46.2845 24.5932 46.3386 24.6169 46.378C24.6406 46.4174 24.6542 46.4556 24.6579 46.4926C24.711 46.6249 24.706 46.7339 24.6429 46.8197C24.5802 46.9015 24.492 46.9599 24.3781 46.9949C24.3357 47.0101 24.2635 47.0197 24.1615 47.0237C24.059 47.0316 23.9519 47.0268 23.8403 47.0093C23.7323 46.9963 23.6421 46.9692 23.5699 46.928Z" fill="#FFB27A"/>
</svg>
