<svg width="24" height="28" viewBox="0 0 24 28" fill="none" xmlns="http://www.w3.org/2000/svg">
<g id="fa-brands:linkedin">
<path id="Vector" d="M22.2857 1.71094H1.70893C0.766071 1.71094 0 2.48772 0 3.44129V23.9806C0 24.9342 0.766071 25.7109 1.70893 25.7109H22.2857C23.2286 25.7109 24 24.9342 24 23.9806V3.44129C24 2.48772 23.2286 1.71094 22.2857 1.71094ZM7.25357 22.2824H3.69643V10.8288H7.25893V22.2824H7.25357ZM5.475 9.26451C4.33393 9.26451 3.4125 8.33772 3.4125 7.20201C3.4125 6.06629 4.33393 5.13951 5.475 5.13951C6.61071 5.13951 7.5375 6.06629 7.5375 7.20201C7.5375 8.34308 6.61607 9.26451 5.475 9.26451ZM20.5875 22.2824H17.0304V16.7109C17.0304 15.3824 17.0036 13.6734 15.1821 13.6734C13.3286 13.6734 13.0446 15.1199 13.0446 16.6145V22.2824H9.4875V10.8288H12.9V12.3931H12.9482C13.425 11.4931 14.5875 10.5449 16.3179 10.5449C19.9179 10.5449 20.5875 12.9181 20.5875 16.0038V22.2824Z" fill="#FF6B26"/>
</g>
</svg>
