<svg width="24" height="25" viewBox="0 0 24 25" fill="none" xmlns="http://www.w3.org/2000/svg">
<path d="M22.2857 0.710938H1.70893C0.766071 0.710938 0 1.48772 0 2.44129V22.9806C0 23.9342 0.766071 24.7109 1.70893 24.7109H22.2857C23.2286 24.7109 24 23.9342 24 22.9806V2.44129C24 1.48772 23.2286 0.710938 22.2857 0.710938ZM7.25357 21.2824H3.69643V9.82879H7.25893V21.2824H7.25357ZM5.475 8.26451C4.33393 8.26451 3.4125 7.33772 3.4125 6.20201C3.4125 5.06629 4.33393 4.13951 5.475 4.13951C6.61071 4.13951 7.5375 5.06629 7.5375 6.20201C7.5375 7.34308 6.61607 8.26451 5.475 8.26451ZM20.5875 21.2824H17.0304V15.7109C17.0304 14.3824 17.0036 12.6734 15.1821 12.6734C13.3286 12.6734 13.0446 14.1199 13.0446 15.6145V21.2824H9.4875V9.82879H12.9V11.3931H12.9482C13.425 10.4931 14.5875 9.54487 16.3179 9.54487C19.9179 9.54487 20.5875 11.9181 20.5875 15.0038V21.2824Z" fill="white"/>
</svg>
