<svg width="154" height="194" viewBox="0 0 154 194" fill="none" xmlns="http://www.w3.org/2000/svg">
<rect width="154" height="194" rx="4.60161" fill="black" fillOpacity="0.04"/>
<path d="M116.467 55.2654V100.485C116.467 100.634 116.438 100.782 116.381 100.92C116.324 101.058 116.24 101.184 116.134 101.29C116.028 101.395 115.903 101.479 115.765 101.536C115.627 101.594 115.479 101.623 115.33 101.623H38.5662C38.5115 101.624 38.457 101.619 38.403 101.61C38.1323 101.571 37.8846 101.436 37.7055 101.229C37.5263 101.023 37.4277 100.758 37.4277 100.485V55.2654C37.4276 54.9636 37.5474 54.6741 37.7608 54.4606C37.9742 54.2471 38.2636 54.1271 38.5654 54.127H115.329C115.478 54.1269 115.626 54.1563 115.764 54.2134C115.902 54.2706 116.028 54.3544 116.134 54.46C116.239 54.5657 116.323 54.6911 116.38 54.8292C116.438 54.9672 116.467 55.1152 116.467 55.2647V55.2654Z" fill="white"/>
<path d="M56.7769 81.0127C62.293 81.0127 66.7647 76.541 66.7647 71.0249C66.7647 65.5088 62.293 61.0371 56.7769 61.0371C51.2608 61.0371 46.7891 65.5088 46.7891 71.0249C46.7891 76.541 51.2608 81.0127 56.7769 81.0127Z" fill="black" fillOpacity="0.6"/>
<path d="M88.0983 101.804H39.1011C39.0397 101.805 38.9784 101.8 38.918 101.789L62.0914 61.6498C62.2328 61.3998 62.4381 61.1918 62.6862 61.0471C62.9343 60.9024 63.2164 60.8262 63.5036 60.8262C63.7908 60.8262 64.0729 60.9024 64.321 61.0471C64.5691 61.1918 64.7744 61.3998 64.9158 61.6498L80.4681 88.5866L81.2132 89.8756L88.0983 101.804Z" fill="#A3A3A9"/>
<path d="M88.0983 101.804H39.1011C39.0397 101.805 38.9784 101.8 38.918 101.789L62.0914 61.6498C62.2328 61.3998 62.4381 61.1918 62.6862 61.0471C62.9343 60.9024 63.2164 60.8262 63.5036 60.8262C63.7908 60.8262 64.0729 60.9024 64.321 61.0471C64.5691 61.1918 64.7744 61.3998 64.9158 61.6498L80.4681 88.5866L81.2132 89.8756L88.0983 101.804Z" fill="black" fillOpacity="0.2"/>
<path d="M88.0983 101.804H39.1011C39.0397 101.805 38.9784 101.8 38.918 101.789L62.0914 61.6498C62.2328 61.3998 62.4381 61.1918 62.6862 61.0471C62.9343 60.9024 63.2164 60.8262 63.5036 60.8262C63.7908 60.8262 64.0729 60.9024 64.321 61.0471C64.5691 61.1918 64.7744 61.3998 64.9158 61.6498L80.4681 88.5866L81.2132 89.8756L88.0983 101.804Z" fill="black" fillOpacity="0.2"/>
<path d="M88.0983 101.804H39.1011C39.0397 101.805 38.9784 101.8 38.918 101.789L62.0914 61.6498C62.2328 61.3998 62.4381 61.1918 62.6862 61.0471C62.9343 60.9024 63.2164 60.8262 63.5036 60.8262C63.7908 60.8262 64.0729 60.9024 64.321 61.0471C64.5691 61.1918 64.7744 61.3998 64.9158 61.6498L80.4681 88.5866L81.2132 89.8756L88.0983 101.804Z" fill="black" fillOpacity="0.2"/>
<path d="M88.0983 101.804H39.1011C39.0397 101.805 38.9784 101.8 38.918 101.789L62.0914 61.6498C62.2328 61.3998 62.4381 61.1918 62.6862 61.0471C62.9343 60.9024 63.2164 60.8262 63.5036 60.8262C63.7908 60.8262 64.0729 60.9024 64.321 61.0471C64.5691 61.1918 64.7744 61.3998 64.9158 61.6498L80.4681 88.5866L81.2132 89.8756L88.0983 101.804Z" fill="black" fillOpacity="0.2"/>
<path opacity="0.2" d="M88.0979 101.803H71.3691L79.5812 89.875L80.1725 89.0158L80.4678 88.5859L81.213 89.875L88.0979 101.803Z" fill="black"/>
<path d="M115.38 101.804H73.001L81.2131 89.8757L81.8041 89.0164L92.5053 73.4714C93.2068 72.4526 94.8946 72.3891 95.7194 73.2792C95.7748 73.3399 95.8263 73.4041 95.8735 73.4714L115.38 101.804Z" fill="#A3A3A9"/>
<path d="M115.38 101.804H73.001L81.2131 89.8757L81.8041 89.0164L92.5053 73.4714C93.2068 72.4526 94.8946 72.3891 95.7194 73.2792C95.7748 73.3399 95.8263 73.4041 95.8735 73.4714L115.38 101.804Z" fill="black" fillOpacity="0.2"/>
<path d="M115.38 101.804H73.001L81.2131 89.8757L81.8041 89.0164L92.5053 73.4714C93.2068 72.4526 94.8946 72.3891 95.7194 73.2792C95.7748 73.3399 95.8263 73.4041 95.8735 73.4714L115.38 101.804Z" fill="black" fillOpacity="0.2"/>
<path d="M115.38 101.804H73.001L81.2131 89.8757L81.8041 89.0164L92.5053 73.4714C93.2068 72.4526 94.8946 72.3891 95.7194 73.2792C95.7748 73.3399 95.8263 73.4041 95.8735 73.4714L115.38 101.804Z" fill="black" fillOpacity="0.2"/>
<path d="M115.38 101.804H73.001L81.2131 89.8757L81.8041 89.0164L92.5053 73.4714C93.2068 72.4526 94.8946 72.3891 95.7194 73.2792C95.7748 73.3399 95.8263 73.4041 95.8735 73.4714L115.38 101.804Z" fill="black" fillOpacity="0.2"/>
<path d="M120.786 52.4088C120.531 51.7041 120.066 51.0948 119.453 50.6639C118.84 50.2329 118.109 50.0011 117.36 50H36.6399C36.1618 49.9998 35.6884 50.0938 35.2468 50.2767C34.8051 50.4596 34.4037 50.7277 34.0657 51.0657C33.7277 51.4037 33.4596 51.8051 33.2767 52.2468C33.0938 52.6884 32.9998 53.1619 33 53.6399V117.445C33.0014 118.41 33.3853 119.335 34.0676 120.018C34.7499 120.7 35.675 121.084 36.6399 121.085H117.36C118.325 121.084 119.25 120.7 119.932 120.018C120.615 119.335 120.999 118.41 121 117.445V53.6399C121.001 53.2202 120.928 52.8036 120.786 52.4088ZM120.572 117.445C120.571 118.297 120.232 119.113 119.63 119.715C119.028 120.317 118.212 120.656 117.36 120.657H36.6399C35.7884 120.656 34.9721 120.317 34.37 119.715C33.768 119.113 33.4292 118.297 33.4282 117.445V53.6399C33.4292 52.7884 33.768 51.9721 34.37 51.37C34.9721 50.768 35.7884 50.4293 36.6399 50.4282H117.36C118.212 50.4293 119.028 50.768 119.63 51.37C120.232 51.9721 120.571 52.7884 120.572 53.6399V117.445Z" fill="black" fillOpacity="0.6"/>
<path d="M39.79 140V133.03H44.36V133.82H40.67V136.05H43.87V136.84H40.67V140H39.79ZM45.3643 140V135.07H46.2043V140H45.3643ZM45.2843 134.18V133.03H46.2843V134.18H45.2843ZM48.6202 140.08C48.3202 140.08 48.0768 139.987 47.8902 139.8C47.7035 139.613 47.6102 139.317 47.6102 138.91V133.03H48.4502V138.75C48.4502 138.943 48.4902 139.083 48.5702 139.17C48.6502 139.257 48.7568 139.3 48.8902 139.3C48.9502 139.3 49.0168 139.293 49.0902 139.28C49.1635 139.267 49.2402 139.247 49.3202 139.22V139.94C49.2068 139.987 49.0868 140.02 48.9602 140.04C48.8335 140.067 48.7202 140.08 48.6202 140.08ZM52.3566 140.08C51.97 140.08 51.63 140.017 51.3366 139.89C51.05 139.757 50.81 139.573 50.6166 139.34C50.43 139.107 50.2866 138.84 50.1866 138.54C50.0933 138.233 50.0466 137.91 50.0466 137.57C50.0466 137.23 50.0933 136.907 50.1866 136.6C50.28 136.287 50.4166 136.01 50.5966 135.77C50.7833 135.53 51.0166 135.34 51.2966 135.2C51.5766 135.06 51.9033 134.99 52.2766 134.99C52.6566 134.99 52.9833 135.057 53.2566 135.19C53.5366 135.317 53.7633 135.493 53.9366 135.72C54.1166 135.947 54.25 136.2 54.3366 136.48C54.4233 136.76 54.4666 137.05 54.4666 137.35C54.4666 137.377 54.4633 137.44 54.4566 137.54C54.4566 137.633 54.45 137.717 54.4366 137.79H50.8866C50.9066 138.27 51.0466 138.643 51.3066 138.91C51.5666 139.177 51.92 139.31 52.3666 139.31C52.6533 139.31 52.9033 139.263 53.1166 139.17C53.33 139.077 53.53 138.927 53.7166 138.72L54.3066 139.24C54.1266 139.433 53.9366 139.593 53.7366 139.72C53.5366 139.84 53.3233 139.93 53.0966 139.99C52.8766 140.05 52.63 140.08 52.3566 140.08ZM53.6266 137.36C53.64 137.307 53.6466 137.253 53.6466 137.2C53.6533 137.147 53.6566 137.093 53.6566 137.04C53.6566 136.88 53.6266 136.72 53.5666 136.56C53.5133 136.4 53.43 136.257 53.3166 136.13C53.21 135.997 53.07 135.893 52.8966 135.82C52.73 135.74 52.53 135.7 52.2966 135.7C52.01 135.7 51.7633 135.767 51.5566 135.9C51.35 136.033 51.19 136.21 51.0766 136.43C50.9633 136.65 50.8966 136.893 50.8766 137.16H53.9066L53.6266 137.36ZM58.2747 140V135.07H59.1247V136.12L58.9247 136.19C59.018 135.937 59.1447 135.723 59.3047 135.55C59.4647 135.37 59.658 135.233 59.8847 135.14C60.1114 135.04 60.3614 134.99 60.6347 134.99C61.1747 134.99 61.598 135.15 61.9047 135.47C62.2114 135.783 62.3647 136.25 62.3647 136.87V140H61.5147V137.18C61.5147 136.68 61.4214 136.313 61.2347 136.08C61.0547 135.84 60.778 135.72 60.4047 135.72C60.1314 135.72 59.898 135.783 59.7047 135.91C59.518 136.037 59.3747 136.237 59.2747 136.51C59.1747 136.777 59.1247 137.12 59.1247 137.54V140H58.2747ZM65.9134 140.08C65.4534 140.08 65.0401 139.973 64.6734 139.76C64.3134 139.54 64.0301 139.237 63.8234 138.85C63.6168 138.463 63.5134 138.023 63.5134 137.53C63.5134 137.037 63.6134 136.6 63.8134 136.22C64.0201 135.833 64.3034 135.533 64.6634 135.32C65.0301 135.1 65.4468 134.99 65.9134 134.99C66.3801 134.99 66.7901 135.1 67.1434 135.32C67.5034 135.533 67.7868 135.833 67.9934 136.22C68.2001 136.6 68.3034 137.037 68.3034 137.53C68.3034 138.023 68.2001 138.463 67.9934 138.85C67.7868 139.23 67.5034 139.53 67.1434 139.75C66.7834 139.97 66.3734 140.08 65.9134 140.08ZM65.9134 139.33C66.2268 139.33 66.4968 139.257 66.7234 139.11C66.9568 138.957 67.1368 138.747 67.2634 138.48C67.3901 138.207 67.4534 137.89 67.4534 137.53C67.4534 137.163 67.3901 136.847 67.2634 136.58C67.1368 136.307 66.9568 136.097 66.7234 135.95C66.4968 135.803 66.2268 135.73 65.9134 135.73C65.5934 135.73 65.3168 135.807 65.0834 135.96C64.8501 136.107 64.6701 136.313 64.5434 136.58C64.4168 136.847 64.3534 137.163 64.3534 137.53C64.3534 137.89 64.4168 138.207 64.5434 138.48C64.6701 138.747 64.8501 138.957 65.0834 139.11C65.3168 139.257 65.5934 139.33 65.9134 139.33ZM71.0475 140.08C70.8142 140.08 70.6008 140.037 70.4075 139.95C70.2208 139.857 70.0742 139.71 69.9675 139.51C69.8608 139.31 69.8075 139.053 69.8075 138.74V133.75L70.6675 133.27V138.52C70.6675 138.793 70.7108 139.007 70.7975 139.16C70.8842 139.307 71.0408 139.38 71.2675 139.38C71.3342 139.38 71.4142 139.373 71.5075 139.36C71.6008 139.34 71.7008 139.317 71.8075 139.29V139.95C71.6808 139.997 71.5508 140.03 71.4175 140.05C71.2908 140.07 71.1675 140.08 71.0475 140.08ZM68.7875 135.73V135.07H71.8075V135.73H68.7875ZM78.7022 140L78.6422 139.01V136.91C78.6422 136.53 78.5355 136.237 78.3222 136.03C78.1155 135.823 77.8055 135.72 77.3922 135.72C77.1255 135.72 76.8755 135.777 76.6422 135.89C76.4089 135.997 76.1822 136.18 75.9622 136.44L75.3522 135.92C75.6255 135.6 75.9389 135.367 76.2922 135.22C76.6455 135.067 77.0322 134.99 77.4522 134.99C78.0989 134.99 78.5989 135.157 78.9522 135.49C79.3055 135.823 79.4822 136.297 79.4822 136.91V140H78.7022ZM77.0722 140.08C76.6989 140.08 76.3722 140.017 76.0922 139.89C75.8189 139.757 75.6055 139.573 75.4522 139.34C75.3055 139.107 75.2322 138.837 75.2322 138.53C75.2322 138.257 75.2855 138.027 75.3922 137.84C75.5055 137.647 75.6489 137.497 75.8222 137.39C75.9955 137.277 76.1922 137.2 76.4122 137.16C76.6389 137.113 76.8755 137.09 77.1222 137.09H78.7222V137.73H77.2422C77.0955 137.73 76.9422 137.743 76.7822 137.77C76.6222 137.797 76.4822 137.853 76.3622 137.94C76.2755 138.007 76.2055 138.09 76.1522 138.19C76.1055 138.29 76.0822 138.407 76.0822 138.54C76.0822 138.8 76.1789 139.007 76.3722 139.16C76.5655 139.313 76.8255 139.39 77.1522 139.39C77.4255 139.39 77.6722 139.327 77.8922 139.2C78.1189 139.073 78.2989 138.9 78.4322 138.68C78.5722 138.453 78.6422 138.2 78.6422 137.92L78.9922 138.28C78.9522 138.633 78.8455 138.947 78.6722 139.22C78.4989 139.493 78.2755 139.707 78.0022 139.86C77.7355 140.007 77.4255 140.08 77.0722 140.08ZM82.2656 140L80.2456 135.07H81.1756L82.6156 138.91L84.0656 135.07H84.9856L82.9756 140H82.2656ZM89.1319 140L89.0719 139.01V136.91C89.0719 136.53 88.9652 136.237 88.7519 136.03C88.5452 135.823 88.2352 135.72 87.8219 135.72C87.5552 135.72 87.3052 135.777 87.0719 135.89C86.8385 135.997 86.6119 136.18 86.3919 136.44L85.7819 135.92C86.0552 135.6 86.3685 135.367 86.7219 135.22C87.0752 135.067 87.4619 134.99 87.8819 134.99C88.5285 134.99 89.0285 135.157 89.3819 135.49C89.7352 135.823 89.9119 136.297 89.9119 136.91V140H89.1319ZM87.5019 140.08C87.1285 140.08 86.8019 140.017 86.5219 139.89C86.2485 139.757 86.0352 139.573 85.8819 139.34C85.7352 139.107 85.6619 138.837 85.6619 138.53C85.6619 138.257 85.7152 138.027 85.8219 137.84C85.9352 137.647 86.0785 137.497 86.2519 137.39C86.4252 137.277 86.6219 137.2 86.8419 137.16C87.0685 137.113 87.3052 137.09 87.5519 137.09H89.1519V137.73H87.6719C87.5252 137.73 87.3719 137.743 87.2119 137.77C87.0519 137.797 86.9119 137.853 86.7919 137.94C86.7052 138.007 86.6352 138.09 86.5819 138.19C86.5352 138.29 86.5119 138.407 86.5119 138.54C86.5119 138.8 86.6085 139.007 86.8019 139.16C86.9952 139.313 87.2552 139.39 87.5819 139.39C87.8552 139.39 88.1019 139.327 88.3219 139.2C88.5485 139.073 88.7285 138.9 88.8619 138.68C89.0019 138.453 89.0719 138.2 89.0719 137.92L89.4219 138.28C89.3819 138.633 89.2752 138.947 89.1019 139.22C88.9285 139.493 88.7052 139.707 88.4319 139.86C88.1652 140.007 87.8552 140.08 87.5019 140.08ZM91.2823 140V135.07H92.1223V140H91.2823ZM91.2023 134.18V133.03H92.2023V134.18H91.2023ZM94.5381 140.08C94.2381 140.08 93.9948 139.987 93.8081 139.8C93.6215 139.613 93.5281 139.317 93.5281 138.91V133.03H94.3681V138.75C94.3681 138.943 94.4081 139.083 94.4881 139.17C94.5681 139.257 94.6748 139.3 94.8081 139.3C94.8681 139.3 94.9348 139.293 95.0081 139.28C95.0815 139.267 95.1581 139.247 95.2381 139.22V139.94C95.1248 139.987 95.0048 140.02 94.8781 140.04C94.7515 140.067 94.6381 140.08 94.5381 140.08ZM99.4346 140L99.3746 139.01V136.91C99.3746 136.53 99.2679 136.237 99.0546 136.03C98.8479 135.823 98.5379 135.72 98.1246 135.72C97.8579 135.72 97.6079 135.777 97.3746 135.89C97.1413 135.997 96.9146 136.18 96.6946 136.44L96.0846 135.92C96.3579 135.6 96.6713 135.367 97.0246 135.22C97.3779 135.067 97.7646 134.99 98.1846 134.99C98.8313 134.99 99.3313 135.157 99.6846 135.49C100.038 135.823 100.215 136.297 100.215 136.91V140H99.4346ZM97.8046 140.08C97.4313 140.08 97.1046 140.017 96.8246 139.89C96.5513 139.757 96.3379 139.573 96.1846 139.34C96.0379 139.107 95.9646 138.837 95.9646 138.53C95.9646 138.257 96.0179 138.027 96.1246 137.84C96.2379 137.647 96.3813 137.497 96.5546 137.39C96.7279 137.277 96.9246 137.2 97.1446 137.16C97.3713 137.113 97.6079 137.09 97.8546 137.09H99.4546V137.73H97.9746C97.8279 137.73 97.6746 137.743 97.5146 137.77C97.3546 137.797 97.2146 137.853 97.0946 137.94C97.0079 138.007 96.9379 138.09 96.8846 138.19C96.8379 138.29 96.8146 138.407 96.8146 138.54C96.8146 138.8 96.9113 139.007 97.1046 139.16C97.2979 139.313 97.5579 139.39 97.8846 139.39C98.1579 139.39 98.4046 139.327 98.6246 139.2C98.8513 139.073 99.0313 138.9 99.1646 138.68C99.3046 138.453 99.3746 138.2 99.3746 137.92L99.7246 138.28C99.6846 138.633 99.5779 138.947 99.4046 139.22C99.2313 139.493 99.0079 139.707 98.7346 139.86C98.4679 140.007 98.1579 140.08 97.8046 140.08ZM104.015 140.08C103.702 140.08 103.418 140.02 103.165 139.9C102.918 139.773 102.708 139.6 102.535 139.38C102.368 139.16 102.242 138.907 102.155 138.62L102.435 138.53V140H101.595V133.03H102.435V136.54L102.195 136.4C102.268 136.14 102.388 135.903 102.555 135.69C102.722 135.477 102.928 135.307 103.175 135.18C103.422 135.053 103.702 134.99 104.015 134.99C104.428 134.99 104.805 135.093 105.145 135.3C105.485 135.507 105.755 135.8 105.955 136.18C106.155 136.56 106.255 137.01 106.255 137.53C106.255 138.01 106.162 138.443 105.975 138.83C105.788 139.217 105.525 139.523 105.185 139.75C104.852 139.97 104.462 140.08 104.015 140.08ZM103.875 139.3C104.175 139.3 104.438 139.227 104.665 139.08C104.898 138.927 105.078 138.717 105.205 138.45C105.338 138.183 105.405 137.877 105.405 137.53C105.405 137.183 105.338 136.877 105.205 136.61C105.078 136.343 104.898 136.137 104.665 135.99C104.438 135.837 104.175 135.76 103.875 135.76C103.575 135.76 103.312 135.837 103.085 135.99C102.858 136.137 102.682 136.343 102.555 136.61C102.428 136.877 102.365 137.183 102.365 137.53C102.365 137.877 102.428 138.183 102.555 138.45C102.682 138.717 102.858 138.927 103.085 139.08C103.312 139.227 103.575 139.3 103.875 139.3ZM108.454 140.08C108.154 140.08 107.911 139.987 107.724 139.8C107.537 139.613 107.444 139.317 107.444 138.91V133.03H108.284V138.75C108.284 138.943 108.324 139.083 108.404 139.17C108.484 139.257 108.591 139.3 108.724 139.3C108.784 139.3 108.851 139.293 108.924 139.28C108.997 139.267 109.074 139.247 109.154 139.22V139.94C109.041 139.987 108.921 140.02 108.794 140.04C108.667 140.067 108.554 140.08 108.454 140.08ZM112.191 140.08C111.804 140.08 111.464 140.017 111.171 139.89C110.884 139.757 110.644 139.573 110.451 139.34C110.264 139.107 110.121 138.84 110.021 138.54C109.927 138.233 109.881 137.91 109.881 137.57C109.881 137.23 109.927 136.907 110.021 136.6C110.114 136.287 110.251 136.01 110.431 135.77C110.617 135.53 110.851 135.34 111.131 135.2C111.411 135.06 111.737 134.99 112.111 134.99C112.491 134.99 112.817 135.057 113.091 135.19C113.371 135.317 113.597 135.493 113.771 135.72C113.951 135.947 114.084 136.2 114.171 136.48C114.257 136.76 114.301 137.05 114.301 137.35C114.301 137.377 114.297 137.44 114.291 137.54C114.291 137.633 114.284 137.717 114.271 137.79H110.721C110.741 138.27 110.881 138.643 111.141 138.91C111.401 139.177 111.754 139.31 112.201 139.31C112.487 139.31 112.737 139.263 112.951 139.17C113.164 139.077 113.364 138.927 113.551 138.72L114.141 139.24C113.961 139.433 113.771 139.593 113.571 139.72C113.371 139.84 113.157 139.93 112.931 139.99C112.711 140.05 112.464 140.08 112.191 140.08ZM113.461 137.36C113.474 137.307 113.481 137.253 113.481 137.2C113.487 137.147 113.491 137.093 113.491 137.04C113.491 136.88 113.461 136.72 113.401 136.56C113.347 136.4 113.264 136.257 113.151 136.13C113.044 135.997 112.904 135.893 112.731 135.82C112.564 135.74 112.364 135.7 112.131 135.7C111.844 135.7 111.597 135.767 111.391 135.9C111.184 136.033 111.024 136.21 110.911 136.43C110.797 136.65 110.731 136.893 110.711 137.16H113.741L113.461 137.36Z" fill="#201C1A" fillOpacity="0.55"/>
</svg>
