<svg width="20" height="20" viewBox="0 0 20 20" fill="none" xmlns="http://www.w3.org/2000/svg">
<path id="Stickers V13" d="M11.8272 0.613594C10.4928 3.34178 9.26445 5.12885 7.55139 6.24182C5.83836 7.35477 3.70578 7.75128 0.669555 7.86276C0.637841 7.86449 0.607587 7.87655 0.583419 7.89705C0.558942 7.91781 0.542058 7.9461 0.535401 7.97749C0.528744 8.00888 0.53269 8.04159 0.546631 8.0705C0.560387 8.09903 0.583123 8.12232 0.611382 8.13678C3.34097 9.47117 5.129 10.6992 6.24277 12.4117C7.35655 14.1243 7.75366 16.2561 7.86578 19.2911C7.86751 19.3226 7.87953 19.3528 7.90006 19.377C7.92087 19.4015 7.94926 19.4185 7.98082 19.4252C8.01238 19.4319 8.04521 19.4279 8.07417 19.4139C8.10275 19.4002 8.12599 19.3775 8.14039 19.3493C9.47469 16.6215 10.7005 14.8339 12.4112 13.7203C14.122 12.6067 16.2524 12.2097 19.2887 12.0982C19.3204 12.0964 19.3507 12.0844 19.3748 12.0639C19.3993 12.0431 19.4162 12.0148 19.4228 11.9835C19.4295 11.9521 19.4255 11.9194 19.4116 11.8904C19.3978 11.8619 19.3751 11.8386 19.3468 11.8241C16.6172 10.4897 14.8313 9.26209 13.7199 7.54986C12.6086 5.83779 12.2139 3.70646 12.1018 0.671837M11.8272 0.613594C11.827 0.613993 11.8268 0.614393 11.8266 0.614793L11.424 0.413406L11.8284 0.611185C11.828 0.611989 11.8276 0.612792 11.8272 0.613594ZM11.8272 0.613594C11.8416 0.585471 11.8648 0.562767 11.8934 0.549001C11.9224 0.535037 11.9553 0.531075 11.9868 0.53776C12.0183 0.544446 12.0467 0.561398 12.0675 0.585929C12.0881 0.610112 12.1001 0.640292 12.1018 0.671837M12.1018 0.671837C12.1018 0.672284 12.1019 0.672732 12.1019 0.673179L12.5516 0.652567L12.1017 0.669158C12.1018 0.670051 12.1018 0.670944 12.1018 0.671837Z" fill="#FED33D" stroke="#21150C" strokeWidth="0.900353"/>
</svg>
