<svg width="8" height="9" viewBox="0 0 8 9" fill="none" xmlns="http://www.w3.org/2000/svg">
<path id="Stickers V13" d="M4.73936 5.95027C5.3871 5.52862 6.19376 5.37838 7.34356 5.33624L7.3498 5.50652L7.34204 5.3363C7.35423 5.33574 7.36587 5.33116 7.37514 5.3233L7.47963 5.44646L7.37514 5.3233C7.38441 5.31544 7.3908 5.30473 7.39332 5.29285C7.39584 5.28097 7.39434 5.26859 7.38907 5.25764C7.38386 5.24685 7.37525 5.23803 7.36454 5.23255C7.36439 5.23248 7.36424 5.2324 7.36409 5.23232L7.44028 5.07991C5.38607 4.07584 4.87674 3.28798 4.79251 1.00402L4.73936 5.95027ZM4.73936 5.95027C4.09187 6.37176 3.62787 7.04839 3.12283 8.08089C3.11738 8.09154 3.10858 8.10014 3.09777 8.10535C3.08681 8.11063 3.07438 8.11213 3.06243 8.1096C3.05049 8.10706 3.03974 8.10065 3.03187 8.09137C3.02399 8.08209 3.01942 8.07047 3.01886 8.05834L2.84865 8.06614L3.01893 8.05987C2.97654 6.91055 2.82627 6.10336 2.40457 5.45496C1.983 4.80676 1.30622 4.34193 0.273052 3.83685M4.73936 5.95027L0.273052 3.83685M0.273052 3.83685C0.273201 3.83693 0.273351 3.83701 0.273502 3.83708L0.19731 3.98949L0.272137 3.83641C0.272442 3.83656 0.272747 3.83671 0.273052 3.83685Z" fill="#FED33D" stroke="#21150C" strokeWidth="0.340791"/>
</svg>
