<svg width="283" height="129" viewBox="0 0 283 129" fill="none" xmlns="http://www.w3.org/2000/svg">
<path d="M11.2523 28.9234C10.8713 29.7474 9.66964 29.6645 9.38969 28.7949L1.67675 4.83652C1.41295 4.01709 2.23638 3.27846 3.0262 3.62604L25.6656 13.5889C26.4838 13.9489 26.4677 15.1119 25.6401 15.4335L16.0769 19.1492C15.8383 19.2419 15.6454 19.423 15.5382 19.6548L11.2523 28.9234Z" fill="#FFE084" stroke="white" stroke-width="1.5" stroke-linecap="square"/>
<path d="M33 34.4961H276C279.038 34.4961 281.5 36.9585 281.5 39.9961V121.996C281.5 125.034 279.038 127.496 276 127.496H33C29.9624 127.496 27.5 125.034 27.5 121.996V39.9961C27.5 36.9585 29.9624 34.4961 33 34.4961Z" fill="#FFE084" stroke="white" stroke-width="3"/>
<path d="M42.1071 61.9922V53.3402H38.8311V52.2342H46.6151V53.3402H43.3531V61.9922H42.1071ZM47.8459 61.9922V52.2342H49.0359V56.5602L48.7419 56.6722C48.8726 56.3175 49.0546 56.0142 49.2879 55.7622C49.5212 55.5102 49.7966 55.3189 50.1139 55.1882C50.4312 55.0482 50.7766 54.9782 51.1499 54.9782C51.9059 54.9782 52.4986 55.2022 52.9279 55.6502C53.3572 56.0889 53.5719 56.7422 53.5719 57.6102V61.9922H52.3819V58.0442C52.3819 57.3442 52.2512 56.8309 51.9899 56.5042C51.7379 56.1682 51.3506 56.0002 50.8279 56.0002C50.2586 56.0002 49.8152 56.2055 49.4979 56.6162C49.1899 57.0175 49.0359 57.6615 49.0359 58.5482V61.9922H47.8459ZM60.0381 61.9922L59.9541 60.6062V57.6662C59.9541 57.1342 59.8048 56.7235 59.5061 56.4342C59.2168 56.1449 58.7828 56.0002 58.2041 56.0002C57.8308 56.0002 57.4808 56.0795 57.1541 56.2382C56.8275 56.3875 56.5101 56.6442 56.2021 57.0082L55.3481 56.2802C55.7308 55.8322 56.1695 55.5055 56.6641 55.3002C57.1588 55.0855 57.7001 54.9782 58.2881 54.9782C59.1935 54.9782 59.8935 55.2115 60.3881 55.6782C60.8828 56.1449 61.1301 56.8075 61.1301 57.6662V61.9922H60.0381ZM57.7561 62.1042C57.2335 62.1042 56.7761 62.0155 56.3841 61.8382C56.0015 61.6515 55.7028 61.3949 55.4881 61.0682C55.2828 60.7415 55.1801 60.3635 55.1801 59.9342C55.1801 59.5515 55.2548 59.2295 55.4041 58.9682C55.5628 58.6975 55.7635 58.4875 56.0061 58.3382C56.2488 58.1795 56.5241 58.0722 56.8321 58.0162C57.1495 57.9509 57.4808 57.9182 57.8261 57.9182H60.0661V58.8142H57.9941C57.7888 58.8142 57.5741 58.8329 57.3501 58.8702C57.1261 58.9075 56.9301 58.9869 56.7621 59.1082C56.6408 59.2015 56.5428 59.3182 56.4681 59.4582C56.4028 59.5982 56.3701 59.7615 56.3701 59.9482C56.3701 60.3122 56.5055 60.6015 56.7761 60.8162C57.0468 61.0309 57.4108 61.1382 57.8681 61.1382C58.2508 61.1382 58.5961 61.0495 58.9041 60.8722C59.2215 60.6949 59.4735 60.4522 59.6601 60.1442C59.8561 59.8269 59.9541 59.4722 59.9541 59.0802L60.4441 59.5842C60.3881 60.0789 60.2388 60.5175 59.9961 60.9002C59.7535 61.2829 59.4408 61.5815 59.0581 61.7962C58.6848 62.0015 58.2508 62.1042 57.7561 62.1042ZM63.0627 61.9922V55.0902H64.2527V56.5602L63.9727 56.6582C64.1034 56.3035 64.2807 56.0049 64.5047 55.7622C64.7287 55.5102 64.9994 55.3189 65.3167 55.1882C65.634 55.0482 65.984 54.9782 66.3667 54.9782C67.1227 54.9782 67.7154 55.2022 68.1447 55.6502C68.574 56.0889 68.7887 56.7422 68.7887 57.6102V61.9922H67.5987V58.0442C67.5987 57.3442 67.468 56.8309 67.2067 56.5042C66.9547 56.1682 66.5674 56.0002 66.0447 56.0002C65.662 56.0002 65.3354 56.0889 65.0647 56.2662C64.8034 56.4435 64.6027 56.7235 64.4627 57.1062C64.3227 57.4795 64.2527 57.9602 64.2527 58.5482V61.9922H63.0627ZM75.4229 61.9922L73.1269 58.4362L71.7689 59.8922V58.3662L74.9469 55.0902H76.4729L73.9949 57.6382L76.8369 61.9922H75.4229ZM70.7189 61.9922V52.2342H71.9089V61.9922H70.7189ZM80.4521 62.1042C79.9854 62.1042 79.5654 62.0342 79.1921 61.8942C78.8188 61.7542 78.4968 61.5675 78.2261 61.3342C77.9648 61.1009 77.7548 60.8535 77.5961 60.5922L78.4221 59.8922C78.5994 60.2469 78.8608 60.5409 79.2061 60.7742C79.5608 60.9982 79.9808 61.1102 80.4661 61.1102C80.9048 61.1102 81.2548 61.0169 81.5161 60.8302C81.7774 60.6435 81.9081 60.3915 81.9081 60.0742C81.9081 59.8129 81.8288 59.6075 81.6701 59.4582C81.5114 59.3089 81.3014 59.1875 81.0401 59.0942C80.7788 59.0009 80.4941 58.9169 80.1861 58.8422C79.9248 58.7769 79.6588 58.6975 79.3881 58.6042C79.1268 58.5109 78.8888 58.3942 78.6741 58.2542C78.4594 58.1142 78.2868 57.9322 78.1561 57.7082C78.0254 57.4842 77.9601 57.2089 77.9601 56.8822C77.9601 56.3129 78.1794 55.8555 78.6181 55.5102C79.0661 55.1555 79.6494 54.9782 80.3681 54.9782C80.8908 54.9782 81.3668 55.0902 81.7961 55.3142C82.2348 55.5289 82.5754 55.8555 82.8181 56.2942L82.0621 56.8542C81.8754 56.5275 81.6281 56.2942 81.3201 56.1542C81.0214 56.0049 80.6901 55.9302 80.3261 55.9302C79.9621 55.9302 79.6588 56.0049 79.4161 56.1542C79.1734 56.3035 79.0521 56.5089 79.0521 56.7702C79.0521 56.9662 79.1081 57.1249 79.2201 57.2462C79.3321 57.3675 79.4954 57.4702 79.7101 57.5542C79.9341 57.6382 80.2048 57.7175 80.5221 57.7922C80.8114 57.8575 81.1054 57.9369 81.4041 58.0302C81.7028 58.1235 81.9781 58.2449 82.2301 58.3942C82.4821 58.5435 82.6828 58.7442 82.8321 58.9962C82.9908 59.2389 83.0701 59.5562 83.0701 59.9482C83.0701 60.3775 82.9628 60.7555 82.7481 61.0822C82.5334 61.4089 82.2301 61.6609 81.8381 61.8382C81.4461 62.0155 80.9841 62.1042 80.4521 62.1042ZM90.679 62.1042C90.3523 62.1042 90.0537 62.0435 89.783 61.9222C89.5217 61.7915 89.3163 61.5862 89.167 61.3062C89.0177 61.0262 88.943 60.6669 88.943 60.2282V53.2422L90.147 52.5702V59.9202C90.147 60.3029 90.2077 60.6015 90.329 60.8162C90.4503 61.0215 90.6697 61.1242 90.987 61.1242C91.0803 61.1242 91.1923 61.1149 91.323 61.0962C91.4537 61.0682 91.5937 61.0355 91.743 60.9982V61.9222C91.5657 61.9875 91.3837 62.0342 91.197 62.0622C91.0197 62.0902 90.847 62.1042 90.679 62.1042ZM87.515 56.0142V55.0902H91.743V56.0142H87.515ZM96.1241 62.1042C95.4801 62.1042 94.9015 61.9549 94.3881 61.6562C93.8841 61.3482 93.4875 60.9235 93.1981 60.3822C92.9088 59.8409 92.7641 59.2249 92.7641 58.5342C92.7641 57.8435 92.9041 57.2322 93.1841 56.7002C93.4735 56.1589 93.8701 55.7389 94.3741 55.4402C94.8875 55.1322 95.4708 54.9782 96.1241 54.9782C96.7775 54.9782 97.3515 55.1322 97.8461 55.4402C98.3501 55.7389 98.7468 56.1589 99.0361 56.7002C99.3255 57.2322 99.4701 57.8435 99.4701 58.5342C99.4701 59.2249 99.3255 59.8409 99.0361 60.3822C98.7468 60.9142 98.3501 61.3342 97.8461 61.6422C97.3421 61.9502 96.7681 62.1042 96.1241 62.1042ZM96.1241 61.0542C96.5628 61.0542 96.9408 60.9515 97.2581 60.7462C97.5848 60.5315 97.8368 60.2375 98.0141 59.8642C98.1915 59.4815 98.2801 59.0382 98.2801 58.5342C98.2801 58.0209 98.1915 57.5775 98.0141 57.2042C97.8368 56.8215 97.5848 56.5275 97.2581 56.3222C96.9408 56.1169 96.5628 56.0142 96.1241 56.0142C95.6761 56.0142 95.2888 56.1215 94.9621 56.3362C94.6355 56.5415 94.3835 56.8309 94.2061 57.2042C94.0288 57.5775 93.9401 58.0209 93.9401 58.5342C93.9401 59.0382 94.0288 59.4815 94.2061 59.8642C94.3835 60.2375 94.6355 60.5315 94.9621 60.7462C95.2888 60.9515 95.6761 61.0542 96.1241 61.0542ZM106.973 61.9922L104.117 52.2342H105.405L107.659 60.1302L109.885 52.7662H111.117L113.343 60.1302L115.583 52.2342H116.871L114.015 61.9922H112.797L110.403 54.2362H110.599L108.205 61.9922H106.973ZM118.187 61.9922V55.0902H119.363V61.9922H118.187ZM118.075 53.8442V52.2342H119.475V53.8442H118.075ZM123.642 62.1042C123.175 62.1042 122.755 62.0342 122.382 61.8942C122.008 61.7542 121.686 61.5675 121.416 61.3342C121.154 61.1009 120.944 60.8535 120.786 60.5922L121.612 59.8922C121.789 60.2469 122.05 60.5409 122.396 60.7742C122.75 60.9982 123.17 61.1102 123.656 61.1102C124.094 61.1102 124.444 61.0169 124.706 60.8302C124.967 60.6435 125.098 60.3915 125.098 60.0742C125.098 59.8129 125.018 59.6075 124.86 59.4582C124.701 59.3089 124.491 59.1875 124.23 59.0942C123.968 59.0009 123.684 58.9169 123.376 58.8422C123.114 58.7769 122.848 58.6975 122.578 58.6042C122.316 58.5109 122.078 58.3942 121.864 58.2542C121.649 58.1142 121.476 57.9322 121.346 57.7082C121.215 57.4842 121.15 57.2089 121.15 56.8822C121.15 56.3129 121.369 55.8555 121.808 55.5102C122.256 55.1555 122.839 54.9782 123.558 54.9782C124.08 54.9782 124.556 55.0902 124.986 55.3142C125.424 55.5289 125.765 55.8555 126.008 56.2942L125.252 56.8542C125.065 56.5275 124.818 56.2942 124.51 56.1542C124.211 56.0049 123.88 55.9302 123.516 55.9302C123.152 55.9302 122.848 56.0049 122.606 56.1542C122.363 56.3035 122.242 56.5089 122.242 56.7702C122.242 56.9662 122.298 57.1249 122.41 57.2462C122.522 57.3675 122.685 57.4702 122.9 57.5542C123.124 57.6382 123.394 57.7175 123.712 57.7922C124.001 57.8575 124.295 57.9369 124.594 58.0302C124.892 58.1235 125.168 58.2449 125.42 58.3942C125.672 58.5435 125.872 58.7442 126.022 58.9962C126.18 59.2389 126.26 59.5562 126.26 59.9482C126.26 60.3775 126.152 60.7555 125.938 61.0822C125.723 61.4089 125.42 61.6609 125.028 61.8382C124.636 62.0155 124.174 62.1042 123.642 62.1042ZM130.848 62.1042C130.306 62.1042 129.83 62.0155 129.42 61.8382C129.018 61.6515 128.682 61.3949 128.412 61.0682C128.15 60.7415 127.95 60.3682 127.81 59.9482C127.679 59.5189 127.614 59.0662 127.614 58.5902C127.614 58.1142 127.679 57.6615 127.81 57.2322C127.94 56.7935 128.132 56.4062 128.384 56.0702C128.645 55.7342 128.972 55.4682 129.364 55.2722C129.756 55.0762 130.213 54.9782 130.736 54.9782C131.268 54.9782 131.725 55.0715 132.108 55.2582C132.5 55.4355 132.817 55.6829 133.06 56.0002C133.312 56.3175 133.498 56.6722 133.62 57.0642C133.741 57.4562 133.802 57.8622 133.802 58.2822C133.802 58.3195 133.797 58.4082 133.788 58.5482C133.788 58.6789 133.778 58.7955 133.76 58.8982H128.79C128.818 59.5702 129.014 60.0929 129.378 60.4662C129.742 60.8395 130.236 61.0262 130.862 61.0262C131.263 61.0262 131.613 60.9609 131.912 60.8302C132.21 60.6995 132.49 60.4895 132.752 60.2002L133.578 60.9282C133.326 61.1989 133.06 61.4229 132.78 61.6002C132.5 61.7682 132.201 61.8942 131.884 61.9782C131.576 62.0622 131.23 62.1042 130.848 62.1042ZM132.626 58.2962C132.644 58.2215 132.654 58.1469 132.654 58.0722C132.663 57.9975 132.668 57.9229 132.668 57.8482C132.668 57.6242 132.626 57.4002 132.542 57.1762C132.467 56.9522 132.35 56.7515 132.192 56.5742C132.042 56.3875 131.846 56.2429 131.604 56.1402C131.37 56.0282 131.09 55.9722 130.764 55.9722C130.362 55.9722 130.017 56.0655 129.728 56.2522C129.438 56.4389 129.214 56.6862 129.056 56.9942C128.897 57.3022 128.804 57.6429 128.776 58.0162H133.018L132.626 58.2962ZM134.726 61.9922L138.45 52.2342H139.43L143.154 61.9922H141.81L138.954 53.9982L136.084 61.9922H134.726ZM136.798 59.6962L137.176 58.5902H140.704L141.11 59.6962H136.798ZM147.224 62.1042C146.599 62.1042 146.048 61.9502 145.572 61.6422C145.106 61.3249 144.742 60.8955 144.48 60.3542C144.219 59.8129 144.088 59.2062 144.088 58.5342C144.088 57.8062 144.228 57.1762 144.508 56.6442C144.788 56.1122 145.166 55.7015 145.642 55.4122C146.118 55.1229 146.646 54.9782 147.224 54.9782C147.663 54.9782 148.055 55.0669 148.4 55.2442C148.746 55.4122 149.035 55.6455 149.268 55.9442C149.511 56.2335 149.679 56.5602 149.772 56.9242L149.436 57.1482V52.2342H150.612V61.9922H149.436V59.9342L149.828 60.0602C149.707 60.4615 149.525 60.8162 149.282 61.1242C149.04 61.4322 148.746 61.6749 148.4 61.8522C148.055 62.0202 147.663 62.1042 147.224 62.1042ZM147.42 61.0122C147.84 61.0122 148.209 60.9095 148.526 60.7042C148.844 60.4895 149.091 60.1955 149.268 59.8222C149.446 59.4489 149.534 59.0195 149.534 58.5342C149.534 58.0489 149.446 57.6195 149.268 57.2462C149.091 56.8729 148.844 56.5835 148.526 56.3782C148.209 56.1635 147.84 56.0562 147.42 56.0562C147 56.0562 146.627 56.1635 146.3 56.3782C145.983 56.5835 145.731 56.8729 145.544 57.2462C145.367 57.6195 145.278 58.0489 145.278 58.5342C145.278 59.0195 145.367 59.4489 145.544 59.8222C145.731 60.1955 145.983 60.4895 146.3 60.7042C146.627 60.9095 147 61.0122 147.42 61.0122ZM152.627 61.9922V55.0902H153.817V56.8682H153.579C153.663 56.5415 153.775 56.2615 153.915 56.0282C154.064 55.7855 154.237 55.5895 154.433 55.4402C154.629 55.2815 154.839 55.1649 155.063 55.0902C155.296 55.0155 155.539 54.9782 155.791 54.9782C156.211 54.9782 156.58 55.0575 156.897 55.2162C157.214 55.3749 157.476 55.6175 157.681 55.9442C157.886 56.2615 158.026 56.6675 158.101 57.1622L157.429 57.2042C157.569 56.7282 157.746 56.3269 157.961 56.0002C158.176 55.6642 158.442 55.4122 158.759 55.2442C159.086 55.0669 159.473 54.9782 159.921 54.9782C160.49 54.9782 160.948 55.1089 161.293 55.3702C161.638 55.6222 161.89 55.9629 162.049 56.3922C162.208 56.8122 162.287 57.2789 162.287 57.7922V61.9922H161.111V58.0722C161.111 57.6429 161.06 57.2742 160.957 56.9662C160.864 56.6582 160.71 56.4202 160.495 56.2522C160.29 56.0842 160.01 56.0002 159.655 56.0002C159.319 56.0002 159.03 56.0842 158.787 56.2522C158.554 56.4202 158.372 56.6769 158.241 57.0222C158.12 57.3582 158.059 57.7782 158.059 58.2822V61.9922H156.869V57.9742C156.869 57.3115 156.748 56.8169 156.505 56.4902C156.262 56.1635 155.908 56.0002 155.441 56.0002C155.105 56.0002 154.816 56.0889 154.573 56.2662C154.33 56.4342 154.144 56.6862 154.013 57.0222C153.882 57.3582 153.817 57.7782 153.817 58.2822V61.9922H152.627ZM164.207 61.9922V55.0902H165.383V61.9922H164.207ZM164.095 53.8442V52.2342H165.495V53.8442H164.095ZM169.675 62.1042C169.348 62.1042 169.05 62.0435 168.779 61.9222C168.518 61.7915 168.312 61.5862 168.163 61.3062C168.014 61.0262 167.939 60.6669 167.939 60.2282V53.2422L169.143 52.5702V59.9202C169.143 60.3029 169.204 60.6015 169.325 60.8162C169.446 61.0215 169.666 61.1242 169.983 61.1242C170.076 61.1242 170.188 61.1149 170.319 61.0962C170.45 61.0682 170.59 61.0355 170.739 60.9982V61.9222C170.562 61.9875 170.38 62.0342 170.193 62.0622C170.016 62.0902 169.843 62.1042 169.675 62.1042ZM166.511 56.0142V55.0902H170.739V56.0142H166.511ZM171.547 64.1482L172.849 59.9342H174.165L172.345 64.1482H171.547ZM179.905 64.8342L181.221 61.6562L178.533 55.0902H179.835L181.851 60.4662L183.881 55.0902H185.169L181.193 64.8342H179.905ZM189.366 62.1042C188.722 62.1042 188.144 61.9549 187.63 61.6562C187.126 61.3482 186.73 60.9235 186.44 60.3822C186.151 59.8409 186.006 59.2249 186.006 58.5342C186.006 57.8435 186.146 57.2322 186.426 56.7002C186.716 56.1589 187.112 55.7389 187.616 55.4402C188.13 55.1322 188.713 54.9782 189.366 54.9782C190.02 54.9782 190.594 55.1322 191.088 55.4402C191.592 55.7389 191.989 56.1589 192.278 56.7002C192.568 57.2322 192.712 57.8435 192.712 58.5342C192.712 59.2249 192.568 59.8409 192.278 60.3822C191.989 60.9142 191.592 61.3342 191.088 61.6422C190.584 61.9502 190.01 62.1042 189.366 62.1042ZM189.366 61.0542C189.805 61.0542 190.183 60.9515 190.5 60.7462C190.827 60.5315 191.079 60.2375 191.256 59.8642C191.434 59.4815 191.522 59.0382 191.522 58.5342C191.522 58.0209 191.434 57.5775 191.256 57.2042C191.079 56.8215 190.827 56.5275 190.5 56.3222C190.183 56.1169 189.805 56.0142 189.366 56.0142C188.918 56.0142 188.531 56.1215 188.204 56.3362C187.878 56.5415 187.626 56.8309 187.448 57.2042C187.271 57.5775 187.182 58.0209 187.182 58.5342C187.182 59.0382 187.271 59.4815 187.448 59.8642C187.626 60.2375 187.878 60.5315 188.204 60.7462C188.531 60.9515 188.918 61.0542 189.366 61.0542ZM196.732 62.1042C196.238 62.1042 195.808 62.0062 195.444 61.8102C195.08 61.6049 194.8 61.3062 194.604 60.9142C194.418 60.5222 194.324 60.0369 194.324 59.4582V55.0902H195.5V59.0382C195.5 59.4955 195.556 59.8782 195.668 60.1862C195.79 60.4849 195.967 60.7089 196.2 60.8582C196.434 60.9982 196.723 61.0682 197.068 61.0682C197.451 61.0682 197.773 60.9795 198.034 60.8022C198.305 60.6155 198.51 60.3355 198.65 59.9622C198.79 59.5889 198.86 59.1082 198.86 58.5202V55.0902H200.036V61.9922H198.86V60.5222H199.154C198.958 61.0355 198.646 61.4275 198.216 61.6982C197.787 61.9689 197.292 62.1042 196.732 62.1042ZM208.571 62.1042C208.058 62.1042 207.601 62.0109 207.199 61.8242C206.807 61.6375 206.476 61.3809 206.205 61.0542C205.935 60.7182 205.729 60.3355 205.589 59.9062C205.449 59.4769 205.379 59.0195 205.379 58.5342C205.379 58.0582 205.449 57.6055 205.589 57.1762C205.729 56.7469 205.935 56.3689 206.205 56.0422C206.476 55.7062 206.807 55.4449 207.199 55.2582C207.601 55.0715 208.058 54.9782 208.571 54.9782C209.225 54.9782 209.794 55.1369 210.279 55.4542C210.774 55.7715 211.138 56.2569 211.371 56.9102L210.321 57.3162C210.191 56.9242 209.981 56.6069 209.691 56.3642C209.402 56.1215 209.029 56.0002 208.571 56.0002C208.114 56.0002 207.736 56.1215 207.437 56.3642C207.139 56.6069 206.915 56.9195 206.765 57.3022C206.625 57.6849 206.555 58.0955 206.555 58.5342C206.555 58.9729 206.625 59.3882 206.765 59.7802C206.915 60.1629 207.139 60.4755 207.437 60.7182C207.736 60.9515 208.114 61.0682 208.571 61.0682C209.029 61.0682 209.402 60.9515 209.691 60.7182C209.981 60.4755 210.191 60.1535 210.321 59.7522L211.371 60.1582C211.138 60.8115 210.774 61.3015 210.279 61.6282C209.794 61.9455 209.225 62.1042 208.571 62.1042ZM217.483 61.9922L217.399 60.6062V57.6662C217.399 57.1342 217.25 56.7235 216.951 56.4342C216.662 56.1449 216.228 56.0002 215.649 56.0002C215.276 56.0002 214.926 56.0795 214.599 56.2382C214.273 56.3875 213.955 56.6442 213.647 57.0082L212.793 56.2802C213.176 55.8322 213.615 55.5055 214.109 55.3002C214.604 55.0855 215.145 54.9782 215.733 54.9782C216.639 54.9782 217.339 55.2115 217.833 55.6782C218.328 56.1449 218.575 56.8075 218.575 57.6662V61.9922H217.483ZM215.201 62.1042C214.679 62.1042 214.221 62.0155 213.829 61.8382C213.447 61.6515 213.148 61.3949 212.933 61.0682C212.728 60.7415 212.625 60.3635 212.625 59.9342C212.625 59.5515 212.7 59.2295 212.849 58.9682C213.008 58.6975 213.209 58.4875 213.451 58.3382C213.694 58.1795 213.969 58.0722 214.277 58.0162C214.595 57.9509 214.926 57.9182 215.271 57.9182H217.511V58.8142H215.439C215.234 58.8142 215.019 58.8329 214.795 58.8702C214.571 58.9075 214.375 58.9869 214.207 59.1082C214.086 59.2015 213.988 59.3182 213.913 59.4582C213.848 59.5982 213.815 59.7615 213.815 59.9482C213.815 60.3122 213.951 60.6015 214.221 60.8162C214.492 61.0309 214.856 61.1382 215.313 61.1382C215.696 61.1382 216.041 61.0495 216.349 60.8722C216.667 60.6949 216.919 60.4522 217.105 60.1442C217.301 59.8269 217.399 59.4722 217.399 59.0802L217.889 59.5842C217.833 60.0789 217.684 60.5175 217.441 60.9002C217.199 61.2829 216.886 61.5815 216.503 61.7962C216.13 62.0015 215.696 62.1042 215.201 62.1042ZM220.508 61.9922V55.0902H221.698V56.5602L221.418 56.6582C221.549 56.3035 221.726 56.0049 221.95 55.7622C222.174 55.5102 222.445 55.3189 222.762 55.1882C223.079 55.0482 223.429 54.9782 223.812 54.9782C224.568 54.9782 225.161 55.2022 225.59 55.6502C226.019 56.0889 226.234 56.7422 226.234 57.6102V61.9922H225.044V58.0442C225.044 57.3442 224.913 56.8309 224.652 56.5042C224.4 56.1682 224.013 56.0002 223.49 56.0002C223.107 56.0002 222.781 56.0889 222.51 56.2662C222.249 56.4435 222.048 56.7235 221.908 57.1062C221.768 57.4795 221.698 57.9602 221.698 58.5482V61.9922H220.508ZM231.801 61.9922V55.0902H232.991V56.5602L232.711 56.6582C232.842 56.3035 233.019 56.0049 233.243 55.7622C233.467 55.5102 233.738 55.3189 234.055 55.1882C234.372 55.0482 234.722 54.9782 235.105 54.9782C235.861 54.9782 236.454 55.2022 236.883 55.6502C237.312 56.0889 237.527 56.7422 237.527 57.6102V61.9922H236.337V58.0442C236.337 57.3442 236.206 56.8309 235.945 56.5042C235.693 56.1682 235.306 56.0002 234.783 56.0002C234.4 56.0002 234.074 56.0889 233.803 56.2662C233.542 56.4435 233.341 56.7235 233.201 57.1062C233.061 57.4795 232.991 57.9602 232.991 58.5482V61.9922H231.801ZM242.495 62.1042C241.851 62.1042 241.273 61.9549 240.759 61.6562C240.255 61.3482 239.859 60.9235 239.569 60.3822C239.28 59.8409 239.135 59.2249 239.135 58.5342C239.135 57.8435 239.275 57.2322 239.555 56.7002C239.845 56.1589 240.241 55.7389 240.745 55.4402C241.259 55.1322 241.842 54.9782 242.495 54.9782C243.149 54.9782 243.723 55.1322 244.217 55.4402C244.721 55.7389 245.118 56.1589 245.407 56.7002C245.697 57.2322 245.841 57.8435 245.841 58.5342C245.841 59.2249 245.697 59.8409 245.407 60.3822C245.118 60.9142 244.721 61.3342 244.217 61.6422C243.713 61.9502 243.139 62.1042 242.495 62.1042ZM242.495 61.0542C242.934 61.0542 243.312 60.9515 243.629 60.7462C243.956 60.5315 244.208 60.2375 244.385 59.8642C244.563 59.4815 244.651 59.0382 244.651 58.5342C244.651 58.0209 244.563 57.5775 244.385 57.2042C244.208 56.8215 243.956 56.5275 243.629 56.3222C243.312 56.1169 242.934 56.0142 242.495 56.0142C242.047 56.0142 241.66 56.1215 241.333 56.3362C241.007 56.5415 240.755 56.8309 240.577 57.2042C240.4 57.5775 240.311 58.0209 240.311 58.5342C240.311 59.0382 240.4 59.4815 240.577 59.8642C240.755 60.2375 241.007 60.5315 241.333 60.7462C241.66 60.9515 242.047 61.0542 242.495 61.0542ZM248.897 61.9922L246.853 55.0902H248.113L249.513 60.2002L251.165 55.0902H252.215L253.867 60.1722L255.281 55.0902H256.541L254.483 61.9922H253.391L251.697 56.7422L250.003 61.9922H248.897ZM44.1651 83.9922L44.0811 82.6062V79.6662C44.0811 79.1342 43.9318 78.7235 43.6331 78.4342C43.3438 78.1449 42.9098 78.0002 42.3311 78.0002C41.9578 78.0002 41.6078 78.0795 41.2811 78.2382C40.9544 78.3875 40.6371 78.6442 40.3291 79.0082L39.4751 78.2802C39.8578 77.8322 40.2964 77.5055 40.7911 77.3002C41.2858 77.0855 41.8271 76.9782 42.4151 76.9782C43.3204 76.9782 44.0204 77.2115 44.5151 77.6782C45.0098 78.1449 45.2571 78.8075 45.2571 79.6662V83.9922H44.1651ZM41.8831 84.1042C41.3604 84.1042 40.9031 84.0155 40.5111 83.8382C40.1284 83.6515 39.8298 83.3949 39.6151 83.0682C39.4098 82.7415 39.3071 82.3635 39.3071 81.9342C39.3071 81.5515 39.3818 81.2295 39.5311 80.9682C39.6898 80.6975 39.8904 80.4875 40.1331 80.3382C40.3758 80.1795 40.6511 80.0722 40.9591 80.0162C41.2764 79.9509 41.6078 79.9182 41.9531 79.9182H44.1931V80.8142H42.1211C41.9158 80.8142 41.7011 80.8329 41.4771 80.8702C41.2531 80.9075 41.0571 80.9869 40.8891 81.1082C40.7678 81.2015 40.6698 81.3182 40.5951 81.4582C40.5298 81.5982 40.4971 81.7615 40.4971 81.9482C40.4971 82.3122 40.6324 82.6015 40.9031 82.8162C41.1738 83.0309 41.5378 83.1382 41.9951 83.1382C42.3778 83.1382 42.7231 83.0495 43.0311 82.8722C43.3484 82.6949 43.6004 82.4522 43.7871 82.1442C43.9831 81.8269 44.0811 81.4722 44.0811 81.0802L44.5711 81.5842C44.5151 82.0789 44.3658 82.5175 44.1231 82.9002C43.8804 83.2829 43.5678 83.5815 43.1851 83.7962C42.8118 84.0015 42.3778 84.1042 41.8831 84.1042ZM50.0596 84.1042C49.5463 84.1042 49.089 84.0109 48.6876 83.8242C48.2956 83.6375 47.9643 83.3809 47.6936 83.0542C47.423 82.7182 47.2176 82.3355 47.0776 81.9062C46.9376 81.4769 46.8676 81.0195 46.8676 80.5342C46.8676 80.0582 46.9376 79.6055 47.0776 79.1762C47.2176 78.7469 47.423 78.3689 47.6936 78.0422C47.9643 77.7062 48.2956 77.4449 48.6876 77.2582C49.089 77.0715 49.5463 76.9782 50.0596 76.9782C50.713 76.9782 51.2823 77.1369 51.7676 77.4542C52.2623 77.7715 52.6263 78.2569 52.8596 78.9102L51.8096 79.3162C51.679 78.9242 51.469 78.6069 51.1796 78.3642C50.8903 78.1215 50.517 78.0002 50.0596 78.0002C49.6023 78.0002 49.2243 78.1215 48.9256 78.3642C48.627 78.6069 48.403 78.9195 48.2536 79.3022C48.1136 79.6849 48.0436 80.0955 48.0436 80.5342C48.0436 80.9729 48.1136 81.3882 48.2536 81.7802C48.403 82.1629 48.627 82.4755 48.9256 82.7182C49.2243 82.9515 49.6023 83.0682 50.0596 83.0682C50.517 83.0682 50.8903 82.9515 51.1796 82.7182C51.469 82.4755 51.679 82.1535 51.8096 81.7522L52.8596 82.1582C52.6263 82.8115 52.2623 83.3015 51.7676 83.6282C51.2823 83.9455 50.713 84.1042 50.0596 84.1042ZM57.3057 84.1042C56.7924 84.1042 56.3351 84.0109 55.9337 83.8242C55.5417 83.6375 55.2104 83.3809 54.9397 83.0542C54.6691 82.7182 54.4637 82.3355 54.3237 81.9062C54.1837 81.4769 54.1137 81.0195 54.1137 80.5342C54.1137 80.0582 54.1837 79.6055 54.3237 79.1762C54.4637 78.7469 54.6691 78.3689 54.9397 78.0422C55.2104 77.7062 55.5417 77.4449 55.9337 77.2582C56.3351 77.0715 56.7924 76.9782 57.3057 76.9782C57.9591 76.9782 58.5284 77.1369 59.0137 77.4542C59.5084 77.7715 59.8724 78.2569 60.1057 78.9102L59.0557 79.3162C58.9251 78.9242 58.7151 78.6069 58.4257 78.3642C58.1364 78.1215 57.7631 78.0002 57.3057 78.0002C56.8484 78.0002 56.4704 78.1215 56.1717 78.3642C55.8731 78.6069 55.6491 78.9195 55.4997 79.3022C55.3597 79.6849 55.2897 80.0955 55.2897 80.5342C55.2897 80.9729 55.3597 81.3882 55.4997 81.7802C55.6491 82.1629 55.8731 82.4755 56.1717 82.7182C56.4704 82.9515 56.8484 83.0682 57.3057 83.0682C57.7631 83.0682 58.1364 82.9515 58.4257 82.7182C58.7151 82.4755 58.9251 82.1535 59.0557 81.7522L60.1057 82.1582C59.8724 82.8115 59.5084 83.3015 59.0137 83.6282C58.5284 83.9455 57.9591 84.1042 57.3057 84.1042ZM64.5938 84.1042C64.0525 84.1042 63.5765 84.0155 63.1658 83.8382C62.7645 83.6515 62.4285 83.3949 62.1578 83.0682C61.8965 82.7415 61.6958 82.3682 61.5558 81.9482C61.4252 81.5189 61.3598 81.0662 61.3598 80.5902C61.3598 80.1142 61.4252 79.6615 61.5558 79.2322C61.6865 78.7935 61.8778 78.4062 62.1298 78.0702C62.3912 77.7342 62.7178 77.4682 63.1098 77.2722C63.5018 77.0762 63.9592 76.9782 64.4818 76.9782C65.0138 76.9782 65.4712 77.0715 65.8538 77.2582C66.2458 77.4355 66.5632 77.6829 66.8058 78.0002C67.0578 78.3175 67.2445 78.6722 67.3658 79.0642C67.4872 79.4562 67.5478 79.8622 67.5478 80.2822C67.5478 80.3195 67.5432 80.4082 67.5338 80.5482C67.5338 80.6789 67.5245 80.7955 67.5058 80.8982H62.5358C62.5638 81.5702 62.7598 82.0929 63.1238 82.4662C63.4878 82.8395 63.9825 83.0262 64.6078 83.0262C65.0092 83.0262 65.3592 82.9609 65.6578 82.8302C65.9565 82.6995 66.2365 82.4895 66.4978 82.2002L67.3238 82.9282C67.0718 83.1989 66.8058 83.4229 66.5258 83.6002C66.2458 83.7682 65.9472 83.8942 65.6298 83.9782C65.3218 84.0622 64.9765 84.1042 64.5938 84.1042ZM66.3718 80.2962C66.3905 80.2215 66.3998 80.1469 66.3998 80.0722C66.4092 79.9975 66.4138 79.9229 66.4138 79.8482C66.4138 79.6242 66.3718 79.4002 66.2878 79.1762C66.2132 78.9522 66.0965 78.7515 65.9378 78.5742C65.7885 78.3875 65.5925 78.2429 65.3498 78.1402C65.1165 78.0282 64.8365 77.9722 64.5098 77.9722C64.1085 77.9722 63.7632 78.0655 63.4738 78.2522C63.1845 78.4389 62.9605 78.6862 62.8018 78.9942C62.6432 79.3022 62.5498 79.6429 62.5218 80.0162H66.7638L66.3718 80.2962ZM71.5244 84.1042C71.0577 84.1042 70.6377 84.0342 70.2644 83.8942C69.891 83.7542 69.569 83.5675 69.2984 83.3342C69.037 83.1009 68.827 82.8535 68.6684 82.5922L69.4944 81.8922C69.6717 82.2469 69.933 82.5409 70.2784 82.7742C70.633 82.9982 71.053 83.1102 71.5384 83.1102C71.977 83.1102 72.327 83.0169 72.5884 82.8302C72.8497 82.6435 72.9804 82.3915 72.9804 82.0742C72.9804 81.8129 72.901 81.6075 72.7424 81.4582C72.5837 81.3089 72.3737 81.1875 72.1124 81.0942C71.851 81.0009 71.5664 80.9169 71.2584 80.8422C70.997 80.7769 70.731 80.6975 70.4604 80.6042C70.199 80.5109 69.961 80.3942 69.7464 80.2542C69.5317 80.1142 69.359 79.9322 69.2284 79.7082C69.0977 79.4842 69.0324 79.2089 69.0324 78.8822C69.0324 78.3129 69.2517 77.8555 69.6904 77.5102C70.1384 77.1555 70.7217 76.9782 71.4404 76.9782C71.963 76.9782 72.439 77.0902 72.8684 77.3142C73.307 77.5289 73.6477 77.8555 73.8904 78.2942L73.1344 78.8542C72.9477 78.5275 72.7004 78.2942 72.3924 78.1542C72.0937 78.0049 71.7624 77.9302 71.3984 77.9302C71.0344 77.9302 70.731 78.0049 70.4884 78.1542C70.2457 78.3035 70.1244 78.5089 70.1244 78.7702C70.1244 78.9662 70.1804 79.1249 70.2924 79.2462C70.4044 79.3675 70.5677 79.4702 70.7824 79.5542C71.0064 79.6382 71.277 79.7175 71.5944 79.7922C71.8837 79.8575 72.1777 79.9369 72.4764 80.0302C72.775 80.1235 73.0504 80.2449 73.3024 80.3942C73.5544 80.5435 73.755 80.7442 73.9044 80.9962C74.063 81.2389 74.1424 81.5562 74.1424 81.9482C74.1424 82.3775 74.035 82.7555 73.8204 83.0822C73.6057 83.4089 73.3024 83.6609 72.9104 83.8382C72.5184 84.0155 72.0564 84.1042 71.5244 84.1042ZM78.1005 84.1042C77.6339 84.1042 77.2139 84.0342 76.8405 83.8942C76.4672 83.7542 76.1452 83.5675 75.8745 83.3342C75.6132 83.1009 75.4032 82.8535 75.2445 82.5922L76.0705 81.8922C76.2479 82.2469 76.5092 82.5409 76.8545 82.7742C77.2092 82.9982 77.6292 83.1102 78.1145 83.1102C78.5532 83.1102 78.9032 83.0169 79.1645 82.8302C79.4259 82.6435 79.5565 82.3915 79.5565 82.0742C79.5565 81.8129 79.4772 81.6075 79.3185 81.4582C79.1599 81.3089 78.9499 81.1875 78.6885 81.0942C78.4272 81.0009 78.1425 80.9169 77.8345 80.8422C77.5732 80.7769 77.3072 80.6975 77.0365 80.6042C76.7752 80.5109 76.5372 80.3942 76.3225 80.2542C76.1079 80.1142 75.9352 79.9322 75.8045 79.7082C75.6739 79.4842 75.6085 79.2089 75.6085 78.8822C75.6085 78.3129 75.8279 77.8555 76.2665 77.5102C76.7145 77.1555 77.2979 76.9782 78.0165 76.9782C78.5392 76.9782 79.0152 77.0902 79.4445 77.3142C79.8832 77.5289 80.2239 77.8555 80.4665 78.2942L79.7105 78.8542C79.5239 78.5275 79.2765 78.2942 78.9685 78.1542C78.6699 78.0049 78.3385 77.9302 77.9745 77.9302C77.6105 77.9302 77.3072 78.0049 77.0645 78.1542C76.8219 78.3035 76.7005 78.5089 76.7005 78.7702C76.7005 78.9662 76.7565 79.1249 76.8685 79.2462C76.9805 79.3675 77.1439 79.4702 77.3585 79.5542C77.5825 79.6382 77.8532 79.7175 78.1705 79.7922C78.4599 79.8575 78.7539 79.9369 79.0525 80.0302C79.3512 80.1235 79.6265 80.2449 79.8785 80.3942C80.1305 80.5435 80.3312 80.7442 80.4805 80.9962C80.6392 81.2389 80.7185 81.5562 80.7185 81.9482C80.7185 82.3775 80.6112 82.7555 80.3965 83.0822C80.1819 83.4089 79.8785 83.6609 79.4865 83.8382C79.0945 84.0155 78.6325 84.1042 78.1005 84.1042ZM88.3134 84.1042C87.8468 84.1042 87.4268 84.0342 87.0534 83.8942C86.6801 83.7542 86.3581 83.5675 86.0874 83.3342C85.8261 83.1009 85.6161 82.8535 85.4574 82.5922L86.2834 81.8922C86.4608 82.2469 86.7221 82.5409 87.0674 82.7742C87.4221 82.9982 87.8421 83.1102 88.3274 83.1102C88.7661 83.1102 89.1161 83.0169 89.3774 82.8302C89.6388 82.6435 89.7694 82.3915 89.7694 82.0742C89.7694 81.8129 89.6901 81.6075 89.5314 81.4582C89.3728 81.3089 89.1628 81.1875 88.9014 81.0942C88.6401 81.0009 88.3554 80.9169 88.0474 80.8422C87.7861 80.7769 87.5201 80.6975 87.2494 80.6042C86.9881 80.5109 86.7501 80.3942 86.5354 80.2542C86.3208 80.1142 86.1481 79.9322 86.0174 79.7082C85.8868 79.4842 85.8214 79.2089 85.8214 78.8822C85.8214 78.3129 86.0408 77.8555 86.4794 77.5102C86.9274 77.1555 87.5108 76.9782 88.2294 76.9782C88.7521 76.9782 89.2281 77.0902 89.6574 77.3142C90.0961 77.5289 90.4368 77.8555 90.6794 78.2942L89.9234 78.8542C89.7368 78.5275 89.4894 78.2942 89.1814 78.1542C88.8828 78.0049 88.5514 77.9302 88.1874 77.9302C87.8234 77.9302 87.5201 78.0049 87.2774 78.1542C87.0348 78.3035 86.9134 78.5089 86.9134 78.7702C86.9134 78.9662 86.9694 79.1249 87.0814 79.2462C87.1934 79.3675 87.3568 79.4702 87.5714 79.5542C87.7954 79.6382 88.0661 79.7175 88.3834 79.7922C88.6728 79.8575 88.9668 79.9369 89.2654 80.0302C89.5641 80.1235 89.8394 80.2449 90.0914 80.3942C90.3434 80.5435 90.5441 80.7442 90.6934 80.9962C90.8521 81.2389 90.9314 81.5562 90.9314 81.9482C90.9314 82.3775 90.8241 82.7555 90.6094 83.0822C90.3948 83.4089 90.0914 83.6609 89.6994 83.8382C89.3074 84.0155 88.8454 84.1042 88.3134 84.1042ZM95.6456 84.1042C95.0016 84.1042 94.4229 83.9549 93.9096 83.6562C93.4056 83.3482 93.0089 82.9235 92.7196 82.3822C92.4303 81.8409 92.2856 81.2249 92.2856 80.5342C92.2856 79.8435 92.4256 79.2322 92.7056 78.7002C92.9949 78.1589 93.3916 77.7389 93.8956 77.4402C94.4089 77.1322 94.9923 76.9782 95.6456 76.9782C96.2989 76.9782 96.8729 77.1322 97.3676 77.4402C97.8716 77.7389 98.2683 78.1589 98.5576 78.7002C98.8469 79.2322 98.9916 79.8435 98.9916 80.5342C98.9916 81.2249 98.8469 81.8409 98.5576 82.3822C98.2683 82.9142 97.8716 83.3342 97.3676 83.6422C96.8636 83.9502 96.2896 84.1042 95.6456 84.1042ZM95.6456 83.0542C96.0843 83.0542 96.4623 82.9515 96.7796 82.7462C97.1063 82.5315 97.3583 82.2375 97.5356 81.8642C97.7129 81.4815 97.8016 81.0382 97.8016 80.5342C97.8016 80.0209 97.7129 79.5775 97.5356 79.2042C97.3583 78.8215 97.1063 78.5275 96.7796 78.3222C96.4623 78.1169 96.0843 78.0142 95.6456 78.0142C95.1976 78.0142 94.8103 78.1215 94.4836 78.3362C94.1569 78.5415 93.9049 78.8309 93.7276 79.2042C93.5503 79.5775 93.4616 80.0209 93.4616 80.5342C93.4616 81.0382 93.5503 81.4815 93.7276 81.8642C93.9049 82.2375 94.1569 82.5315 94.4836 82.7462C94.8103 82.9515 95.1976 83.0542 95.6456 83.0542ZM100.688 83.9922V77.0902H101.878V78.8682H101.64C101.724 78.5415 101.836 78.2615 101.976 78.0282C102.125 77.7855 102.298 77.5895 102.494 77.4402C102.69 77.2815 102.9 77.1649 103.124 77.0902C103.357 77.0155 103.6 76.9782 103.852 76.9782C104.272 76.9782 104.64 77.0575 104.958 77.2162C105.275 77.3749 105.536 77.6175 105.742 77.9442C105.947 78.2615 106.087 78.6675 106.162 79.1622L105.49 79.2042C105.63 78.7282 105.807 78.3269 106.022 78.0002C106.236 77.6642 106.502 77.4122 106.82 77.2442C107.146 77.0669 107.534 76.9782 107.982 76.9782C108.551 76.9782 109.008 77.1089 109.354 77.3702C109.699 77.6222 109.951 77.9629 110.11 78.3922C110.268 78.8122 110.348 79.2789 110.348 79.7922V83.9922H109.172V80.0722C109.172 79.6429 109.12 79.2742 109.018 78.9662C108.924 78.6582 108.77 78.4202 108.556 78.2522C108.35 78.0842 108.07 78.0002 107.716 78.0002C107.38 78.0002 107.09 78.0842 106.848 78.2522C106.614 78.4202 106.432 78.6769 106.302 79.0222C106.18 79.3582 106.12 79.7782 106.12 80.2822V83.9922H104.93V79.9742C104.93 79.3115 104.808 78.8169 104.566 78.4902C104.323 78.1635 103.968 78.0002 103.502 78.0002C103.166 78.0002 102.876 78.0889 102.634 78.2662C102.391 78.4342 102.204 78.6862 102.074 79.0222C101.943 79.3582 101.878 79.7782 101.878 80.2822V83.9922H100.688ZM115.193 84.1042C114.652 84.1042 114.176 84.0155 113.765 83.8382C113.364 83.6515 113.028 83.3949 112.757 83.0682C112.496 82.7415 112.295 82.3682 112.155 81.9482C112.025 81.5189 111.959 81.0662 111.959 80.5902C111.959 80.1142 112.025 79.6615 112.155 79.2322C112.286 78.7935 112.477 78.4062 112.729 78.0702C112.991 77.7342 113.317 77.4682 113.709 77.2722C114.101 77.0762 114.559 76.9782 115.081 76.9782C115.613 76.9782 116.071 77.0715 116.453 77.2582C116.845 77.4355 117.163 77.6829 117.405 78.0002C117.657 78.3175 117.844 78.6722 117.965 79.0642C118.087 79.4562 118.147 79.8622 118.147 80.2822C118.147 80.3195 118.143 80.4082 118.133 80.5482C118.133 80.6789 118.124 80.7955 118.105 80.8982H113.135C113.163 81.5702 113.359 82.0929 113.723 82.4662C114.087 82.8395 114.582 83.0262 115.207 83.0262C115.609 83.0262 115.959 82.9609 116.257 82.8302C116.556 82.6995 116.836 82.4895 117.097 82.2002L117.923 82.9282C117.671 83.1989 117.405 83.4229 117.125 83.6002C116.845 83.7682 116.547 83.8942 116.229 83.9782C115.921 84.0622 115.576 84.1042 115.193 84.1042ZM116.971 80.2962C116.99 80.2215 116.999 80.1469 116.999 80.0722C117.009 79.9975 117.013 79.9229 117.013 79.8482C117.013 79.6242 116.971 79.4002 116.887 79.1762C116.813 78.9522 116.696 78.7515 116.537 78.5742C116.388 78.3875 116.192 78.2429 115.949 78.1402C115.716 78.0282 115.436 77.9722 115.109 77.9722C114.708 77.9722 114.363 78.0655 114.073 78.2522C113.784 78.4389 113.56 78.6862 113.401 78.9942C113.243 79.3022 113.149 79.6429 113.121 80.0162H117.363L116.971 80.2962ZM126.517 84.1042C125.873 84.1042 125.294 83.9549 124.781 83.6562C124.277 83.3482 123.88 82.9235 123.591 82.3822C123.301 81.8409 123.157 81.2249 123.157 80.5342C123.157 79.8435 123.297 79.2322 123.577 78.7002C123.866 78.1589 124.263 77.7389 124.767 77.4402C125.28 77.1322 125.863 76.9782 126.517 76.9782C127.17 76.9782 127.744 77.1322 128.239 77.4402C128.743 77.7389 129.139 78.1589 129.429 78.7002C129.718 79.2322 129.863 79.8435 129.863 80.5342C129.863 81.2249 129.718 81.8409 129.429 82.3822C129.139 82.9142 128.743 83.3342 128.239 83.6422C127.735 83.9502 127.161 84.1042 126.517 84.1042ZM126.517 83.0542C126.955 83.0542 127.333 82.9515 127.651 82.7462C127.977 82.5315 128.229 82.2375 128.407 81.8642C128.584 81.4815 128.673 81.0382 128.673 80.5342C128.673 80.0209 128.584 79.5775 128.407 79.2042C128.229 78.8215 127.977 78.5275 127.651 78.3222C127.333 78.1169 126.955 78.0142 126.517 78.0142C126.069 78.0142 125.681 78.1215 125.355 78.3362C125.028 78.5415 124.776 78.8309 124.599 79.2042C124.421 79.5775 124.333 80.0209 124.333 80.5342C124.333 81.0382 124.421 81.4815 124.599 81.8642C124.776 82.2375 125.028 82.5315 125.355 82.7462C125.681 82.9515 126.069 83.0542 126.517 83.0542ZM131.982 83.9922V78.0142H130.554V77.0902H131.996V76.1942C131.996 75.6715 132.08 75.2609 132.248 74.9622C132.416 74.6542 132.645 74.4395 132.934 74.3182C133.233 74.1875 133.564 74.1222 133.928 74.1222C134.18 74.1222 134.404 74.1455 134.6 74.1922C134.796 74.2389 134.983 74.3089 135.16 74.4022L134.768 75.2982C134.665 75.2422 134.553 75.2002 134.432 75.1722C134.311 75.1349 134.185 75.1162 134.054 75.1162C133.755 75.1162 133.531 75.2095 133.382 75.3962C133.242 75.5829 133.172 75.8489 133.172 76.1942V77.0902H134.782V78.0142H133.172V83.9922H131.982ZM142.044 84.1042C141.718 84.1042 141.419 84.0435 141.148 83.9222C140.887 83.7915 140.682 83.5862 140.532 83.3062C140.383 83.0262 140.308 82.6669 140.308 82.2282V75.2422L141.512 74.5702V81.9202C141.512 82.3029 141.573 82.6015 141.694 82.8162C141.816 83.0215 142.035 83.1242 142.352 83.1242C142.446 83.1242 142.558 83.1149 142.688 83.0962C142.819 83.0682 142.959 83.0355 143.108 82.9982V83.9222C142.931 83.9875 142.749 84.0342 142.562 84.0622C142.385 84.0902 142.212 84.1042 142.044 84.1042ZM138.88 78.0142V77.0902H143.108V78.0142H138.88ZM144.588 83.9922V74.2342H145.778V78.5602L145.484 78.6722C145.615 78.3175 145.797 78.0142 146.03 77.7622C146.263 77.5102 146.539 77.3189 146.856 77.1882C147.173 77.0482 147.519 76.9782 147.892 76.9782C148.648 76.9782 149.241 77.2022 149.67 77.6502C150.099 78.0889 150.314 78.7422 150.314 79.6102V83.9922H149.124V80.0442C149.124 79.3442 148.993 78.8309 148.732 78.5042C148.48 78.1682 148.093 78.0002 147.57 78.0002C147.001 78.0002 146.557 78.2055 146.24 78.6162C145.932 79.0175 145.778 79.6615 145.778 80.5482V83.9922H144.588ZM155.156 84.1042C154.615 84.1042 154.139 84.0155 153.728 83.8382C153.327 83.6515 152.991 83.3949 152.72 83.0682C152.459 82.7415 152.258 82.3682 152.118 81.9482C151.988 81.5189 151.922 81.0662 151.922 80.5902C151.922 80.1142 151.988 79.6615 152.118 79.2322C152.249 78.7935 152.44 78.4062 152.692 78.0702C152.954 77.7342 153.28 77.4682 153.672 77.2722C154.064 77.0762 154.522 76.9782 155.044 76.9782C155.576 76.9782 156.034 77.0715 156.416 77.2582C156.808 77.4355 157.126 77.6829 157.368 78.0002C157.62 78.3175 157.807 78.6722 157.928 79.0642C158.05 79.4562 158.11 79.8622 158.11 80.2822C158.11 80.3195 158.106 80.4082 158.096 80.5482C158.096 80.6789 158.087 80.7955 158.068 80.8982H153.098C153.126 81.5702 153.322 82.0929 153.686 82.4662C154.05 82.8395 154.545 83.0262 155.17 83.0262C155.572 83.0262 155.922 82.9609 156.22 82.8302C156.519 82.6995 156.799 82.4895 157.06 82.2002L157.886 82.9282C157.634 83.1989 157.368 83.4229 157.088 83.6002C156.808 83.7682 156.51 83.8942 156.192 83.9782C155.884 84.0622 155.539 84.1042 155.156 84.1042ZM156.934 80.2962C156.953 80.2215 156.962 80.1469 156.962 80.0722C156.972 79.9975 156.976 79.9229 156.976 79.8482C156.976 79.6242 156.934 79.4002 156.85 79.1762C156.776 78.9522 156.659 78.7515 156.5 78.5742C156.351 78.3875 156.155 78.2429 155.912 78.1402C155.679 78.0282 155.399 77.9722 155.072 77.9722C154.671 77.9722 154.326 78.0655 154.036 78.2522C153.747 78.4389 153.523 78.6862 153.364 78.9942C153.206 79.3022 153.112 79.6429 153.084 80.0162H157.326L156.934 80.2962ZM165.738 84.1042C165.411 84.1042 165.112 84.0435 164.842 83.9222C164.58 83.7915 164.375 83.5862 164.226 83.3062C164.076 83.0262 164.002 82.6669 164.002 82.2282V75.2422L165.206 74.5702V81.9202C165.206 82.3029 165.266 82.6015 165.388 82.8162C165.509 83.0215 165.728 83.1242 166.046 83.1242C166.139 83.1242 166.251 83.1149 166.382 83.0962C166.512 83.0682 166.652 83.0355 166.802 82.9982V83.9222C166.624 83.9875 166.442 84.0342 166.256 84.0622C166.078 84.0902 165.906 84.1042 165.738 84.1042ZM162.574 78.0142V77.0902H166.802V78.0142H162.574ZM171.183 84.1042C170.539 84.1042 169.96 83.9549 169.447 83.6562C168.943 83.3482 168.546 82.9235 168.257 82.3822C167.967 81.8409 167.823 81.2249 167.823 80.5342C167.823 79.8435 167.963 79.2322 168.243 78.7002C168.532 78.1589 168.929 77.7389 169.433 77.4402C169.946 77.1322 170.529 76.9782 171.183 76.9782C171.836 76.9782 172.41 77.1322 172.905 77.4402C173.409 77.7389 173.805 78.1589 174.095 78.7002C174.384 79.2322 174.529 79.8435 174.529 80.5342C174.529 81.2249 174.384 81.8409 174.095 82.3822C173.805 82.9142 173.409 83.3342 172.905 83.6422C172.401 83.9502 171.827 84.1042 171.183 84.1042ZM171.183 83.0542C171.621 83.0542 171.999 82.9515 172.317 82.7462C172.643 82.5315 172.895 82.2375 173.073 81.8642C173.25 81.4815 173.339 81.0382 173.339 80.5342C173.339 80.0209 173.25 79.5775 173.073 79.2042C172.895 78.8215 172.643 78.5275 172.317 78.3222C171.999 78.1169 171.621 78.0142 171.183 78.0142C170.735 78.0142 170.347 78.1215 170.021 78.3362C169.694 78.5415 169.442 78.8309 169.265 79.2042C169.087 79.5775 168.999 80.0209 168.999 80.5342C168.999 81.0382 169.087 81.4815 169.265 81.8642C169.442 82.2375 169.694 82.5315 170.021 82.7462C170.347 82.9515 170.735 83.0542 171.183 83.0542ZM176.225 86.8482V77.0902H177.401V79.1482L177.023 78.8822C177.144 78.4809 177.321 78.1402 177.555 77.8602C177.797 77.5709 178.091 77.3515 178.437 77.2022C178.782 77.0529 179.174 76.9782 179.613 76.9782C180.238 76.9782 180.784 77.1369 181.251 77.4542C181.727 77.7622 182.095 78.1869 182.357 78.7282C182.618 79.2602 182.749 79.8669 182.749 80.5482C182.749 81.2669 182.609 81.8969 182.329 82.4382C182.049 82.9702 181.671 83.3809 181.195 83.6702C180.719 83.9595 180.191 84.1042 179.613 84.1042C179.174 84.1042 178.782 84.0249 178.437 83.8662C178.091 83.7075 177.802 83.4882 177.569 83.2082C177.335 82.9282 177.167 82.6109 177.065 82.2562L177.401 81.9342V86.8482H176.225ZM179.417 83.0262C179.837 83.0262 180.205 82.9235 180.523 82.7182C180.849 82.5035 181.101 82.2095 181.279 81.8362C181.465 81.4629 181.559 81.0335 181.559 80.5482C181.559 80.0629 181.465 79.6335 181.279 79.2602C181.101 78.8869 180.849 78.5975 180.523 78.3922C180.205 78.1775 179.837 78.0702 179.417 78.0702C178.997 78.0702 178.628 78.1775 178.311 78.3922C177.993 78.5975 177.746 78.8869 177.569 79.2602C177.391 79.6335 177.303 80.0629 177.303 80.5482C177.303 81.0335 177.391 81.4629 177.569 81.8362C177.746 82.2095 177.993 82.5035 178.311 82.7182C178.628 82.9235 178.997 83.0262 179.417 83.0262ZM183.994 80.1842V79.3022H187.466V80.1842H183.994ZM189.022 83.9922V77.0902H190.212V78.9382L189.904 79.0082C189.969 78.5975 190.123 78.2429 190.366 77.9442C190.618 77.6362 190.907 77.3982 191.234 77.2302C191.57 77.0622 191.896 76.9782 192.214 76.9782C192.428 76.9782 192.634 77.0015 192.83 77.0482C193.026 77.0949 193.226 77.1742 193.432 77.2862L192.844 78.3502C192.732 78.2942 192.596 78.2475 192.438 78.2102C192.288 78.1729 192.144 78.1542 192.004 78.1542C191.78 78.1542 191.556 78.1962 191.332 78.2802C191.117 78.3642 190.921 78.4949 190.744 78.6722C190.566 78.8495 190.431 79.0875 190.338 79.3862C190.3 79.5169 190.268 79.6895 190.24 79.9042C190.221 80.1095 190.212 80.3942 190.212 80.7582V83.9922H189.022ZM199.081 83.9922L198.997 82.6062V79.6662C198.997 79.1342 198.848 78.7235 198.549 78.4342C198.26 78.1449 197.826 78.0002 197.247 78.0002C196.874 78.0002 196.524 78.0795 196.197 78.2382C195.87 78.3875 195.553 78.6442 195.245 79.0082L194.391 78.2802C194.774 77.8322 195.212 77.5055 195.707 77.3002C196.202 77.0855 196.743 76.9782 197.331 76.9782C198.236 76.9782 198.936 77.2115 199.431 77.6782C199.926 78.1449 200.173 78.8075 200.173 79.6662V83.9922H199.081ZM196.799 84.1042C196.276 84.1042 195.819 84.0155 195.427 83.8382C195.044 83.6515 194.746 83.3949 194.531 83.0682C194.326 82.7415 194.223 82.3635 194.223 81.9342C194.223 81.5515 194.298 81.2295 194.447 80.9682C194.606 80.6975 194.806 80.4875 195.049 80.3382C195.292 80.1795 195.567 80.0722 195.875 80.0162C196.192 79.9509 196.524 79.9182 196.869 79.9182H199.109V80.8142H197.037C196.832 80.8142 196.617 80.8329 196.393 80.8702C196.169 80.9075 195.973 80.9869 195.805 81.1082C195.684 81.2015 195.586 81.3182 195.511 81.4582C195.446 81.5982 195.413 81.7615 195.413 81.9482C195.413 82.3122 195.548 82.6015 195.819 82.8162C196.09 83.0309 196.454 83.1382 196.911 83.1382C197.294 83.1382 197.639 83.0495 197.947 82.8722C198.264 82.6949 198.516 82.4522 198.703 82.1442C198.899 81.8269 198.997 81.4722 198.997 81.0802L199.487 81.5842C199.431 82.0789 199.282 82.5175 199.039 82.9002C198.796 83.2829 198.484 83.5815 198.101 83.7962C197.728 84.0015 197.294 84.1042 196.799 84.1042ZM202.106 83.9922V77.0902H203.296V78.5602L203.016 78.6582C203.146 78.3035 203.324 78.0049 203.548 77.7622C203.772 77.5102 204.042 77.3189 204.36 77.1882C204.677 77.0482 205.027 76.9782 205.41 76.9782C206.166 76.9782 206.758 77.2022 207.188 77.6502C207.617 78.0889 207.832 78.7422 207.832 79.6102V83.9922H206.642V80.0442C206.642 79.3442 206.511 78.8309 206.25 78.5042C205.998 78.1682 205.61 78.0002 205.088 78.0002C204.705 78.0002 204.378 78.0889 204.108 78.2662C203.846 78.4435 203.646 78.7235 203.506 79.1062C203.366 79.4795 203.296 79.9602 203.296 80.5482V83.9922H202.106ZM214.466 83.9922L212.17 80.4362L210.812 81.8922V80.3662L213.99 77.0902H215.516L213.038 79.6382L215.88 83.9922H214.466ZM209.762 83.9922V74.2342H210.952V83.9922H209.762ZM219.756 84.1042C219.215 84.1042 218.739 84.0155 218.328 83.8382C217.927 83.6515 217.591 83.3949 217.32 83.0682C217.059 82.7415 216.858 82.3682 216.718 81.9482C216.587 81.5189 216.522 81.0662 216.522 80.5902C216.522 80.1142 216.587 79.6615 216.718 79.2322C216.849 78.7935 217.04 78.4062 217.292 78.0702C217.553 77.7342 217.88 77.4682 218.272 77.2722C218.664 77.0762 219.121 76.9782 219.644 76.9782C220.176 76.9782 220.633 77.0715 221.016 77.2582C221.408 77.4355 221.725 77.6829 221.968 78.0002C222.22 78.3175 222.407 78.6722 222.528 79.0642C222.649 79.4562 222.71 79.8622 222.71 80.2822C222.71 80.3195 222.705 80.4082 222.696 80.5482C222.696 80.6789 222.687 80.7955 222.668 80.8982H217.698C217.726 81.5702 217.922 82.0929 218.286 82.4662C218.65 82.8395 219.145 83.0262 219.77 83.0262C220.171 83.0262 220.521 82.9609 220.82 82.8302C221.119 82.6995 221.399 82.4895 221.66 82.2002L222.486 82.9282C222.234 83.1989 221.968 83.4229 221.688 83.6002C221.408 83.7682 221.109 83.8942 220.792 83.9782C220.484 84.0622 220.139 84.1042 219.756 84.1042ZM221.534 80.2962C221.553 80.2215 221.562 80.1469 221.562 80.0722C221.571 79.9975 221.576 79.9229 221.576 79.8482C221.576 79.6242 221.534 79.4002 221.45 79.1762C221.375 78.9522 221.259 78.7515 221.1 78.5742C220.951 78.3875 220.755 78.2429 220.512 78.1402C220.279 78.0282 219.999 77.9722 219.672 77.9722C219.271 77.9722 218.925 78.0655 218.636 78.2522C218.347 78.4389 218.123 78.6862 217.964 78.9942C217.805 79.3022 217.712 79.6429 217.684 80.0162H221.926L221.534 80.2962ZM227.218 84.1042C226.593 84.1042 226.042 83.9502 225.566 83.6422C225.1 83.3249 224.736 82.8955 224.474 82.3542C224.213 81.8129 224.082 81.2062 224.082 80.5342C224.082 79.8062 224.222 79.1762 224.502 78.6442C224.782 78.1122 225.16 77.7015 225.636 77.4122C226.112 77.1229 226.64 76.9782 227.218 76.9782C227.657 76.9782 228.049 77.0669 228.394 77.2442C228.74 77.4122 229.029 77.6455 229.262 77.9442C229.505 78.2335 229.673 78.5602 229.766 78.9242L229.43 79.1482V74.2342H230.606V83.9922H229.43V81.9342L229.822 82.0602C229.701 82.4615 229.519 82.8162 229.276 83.1242C229.034 83.4322 228.74 83.6749 228.394 83.8522C228.049 84.0202 227.657 84.1042 227.218 84.1042ZM227.414 83.0122C227.834 83.0122 228.203 82.9095 228.52 82.7042C228.838 82.4895 229.085 82.1955 229.262 81.8222C229.44 81.4489 229.528 81.0195 229.528 80.5342C229.528 80.0489 229.44 79.6195 229.262 79.2462C229.085 78.8729 228.838 78.5835 228.52 78.3782C228.203 78.1635 227.834 78.0562 227.414 78.0562C226.994 78.0562 226.621 78.1635 226.294 78.3782C225.977 78.5835 225.725 78.8729 225.538 79.2462C225.361 79.6195 225.272 80.0489 225.272 80.5342C225.272 81.0195 225.361 81.4489 225.538 81.8222C225.725 82.1955 225.977 82.4895 226.294 82.7042C226.621 82.9095 226.994 83.0122 227.414 83.0122ZM236.258 86.8482V77.0902H237.434V79.1482L237.056 78.8822C237.177 78.4809 237.355 78.1402 237.588 77.8602C237.831 77.5709 238.125 77.3515 238.47 77.2022C238.815 77.0529 239.207 76.9782 239.646 76.9782C240.271 76.9782 240.817 77.1369 241.284 77.4542C241.76 77.7622 242.129 78.1869 242.39 78.7282C242.651 79.2602 242.782 79.8669 242.782 80.5482C242.782 81.2669 242.642 81.8969 242.362 82.4382C242.082 82.9702 241.704 83.3809 241.228 83.6702C240.752 83.9595 240.225 84.1042 239.646 84.1042C239.207 84.1042 238.815 84.0249 238.47 83.8662C238.125 83.7075 237.835 83.4882 237.602 83.2082C237.369 82.9282 237.201 82.6109 237.098 82.2562L237.434 81.9342V86.8482H236.258ZM239.45 83.0262C239.87 83.0262 240.239 82.9235 240.556 82.7182C240.883 82.5035 241.135 82.2095 241.312 81.8362C241.499 81.4629 241.592 81.0335 241.592 80.5482C241.592 80.0629 241.499 79.6335 241.312 79.2602C241.135 78.8869 240.883 78.5975 240.556 78.3922C240.239 78.1775 239.87 78.0702 239.45 78.0702C239.03 78.0702 238.661 78.1775 238.344 78.3922C238.027 78.5975 237.779 78.8869 237.602 79.2602C237.425 79.6335 237.336 80.0629 237.336 80.5482C237.336 81.0335 237.425 81.4629 237.602 81.8362C237.779 82.2095 238.027 82.5035 238.344 82.7182C238.661 82.9235 239.03 83.0262 239.45 83.0262ZM247.513 84.1042C246.869 84.1042 246.29 83.9549 245.777 83.6562C245.273 83.3482 244.876 82.9235 244.587 82.3822C244.297 81.8409 244.153 81.2249 244.153 80.5342C244.153 79.8435 244.293 79.2322 244.573 78.7002C244.862 78.1589 245.259 77.7389 245.763 77.4402C246.276 77.1322 246.859 76.9782 247.513 76.9782C248.166 76.9782 248.74 77.1322 249.235 77.4402C249.739 77.7389 250.135 78.1589 250.425 78.7002C250.714 79.2322 250.859 79.8435 250.859 80.5342C250.859 81.2249 250.714 81.8409 250.425 82.3822C250.135 82.9142 249.739 83.3342 249.235 83.6422C248.731 83.9502 248.157 84.1042 247.513 84.1042ZM247.513 83.0542C247.951 83.0542 248.329 82.9515 248.647 82.7462C248.973 82.5315 249.225 82.2375 249.403 81.8642C249.58 81.4815 249.669 81.0382 249.669 80.5342C249.669 80.0209 249.58 79.5775 249.403 79.2042C249.225 78.8215 248.973 78.5275 248.647 78.3222C248.329 78.1169 247.951 78.0142 247.513 78.0142C247.065 78.0142 246.677 78.1215 246.351 78.3362C246.024 78.5415 245.772 78.8309 245.595 79.2042C245.417 79.5775 245.329 80.0209 245.329 80.5342C245.329 81.0382 245.417 81.4815 245.595 81.8642C245.772 82.2375 246.024 82.5315 246.351 82.7462C246.677 82.9515 247.065 83.0542 247.513 83.0542ZM254.837 84.1042C254.37 84.1042 253.95 84.0342 253.577 83.8942C253.204 83.7542 252.882 83.5675 252.611 83.3342C252.35 83.1009 252.14 82.8535 251.981 82.5922L252.807 81.8922C252.984 82.2469 253.246 82.5409 253.591 82.7742C253.946 82.9982 254.366 83.1102 254.851 83.1102C255.29 83.1102 255.64 83.0169 255.901 82.8302C256.162 82.6435 256.293 82.3915 256.293 82.0742C256.293 81.8129 256.214 81.6075 256.055 81.4582C255.896 81.3089 255.686 81.1875 255.425 81.0942C255.164 81.0009 254.879 80.9169 254.571 80.8422C254.31 80.7769 254.044 80.6975 253.773 80.6042C253.512 80.5109 253.274 80.3942 253.059 80.2542C252.844 80.1142 252.672 79.9322 252.541 79.7082C252.41 79.4842 252.345 79.2089 252.345 78.8822C252.345 78.3129 252.564 77.8555 253.003 77.5102C253.451 77.1555 254.034 76.9782 254.753 76.9782C255.276 76.9782 255.752 77.0902 256.181 77.3142C256.62 77.5289 256.96 77.8555 257.203 78.2942L256.447 78.8542C256.26 78.5275 256.013 78.2942 255.705 78.1542C255.406 78.0049 255.075 77.9302 254.711 77.9302C254.347 77.9302 254.044 78.0049 253.801 78.1542C253.558 78.3035 253.437 78.5089 253.437 78.7702C253.437 78.9662 253.493 79.1249 253.605 79.2462C253.717 79.3675 253.88 79.4702 254.095 79.5542C254.319 79.6382 254.59 79.7175 254.907 79.7922C255.196 79.8575 255.49 79.9369 255.789 80.0302C256.088 80.1235 256.363 80.2449 256.615 80.3942C256.867 80.5435 257.068 80.7442 257.217 80.9962C257.376 81.2389 257.455 81.5562 257.455 81.9482C257.455 82.3775 257.348 82.7555 257.133 83.0822C256.918 83.4089 256.615 83.6609 256.223 83.8382C255.831 84.0155 255.369 84.1042 254.837 84.1042ZM261.427 84.1042C261.1 84.1042 260.802 84.0435 260.531 83.9222C260.27 83.7915 260.064 83.5862 259.915 83.3062C259.766 83.0262 259.691 82.6669 259.691 82.2282V75.2422L260.895 74.5702V81.9202C260.895 82.3029 260.956 82.6015 261.077 82.8162C261.198 83.0215 261.418 83.1242 261.735 83.1242C261.828 83.1242 261.94 83.1149 262.071 83.0962C262.202 83.0682 262.342 83.0355 262.491 82.9982V83.9222C262.314 83.9875 262.132 84.0342 261.945 84.0622C261.768 84.0902 261.595 84.1042 261.427 84.1042ZM258.263 78.0142V77.0902H262.491V78.0142H258.263ZM263.523 80.1842V79.3022H266.995V80.1842H263.523ZM41.9111 106.104C41.4444 106.104 41.0244 106.034 40.6511 105.894C40.2778 105.754 39.9558 105.568 39.6851 105.334C39.4238 105.101 39.2138 104.854 39.0551 104.592L39.8811 103.892C40.0584 104.247 40.3198 104.541 40.6651 104.774C41.0198 104.998 41.4398 105.11 41.9251 105.11C42.3638 105.11 42.7138 105.017 42.9751 104.83C43.2364 104.644 43.3671 104.392 43.3671 104.074C43.3671 103.813 43.2878 103.608 43.1291 103.458C42.9704 103.309 42.7604 103.188 42.4991 103.094C42.2378 103.001 41.9531 102.917 41.6451 102.842C41.3838 102.777 41.1178 102.698 40.8471 102.604C40.5858 102.511 40.3478 102.394 40.1331 102.254C39.9184 102.114 39.7458 101.932 39.6151 101.708C39.4844 101.484 39.4191 101.209 39.4191 100.882C39.4191 100.313 39.6384 99.8555 40.0771 99.5102C40.5251 99.1555 41.1084 98.9782 41.8271 98.9782C42.3498 98.9782 42.8258 99.0902 43.2551 99.3142C43.6938 99.5289 44.0344 99.8555 44.2771 100.294L43.5211 100.854C43.3344 100.528 43.0871 100.294 42.7791 100.154C42.4804 100.005 42.1491 99.9302 41.7851 99.9302C41.4211 99.9302 41.1178 100.005 40.8751 100.154C40.6324 100.304 40.5111 100.509 40.5111 100.77C40.5111 100.966 40.5671 101.125 40.6791 101.246C40.7911 101.368 40.9544 101.47 41.1691 101.554C41.3931 101.638 41.6638 101.718 41.9811 101.792C42.2704 101.858 42.5644 101.937 42.8631 102.03C43.1618 102.124 43.4371 102.245 43.6891 102.394C43.9411 102.544 44.1418 102.744 44.2911 102.996C44.4498 103.239 44.5291 103.556 44.5291 103.948C44.5291 104.378 44.4218 104.756 44.2071 105.082C43.9924 105.409 43.6891 105.661 43.2971 105.838C42.9051 106.016 42.4431 106.104 41.9111 106.104ZM49.1173 106.104C48.5759 106.104 48.0999 106.016 47.6893 105.838C47.2879 105.652 46.9519 105.395 46.6813 105.068C46.4199 104.742 46.2193 104.368 46.0793 103.948C45.9486 103.519 45.8833 103.066 45.8833 102.59C45.8833 102.114 45.9486 101.662 46.0793 101.232C46.2099 100.794 46.4013 100.406 46.6533 100.07C46.9146 99.7342 47.2413 99.4682 47.6333 99.2722C48.0253 99.0762 48.4826 98.9782 49.0053 98.9782C49.5373 98.9782 49.9946 99.0715 50.3773 99.2582C50.7693 99.4355 51.0866 99.6829 51.3293 100C51.5813 100.318 51.7679 100.672 51.8893 101.064C52.0106 101.456 52.0713 101.862 52.0713 102.282C52.0713 102.32 52.0666 102.408 52.0573 102.548C52.0573 102.679 52.0479 102.796 52.0293 102.898H47.0593C47.0873 103.57 47.2833 104.093 47.6473 104.466C48.0113 104.84 48.5059 105.026 49.1313 105.026C49.5326 105.026 49.8826 104.961 50.1813 104.83C50.4799 104.7 50.7599 104.49 51.0213 104.2L51.8473 104.928C51.5953 105.199 51.3293 105.423 51.0493 105.6C50.7693 105.768 50.4706 105.894 50.1533 105.978C49.8453 106.062 49.4999 106.104 49.1173 106.104ZM50.8953 102.296C50.9139 102.222 50.9233 102.147 50.9233 102.072C50.9326 101.998 50.9373 101.923 50.9373 101.848C50.9373 101.624 50.8953 101.4 50.8113 101.176C50.7366 100.952 50.6199 100.752 50.4613 100.574C50.3119 100.388 50.1159 100.243 49.8733 100.14C49.6399 100.028 49.3599 99.9722 49.0333 99.9722C48.6319 99.9722 48.2866 100.066 47.9973 100.252C47.7079 100.439 47.4839 100.686 47.3253 100.994C47.1666 101.302 47.0733 101.643 47.0453 102.016H51.2873L50.8953 102.296ZM56.6358 106.104C56.1225 106.104 55.6651 106.011 55.2638 105.824C54.8718 105.638 54.5405 105.381 54.2698 105.054C53.9991 104.718 53.7938 104.336 53.6538 103.906C53.5138 103.477 53.4438 103.02 53.4438 102.534C53.4438 102.058 53.5138 101.606 53.6538 101.176C53.7938 100.747 53.9991 100.369 54.2698 100.042C54.5405 99.7062 54.8718 99.4449 55.2638 99.2582C55.6651 99.0715 56.1225 98.9782 56.6358 98.9782C57.2891 98.9782 57.8585 99.1369 58.3438 99.4542C58.8385 99.7715 59.2025 100.257 59.4358 100.91L58.3858 101.316C58.2551 100.924 58.0451 100.607 57.7558 100.364C57.4665 100.122 57.0931 100 56.6358 100C56.1785 100 55.8005 100.122 55.5018 100.364C55.2031 100.607 54.9791 100.92 54.8298 101.302C54.6898 101.685 54.6198 102.096 54.6198 102.534C54.6198 102.973 54.6898 103.388 54.8298 103.78C54.9791 104.163 55.2031 104.476 55.5018 104.718C55.8005 104.952 56.1785 105.068 56.6358 105.068C57.0931 105.068 57.4665 104.952 57.7558 104.718C58.0451 104.476 58.2551 104.154 58.3858 103.752L59.4358 104.158C59.2025 104.812 58.8385 105.302 58.3438 105.628C57.8585 105.946 57.2891 106.104 56.6358 106.104ZM64.0499 106.104C63.4059 106.104 62.8272 105.955 62.3139 105.656C61.8099 105.348 61.4132 104.924 61.1239 104.382C60.8346 103.841 60.6899 103.225 60.6899 102.534C60.6899 101.844 60.8299 101.232 61.1099 100.7C61.3992 100.159 61.7959 99.7389 62.2999 99.4402C62.8132 99.1322 63.3966 98.9782 64.0499 98.9782C64.7032 98.9782 65.2772 99.1322 65.7719 99.4402C66.2759 99.7389 66.6726 100.159 66.9619 100.7C67.2512 101.232 67.3959 101.844 67.3959 102.534C67.3959 103.225 67.2512 103.841 66.9619 104.382C66.6726 104.914 66.2759 105.334 65.7719 105.642C65.2679 105.95 64.6939 106.104 64.0499 106.104ZM64.0499 105.054C64.4886 105.054 64.8666 104.952 65.1839 104.746C65.5106 104.532 65.7626 104.238 65.9399 103.864C66.1172 103.482 66.2059 103.038 66.2059 102.534C66.2059 102.021 66.1172 101.578 65.9399 101.204C65.7626 100.822 65.5106 100.528 65.1839 100.322C64.8666 100.117 64.4886 100.014 64.0499 100.014C63.6019 100.014 63.2146 100.122 62.8879 100.336C62.5612 100.542 62.3092 100.831 62.1319 101.204C61.9546 101.578 61.8659 102.021 61.8659 102.534C61.8659 103.038 61.9546 103.482 62.1319 103.864C62.3092 104.238 62.5612 104.532 62.8879 104.746C63.2146 104.952 63.6019 105.054 64.0499 105.054ZM69.092 105.992V99.0902H70.282V100.56L70.002 100.658C70.1327 100.304 70.31 100.005 70.534 99.7622C70.758 99.5102 71.0287 99.3189 71.346 99.1882C71.6633 99.0482 72.0133 98.9782 72.396 98.9782C73.152 98.9782 73.7447 99.2022 74.174 99.6502C74.6033 100.089 74.818 100.742 74.818 101.61V105.992H73.628V102.044C73.628 101.344 73.4973 100.831 73.236 100.504C72.984 100.168 72.5967 100 72.074 100C71.6913 100 71.3647 100.089 71.094 100.266C70.8327 100.444 70.632 100.724 70.492 101.106C70.352 101.48 70.282 101.96 70.282 102.548V105.992H69.092ZM79.5622 106.104C78.9369 106.104 78.3862 105.95 77.9102 105.642C77.4436 105.325 77.0796 104.896 76.8182 104.354C76.5569 103.813 76.4262 103.206 76.4262 102.534C76.4262 101.806 76.5662 101.176 76.8462 100.644C77.1262 100.112 77.5042 99.7015 77.9802 99.4122C78.4562 99.1229 78.9836 98.9782 79.5622 98.9782C80.0009 98.9782 80.3929 99.0669 80.7382 99.2442C81.0836 99.4122 81.3729 99.6455 81.6062 99.9442C81.8489 100.234 82.0169 100.56 82.1102 100.924L81.7742 101.148V96.2342H82.9502V105.992H81.7742V103.934L82.1662 104.06C82.0449 104.462 81.8629 104.816 81.6202 105.124C81.3776 105.432 81.0836 105.675 80.7382 105.852C80.3929 106.02 80.0009 106.104 79.5622 106.104ZM79.7582 105.012C80.1782 105.012 80.5469 104.91 80.8642 104.704C81.1816 104.49 81.4289 104.196 81.6062 103.822C81.7836 103.449 81.8722 103.02 81.8722 102.534C81.8722 102.049 81.7836 101.62 81.6062 101.246C81.4289 100.873 81.1816 100.584 80.8642 100.378C80.5469 100.164 80.1782 100.056 79.7582 100.056C79.3382 100.056 78.9649 100.164 78.6382 100.378C78.3209 100.584 78.0689 100.873 77.8822 101.246C77.7049 101.62 77.6162 102.049 77.6162 102.534C77.6162 103.02 77.7049 103.449 77.8822 103.822C78.0689 104.196 78.3209 104.49 78.6382 104.704C78.9649 104.91 79.3382 105.012 79.7582 105.012ZM89.501 105.992L89.417 104.606V101.666C89.417 101.134 89.2677 100.724 88.969 100.434C88.6797 100.145 88.2457 100 87.667 100C87.2937 100 86.9437 100.08 86.617 100.238C86.2904 100.388 85.973 100.644 85.665 101.008L84.811 100.28C85.1937 99.8322 85.6324 99.5055 86.127 99.3002C86.6217 99.0855 87.163 98.9782 87.751 98.9782C88.6564 98.9782 89.3564 99.2115 89.851 99.6782C90.3457 100.145 90.593 100.808 90.593 101.666V105.992H89.501ZM87.219 106.104C86.6964 106.104 86.239 106.016 85.847 105.838C85.4644 105.652 85.1657 105.395 84.951 105.068C84.7457 104.742 84.643 104.364 84.643 103.934C84.643 103.552 84.7177 103.23 84.867 102.968C85.0257 102.698 85.2264 102.488 85.469 102.338C85.7117 102.18 85.987 102.072 86.295 102.016C86.6124 101.951 86.9437 101.918 87.289 101.918H89.529V102.814H87.457C87.2517 102.814 87.037 102.833 86.813 102.87C86.589 102.908 86.393 102.987 86.225 103.108C86.1037 103.202 86.0057 103.318 85.931 103.458C85.8657 103.598 85.833 103.762 85.833 103.948C85.833 104.312 85.9684 104.602 86.239 104.816C86.5097 105.031 86.8737 105.138 87.331 105.138C87.7137 105.138 88.059 105.05 88.367 104.872C88.6844 104.695 88.9364 104.452 89.123 104.144C89.319 103.827 89.417 103.472 89.417 103.08L89.907 103.584C89.851 104.079 89.7017 104.518 89.459 104.9C89.2164 105.283 88.9037 105.582 88.521 105.796C88.1477 106.002 87.7137 106.104 87.219 106.104ZM92.5256 105.992V99.0902H93.7156V100.938L93.4076 101.008C93.4729 100.598 93.6269 100.243 93.8696 99.9442C94.1216 99.6362 94.4109 99.3982 94.7376 99.2302C95.0736 99.0622 95.4002 98.9782 95.7176 98.9782C95.9322 98.9782 96.1376 99.0015 96.3336 99.0482C96.5296 99.0949 96.7302 99.1742 96.9356 99.2862L96.3476 100.35C96.2356 100.294 96.1002 100.248 95.9416 100.21C95.7922 100.173 95.6476 100.154 95.5076 100.154C95.2836 100.154 95.0596 100.196 94.8356 100.28C94.6209 100.364 94.4249 100.495 94.2476 100.672C94.0702 100.85 93.9349 101.088 93.8416 101.386C93.8042 101.517 93.7716 101.69 93.7436 101.904C93.7249 102.11 93.7156 102.394 93.7156 102.758V105.992H92.5256ZM98.9128 108.834L100.229 105.656L97.5408 99.0902H98.8428L100.859 104.466L102.889 99.0902H104.177L100.201 108.834H98.9128ZM109.164 108.848V99.0902H110.34V101.148L109.962 100.882C110.084 100.481 110.261 100.14 110.494 99.8602C110.737 99.5709 111.031 99.3515 111.376 99.2022C111.722 99.0529 112.114 98.9782 112.552 98.9782C113.178 98.9782 113.724 99.1369 114.19 99.4542C114.666 99.7622 115.035 100.187 115.296 100.728C115.558 101.26 115.688 101.867 115.688 102.548C115.688 103.267 115.548 103.897 115.268 104.438C114.988 104.97 114.61 105.381 114.134 105.67C113.658 105.96 113.131 106.104 112.552 106.104C112.114 106.104 111.722 106.025 111.376 105.866C111.031 105.708 110.742 105.488 110.508 105.208C110.275 104.928 110.107 104.611 110.004 104.256L110.34 103.934V108.848H109.164ZM112.356 105.026C112.776 105.026 113.145 104.924 113.462 104.718C113.789 104.504 114.041 104.21 114.218 103.836C114.405 103.463 114.498 103.034 114.498 102.548C114.498 102.063 114.405 101.634 114.218 101.26C114.041 100.887 113.789 100.598 113.462 100.392C113.145 100.178 112.776 100.07 112.356 100.07C111.936 100.07 111.568 100.178 111.25 100.392C110.933 100.598 110.686 100.887 110.508 101.26C110.331 101.634 110.242 102.063 110.242 102.548C110.242 103.034 110.331 103.463 110.508 103.836C110.686 104.21 110.933 104.504 111.25 104.718C111.568 104.924 111.936 105.026 112.356 105.026ZM117.381 105.992V99.0902H118.571V100.938L118.263 101.008C118.328 100.598 118.482 100.243 118.725 99.9442C118.977 99.6362 119.266 99.3982 119.593 99.2302C119.929 99.0622 120.256 98.9782 120.573 98.9782C120.788 98.9782 120.993 99.0015 121.189 99.0482C121.385 99.0949 121.586 99.1742 121.791 99.2862L121.203 100.35C121.091 100.294 120.956 100.248 120.797 100.21C120.648 100.173 120.503 100.154 120.363 100.154C120.139 100.154 119.915 100.196 119.691 100.28C119.476 100.364 119.28 100.495 119.103 100.672C118.926 100.85 118.79 101.088 118.697 101.386C118.66 101.517 118.627 101.69 118.599 101.904C118.58 102.11 118.571 102.394 118.571 102.758V105.992H117.381ZM125.724 106.104C125.08 106.104 124.501 105.955 123.988 105.656C123.484 105.348 123.087 104.924 122.798 104.382C122.508 103.841 122.364 103.225 122.364 102.534C122.364 101.844 122.504 101.232 122.784 100.7C123.073 100.159 123.47 99.7389 123.974 99.4402C124.487 99.1322 125.07 98.9782 125.724 98.9782C126.377 98.9782 126.951 99.1322 127.446 99.4402C127.95 99.7389 128.346 100.159 128.636 100.7C128.925 101.232 129.07 101.844 129.07 102.534C129.07 103.225 128.925 103.841 128.636 104.382C128.346 104.914 127.95 105.334 127.446 105.642C126.942 105.95 126.368 106.104 125.724 106.104ZM125.724 105.054C126.162 105.054 126.54 104.952 126.858 104.746C127.184 104.532 127.436 104.238 127.614 103.864C127.791 103.482 127.88 103.038 127.88 102.534C127.88 102.021 127.791 101.578 127.614 101.204C127.436 100.822 127.184 100.528 126.858 100.322C126.54 100.117 126.162 100.014 125.724 100.014C125.276 100.014 124.888 100.122 124.562 100.336C124.235 100.542 123.983 100.831 123.806 101.204C123.628 101.578 123.54 102.021 123.54 102.534C123.54 103.038 123.628 103.482 123.806 103.864C123.983 104.238 124.235 104.532 124.562 104.746C124.888 104.952 125.276 105.054 125.724 105.054ZM133.552 108.974C132.562 108.974 131.778 108.792 131.2 108.428C130.621 108.064 130.332 107.56 130.332 106.916C130.332 106.87 130.332 106.809 130.332 106.734C130.341 106.66 130.355 106.59 130.374 106.524L132.096 105.278L132.502 105.558L131.522 106.776C131.512 106.814 131.508 106.846 131.508 106.874C131.508 106.902 131.508 106.93 131.508 106.958C131.508 107.332 131.704 107.607 132.096 107.784C132.488 107.971 132.973 108.064 133.552 108.064C134.065 108.064 134.49 107.99 134.826 107.84C135.162 107.7 135.33 107.467 135.33 107.14C135.33 106.954 135.274 106.8 135.162 106.678C135.059 106.566 134.905 106.478 134.7 106.412C134.504 106.347 134.27 106.291 134 106.244C133.729 106.198 133.426 106.151 133.09 106.104C132.67 106.039 132.259 105.946 131.858 105.824C131.466 105.703 131.139 105.526 130.878 105.292C130.626 105.059 130.5 104.751 130.5 104.368C130.5 104.042 130.612 103.743 130.836 103.472C131.069 103.202 131.372 102.978 131.746 102.8L132.502 103.29C132.184 103.365 131.96 103.482 131.83 103.64C131.699 103.79 131.634 103.972 131.634 104.186C131.634 104.364 131.694 104.508 131.816 104.62C131.946 104.732 132.128 104.821 132.362 104.886C132.604 104.942 132.894 104.994 133.23 105.04C133.678 105.106 134.098 105.176 134.49 105.25C134.882 105.325 135.227 105.432 135.526 105.572C135.834 105.703 136.072 105.88 136.24 106.104C136.408 106.338 136.492 106.636 136.492 107C136.492 107.635 136.23 108.12 135.708 108.456C135.185 108.802 134.466 108.974 133.552 108.974ZM133.384 103.836C132.852 103.836 132.38 103.734 131.97 103.528C131.559 103.323 131.237 103.038 131.004 102.674C130.78 102.31 130.668 101.895 130.668 101.428C130.668 100.943 130.784 100.518 131.018 100.154C131.26 99.7809 131.582 99.4915 131.984 99.2862C132.394 99.0809 132.847 98.9782 133.342 98.9782C133.827 98.9782 134.27 99.0809 134.672 99.2862C135.073 99.4915 135.395 99.7809 135.638 100.154C135.88 100.528 136.002 100.966 136.002 101.47C136.002 101.946 135.89 102.362 135.666 102.716C135.442 103.071 135.134 103.346 134.742 103.542C134.35 103.738 133.897 103.836 133.384 103.836ZM133.356 102.87C133.822 102.87 134.182 102.73 134.434 102.45C134.695 102.161 134.826 101.811 134.826 101.4C134.826 100.962 134.69 100.607 134.42 100.336C134.149 100.066 133.794 99.9302 133.356 99.9302C132.908 99.9302 132.544 100.07 132.264 100.35C131.984 100.621 131.844 100.966 131.844 101.386C131.844 101.806 131.979 102.161 132.25 102.45C132.52 102.73 132.889 102.87 133.356 102.87ZM135.554 100.378L134.7 99.8042L136.156 98.6002L136.758 99.3422L135.554 100.378ZM137.957 105.992V99.0902H139.147V100.938L138.839 101.008C138.905 100.598 139.059 100.243 139.301 99.9442C139.553 99.6362 139.843 99.3982 140.169 99.2302C140.505 99.0622 140.832 98.9782 141.149 98.9782C141.364 98.9782 141.569 99.0015 141.765 99.0482C141.961 99.0949 142.162 99.1742 142.367 99.2862L141.779 100.35C141.667 100.294 141.532 100.248 141.373 100.21C141.224 100.173 141.079 100.154 140.939 100.154C140.715 100.154 140.491 100.196 140.267 100.28C140.053 100.364 139.857 100.495 139.679 100.672C139.502 100.85 139.367 101.088 139.273 101.386C139.236 101.517 139.203 101.69 139.175 101.904C139.157 102.11 139.147 102.394 139.147 102.758V105.992H137.957ZM148.017 105.992L147.933 104.606V101.666C147.933 101.134 147.783 100.724 147.485 100.434C147.195 100.145 146.761 100 146.183 100C145.809 100 145.459 100.08 145.133 100.238C144.806 100.388 144.489 100.644 144.181 101.008L143.327 100.28C143.709 99.8322 144.148 99.5055 144.643 99.3002C145.137 99.0855 145.679 98.9782 146.267 98.9782C147.172 98.9782 147.872 99.2115 148.367 99.6782C148.861 100.145 149.109 100.808 149.109 101.666V105.992H148.017ZM145.735 106.104C145.212 106.104 144.755 106.016 144.363 105.838C143.98 105.652 143.681 105.395 143.467 105.068C143.261 104.742 143.159 104.364 143.159 103.934C143.159 103.552 143.233 103.23 143.383 102.968C143.541 102.698 143.742 102.488 143.985 102.338C144.227 102.18 144.503 102.072 144.811 102.016C145.128 101.951 145.459 101.918 145.805 101.918H148.045V102.814H145.973C145.767 102.814 145.553 102.833 145.329 102.87C145.105 102.908 144.909 102.987 144.741 103.108C144.619 103.202 144.521 103.318 144.447 103.458C144.381 103.598 144.349 103.762 144.349 103.948C144.349 104.312 144.484 104.602 144.755 104.816C145.025 105.031 145.389 105.138 145.847 105.138C146.229 105.138 146.575 105.05 146.883 104.872C147.2 104.695 147.452 104.452 147.639 104.144C147.835 103.827 147.933 103.472 147.933 103.08L148.423 103.584C148.367 104.079 148.217 104.518 147.975 104.9C147.732 105.283 147.419 105.582 147.037 105.796C146.663 106.002 146.229 106.104 145.735 106.104ZM151.041 105.992V99.0902H152.231V100.868H151.993C152.077 100.542 152.189 100.262 152.329 100.028C152.479 99.7855 152.651 99.5895 152.847 99.4402C153.043 99.2815 153.253 99.1649 153.477 99.0902C153.711 99.0155 153.953 98.9782 154.205 98.9782C154.625 98.9782 154.994 99.0575 155.311 99.2162C155.629 99.3749 155.89 99.6175 156.095 99.9442C156.301 100.262 156.441 100.668 156.515 101.162L155.843 101.204C155.983 100.728 156.161 100.327 156.375 100C156.59 99.6642 156.856 99.4122 157.173 99.2442C157.5 99.0669 157.887 98.9782 158.335 98.9782C158.905 98.9782 159.362 99.1089 159.707 99.3702C160.053 99.6222 160.305 99.9629 160.463 100.392C160.622 100.812 160.701 101.279 160.701 101.792V105.992H159.525V102.072C159.525 101.643 159.474 101.274 159.371 100.966C159.278 100.658 159.124 100.42 158.909 100.252C158.704 100.084 158.424 100 158.069 100C157.733 100 157.444 100.084 157.201 100.252C156.968 100.42 156.786 100.677 156.655 101.022C156.534 101.358 156.473 101.778 156.473 102.282V105.992H155.283V101.974C155.283 101.312 155.162 100.817 154.919 100.49C154.677 100.164 154.322 100 153.855 100C153.519 100 153.23 100.089 152.987 100.266C152.745 100.434 152.558 100.686 152.427 101.022C152.297 101.358 152.231 101.778 152.231 102.282V105.992H151.041ZM164.917 106.104C164.45 106.104 164.03 106.034 163.657 105.894C163.284 105.754 162.962 105.568 162.691 105.334C162.43 105.101 162.22 104.854 162.061 104.592L162.887 103.892C163.064 104.247 163.326 104.541 163.671 104.774C164.026 104.998 164.446 105.11 164.931 105.11C165.37 105.11 165.72 105.017 165.981 104.83C166.242 104.644 166.373 104.392 166.373 104.074C166.373 103.813 166.294 103.608 166.135 103.458C165.976 103.309 165.766 103.188 165.505 103.094C165.244 103.001 164.959 102.917 164.651 102.842C164.39 102.777 164.124 102.698 163.853 102.604C163.592 102.511 163.354 102.394 163.139 102.254C162.924 102.114 162.752 101.932 162.621 101.708C162.49 101.484 162.425 101.209 162.425 100.882C162.425 100.313 162.644 99.8555 163.083 99.5102C163.531 99.1555 164.114 98.9782 164.833 98.9782C165.356 98.9782 165.832 99.0902 166.261 99.3142C166.7 99.5289 167.04 99.8555 167.283 100.294L166.527 100.854C166.34 100.528 166.093 100.294 165.785 100.154C165.486 100.005 165.155 99.9302 164.791 99.9302C164.427 99.9302 164.124 100.005 163.881 100.154C163.638 100.304 163.517 100.509 163.517 100.77C163.517 100.966 163.573 101.125 163.685 101.246C163.797 101.368 163.96 101.47 164.175 101.554C164.399 101.638 164.67 101.718 164.987 101.792C165.276 101.858 165.57 101.937 165.869 102.03C166.168 102.124 166.443 102.245 166.695 102.394C166.947 102.544 167.148 102.744 167.297 102.996C167.456 103.239 167.535 103.556 167.535 103.948C167.535 104.378 167.428 104.756 167.213 105.082C166.998 105.409 166.695 105.661 166.303 105.838C165.911 106.016 165.449 106.104 164.917 106.104ZM172.834 105.992V99.0902H174.01V105.992H172.834ZM172.722 97.8442V96.2342H174.122V97.8442H172.722ZM176.006 105.992V99.0902H177.196V100.56L176.916 100.658C177.047 100.304 177.224 100.005 177.448 99.7622C177.672 99.5102 177.943 99.3189 178.26 99.1882C178.577 99.0482 178.927 98.9782 179.31 98.9782C180.066 98.9782 180.659 99.2022 181.088 99.6502C181.517 100.089 181.732 100.742 181.732 101.61V105.992H180.542V102.044C180.542 101.344 180.411 100.831 180.15 100.504C179.898 100.168 179.511 100 178.988 100C178.605 100 178.279 100.089 178.008 100.266C177.747 100.444 177.546 100.724 177.406 101.106C177.266 101.48 177.196 101.96 177.196 102.548V105.992H176.006ZM189.595 106.104C189.268 106.104 188.97 106.044 188.699 105.922C188.438 105.792 188.232 105.586 188.083 105.306C187.934 105.026 187.859 104.667 187.859 104.228V97.2422L189.063 96.5702V103.92C189.063 104.303 189.124 104.602 189.245 104.816C189.366 105.022 189.586 105.124 189.903 105.124C189.996 105.124 190.108 105.115 190.239 105.096C190.37 105.068 190.51 105.036 190.659 104.998V105.922C190.482 105.988 190.3 106.034 190.113 106.062C189.936 106.09 189.763 106.104 189.595 106.104ZM186.431 100.014V99.0902H190.659V100.014H186.431ZM192.139 105.992V96.2342H193.329V100.56L193.035 100.672C193.166 100.318 193.348 100.014 193.581 99.7622C193.814 99.5102 194.09 99.3189 194.407 99.1882C194.724 99.0482 195.07 98.9782 195.443 98.9782C196.199 98.9782 196.792 99.2022 197.221 99.6502C197.65 100.089 197.865 100.742 197.865 101.61V105.992H196.675V102.044C196.675 101.344 196.544 100.831 196.283 100.504C196.031 100.168 195.644 100 195.121 100C194.552 100 194.108 100.206 193.791 100.616C193.483 101.018 193.329 101.662 193.329 102.548V105.992H192.139ZM202.707 106.104C202.166 106.104 201.69 106.016 201.279 105.838C200.878 105.652 200.542 105.395 200.271 105.068C200.01 104.742 199.809 104.368 199.669 103.948C199.538 103.519 199.473 103.066 199.473 102.59C199.473 102.114 199.538 101.662 199.669 101.232C199.8 100.794 199.991 100.406 200.243 100.07C200.504 99.7342 200.831 99.4682 201.223 99.2722C201.615 99.0762 202.072 98.9782 202.595 98.9782C203.127 98.9782 203.584 99.0715 203.967 99.2582C204.359 99.4355 204.676 99.6829 204.919 100C205.171 100.318 205.358 100.672 205.479 101.064C205.6 101.456 205.661 101.862 205.661 102.282C205.661 102.32 205.656 102.408 205.647 102.548C205.647 102.679 205.638 102.796 205.619 102.898H200.649C200.677 103.57 200.873 104.093 201.237 104.466C201.601 104.84 202.096 105.026 202.721 105.026C203.122 105.026 203.472 104.961 203.771 104.83C204.07 104.7 204.35 104.49 204.611 104.2L205.437 104.928C205.185 105.199 204.919 105.423 204.639 105.6C204.359 105.768 204.06 105.894 203.743 105.978C203.435 106.062 203.09 106.104 202.707 106.104ZM204.485 102.296C204.504 102.222 204.513 102.147 204.513 102.072C204.522 101.998 204.527 101.923 204.527 101.848C204.527 101.624 204.485 101.4 204.401 101.176C204.326 100.952 204.21 100.752 204.051 100.574C203.902 100.388 203.706 100.243 203.463 100.14C203.23 100.028 202.95 99.9722 202.623 99.9722C202.222 99.9722 201.876 100.066 201.587 100.252C201.298 100.439 201.074 100.686 200.915 100.994C200.756 101.302 200.663 101.643 200.635 102.016H204.877L204.485 102.296ZM212.42 105.992L210.376 99.0902H211.636L213.036 104.2L214.688 99.0902H215.738L217.39 104.172L218.804 99.0902H220.064L218.006 105.992H216.914L215.22 100.742L213.526 105.992H212.42ZM224.503 106.104C223.859 106.104 223.28 105.955 222.767 105.656C222.263 105.348 221.866 104.924 221.577 104.382C221.288 103.841 221.143 103.225 221.143 102.534C221.143 101.844 221.283 101.232 221.563 100.7C221.852 100.159 222.249 99.7389 222.753 99.4402C223.266 99.1322 223.85 98.9782 224.503 98.9782C225.156 98.9782 225.73 99.1322 226.225 99.4402C226.729 99.7389 227.126 100.159 227.415 100.7C227.704 101.232 227.849 101.844 227.849 102.534C227.849 103.225 227.704 103.841 227.415 104.382C227.126 104.914 226.729 105.334 226.225 105.642C225.721 105.95 225.147 106.104 224.503 106.104ZM224.503 105.054C224.942 105.054 225.32 104.952 225.637 104.746C225.964 104.532 226.216 104.238 226.393 103.864C226.57 103.482 226.659 103.038 226.659 102.534C226.659 102.021 226.57 101.578 226.393 101.204C226.216 100.822 225.964 100.528 225.637 100.322C225.32 100.117 224.942 100.014 224.503 100.014C224.055 100.014 223.668 100.122 223.341 100.336C223.014 100.542 222.762 100.831 222.585 101.204C222.408 101.578 222.319 102.021 222.319 102.534C222.319 103.038 222.408 103.482 222.585 103.864C222.762 104.238 223.014 104.532 223.341 104.746C223.668 104.952 224.055 105.054 224.503 105.054ZM229.545 105.992V99.0902H230.735V100.938L230.427 101.008C230.492 100.598 230.646 100.243 230.889 99.9442C231.141 99.6362 231.43 99.3982 231.757 99.2302C232.093 99.0622 232.42 98.9782 232.737 98.9782C232.952 98.9782 233.157 99.0015 233.353 99.0482C233.549 99.0949 233.75 99.1742 233.955 99.2862L233.367 100.35C233.255 100.294 233.12 100.248 232.961 100.21C232.812 100.173 232.667 100.154 232.527 100.154C232.303 100.154 232.079 100.196 231.855 100.28C231.64 100.364 231.444 100.495 231.267 100.672C231.09 100.85 230.954 101.088 230.861 101.386C230.824 101.517 230.791 101.69 230.763 101.904C230.744 102.11 230.735 102.394 230.735 102.758V105.992H229.545ZM236.359 106.104C235.939 106.104 235.598 105.974 235.337 105.712C235.076 105.451 234.945 105.036 234.945 104.466V96.2342H236.121V104.242C236.121 104.513 236.177 104.709 236.289 104.83C236.401 104.952 236.55 105.012 236.737 105.012C236.821 105.012 236.914 105.003 237.017 104.984C237.12 104.966 237.227 104.938 237.339 104.9V105.908C237.18 105.974 237.012 106.02 236.835 106.048C236.658 106.086 236.499 106.104 236.359 106.104ZM241.492 106.104C240.867 106.104 240.316 105.95 239.84 105.642C239.373 105.325 239.009 104.896 238.748 104.354C238.487 103.813 238.356 103.206 238.356 102.534C238.356 101.806 238.496 101.176 238.776 100.644C239.056 100.112 239.434 99.7015 239.91 99.4122C240.386 99.1229 240.913 98.9782 241.492 98.9782C241.931 98.9782 242.323 99.0669 242.668 99.2442C243.013 99.4122 243.303 99.6455 243.536 99.9442C243.779 100.234 243.947 100.56 244.04 100.924L243.704 101.148V96.2342H244.88V105.992H243.704V103.934L244.096 104.06C243.975 104.462 243.793 104.816 243.55 105.124C243.307 105.432 243.013 105.675 242.668 105.852C242.323 106.02 241.931 106.104 241.492 106.104ZM241.688 105.012C242.108 105.012 242.477 104.91 242.794 104.704C243.111 104.49 243.359 104.196 243.536 103.822C243.713 103.449 243.802 103.02 243.802 102.534C243.802 102.049 243.713 101.62 243.536 101.246C243.359 100.873 243.111 100.584 242.794 100.378C242.477 100.164 242.108 100.056 241.688 100.056C241.268 100.056 240.895 100.164 240.568 100.378C240.251 100.584 239.999 100.873 239.812 101.246C239.635 101.62 239.546 102.049 239.546 102.534C239.546 103.02 239.635 103.449 239.812 103.822C239.999 104.196 240.251 104.49 240.568 104.704C240.895 104.91 241.268 105.012 241.688 105.012ZM246.867 105.992V104.368H248.267V105.992H246.867Z" fill="#201C1A" fill-opacity="0.9"/>
</svg>
