<svg width="55" height="54" viewBox="0 0 55 54" fill="none" xmlns="http://www.w3.org/2000/svg">
<g filter="url(#filter0_dd_9551_22959)">
<rect x="3.75" y="1.75" width="47" height="47" rx="23.5" fill="white"/>
<rect x="4.25" y="2.25" width="46" height="46" rx="23" stroke="#E5E5E5"/>
</g>
<circle cx="27.3735" cy="25.3735" r="19.397" fill="#3185FC"/>
<path d="M36.1982 27.8636C36.1927 27.88 35.6399 29.5179 34.2842 31.1065C32.5589 33.1284 30.3564 34.1535 27.7381 34.1535C25.1008 34.1535 22.8273 33.1161 20.9809 31.0704C19.5335 29.4669 18.8946 27.8162 18.8902 27.8047L16.0234 28.8749C16.0556 28.9607 16.8292 31.0009 18.6253 33.0266C21.0539 35.7656 24.2051 37.2134 27.7381 37.2134C31.2885 37.2134 34.386 35.7541 36.6959 32.9934C38.4031 30.9528 39.0799 28.8969 39.1079 28.8104L36.1982 27.8636Z" fill="white"/>
<path d="M20.819 22.2083C22.171 22.2083 23.2669 21.1124 23.2669 19.7604C23.2669 18.4085 22.171 17.3125 20.819 17.3125C19.4671 17.3125 18.3711 18.4085 18.3711 19.7604C18.3711 21.1124 19.4671 22.2083 20.819 22.2083Z" fill="white"/>
<path d="M34.2878 22.2083C35.6397 22.2083 36.7357 21.1124 36.7357 19.7604C36.7357 18.4085 35.6397 17.3125 34.2878 17.3125C32.9358 17.3125 31.8398 18.4085 31.8398 19.7604C31.8398 21.1124 32.9358 22.2083 34.2878 22.2083Z" fill="white"/>
<defs>
<filter id="filter0_dd_9551_22959" x="0.250029" y="1.45435e-05" width="53.9999" height="53.9999" filterUnits="userSpaceOnUse" color-interpolation-filters="sRGB">
<feFlood flood-opacity="0" result="BackgroundImageFix"/>
<feColorMatrix in="SourceAlpha" type="matrix" values="0 0 0 0 0 0 0 0 0 0 0 0 0 0 0 0 0 0 127 0" result="hardAlpha"/>
<feOffset dy="1.74999"/>
<feGaussianBlur stdDeviation="1.74999"/>
<feColorMatrix type="matrix" values="0 0 0 0 0 0 0 0 0 0 0 0 0 0 0 0 0 0 0.16 0"/>
<feBlend mode="normal" in2="BackgroundImageFix" result="effect1_dropShadow_9551_22959"/>
<feColorMatrix in="SourceAlpha" type="matrix" values="0 0 0 0 0 0 0 0 0 0 0 0 0 0 0 0 0 0 127 0" result="hardAlpha"/>
<feOffset/>
<feGaussianBlur stdDeviation="0.437496"/>
<feColorMatrix type="matrix" values="0 0 0 0 0 0 0 0 0 0 0 0 0 0 0 0 0 0 0.24 0"/>
<feBlend mode="normal" in2="effect1_dropShadow_9551_22959" result="effect2_dropShadow_9551_22959"/>
<feBlend mode="normal" in="SourceGraphic" in2="effect2_dropShadow_9551_22959" result="shape"/>
</filter>
</defs>
</svg>
