<svg width="47" height="47" viewBox="0 0 47 47" fill="none" xmlns="http://www.w3.org/2000/svg">
<path d="M1.00442 47C0.739354 47 0.48149 46.8957 0.290253 46.7031C0.0381518 46.4492 -0.0590873 46.0806 0.0356308 45.736L3.10443 34.5784C1.19386 31.1385 0.186532 27.2472 0.187972 23.297C0.193374 10.4509 10.693 0 23.5942 0C29.8517 0.00251008 35.7314 2.42939 40.1508 6.83277C44.5694 11.2365 47.0018 17.0904 47 23.3157C46.9942 36.1622 36.4946 46.6138 23.5942 46.6138C23.5942 46.6138 23.5844 46.6138 23.5841 46.6138C19.8159 46.6124 16.0801 45.698 12.7538 43.966L1.25904 46.9674C1.17477 46.9892 1.08906 47 1.00442 47V47Z" fill="#E5E5E5"/>
<path d="M1 45.9997L4.17793 34.4452C2.21765 31.0634 1.18656 27.2273 1.188 23.2973C1.19304 11.0026 11.2418 1 23.5898 1C29.5819 1.00251 35.2063 3.32468 39.4359 7.53944C43.6651 11.7542 45.9934 17.3567 45.9913 23.3152C45.9859 35.6095 35.9356 45.6135 23.5898 45.6135C23.5891 45.6135 23.5902 45.6135 23.5898 45.6135H23.5801C19.831 45.6121 16.1474 44.6758 12.8755 42.8991L1 45.9997ZM13.4254 38.8625L14.1057 39.2638C16.9638 40.9527 20.2408 41.8459 23.5826 41.8477H23.5898C33.8518 41.8477 42.2043 33.5329 42.2087 23.3138C42.2105 18.3614 40.2757 13.7045 36.7604 10.2015C33.2446 6.69856 28.5703 4.76832 23.5967 4.76617C13.3264 4.76617 4.97421 13.0799 4.97025 23.2987C4.96881 26.8006 5.95273 30.2107 7.81685 33.1618L8.25983 33.8632L6.37842 40.7021L13.4254 38.8625Z" fill="white"/>
<path d="M1.78125 45.2156L4.84933 34.0605C2.9564 30.796 1.96132 27.0922 1.9624 23.2987C1.96709 11.4297 11.6683 1.77344 23.5881 1.77344C29.3734 1.77595 34.8033 4.0178 38.8856 8.08662C42.9689 12.1554 45.2162 17.5639 45.2141 23.3156C45.209 35.185 35.5074 44.8423 23.5891 44.8423C23.5881 44.8423 23.5895 44.8423 23.5891 44.8423H23.5794C19.9603 44.8409 16.4039 43.9365 13.2454 42.2225L1.78125 45.2156Z" fill="#64B161"/>
<path d="M1.00391 45.9997L4.18184 34.4452C2.22156 31.0634 1.19046 27.2273 1.1919 23.2973C1.19694 11.0026 11.2457 1 23.5937 1C29.5858 1.00251 35.2102 3.32468 39.4398 7.53944C43.669 11.7542 45.9973 17.3567 45.9952 23.3152C45.9898 35.6095 35.9395 45.6135 23.5937 45.6135C23.593 45.6135 23.5941 45.6135 23.5937 45.6135H23.584C19.8349 45.6121 16.1513 44.6758 12.8794 42.8991L1.00391 45.9997ZM13.4293 38.8625L14.1096 39.2638C16.9677 40.9527 20.2447 41.8459 23.5865 41.8477H23.5937C33.8557 41.8477 42.2082 33.5329 42.2126 23.3138C42.2144 18.3614 40.2797 13.7045 36.7643 10.2015C33.2485 6.69856 28.5742 4.76832 23.6006 4.76617C13.3303 4.76617 4.97812 13.0799 4.97416 23.2987C4.97272 26.8006 5.95664 30.2107 7.82075 33.1618L8.26373 33.8632L6.38233 40.7021L13.4293 38.8625Z" fill="white"/>
<path fill-rule="evenodd" clip-rule="evenodd" d="M17.9991 13.9683C17.5799 13.0402 17.1384 13.0216 16.7393 13.0055C16.4131 12.9915 16.0396 12.9922 15.6668 12.9922C15.2937 12.9922 14.6872 13.132 14.1744 13.6896C13.6612 14.2472 12.2148 15.5955 12.2148 18.3376C12.2148 21.08 14.2209 23.7296 14.5007 24.1018C14.7805 24.4737 18.373 30.2806 24.0622 32.5145C28.7905 34.3713 29.7525 34.002 30.7789 33.9091C31.8053 33.8162 34.0904 32.5608 34.5568 31.2595C35.0235 29.9582 35.0235 28.843 34.8834 28.6096C34.7433 28.3776 34.3702 28.2381 33.8106 27.9595C33.2509 27.6808 30.499 26.3322 29.9858 26.1465C29.4726 25.9604 29.0995 25.8678 28.7264 26.4258C28.3529 26.983 27.2811 28.2381 26.9545 28.6096C26.6278 28.9821 26.3012 29.0288 25.7415 28.7498C25.1819 28.4704 23.379 27.8824 21.2404 25.9837C19.5766 24.5067 18.4529 22.6822 18.1263 22.1242C17.8 21.567 18.1209 21.2916 18.3722 20.9872C18.8249 20.4389 19.5845 19.4531 19.771 19.0817C19.9576 18.7094 19.8643 18.3842 19.7246 18.1052C19.5845 17.8266 18.4965 15.0705 17.9991 13.9683V13.9683Z" fill="white"/>
</svg>
