<svg width="48" height="48" viewBox="0 0 48 48" fill="none" xmlns="http://www.w3.org/2000/svg">
<rect width="48" height="48" rx="24" fill="#25D366"/>
<path d="M9.44141 37.9598L11.4993 30.4871C10.227 28.2937 9.55959 25.8097 9.56655 23.2703C9.56655 15.3132 16.0739 8.84375 24.062 8.84375C27.9414 8.84375 31.5843 10.3452 34.3166 13.0714C37.0558 15.7976 38.5644 19.4232 38.5574 23.2772C38.5574 31.2343 32.0501 37.7038 24.055 37.7038H24.0481C21.6218 37.7038 19.2371 37.0949 17.1167 35.9463L9.44141 37.9598ZM17.4852 33.3378L17.9232 33.6007C19.7725 34.6939 21.8929 35.2682 24.055 35.2752H24.062C30.7014 35.2752 36.1103 29.8989 36.1103 23.2842C36.1103 20.0806 34.8588 17.0707 32.5855 14.8012C30.3121 12.5317 27.2809 11.2862 24.062 11.2862C17.4226 11.2793 12.0137 16.6555 12.0137 23.2703C12.0137 25.5329 12.6464 27.7401 13.8561 29.6498L14.1411 30.1065L12.9245 34.5279L17.4852 33.3378Z" fill="white"/>
<path d="M9.94922 37.4574L11.9376 30.2407C10.707 28.1303 10.0605 25.7294 10.0605 23.2799C10.0674 15.5996 16.3453 9.35156 24.0623 9.35156C27.8096 9.35156 31.3204 10.8046 33.9623 13.4339C36.6042 16.0632 38.0572 19.5643 38.0572 23.2869C38.0572 30.9672 31.7723 37.2153 24.0623 37.2153H24.0553C21.7124 37.2153 19.4112 36.6271 17.3673 35.52L9.94922 37.4574Z" fill="#25D366"/>
<path d="M9.44141 37.9598L11.4993 30.4871C10.227 28.2937 9.55959 25.8097 9.56655 23.2703C9.56655 15.3132 16.0739 8.84375 24.062 8.84375C27.9414 8.84375 31.5843 10.3452 34.3166 13.0714C37.0558 15.7976 38.5644 19.4232 38.5574 23.2772C38.5574 31.2343 32.0501 37.7038 24.055 37.7038H24.0481C21.6218 37.7038 19.2371 37.0949 17.1167 35.9463L9.44141 37.9598ZM17.4852 33.3378L17.9232 33.6007C19.7725 34.6939 21.8929 35.2682 24.055 35.2752H24.062C30.7014 35.2752 36.1103 29.8989 36.1103 23.2842C36.1103 20.0806 34.8588 17.0707 32.5855 14.8012C30.3121 12.5317 27.2809 11.2862 24.062 11.2862C17.4226 11.2793 12.0137 16.6555 12.0137 23.2703C12.0137 25.5329 12.6464 27.7401 13.8561 29.6498L14.1411 30.1065L12.9245 34.5279L17.4852 33.3378Z" fill="url(#paint0_linear_9642_51030)"/>
<path fill-rule="evenodd" clip-rule="evenodd" d="M20.4395 17.239C20.1684 16.6371 19.8834 16.6232 19.6261 16.6163C19.4176 16.6094 19.1742 16.6094 18.9309 16.6094C18.6876 16.6094 18.2982 16.6993 17.9645 17.0591C17.6308 17.4189 16.6992 18.2907 16.6992 20.069C16.6992 21.8403 17.9993 23.5563 18.18 23.7984C18.3608 24.0406 20.6898 27.7977 24.3676 29.2439C27.4265 30.4478 28.0523 30.2056 28.7127 30.1434C29.3732 30.0811 30.854 29.2715 31.1599 28.4274C31.4589 27.5833 31.4589 26.8637 31.3685 26.7114C31.2781 26.5592 31.0348 26.4693 30.6733 26.2894C30.3117 26.1095 28.532 25.2376 28.1982 25.1131C27.8645 24.9955 27.6212 24.9332 27.3848 25.293C27.1415 25.6528 26.4463 26.4623 26.2377 26.7045C26.0291 26.9467 25.8136 26.9744 25.4521 26.7945C25.0906 26.6146 23.9226 26.234 22.5391 25.0024C21.4615 24.0475 20.7315 22.8643 20.523 22.5045C20.3144 22.1447 20.5021 21.951 20.6829 21.7711C20.8428 21.612 21.0444 21.349 21.2251 21.1415C21.4059 20.9339 21.4685 20.7817 21.5867 20.5395C21.7048 20.2973 21.6492 20.0897 21.5588 19.9098C21.4685 19.7369 20.7593 17.9517 20.4395 17.239Z" fill="white"/>
<defs>
<linearGradient id="paint0_linear_9642_51030" x1="24.0023" y1="37.9571" x2="24.0023" y2="8.84375" gradientUnits="userSpaceOnUse">
<stop stop-color="#F9F9F9"/>
<stop offset="1" stop-color="white"/>
</linearGradient>
</defs>
</svg>
