<svg width="50" height="50" viewBox="0 0 50 50" fill="none" xmlns="http://www.w3.org/2000/svg">
<g clipPath="url(#clip0_9553_23474)" filter="url(#filter0_dd_9553_23474)">
<path d="M4.97961 44C4.74377 44 4.51434 43.9068 4.34419 43.7347C4.11988 43.5078 4.03337 43.1784 4.11764 42.8705L6.84806 32.8998C5.14816 29.8259 4.2519 26.3485 4.25318 22.8186C4.25799 11.3391 13.5999 2 25.0785 2C30.6461 2.00224 35.8775 4.17094 39.8095 8.10588C43.7409 12.0411 45.9051 17.2722 45.9035 22.8353C45.8984 34.3152 36.5565 43.6549 25.0785 43.6549C25.0785 43.6549 25.0699 43.6549 25.0695 43.6549C21.7168 43.6536 18.393 42.8365 15.4334 41.2888L5.20615 43.9708C5.13117 43.9904 5.05491 44 4.97961 44V44Z" fill="#E5E5E5"/>
<path d="M4.97266 43.1031L7.80017 32.7778C6.05605 29.7558 5.13864 26.3278 5.13992 22.8158C5.14441 11.8291 14.0852 2.89062 25.0716 2.89062C30.403 2.89287 35.4073 4.968 39.1704 8.73438C42.9333 12.5008 45.0049 17.5072 45.003 22.8319C44.9982 33.8183 36.0561 42.758 25.0716 42.758C25.071 42.758 25.0719 42.758 25.0716 42.758H25.063C21.7272 42.7568 18.4498 41.9201 15.5387 40.3324L4.97266 43.1031ZM16.028 36.7252L16.6333 37.0838C19.1763 38.593 22.0919 39.3912 25.0652 39.3928H25.0716C34.2021 39.3928 41.6336 31.9626 41.6375 22.8306C41.6391 18.4051 39.9177 14.2436 36.7899 11.1133C33.6618 7.98296 29.5029 6.25806 25.0777 6.25614C15.9399 6.25614 8.50866 13.6854 8.50513 22.8171C8.50385 25.9465 9.37928 28.9938 11.0379 31.631L11.432 32.2577L9.75803 38.3691L16.028 36.7252Z" fill="white"/>
<path d="M5.66797 42.4066L8.39775 32.4382C6.71355 29.521 5.82819 26.2112 5.82915 22.8213C5.83331 12.2149 14.4649 3.58594 25.0703 3.58594C30.2177 3.58818 35.0489 5.59154 38.681 9.22751C42.3141 12.8635 44.3136 17.6966 44.3117 22.8364C44.3072 33.4431 35.6754 42.073 25.0712 42.073C25.0703 42.073 25.0715 42.073 25.0712 42.073H25.0626C21.8425 42.0717 18.6782 41.2636 15.868 39.7319L5.66797 42.4066Z" fill="#64B161"/>
<path d="M4.97656 43.1031L7.80408 32.7778C6.05995 29.7558 5.14255 26.3278 5.14383 22.8158C5.14832 11.8291 14.0891 2.89062 25.0755 2.89062C30.4069 2.89287 35.4112 4.968 39.1743 8.73438C42.9372 12.5008 45.0088 17.5072 45.0069 22.8319C45.0021 33.8183 36.06 42.758 25.0755 42.758C25.0749 42.758 25.0758 42.758 25.0755 42.758H25.0669C21.7311 42.7568 18.4537 41.9201 15.5426 40.3324L4.97656 43.1031ZM16.0319 36.7252L16.6372 37.0838C19.1802 38.593 22.0958 39.3912 25.0691 39.3928H25.0755C34.206 39.3928 41.6375 31.9626 41.6414 22.8306C41.643 18.4051 39.9216 14.2436 36.7938 11.1133C33.6657 7.98296 29.5068 6.25806 25.0816 6.25614C15.9438 6.25614 8.51256 13.6854 8.50904 22.8171C8.50776 25.9465 9.38318 28.9938 11.0418 31.631L11.4359 32.2577L9.76194 38.3691L16.0319 36.7252Z" fill="white"/>
<path fill-rule="evenodd" clip-rule="evenodd" d="M20.0957 14.4816C19.7227 13.6523 19.3299 13.6357 18.9748 13.6212C18.6845 13.6087 18.3522 13.6094 18.0206 13.6094C17.6886 13.6094 17.149 13.7344 16.6927 14.2326C16.2361 14.7309 14.9492 15.9357 14.9492 18.3861C14.9492 20.8368 16.734 23.2045 16.983 23.5371C17.232 23.8694 20.4283 29.0586 25.4902 31.0549C29.6972 32.7141 30.5531 32.3841 31.4663 32.3011C32.3795 32.2181 34.4127 31.0962 34.8277 29.9334C35.2429 28.7705 35.2429 27.7739 35.1183 27.5653C34.9936 27.358 34.6617 27.2334 34.1637 26.9844C33.6658 26.7354 31.2173 25.5302 30.7607 25.3643C30.3041 25.198 29.9721 25.1153 29.6401 25.6139C29.3079 26.1118 28.3542 27.2334 28.0636 27.5653C27.773 27.8983 27.4823 27.9399 26.9844 27.6906C26.4864 27.441 24.8823 26.9155 22.9796 25.2188C21.4992 23.8989 20.4995 22.2685 20.2088 21.7699C19.9185 21.272 20.204 21.0259 20.4277 20.7538C20.8305 20.2639 21.5063 19.383 21.6722 19.051C21.8382 18.7184 21.7552 18.4278 21.6309 18.1785C21.5063 17.9295 20.5382 15.4666 20.0957 14.4816V14.4816Z" fill="white"/>
</g>
<defs>
<filter id="filter0_dd_9553_23474" x="0.220031" y="0.110016" width="49.5599" height="49.5599" filterUnits="userSpaceOnUse" color-interpolation-filters="sRGB">
<feFlood flood-opacity="0" result="BackgroundImageFix"/>
<feColorMatrix in="SourceAlpha" type="matrix" values="0 0 0 0 0 0 0 0 0 0 0 0 0 0 0 0 0 0 127 0" result="hardAlpha"/>
<feOffset dy="1.88998"/>
<feGaussianBlur stdDeviation="1.88998"/>
<feColorMatrix type="matrix" values="0 0 0 0 0 0 0 0 0 0 0 0 0 0 0 0 0 0 0.16 0"/>
<feBlend mode="normal" in2="BackgroundImageFix" result="effect1_dropShadow_9553_23474"/>
<feColorMatrix in="SourceAlpha" type="matrix" values="0 0 0 0 0 0 0 0 0 0 0 0 0 0 0 0 0 0 127 0" result="hardAlpha"/>
<feOffset/>
<feGaussianBlur stdDeviation="0.472496"/>
<feColorMatrix type="matrix" values="0 0 0 0 0 0 0 0 0 0 0 0 0 0 0 0 0 0 0.24 0"/>
<feBlend mode="normal" in2="effect1_dropShadow_9553_23474" result="effect2_dropShadow_9553_23474"/>
<feBlend mode="normal" in="SourceGraphic" in2="effect2_dropShadow_9553_23474" result="shape"/>
</filter>
<clipPath id="clip0_9553_23474">
<rect width="42" height="42" fill="white" transform="translate(4 2)"/>
</clipPath>
</defs>
</svg>
