<svg width="55" height="55" viewBox="0 0 55 55" fill="none" xmlns="http://www.w3.org/2000/svg">
<g clipPath="url(#clip0_9551_22973)" filter="url(#filter0_dd_9551_22973)">
<path d="M4.84381 49C4.57989 49 4.32315 48.8957 4.13274 48.7031C3.88174 48.4492 3.78492 48.0806 3.87923 47.736L6.93469 36.5784C5.03242 33.1385 4.02947 29.2472 4.03091 25.297C4.03628 12.4509 14.4904 2 27.3354 2C33.5658 2.00251 39.42 4.42939 43.8201 8.83277C48.2196 13.2365 50.6414 19.0904 50.6396 25.3157C50.6339 38.1622 40.1798 48.6138 27.3354 48.6138C27.3354 48.6138 27.3258 48.6138 27.3254 48.6138C23.5736 48.6124 19.854 47.698 16.5422 45.966L5.09733 48.9674C5.01342 48.9892 4.92808 49 4.84381 49V49Z" fill="#E5E5E5"/>
<path d="M4.83984 47.9997L8.00397 36.4452C6.05221 33.0634 5.02559 29.2273 5.02702 25.2973C5.03204 13.0026 15.0372 3 27.3315 3C33.2976 3.00251 38.8976 5.32468 43.1088 9.53944C47.3196 13.7542 49.6379 19.3567 49.6357 25.3152C49.6303 37.6095 39.6237 47.6135 27.3315 47.6135C27.3308 47.6135 27.3319 47.6135 27.3315 47.6135H27.3219C23.589 47.6121 19.9214 46.6758 16.6637 44.8991L4.83984 47.9997ZM17.2113 40.8625L17.8886 41.2638C20.7344 42.9527 23.9971 43.8459 27.3244 43.8477H27.3315C37.549 43.8477 45.8652 35.5329 45.8695 25.3138C45.8713 20.3614 43.945 15.7045 40.4449 12.2015C36.9444 8.69856 32.2904 6.76832 27.3384 6.76617C17.1127 6.76617 8.7968 15.0799 8.79285 25.2987C8.79142 28.8006 9.77106 32.2107 11.6271 35.1618L12.0681 35.8632L10.1949 42.7021L17.2113 40.8625Z" fill="white"/>
<path d="M5.61719 47.2156L8.67194 36.0605C6.78724 32.796 5.79648 29.0922 5.79755 25.2987C5.80222 13.4297 15.4613 3.77344 27.3293 3.77344C33.0895 3.77595 38.4959 6.0178 42.5604 10.0866C46.626 14.1554 48.8635 19.5639 48.8614 25.3156C48.8563 37.185 39.1969 46.8423 27.3304 46.8423C27.3293 46.8423 27.3307 46.8423 27.3304 46.8423H27.3207C23.7173 46.8409 20.1763 45.9365 17.0315 44.2225L5.61719 47.2156Z" fill="#64B161"/>
<path d="M4.84375 47.9997L8.00788 36.4452C6.05612 33.0634 5.0295 29.2273 5.03093 25.2973C5.03595 13.0026 15.0411 3 27.3354 3C33.3015 3.00251 38.9015 5.32468 43.1127 9.53944C47.3235 13.7542 49.6418 19.3567 49.6396 25.3152C49.6342 37.6095 39.6276 47.6135 27.3354 47.6135C27.3347 47.6135 27.3358 47.6135 27.3354 47.6135H27.3258C23.5929 47.6121 19.9254 46.6758 16.6676 44.8991L4.84375 47.9997ZM17.2152 40.8625L17.8926 41.2638C20.7383 42.9527 24.001 43.8459 27.3283 43.8477H27.3354C37.5529 43.8477 45.8691 35.5329 45.8734 25.3138C45.8752 20.3614 43.9489 15.7045 40.4488 12.2015C36.9483 8.69856 32.2943 6.76832 27.3423 6.76617C17.1166 6.76617 8.8007 15.0799 8.79676 25.2987C8.79532 28.8006 9.77497 32.2107 11.631 35.1618L12.072 35.8632L10.1988 42.7021L17.2152 40.8625Z" fill="white"/>
<path fill-rule="evenodd" clip-rule="evenodd" d="M21.7631 15.9683C21.3457 15.0402 20.9061 15.0216 20.5088 15.0055C20.1839 14.9915 19.812 14.9922 19.4409 14.9922C19.0694 14.9922 18.4656 15.132 17.9549 15.6896C17.444 16.2472 16.0039 17.5955 16.0039 20.3376C16.0039 23.08 18.0012 25.7296 18.2798 26.1018C18.5584 26.4737 22.1353 32.2806 27.7998 34.5145C32.5076 36.3713 33.4654 36.002 34.4873 35.9091C35.5093 35.8162 37.7845 34.5608 38.2488 33.2595C38.7135 31.9582 38.7135 30.843 38.5741 30.6096C38.4346 30.3776 38.0631 30.2381 37.5058 29.9595C36.9486 29.6808 34.2087 28.3322 33.6977 28.1465C33.1867 27.9604 32.8152 27.8678 32.4438 28.4258C32.0719 28.983 31.0048 30.2381 30.6795 30.6096C30.3543 30.9821 30.0291 31.0288 29.4718 30.7498C28.9146 30.4704 27.1196 29.8824 24.9903 27.9837C23.3337 26.5067 22.2149 24.6822 21.8897 24.1242C21.5648 23.567 21.8843 23.2916 22.1346 22.9872C22.5853 22.4389 23.3415 21.4531 23.5273 21.0817C23.713 20.7094 23.6202 20.3842 23.481 20.1052C23.3415 19.8266 22.2583 17.0705 21.7631 15.9683V15.9683Z" fill="white"/>
</g>
<defs>
<filter id="filter0_dd_9551_22973" x="-0.0299687" y="0.110016" width="54.5599" height="54.5599" filterUnits="userSpaceOnUse" color-interpolation-filters="sRGB">
<feFlood flood-opacity="0" result="BackgroundImageFix"/>
<feColorMatrix in="SourceAlpha" type="matrix" values="0 0 0 0 0 0 0 0 0 0 0 0 0 0 0 0 0 0 127 0" result="hardAlpha"/>
<feOffset dy="1.88998"/>
<feGaussianBlur stdDeviation="1.88998"/>
<feColorMatrix type="matrix" values="0 0 0 0 0 0 0 0 0 0 0 0 0 0 0 0 0 0 0.16 0"/>
<feBlend mode="normal" in2="BackgroundImageFix" result="effect1_dropShadow_9551_22973"/>
<feColorMatrix in="SourceAlpha" type="matrix" values="0 0 0 0 0 0 0 0 0 0 0 0 0 0 0 0 0 0 127 0" result="hardAlpha"/>
<feOffset/>
<feGaussianBlur stdDeviation="0.472496"/>
<feColorMatrix type="matrix" values="0 0 0 0 0 0 0 0 0 0 0 0 0 0 0 0 0 0 0.24 0"/>
<feBlend mode="normal" in2="effect1_dropShadow_9551_22973" result="effect2_dropShadow_9551_22973"/>
<feBlend mode="normal" in="SourceGraphic" in2="effect2_dropShadow_9551_22973" result="shape"/>
</filter>
<clipPath id="clip0_9551_22973">
<rect width="47" height="47" fill="white" transform="translate(3.75 2)"/>
</clipPath>
</defs>
</svg>
