<svg width="42" height="42" viewBox="0 0 42 42" fill="none" xmlns="http://www.w3.org/2000/svg">
<path d="M0.897568 42C0.6607 42 0.430268 41.9068 0.259375 41.7347C0.0340931 41.5078 -0.0528015 41.1784 0.0318403 40.8705L2.77417 30.8998C1.06685 27.8259 0.166688 24.3485 0.167975 20.8186C0.172803 9.33907 9.55549 0 21.0841 0C26.676 0.00224305 31.9302 2.17094 35.8794 6.10588C39.828 10.0411 42.0016 15.2722 42 20.8353C41.9949 32.3152 32.6122 41.6549 21.0841 41.6549C21.0841 41.6549 21.0755 41.6549 21.0751 41.6549C17.7078 41.6536 14.3694 40.8365 11.397 39.2888L1.1251 41.9708C1.04979 41.9904 0.973198 42 0.897568 42V42Z" fill="#E5E5E5"/>
<path d="M0.894531 41.1031L3.73438 30.7778C1.98265 27.7558 1.06124 24.3278 1.06253 20.8158C1.06703 9.82913 10.0468 0.890625 21.0812 0.890625C26.4358 0.892868 31.4619 2.968 35.2415 6.73438C39.0208 10.5008 41.1014 15.5072 41.0995 20.8319C41.0947 31.8183 32.1136 40.758 21.0812 40.758C21.0805 40.758 21.0815 40.758 21.0812 40.758H21.0725C17.7222 40.7568 14.4305 39.9201 11.5066 38.3324L0.894531 41.1031ZM11.9981 34.7252L12.606 35.0838C15.1601 36.593 18.0884 37.3912 21.0747 37.3928H21.0812C30.2515 37.3928 37.7154 29.9626 37.7193 20.8306C37.7209 16.4051 35.992 12.2436 32.8506 9.11328C29.7089 5.98296 25.5318 4.25806 21.0873 4.25614C11.9096 4.25614 4.44596 11.6854 4.44242 20.8171C4.44113 23.9465 5.32038 26.9938 6.98618 29.631L7.38204 30.2577L5.70078 36.3691L11.9981 34.7252Z" fill="white"/>
<path d="M1.58984 40.4066L4.33153 30.4382C2.63998 27.521 1.75076 24.2112 1.75173 20.8213C1.75591 10.2149 10.4251 1.58594 21.0768 1.58594C26.2467 1.58818 31.0989 3.59154 34.7469 7.22751C38.3958 10.8635 40.4041 15.6966 40.4021 20.8364C40.3976 31.4431 31.7281 40.073 21.0777 40.073C21.0768 40.073 21.0781 40.073 21.0777 40.073H21.0691C17.835 40.0717 14.6569 39.2636 11.8344 37.7319L1.58984 40.4066Z" fill="#64B161"/>
<path d="M0.898438 41.1031L3.73829 30.7778C1.98655 27.7558 1.06515 24.3278 1.06643 20.8158C1.07094 9.82913 10.0507 0.890625 21.0851 0.890625C26.4397 0.892868 31.4658 2.968 35.2454 6.73438C39.0247 10.5008 41.1053 15.5072 41.1034 20.8319C41.0986 31.8183 32.1175 40.758 21.0851 40.758C21.0844 40.758 21.0854 40.758 21.0851 40.758H21.0764C17.7261 40.7568 14.4344 39.9201 11.5106 38.3324L0.898438 41.1031ZM12.002 34.7252L12.6099 35.0838C15.164 36.593 18.0924 37.3912 21.0786 37.3928H21.0851C30.2554 37.3928 37.7193 29.9626 37.7232 20.8306C37.7248 16.4051 35.9959 12.2436 32.8545 9.11328C29.7128 5.98296 25.5357 4.25806 21.0912 4.25614C11.9135 4.25614 4.44986 11.6854 4.44632 20.8171C4.44503 23.9465 5.32428 26.9938 6.99009 29.631L7.38594 30.2577L5.70469 36.3691L12.002 34.7252Z" fill="white"/>
<path fill-rule="evenodd" clip-rule="evenodd" d="M16.083 12.4816C15.7084 11.6523 15.3138 11.6357 14.9572 11.6212C14.6657 11.6087 14.3319 11.6094 13.9988 11.6094C13.6654 11.6094 13.1234 11.7344 12.6651 12.2326C12.2065 12.7309 10.9141 13.9357 10.9141 16.3861C10.9141 18.8368 12.7067 21.2045 12.9567 21.5371C13.2068 21.8694 16.4171 27.0586 21.501 29.0549C25.7264 30.7141 26.586 30.3841 27.5032 30.3011C28.4204 30.2181 30.4624 29.0962 30.8792 27.9334C31.2963 26.7705 31.2963 25.7739 31.1711 25.5653C31.0459 25.358 30.7125 25.2334 30.2124 24.9844C29.7122 24.7354 27.2531 23.5302 26.7945 23.3643C26.3359 23.198 26.0025 23.1153 25.6691 23.6139C25.3353 24.1118 24.3776 25.2334 24.0857 25.5653C23.7938 25.8983 23.5019 25.9399 23.0017 25.6906C22.5016 25.441 20.8905 24.9155 18.9795 23.2188C17.4926 21.8989 16.4885 20.2685 16.1966 19.7699C15.905 19.272 16.1918 19.0259 16.4164 18.7538C16.821 18.2639 17.4997 17.383 17.6664 17.051C17.8331 16.7184 17.7498 16.4278 17.6249 16.1785C17.4997 15.9295 16.5274 13.4666 16.083 12.4816V12.4816Z" fill="white"/>
</svg>
