<svg width="73" height="67" viewBox="0 0 73 67" fill="none" xmlns="http://www.w3.org/2000/svg">
<g id="hat">
<path id="Vector" d="M61.5353 22.9602C61.905 22.767 62.0899 22.4777 62.3085 22.1398C62.4933 21.85 62.745 21.5923 62.9636 21.3189C63.5684 20.9973 64.2743 20.7719 64.9299 20.5951C65.7197 20.3701 66.5431 20.1928 67.3836 20.2894C67.7865 20.3379 68.1226 20.4182 68.4587 20.6595C68.7616 20.8685 68.9631 21.0132 69.3665 20.9493C69.6855 20.8849 69.7699 20.5306 69.6518 20.2894C69.6187 20.225 69.585 20.1928 69.5343 20.1447C69.3328 19.8871 69.0304 19.6944 68.7109 19.5656C68.6104 19.2435 68.3748 18.9864 68.2406 18.6322C67.9884 17.9728 67.7026 17.3773 67.6187 16.6698C67.5348 15.9619 67.5514 15.1736 67.6689 14.4815C67.7533 13.9509 68.0558 13.5487 68.2572 13.0661C68.3582 12.8243 68.0558 12.5509 67.8036 12.6316C67.3665 12.7763 67.0304 13.13 66.627 13.3554C66.106 13.6453 65.5519 13.8543 65.0309 14.1278C64.5602 14.3849 64.1904 14.5781 63.6192 14.5459C63.266 14.5301 63.048 14.4013 62.8123 14.1759C62.6275 13.999 62.3587 13.8543 62.2411 13.6453C61.9553 13.1786 61.1992 13.5967 61.4851 14.0634C61.7031 14.4335 62.0563 14.8036 62.224 15.1895C62.3587 15.511 62.3924 15.8653 62.527 16.1868C62.8123 16.8789 63.0645 17.5705 63.1484 18.3107C63.2323 19.0989 62.8797 19.8068 62.4426 20.4504C62.426 20.4826 62.3924 20.5148 62.3753 20.547C62.3421 20.5628 62.2914 20.5792 62.2577 20.6114C61.8879 20.8363 61.7367 21.1584 61.4851 21.4799C61.3841 21.6087 61.2494 21.6889 61.1655 21.8019C61.048 21.9624 61.0143 22.1398 60.8968 22.3003C60.5607 22.7189 61.149 23.1529 61.5353 22.9602ZM63.468 16.1065C63.3504 15.8489 63.266 15.5596 63.1821 15.2861C63.6529 15.3827 64.1904 15.3342 64.644 15.1895C64.8962 15.1092 65.0977 14.9804 65.3162 14.8358C65.6358 14.6262 66.0055 14.4815 66.3416 14.3205C66.5938 14.1922 66.8289 14.0634 67.0811 13.9187C67.0304 14.0634 66.9967 14.2081 66.9631 14.3691C66.8626 15.0607 66.8289 15.785 66.9128 16.4766C66.9802 17.088 67.0977 17.7152 67.3836 18.2785C67.5177 18.5519 67.6523 18.8576 67.8036 19.1152C67.8538 19.1955 67.9045 19.2599 67.9548 19.3243C67.7865 19.2921 67.6021 19.2599 67.4504 19.2599C66.4592 19.1791 65.5011 19.3887 64.5602 19.678C64.3079 19.7588 64.0563 19.839 63.8041 19.9193C63.9718 19.5012 64.0894 19.083 64.0894 18.6322C64.1065 17.8118 63.8206 16.8625 63.468 16.1065Z" fill="#F0BA47"/>
<g id="Group">
<path id="Vector_2" d="M13.2674 13.234C13.7572 13.1245 14.279 13.0673 14.7785 13.0009C15.8629 12.8499 16.9621 12.8618 18.0604 12.8082C19.1093 12.7481 20.1782 12.6695 21.225 12.6479C21.74 12.6407 22.2623 12.6492 22.7779 12.6418C22.882 12.6435 22.9979 12.6495 23.1252 12.6604C23.1616 12.635 23.209 12.6144 23.2747 12.614C23.3908 12.6205 23.5134 12.6424 23.6293 12.6484C23.9744 12.6398 24.3192 12.6311 24.6531 12.6181C24.6685 12.5452 24.7343 12.4788 24.8229 12.4874C25.7493 12.5369 26.6896 12.5523 27.6068 12.5585C27.9133 12.5481 28.2153 12.5484 28.5331 12.5424C29.9431 12.5322 31.3507 12.5608 32.7627 12.5126C33.3914 12.4841 34.0205 12.4558 34.6493 12.4274C34.9556 12.4165 35.2642 12.3672 35.5616 12.3791C35.7708 12.3825 35.9684 12.4474 36.184 12.4007C36.2859 12.3753 36.3591 12.4568 36.3891 12.5471C36.9861 12.5325 37.5879 12.5724 38.1806 12.5695C38.4712 12.5657 38.766 12.5503 39.0592 12.5739C39.1094 12.5803 39.1751 12.5799 39.2363 12.591C39.4657 12.5761 39.6948 12.5611 39.9196 12.5577C39.9312 12.5623 39.947 12.5551 39.9582 12.5596C41.207 12.5256 42.4514 12.5688 43.7159 12.528C44.565 12.5075 45.4049 12.5095 46.2566 12.5163C47.0307 12.5188 47.8047 12.4557 48.5788 12.4582C48.619 12.2902 48.8518 12.132 49.0027 12.2834C49.2055 12.4686 49.259 12.6998 49.3896 12.9356C49.3964 12.9512 49.4147 12.9718 49.4215 12.9874C49.4648 12.9781 49.5122 12.9575 49.5667 12.9527C49.8593 12.91 50.0474 13.3 49.8009 13.492C49.7851 13.4992 49.7851 13.4992 49.7691 13.5058C49.8629 13.6347 49.9453 13.7595 50.0391 13.8884C50.0824 13.9451 50.1213 14.0127 50.1649 14.0696C50.1893 13.9739 50.298 13.8985 50.4253 13.975C50.7626 14.1868 51.0368 14.5577 51.2519 14.8793C51.5103 15.2573 51.7689 15.6349 52.0228 16.0245C52.7724 16.6224 53.3741 17.53 53.8364 18.2908C54.6767 19.6606 55.505 21.0261 56.3248 22.4141C57.0986 23.7184 57.859 24.991 58.789 26.1989C59.4082 26.9953 60.2602 28.0015 60.4195 29.0637C60.7089 29.2964 60.8967 29.6203 61.1048 29.9258C61.3816 30.3239 61.6382 30.7405 61.8697 31.1869C61.9955 31.4337 62.1218 31.6806 62.2524 31.9163C62.8693 31.7516 63.619 31.8498 64.1939 31.958C64.9414 32.0946 65.8103 32.358 66.2379 33.0395C66.6409 33.6847 66.5107 34.4489 66.2117 35.107C65.9602 35.6785 65.6451 36.212 65.307 36.736C65.3645 36.8247 65.4057 36.9195 65.4471 37.0147L65.4537 37.0307C65.5635 37.153 65.6801 37.2908 65.7693 37.4313C65.9476 37.7116 66.0009 37.9432 66.0027 38.2727C66.0005 38.3112 65.9713 38.3523 65.9395 38.3661C65.9425 38.5252 65.9141 38.6979 65.9442 38.8547C65.963 38.9407 65.9061 38.9843 65.836 38.9959C65.8472 39.0003 65.8426 39.0119 65.8542 39.0165C65.8886 39.0956 65.923 39.1748 65.9461 39.2499C65.9693 39.3246 65.9925 39.3993 65.9927 39.4655C65.9748 39.511 65.968 39.561 65.9502 39.6062C65.9259 39.7019 65.8398 39.7867 65.7469 39.7893C65.7309 39.796 65.7081 39.787 65.6853 39.778C65.6766 39.8669 65.6407 39.9581 65.5597 40.031C65.4693 40.127 65.3446 40.1435 65.2261 40.1102C65.1421 40.09 65.0669 40.0475 64.974 40.0501C64.8966 40.046 64.8642 39.9279 64.9321 39.8891C64.9931 39.8341 65.0682 39.811 65.1473 39.7766C65.1405 39.761 65.1335 39.7449 65.1379 39.7336C65.1379 39.7336 65.1267 39.7292 65.1313 39.7177C64.9154 39.6982 64.6882 39.6747 64.4723 39.6552C64.1294 39.6254 63.791 39.584 63.4454 39.5268C62.494 40.8746 61.5015 42.1932 60.5682 43.5611C59.8873 44.5555 59.3066 45.5626 58.7531 46.6334C58.524 47.0822 58.2603 47.5172 58.0469 47.9592C57.9728 48.1143 57.903 48.2576 57.8289 48.4127C57.8155 48.4467 57.6335 48.8747 57.6734 48.7066C57.6156 48.9203 57.4414 49.0622 57.2211 48.9884C57.2095 48.9838 57.1867 48.9748 57.1755 48.9704C57.1236 49.0682 57.0563 49.1733 57.0044 49.2711C56.7476 49.7223 56.5481 50.196 56.2913 50.6472C55.3186 52.3154 54.2528 53.9206 52.9928 55.3837C52.8734 55.5205 52.7261 55.5941 52.5625 55.6086C52.4926 55.6863 52.434 55.7681 52.3935 55.8708C52.4597 55.9362 52.5217 56.0132 52.5855 56.1174C52.9702 56.7423 52.7303 57.384 52.602 58.0437C52.4648 58.7918 52.1164 59.5094 51.8202 60.1945C51.7618 60.3428 51.6879 60.4975 51.618 60.6409C51.4625 61.3028 51.3066 61.9646 51.1055 62.6086C50.9645 63.0662 50.8352 63.5279 50.6147 63.9541C50.5452 64.0976 50.4731 64.2137 50.3624 64.3281C50.2922 64.4057 50.1361 64.5017 50.089 64.5884C50.0329 64.6979 49.8876 64.7326 49.7986 64.6583C49.7625 64.6833 49.7217 64.7199 49.6854 64.7453C49.5701 64.8047 49.4154 64.7308 49.3671 64.6199C49.3369 64.529 49.3027 64.4495 49.2682 64.3703C49.1368 64.4368 48.9369 64.4107 48.7886 64.2866C48.693 64.1963 48.6447 64.0854 48.5851 63.9696C48.5877 63.9969 48.5787 64.0197 48.5697 64.0425C48.5159 64.1792 48.3478 64.2049 48.2137 64.1784C47.8503 64.1008 47.483 63.7986 47.1685 63.5957C46.8954 63.4225 46.6516 63.2078 46.3532 63.0639C46.2463 63.0351 46.1395 63.006 46.0326 62.9772C45.9714 62.9661 45.9302 62.9369 45.9052 62.9007C45.6687 62.8339 45.4163 62.7737 45.1753 62.7184C45.0685 62.6893 44.8728 62.5859 44.764 62.5957C44.6979 62.5959 44.6052 62.6647 44.5373 62.7035C44.4062 62.7701 44.269 62.6505 44.2731 62.5075C44.2751 62.4686 44.2885 62.4346 44.3019 62.4006C44.256 62.3165 44.2422 62.2192 44.2781 62.128C44.3806 61.7343 44.4516 61.4205 44.668 61.0717C44.8458 60.787 45.0464 60.5109 45.2541 60.251C45.5196 59.7109 45.8028 59.1915 46.1616 58.7145C47.0187 57.6058 48.09 56.5551 49.3655 55.9529C49.9135 55.6955 50.6681 55.4145 51.3402 55.4424C51.3536 55.4084 51.3604 55.3585 51.3851 55.3285C51.5065 55.0872 51.6691 54.8751 51.8544 54.6719C52.0323 53.9532 52.8483 53.249 53.2549 52.7515C53.9858 51.8295 54.646 50.7882 55.2723 49.7986C55.8852 48.8435 56.4868 47.8839 57.0474 46.8948C57.261 46.519 57.5159 46.1723 57.7663 45.8368C59.1075 43.4327 61.4114 40.4877 61.8222 39.9786C61.9798 39.7779 62.1378 39.5773 62.2959 39.3764C61.6893 39.2819 61.0781 39.1991 60.4714 39.1046C60.3878 39.2162 60.2539 39.2558 60.118 39.2679C59.8614 39.285 59.5796 39.2663 59.3279 39.272C58.735 39.2753 58.1148 39.2152 57.5198 39.1253C56.9587 39.0488 56.3774 39.0567 55.8159 38.98C55.4051 38.923 55.0076 38.898 54.6034 38.923C54.2592 39.5633 53.9308 40.1964 53.5866 40.8367C53.3145 41.3608 53.0118 42.1619 52.4547 42.4422C52.355 42.4948 52.2477 42.4003 52.2608 42.3002C52.2631 42.2614 52.2765 42.2274 52.2788 42.1886C52.2471 42.2024 52.2153 42.2162 52.172 42.2255C52.1562 42.2326 52.145 42.2282 52.1334 42.2237C52.129 42.2349 52.129 42.2349 52.1245 42.2464C52.0931 42.326 52.0618 42.4056 52.019 42.4811C51.9582 42.6017 51.8793 42.7022 51.8072 42.8184C51.9424 43.0425 51.7593 43.2073 51.5594 43.2468C51.4922 43.4175 51.4137 43.5838 51.3075 43.7525C51.1409 43.976 50.9717 44.1721 50.7086 44.3054C50.6249 44.3514 50.5249 44.2723 50.5173 44.1907C50.4812 44.2157 50.445 44.2408 50.4136 44.2547C50.2955 44.2872 50.1386 44.2517 50.0949 44.1292C49.9933 44.2207 49.8846 44.2962 49.7646 44.3675C49.5606 44.4844 49.3753 44.6215 49.1534 44.7183C48.9154 44.8218 48.6636 44.8935 48.4166 44.9541C48.1693 45.0146 47.931 45.0519 47.6836 45.0467C47.4476 45.0457 47.2227 45.049 46.9777 45.0707C46.7165 45.0994 46.4919 45.1032 46.244 45.0315C46.0575 44.9714 45.8506 44.9291 45.7273 44.7756C45.6907 44.7349 45.6814 44.6916 45.6836 44.6531C45.5495 44.6266 45.411 44.6113 45.2769 44.5848C44.1587 44.3548 43.0294 44.1861 41.9448 43.8373C40.1752 43.2587 38.0691 42.5342 36.9307 40.9546C36.3324 40.7055 35.7022 40.4706 35.1221 40.176C34.6839 40.1876 34.3054 39.9466 33.905 39.7625C33.4296 39.5355 32.938 39.3155 32.4668 39.0776C31.3699 38.5267 30.2727 37.9762 29.1981 37.3686C28.1985 36.8038 27.0581 36.2626 26.1691 35.5179C25.6652 35.0958 25.1207 34.71 24.6168 34.2879C24.1229 34.0411 23.6493 33.7755 23.2414 33.4439C22.8515 33.1324 22.457 32.8324 22.0719 32.5097C21.89 32.4381 21.71 32.3275 21.5483 32.2374C21.1474 31.9876 20.7489 31.6989 20.3908 31.3736C19.6926 30.7438 19.228 29.9557 18.7563 29.1519C18.7313 29.1158 18.722 29.0724 18.7238 29.0339C18.3261 28.4431 18.1313 27.6694 18.0667 26.9997C17.9429 25.7806 18.3499 24.5471 18.8919 23.4717C18.8847 23.4559 18.8825 23.4287 18.8758 23.4127C18.8732 23.3854 18.8594 23.3536 18.8572 23.3264C18.7906 23.1953 18.7354 23.0683 18.6644 22.9484C18.5315 22.6854 18.4098 22.4269 18.2929 22.1573C18.2675 22.121 18.2425 22.0848 18.213 22.0602C18.213 22.0602 18.2014 22.0557 18.2059 22.0441C17.9142 21.7846 17.6221 21.5249 17.3461 21.2583C16.6226 20.5261 15.9626 19.7008 15.4043 18.8495C14.878 18.0505 14.3817 17.2763 14.0229 16.3854C13.8391 15.9186 13.5715 15.4972 13.3193 15.0695C13.0926 14.6776 12.764 14.3113 12.5896 13.8874C12.4895 13.8743 12.4457 13.7522 12.4928 13.6655C12.6887 13.3348 12.9655 13.2993 13.2674 13.234ZM65.1316 39.8494C65.1226 39.8722 65.1182 39.8834 65.1316 39.8494V39.8494ZM65.2677 38.9036C65.2611 38.8876 65.2539 38.8719 65.2473 38.8559L65.2361 38.8515C65.2539 38.8719 65.2611 38.8876 65.2677 38.9036ZM64.2528 38.4118C64.2412 38.4073 64.2458 38.3957 64.2346 38.3913C64.23 38.4028 64.23 38.4028 64.2256 38.414C64.23 38.4028 64.2412 38.4073 64.2528 38.4118ZM49.166 63.4623C49.1888 63.4712 49.2 63.4757 49.2184 63.4958C49.2295 63.4346 49.2521 63.3775 49.2744 63.3207C49.2293 63.3685 49.1885 63.4051 49.141 63.4261C49.1522 63.4305 49.1594 63.4463 49.166 63.4623ZM47.258 62.8024C47.292 62.8158 47.342 62.8225 47.376 62.8359C47.3895 62.8016 47.3873 62.7744 47.4006 62.7404C47.2415 62.6777 47.0892 62.6306 46.9207 62.5905C47.0529 62.656 47.153 62.7347 47.258 62.8024ZM47.4522 58.9076C47.1402 59.1661 46.8873 59.4739 46.6163 59.7619C46.4399 59.9423 46.2524 60.1182 46.0832 60.3144C45.8201 60.8157 45.5431 61.2853 45.4093 61.8242C45.6272 61.8047 45.852 61.8014 46.0836 61.8137C46.1882 61.8156 46.2925 61.817 46.3926 61.8301C46.5163 61.5501 46.6897 61.2766 46.8067 61.0465C47.0788 60.5224 47.3985 60.0438 47.7162 59.5376C48.0432 59.0088 48.3353 58.4667 48.6164 57.9198C48.2319 58.2288 47.8455 58.5763 47.4522 58.9076ZM50.968 56.3871C50.9407 56.3897 50.9023 56.3875 50.8705 56.4013C50.8779 56.4832 50.8466 56.5628 50.7557 56.593C50.3974 56.7017 50.0422 56.9035 49.7048 57.1257C49.6824 57.1825 49.6599 57.2396 49.6307 57.2808C49.4686 57.5587 49.2881 57.8164 49.1487 58.1032C48.8878 58.6318 48.6543 59.1577 48.3594 59.6728C48.0445 60.206 47.6995 60.7147 47.414 61.2728C47.306 61.4801 47.2092 61.6919 47.1128 61.9037C47.1513 61.9055 47.1853 61.9189 47.2241 61.9213C47.4038 61.9657 47.5787 62.0213 47.7448 62.1001C47.783 62.0362 47.8169 61.9839 47.8461 61.9428C48.2112 61.3501 48.5577 60.737 48.8999 60.1356C49.2287 59.5683 49.512 58.983 49.8406 58.4151C50.1738 57.8366 50.4724 57.1783 50.9764 56.7326C51.0172 56.696 51.049 56.6822 51.0875 56.6841C51.0147 56.6027 50.9731 56.5078 50.968 56.3871ZM51.3043 58.2686C51.3424 58.139 51.7262 56.8308 51.4132 56.8257C51.3744 56.8234 51.3404 56.81 51.306 56.7965C51.3336 56.86 51.3567 56.9351 51.3299 57.0031C51.2114 57.3379 50.9607 57.6072 50.8078 57.9284C50.6595 58.2381 50.5222 58.5525 50.3627 58.8577C50.0498 59.4184 49.7894 60.0127 49.4651 60.5685C49.2898 60.8809 49.0798 61.1796 48.934 61.5166C48.7857 61.8263 48.6418 62.1247 48.4367 62.412C48.4119 62.4419 48.3824 62.4829 48.369 62.5169C48.5286 62.6454 48.6678 62.7926 48.7912 62.946C48.7956 62.9348 48.8 62.9236 48.8045 62.912C48.867 62.6868 48.9566 62.4593 49.0692 62.2404C49.2852 61.8258 49.5101 61.3884 49.7489 60.9828C49.9828 60.5886 50.2765 60.2439 50.4764 59.8363C50.6584 59.474 50.8203 59.13 51.1438 58.8763C51.2018 58.6623 51.2508 58.471 51.3043 58.2686ZM22.0108 13.2207C21.5069 13.2323 21.0145 13.2489 20.5102 13.2604C21.0167 13.2761 21.5117 13.2869 22.0228 13.291C22.0362 13.257 22.0564 13.2387 22.0881 13.2249C22.0725 13.2316 22.0336 13.2297 22.0108 13.2207ZM25.5557 13.3285C24.9699 13.3475 24.3793 13.2464 23.7793 13.1679C23.3168 13.2749 22.749 13.2484 22.297 13.2282C22.3313 13.2417 22.3609 13.2663 22.3859 13.3025C23.4348 13.3084 24.4794 13.3251 25.5355 13.3468C25.7216 13.3412 25.9075 13.3359 26.0939 13.3304C25.928 13.3176 25.7421 13.3229 25.5557 13.3285ZM32.9975 13.1838L33.0091 13.1883C33.2225 13.1801 33.4384 13.1995 33.6472 13.2029C33.8493 13.1906 34.0399 13.1733 34.242 13.161C33.8239 13.1542 33.4086 13.1744 32.9975 13.1838ZM38.9199 13.2944C38.9083 13.2899 38.8925 13.297 38.8698 13.2881C38.4476 13.2926 38.021 13.3744 37.5966 13.4177C37.6739 13.4219 37.7509 13.4259 37.8282 13.43C38.0598 13.4423 38.2959 13.4434 38.5391 13.4603C38.6482 13.4506 38.7639 13.4569 38.8727 13.4471C38.875 13.4084 38.8858 13.347 38.9199 13.2944ZM40.5035 13.0769C40.4833 13.0953 40.4627 13.1135 40.447 13.1206C40.5718 13.1038 40.6965 13.0874 40.8214 13.0706C40.7167 13.069 40.6126 13.0672 40.5035 13.0769ZM46.9861 13.1325C46.305 13.1274 45.6307 13.1379 44.9471 13.1051C44.8926 13.1099 44.8514 13.0807 44.8104 13.0512C44.6015 13.0479 44.3767 13.0512 44.1633 13.0595C43.978 13.1966 43.6467 13.237 43.4673 13.2586C43.3426 13.2751 43.2291 13.2959 43.1158 13.3173C43.6925 13.321 44.2578 13.3202 44.8413 13.3396C45.2594 13.3463 45.6796 13.3807 46.0928 13.3986C46.0991 13.3488 46.1332 13.2962 46.1895 13.2528C46.3981 13.1244 46.6525 13.1457 46.8814 13.131C46.9475 13.1307 47.0178 13.1187 47.0836 13.1183C47.0518 13.1321 47.0133 13.1303 46.9861 13.1325ZM50.0106 14.9948C49.7588 14.6328 49.4682 14.2028 49.129 13.9639C49.0517 13.9598 48.9767 13.9169 48.9375 13.8488C48.9241 13.8171 48.9057 13.797 48.8919 13.7652C48.8781 13.7334 48.8755 13.7061 48.8777 13.6677C48.7686 13.6773 48.6644 13.6756 48.5599 13.6736C48.5714 13.6782 48.5781 13.6942 48.6009 13.7032C48.8152 13.8929 49.0454 14.0755 49.2553 14.2765C49.4768 14.482 49.6683 14.7288 49.8854 14.9455C49.9698 15.0314 50.0699 15.1105 50.1543 15.1964C50.111 15.1397 50.0606 15.0672 50.0106 14.9948ZM58.0705 26.4552C57.6478 25.8939 57.2724 25.3123 56.9015 24.7191C57.1558 25.1744 57.4057 25.641 57.6645 26.0847C57.7034 26.1527 57.7422 26.2206 57.781 26.2886C57.9521 26.4216 58.1187 26.5662 58.2759 26.7334C58.2076 26.6405 58.1389 26.5478 58.0705 26.4552ZM63.2131 32.4791C63.1089 32.4773 63.0156 32.4798 62.9225 32.4828C62.9181 32.4941 62.8979 32.5124 62.8818 32.5194C62.85 32.5332 62.8298 32.5516 62.8052 32.5812C62.8052 32.5812 62.7962 32.604 62.7917 32.6155C62.8029 32.62 62.8187 32.6128 62.8302 32.6174C62.8802 32.6241 62.9348 32.6193 62.9845 32.6255C63.0005 32.6189 63.0233 32.6278 63.0391 32.6207C63.0507 32.6253 63.0775 32.6229 63.0775 32.6229C63.1164 32.6248 63.1436 32.6226 63.1822 32.6244C63.1933 32.5632 63.1997 32.5131 63.2131 32.4791ZM64.8575 34.876C64.831 35.0101 64.7929 35.1396 64.7708 35.2625C64.8855 35.0053 65.0155 34.741 65.0963 34.4703C65.161 34.2723 65.2305 34.0628 65.2724 33.8558C65.3102 33.6601 65.1801 33.5566 65.0319 33.4322C64.9729 33.3826 64.9158 33.3601 64.8522 33.3221C64.7637 33.3136 64.6725 33.2776 64.5724 33.2645C64.4043 33.2246 64.2228 33.2187 64.0525 33.2172C63.7162 33.2033 63.389 33.1663 63.0576 33.1411C63.0076 33.1343 62.9418 33.1347 62.8801 33.1238C63.0314 33.4069 63.176 33.674 63.3317 33.946L63.3385 33.9616C63.4 33.9729 63.468 33.9997 63.5345 34.0652C63.7743 34.3569 64.0141 34.6485 64.2382 34.9474C64.24 34.9088 64.2579 34.8633 64.2715 34.8289C64.3466 34.4378 64.9398 34.5006 64.8575 34.876ZM56.2808 38.3347C56.3851 38.3361 56.4897 38.338 56.5938 38.3397C56.2372 38.2778 55.8874 38.2323 55.5442 38.1364C55.4601 38.1166 55.4119 38.0713 55.3847 38.0079C55.2957 37.9992 55.196 37.9862 55.1074 37.9776C55.0761 38.0572 55.0332 38.1322 54.9905 38.2077C55.422 38.2461 55.8535 38.2845 56.2808 38.3347ZM55.5277 34.7765C55.5343 34.7925 55.5343 34.7925 55.5415 34.8082C55.5504 34.7854 55.5594 34.7627 55.5638 34.7514C55.5567 34.7357 55.5455 34.7313 55.5385 34.7151C55.5455 34.7313 55.5366 34.7537 55.5277 34.7765ZM54.4259 36.9725C54.606 36.6491 54.7791 36.3095 54.9476 35.9814C54.952 35.9702 54.9566 35.9587 54.961 35.9474C54.9382 35.9385 54.9154 35.9295 54.886 35.9045C54.7103 36.2168 54.5986 36.5672 54.4073 36.8862C54.3822 36.916 54.3642 36.9616 54.3508 36.9956C54.387 36.9706 54.4144 36.968 54.4259 36.9725ZM52.2712 40.6735C52.6334 39.9877 53.0253 39.327 53.3942 38.6568C53.322 38.7733 53.2499 38.8894 53.1778 39.0056C52.8695 39.5547 52.5545 40.0882 52.2234 40.6284C52.2462 40.6374 52.2528 40.6534 52.2712 40.6735ZM28.1786 35.0867C28.2448 35.152 28.229 35.2248 28.1843 35.2728C28.2776 35.3359 28.3638 35.3832 28.4572 35.4463C29.0154 35.7974 29.6249 36.051 30.1673 36.4092C31.2973 37.1436 32.4515 37.7826 33.624 38.4418C33.7218 38.4937 33.831 38.5496 33.9287 38.6015C33.9311 38.5628 33.9445 38.5288 33.958 38.4944C33.5298 38.2472 33.1018 37.9995 32.6737 37.7519C31.4262 37.0498 30.2122 36.2953 28.9937 35.5524C28.7274 35.3948 28.4495 35.2327 28.1786 35.0867ZM26.0439 34.035C26.4689 34.1896 26.8493 34.3917 27.2703 34.5575C27.3043 34.5709 27.3271 34.5799 27.3611 34.5933C26.9444 34.3506 26.5232 34.1186 26.1022 33.8871C26.0114 33.917 25.9251 33.9356 25.832 33.9386C25.8844 33.9722 25.9594 34.0151 26.0439 34.035ZM20.451 24.2832C20.5852 24.3097 20.717 24.3091 20.8512 24.3356C21.2374 24.4222 21.6281 24.4972 22.0167 24.5449C22.3939 24.5887 22.7798 24.6091 23.1504 24.7025C23.3301 24.747 23.4936 24.7985 23.6599 24.8769C23.8148 24.9514 23.9674 25.0637 24.1537 25.0585C24.274 25.0533 24.3382 25.2232 24.2115 25.2785C23.9213 25.414 23.5822 25.2407 23.2825 25.2016C22.9052 25.1583 22.5197 25.2036 22.1379 25.1714C21.761 25.1282 21.3676 25.0258 21.0128 24.9253C20.8491 24.8742 20.6968 24.8271 20.5241 24.7988C20.374 24.7789 20.2011 24.6844 20.0422 24.6879C20.0837 24.8488 20.1139 25.0052 20.1128 25.1757C20.1071 25.4233 20.0357 25.6713 19.9845 25.901C20.899 25.8143 21.8733 25.843 22.7818 25.9381C24.9809 26.1603 27.012 26.8419 29.0568 27.6213C30.9313 28.3335 32.8041 29.2164 34.5552 30.2088C35.4383 30.7013 36.3557 31.1417 37.2006 31.6982C37.6314 31.9728 38.2343 32.2103 38.3754 32.7527C38.4631 33.0634 37.9438 33.2139 37.8288 32.9054C37.7344 32.6447 37.3298 32.5379 37.1113 32.4255C36.7836 32.2571 36.4489 32.0726 36.1211 31.9037C35.691 31.695 35.2584 31.459 34.8372 31.227C34.808 31.2681 34.7557 31.3002 34.6874 31.2732C34.3557 31.1818 34.0281 31.0791 33.7031 31.0037C33.3893 30.9327 33.0553 30.8801 32.7464 30.7976C32.6854 30.9186 32.5611 31.0008 32.3974 30.9497C29.8823 30.1952 27.459 29.1092 24.8748 28.5644C23.7608 28.3227 22.6361 28.1424 21.5154 27.8851C20.9995 27.7608 20.4022 27.7093 19.8662 27.669C19.8541 28.0327 19.8924 28.403 20.0169 28.7541C20.1035 28.8672 20.186 28.992 20.2252 29.1257C20.3004 29.1683 20.3825 29.227 20.4575 29.2699C20.7445 29.4748 21.0182 29.7143 21.267 29.9832C21.6801 30.4351 22.0865 30.8714 22.5492 31.2643C22.6289 31.2297 22.7218 31.227 22.8018 31.3241C23.0094 31.5639 23.3232 31.6349 23.594 31.7812C23.8648 31.9272 24.1155 32.0916 24.3822 32.2493C24.9786 32.603 25.616 32.9197 26.2375 33.2435C27.3368 33.8212 28.4454 34.4423 29.5067 35.0839C30.7252 35.8268 31.9481 36.5585 33.2047 37.2379C33.7806 37.5438 34.3406 37.8563 34.892 38.1918C35.3039 38.4464 35.8004 38.7206 36.1724 39.0778C37.246 39.4874 38.3151 39.9086 39.3621 40.3871C40.1447 40.7348 40.9186 41.1057 41.7124 41.3921C42.1831 41.5642 42.6676 41.7025 43.1293 41.8978C43.1682 41.8997 43.1906 41.9086 43.2204 41.9337C43.5003 42.0569 43.7756 42.1917 44.0217 42.3676C44.0923 42.4217 44.0997 42.5036 44.0728 42.572C44.2091 42.6257 44.35 42.6679 44.4639 42.7128C44.9163 42.8647 45.3848 42.944 45.8326 43.1074L45.8442 43.112C45.9555 43.1295 46.0623 43.1587 46.1782 43.1646C46.5622 43.224 46.9231 43.2083 47.3068 43.2015C47.5428 43.2026 47.7793 43.2695 48.002 43.3045C48.0745 43.2541 48.158 43.2085 48.2373 43.1737C48.3169 43.1395 48.396 43.1051 48.4753 43.0703C48.575 43.0177 48.6631 42.9605 48.7584 42.919C49.0847 42.758 49.4522 42.6927 49.8011 42.6066C49.1946 42.0125 48.5264 41.4731 47.9019 40.9245C47.0148 40.1409 46.1161 39.3531 45.229 38.5695C44.3898 37.831 43.5937 37.0837 42.8042 36.2859C42.5143 35.9878 42.22 35.701 41.9168 35.4365C41.8006 35.3644 41.6799 35.3039 41.5525 35.2274C40.9672 34.8785 40.4069 34.4999 39.8556 34.0984C39.5799 33.8979 39.8572 33.56 40.1348 33.656C40.1751 33.5537 40.2838 33.4783 40.4157 33.5432C41.5289 34.0871 42.621 34.5834 43.5899 35.3596C44.4217 36.0161 45.2018 36.7045 45.9886 37.4093C46.1366 37.5332 46.2781 37.6417 46.4261 37.7656C47.2037 38.4271 47.9246 39.1319 48.6907 39.7888C48.7766 39.7044 48.9104 39.6648 49.0292 39.7643C49.4233 40.0641 49.7724 40.4123 50.0966 40.7898C50.1262 40.8144 50.14 40.8462 50.1698 40.8713C50.181 40.8757 50.1994 40.8959 50.1878 40.8914C50.206 40.9119 50.2176 40.9165 50.236 40.9367C50.302 41.0024 50.3592 41.0905 50.4096 41.163C50.478 41.2556 50.5261 41.3668 50.5475 41.4801C50.6431 41.5704 50.7345 41.6725 50.8301 41.7628C50.8821 41.6646 50.9269 41.5511 50.9786 41.4528C51.1291 41.1703 51.2984 40.9082 51.4786 40.6504C51.9089 39.9918 52.301 39.3307 52.6859 38.6539C53.0619 37.9998 53.4605 37.355 53.8432 36.7166C54.1743 36.1765 54.4713 35.6229 54.773 35.0578C54.7704 35.0304 54.7793 35.0077 54.7726 34.992C54.7968 34.8307 54.8051 34.676 54.8178 34.5102C54.7102 34.3495 54.6144 34.1931 54.5112 34.0212C54.2024 33.5707 53.982 33.0632 53.6688 32.6239C53.3259 32.16 52.9424 31.7327 52.5837 31.276C52.4168 31.0656 52.2432 30.8393 52.0765 30.6291C52.0328 30.5725 51.9966 30.532 51.9484 30.4867C51.9372 30.4822 51.919 30.4617 51.9074 30.4571C51.7153 30.5787 51.3652 30.5331 51.2961 30.3086C51.1225 30.0823 50.9601 29.8604 50.7909 29.6228C50.2486 29.1986 49.7263 28.7563 49.1589 28.3619C48.3708 27.8278 47.6817 27.1748 46.8891 26.652C45.9463 26.044 44.965 25.4995 44.0174 24.9026C42.0951 23.7115 40.04 22.6912 37.9332 21.8348C36.8913 21.4113 35.8178 21.0669 34.7625 20.6774C33.7251 20.3084 32.69 19.9006 31.6418 19.5929C30.4412 19.2381 29.2365 18.9606 28.0363 18.606C27.579 18.4655 27.1039 18.3702 26.6404 18.2795C26.1315 18.2369 25.6365 18.2262 25.1281 18.2494C24.6308 18.277 24.0828 18.5344 23.6009 18.4235L23.5896 18.4191C23.4945 18.4602 23.3992 18.5016 23.3043 18.5431C23.3861 18.6017 23.4185 18.7198 23.3938 18.8153C23.293 19.0384 23.1689 19.2527 23.0498 19.4552C23.9343 19.2781 24.8018 19.2778 25.6991 19.3685C26.7623 19.4715 27.8247 19.509 28.8658 19.735C29.8502 19.9386 30.8662 20.1944 31.799 20.5619C32.2995 20.7591 32.8087 20.9334 33.3137 21.1194C33.7052 21.2603 34.0597 21.3607 34.3406 21.6815C34.432 21.7835 34.3286 21.9793 34.1899 21.9643C33.3035 21.8123 32.4186 21.4239 31.5882 21.0968C30.6667 20.7337 29.6621 20.4828 28.7006 20.2879C27.7618 20.1022 26.7969 20.0509 25.8451 19.965C24.8547 19.8773 23.9002 19.7644 22.9114 19.9401C22.8684 19.9495 22.8456 19.9405 22.8069 19.9382C22.7194 20.1273 22.6204 20.3118 22.5258 20.4851C23.0282 20.5778 23.5415 20.6091 24.0189 20.7316C24.8508 20.9541 25.6827 21.111 26.5192 21.3219C27.4015 21.5513 28.3036 21.7622 29.1658 22.0755C29.8071 22.3153 30.7825 22.5416 31.1963 23.1254C31.2467 23.1979 31.1974 23.3231 31.1017 23.2987C30.2972 23.1392 29.5597 22.8094 28.7843 22.5432C27.9064 22.237 26.9927 22.0215 26.0834 21.7949C25.2467 21.5835 24.3942 21.3792 23.5488 21.1907C23.1167 21.086 22.6784 21.032 22.2624 20.9203C22.0755 21.2281 21.8771 21.5314 21.6857 21.8504C23.142 21.9901 24.6071 22.1729 26.046 22.49C26.8072 22.6587 27.5488 22.9112 28.2723 23.2097C28.5677 23.3261 29.3862 23.517 29.2726 23.9719C29.2662 24.022 29.196 24.0336 29.1617 24.0201C28.9798 23.9484 28.8093 23.9473 28.6186 23.898C28.282 23.8181 27.9727 23.6699 27.6429 23.5399C26.9376 23.262 26.1964 23.0753 25.4463 22.9114C24.1097 22.6346 22.7514 22.4809 21.4062 22.2927C21.305 22.45 21.1988 22.6187 21.0975 22.776C21.1361 22.7778 21.1861 22.7846 21.225 22.7866C21.5178 22.81 21.8043 22.8836 22.0953 22.9456C22.6998 23.0785 23.309 23.2003 23.918 23.3216C24.5272 23.4434 25.1205 23.5718 25.723 23.7436C25.9866 23.8082 26.2411 23.8951 26.4868 24.0053C26.7053 24.1177 26.9194 24.2413 27.1559 24.3082C27.297 24.3508 27.2548 24.5577 27.1301 24.5742C26.5993 24.6542 26.0965 24.4298 25.5872 24.3214C24.9712 24.184 24.3482 24.0305 23.7321 23.893C23.1278 23.7598 22.523 23.6268 21.923 23.4827C21.5637 23.3934 21.164 23.3412 20.7888 23.2594C20.5905 23.5623 20.3924 23.8657 20.194 24.169C20.2444 24.2415 20.3397 24.2657 20.451 24.2832ZM25.2613 27.2832C25.4249 27.3347 25.6002 27.3904 25.7637 27.4419C27.2351 27.9426 28.6928 28.4117 30.1395 28.9424C29.871 28.8232 29.5983 28.7158 29.3252 28.6082C27.9897 28.0954 26.6525 27.6207 25.2613 27.2832ZM46.1978 25.5381C46.1866 25.5337 46.1798 25.5181 46.1682 25.5135C46.1754 25.5293 46.1866 25.5337 46.1978 25.5381ZM39.2796 21.7866C39.2978 21.8071 39.3162 21.8273 39.3296 21.8589C39.878 22.1013 40.4177 22.3666 40.9571 22.6318C40.8181 22.5507 40.6748 22.4809 40.5246 22.3954C40.1304 22.1615 39.7028 21.9796 39.2796 21.7866ZM40.6681 21.5975C40.3242 21.3696 39.9689 21.1377 39.5909 20.9625C39.459 20.8975 39.3222 20.8437 39.1747 20.7855C39.1841 20.8285 39.1819 20.8669 39.1867 20.9215C39.1979 20.9259 39.2095 20.9305 39.2095 20.9305C39.7077 21.1664 40.1901 21.3431 40.6681 21.5975ZM32.2886 19.0192C32.0633 18.9567 31.8269 18.8899 31.5975 18.8388C31.4474 18.8189 31.2976 18.7996 31.1634 18.7731C30.9838 18.7286 30.7884 18.6909 30.6088 18.6464C30.5908 18.692 30.5728 18.7376 30.5321 18.7742C31.1052 18.921 31.6692 19.0906 32.24 19.2762C32.2143 19.1737 32.2344 19.0897 32.2886 19.0192ZM23.3036 17.9776C23.6253 17.8281 23.9537 17.6943 24.2985 17.62C24.3146 17.613 24.3415 17.6106 24.3688 17.608C24.0986 17.5939 23.8215 17.5633 23.5492 17.5876C23.5334 17.5947 23.5062 17.597 23.4946 17.5924C23.4856 17.6152 23.4767 17.638 23.4677 17.6608C23.4228 17.7747 23.3597 17.8681 23.3036 17.9776ZM19.2916 25.8252C19.3282 25.8659 19.3535 25.9023 19.3536 25.9679C19.3808 25.9657 19.3968 25.959 19.4241 25.9564C19.466 25.7494 19.515 25.5581 19.5685 25.3556C19.5886 25.2717 19.5928 25.1943 19.5924 25.1286C19.5049 25.3176 19.4081 25.5294 19.3047 25.7251C19.2912 25.7594 19.2893 25.798 19.2916 25.8252ZM19.0244 20.3677C19.1158 20.5354 19.1801 20.7053 19.2558 20.8801C19.325 21.0385 19.4414 21.1767 19.4739 21.3604C19.4903 21.4195 19.4495 21.4561 19.4178 21.4699C19.4956 21.6055 19.569 21.7531 19.6584 21.8931C19.6834 21.9293 19.7088 21.9656 19.7293 22.0134C19.8059 21.8857 19.8754 21.7422 19.9521 21.6144C20.242 21.0451 20.5302 20.514 20.884 19.9828C21.2535 19.4448 21.5324 18.8707 21.9363 18.3459C22.0738 18.1636 22.2159 17.9037 22.3919 17.7232C22.3645 17.7258 22.3489 17.7326 22.3261 17.7236C21.9943 17.6982 22.074 17.2299 22.3758 17.2306C22.5345 17.2275 22.6912 17.1969 22.8364 17.1622C22.8454 17.1394 22.8498 17.1282 22.87 17.1098C22.8215 16.9328 23.0207 16.7614 23.1958 16.8831C23.2142 16.9033 23.237 16.9122 23.2552 16.9328C23.2552 16.9328 23.2552 16.9328 23.2668 16.9373C23.3457 16.8368 23.5182 16.8655 23.5736 16.9922C23.6438 16.9806 23.7185 16.9574 23.7958 16.9615C24.2045 16.9253 24.6289 16.948 25.0308 16.9618C25.9323 16.9748 26.812 17.1768 27.7074 17.3061C28.6025 17.4352 29.4867 17.6257 30.3754 17.8049C30.8502 17.9001 31.3141 18.0566 31.8028 18.1175C32.114 18.1611 32.3934 18.153 32.6709 18.315C32.771 18.3281 32.8778 18.3572 32.9735 18.3815C33.6645 18.5619 34.3467 18.7647 35.0288 18.9678C35.7224 19.1755 36.4139 19.4216 37.0963 19.6905C37.1759 19.7218 37.2439 19.7486 37.3238 19.7801C37.3871 19.6864 37.5024 19.627 37.6433 19.6691C38.3822 19.8946 39.1393 20.0747 39.8469 20.3794C40.4976 20.6621 41.0877 21.0659 41.6869 21.4465C43.0648 22.3183 44.4085 23.1761 45.6826 24.1778C46.1841 24.573 46.7015 24.9607 47.2028 25.3554C47.2663 25.3278 47.3321 25.3274 47.3959 25.3659C48.2543 25.8224 49.0282 26.2589 49.7805 26.8841C50.5261 27.4933 51.2846 28.0028 51.9715 28.6941C52.0671 28.7845 52.1587 28.8861 52.2499 28.9877C52.3159 28.9878 52.3794 29.0258 52.4298 29.0983C52.5236 29.2271 52.6173 29.3564 52.7156 29.4737C53.1148 29.8942 53.5301 30.3077 53.9249 30.7394C54.2469 31.0898 54.6096 31.4036 54.9154 31.761C55.1232 32.0003 55.3585 32.2376 55.3917 32.5532C55.5217 32.657 55.6087 32.8359 55.6276 32.9883C55.6609 33.2379 55.6235 33.4994 55.6021 33.7541C55.7173 33.6282 55.9989 33.6473 56.0634 33.8833C56.096 34.001 56.2032 34.0959 56.2468 34.2183C56.2887 34.3794 56.2755 34.5455 56.2515 34.707C56.1962 35.014 56.0796 35.3098 55.9447 35.5855L55.9559 35.5899C56.1352 36.0023 55.7544 36.6018 55.5836 36.9686C55.5051 37.1349 55.4263 37.301 55.359 37.4718C55.8316 37.4737 56.3221 37.4961 56.7898 37.5095C57.1689 37.5143 57.5276 37.4713 57.909 37.5034C58.3905 37.5485 58.8631 37.6161 59.3404 37.673C60.2673 37.7883 61.221 37.8352 62.1325 38.0235C62.4736 38.0919 62.8098 38.1717 63.1463 38.252C63.1553 38.2292 63.1598 38.2177 63.1688 38.1949C63.3575 37.7829 63.5235 37.3615 63.6778 36.936C63.6573 36.8882 63.6367 36.8408 63.6203 36.7817C63.5972 36.7066 63.6196 36.6499 63.6536 36.5976C63.5871 36.4662 63.5161 36.3463 63.4565 36.2304C63.2294 35.7729 62.826 35.4297 62.5421 35.0157C61.9181 34.0989 61.4409 33.1086 60.9317 32.1326C60.3955 31.0928 59.6601 30.2244 58.9745 29.2966C58.3254 28.4095 57.7621 27.504 57.2285 26.5572C57.1874 26.528 57.1396 26.4829 57.0985 26.4534C56.9824 26.3813 56.9659 26.2565 57.0018 26.1654C56.4267 25.1236 55.8833 24.068 55.2563 23.0581C54.6546 22.0848 54.0754 21.12 53.557 20.1006C53.5044 20.0009 53.4518 19.9012 53.3991 19.8015C53.3763 19.7925 53.3648 19.788 53.3464 19.7678C52.8922 19.2207 52.4897 18.641 52.0759 18.0572C51.7557 17.6026 51.4107 17.1772 51.095 16.711C50.9379 16.6094 50.7921 16.5127 50.6622 16.4089C50.2995 16.0951 49.9551 15.7359 49.5969 15.4105C49.2386 15.0855 48.9418 14.7053 48.5724 14.3755C48.4173 14.2359 48.2623 14.0958 48.1115 13.9441C48.0741 14.1399 47.8409 14.2979 47.6314 14.1627C47.3169 13.9598 46.5543 14.0279 46.1957 14.0048C45.6052 13.9693 45.0056 13.9566 44.4104 13.9327C43.7067 13.9182 42.994 13.9266 42.2811 13.9352C41.9956 14.1253 41.5231 14.0573 41.2052 14.0637C40.4879 14.0835 39.7841 14.0691 39.0687 14.0504C37.3186 14.1234 35.5571 14.1922 33.7931 14.2334C31.4366 14.2781 29.0626 14.0659 26.7098 13.9675C25.4199 13.9063 24.1348 13.8997 22.8497 13.893C22.6794 13.8915 22.5206 13.895 22.3503 13.8935C22.2449 14.1281 22.055 14.3428 21.9242 14.5411C21.5073 15.1657 21.1497 15.84 20.7397 16.4806C20.3544 17.0918 19.9986 17.7275 19.5428 18.2841C19.3149 18.5624 19.1143 18.8384 18.9319 19.1347C18.8168 19.3262 18.7159 19.5493 18.5851 19.7476C18.7565 19.9468 18.9004 20.148 19.0244 20.3677ZM17.4377 18.1912C17.6593 18.4624 17.8717 18.7567 18.0775 19.035C18.255 18.6842 18.5326 18.3465 18.7449 18.075C19.185 17.5252 19.5749 16.9685 19.9627 16.3851C20.3546 15.7899 20.7538 15.2106 21.164 14.636C21.3153 14.4195 21.4709 14.1912 21.6446 13.9835C21.6696 13.9541 21.6988 13.9129 21.7395 13.8763C21.701 13.8745 21.6737 13.8767 21.6348 13.8748C21.097 13.873 20.5542 13.8827 20.0117 13.8925C19.9664 13.9407 19.9213 13.9885 19.8877 14.0408C19.7139 14.2486 19.5558 14.4495 19.4071 14.6934C19.0962 15.2152 18.7647 15.6895 18.402 16.1775C18.05 16.6701 17.6893 17.1857 17.4128 17.721C17.3653 17.8076 17.325 17.9099 17.2801 18.0239C17.3235 18.0802 17.3783 18.1415 17.4377 18.1912ZM16.2061 18.4158C16.2105 18.4046 16.215 18.3931 16.2195 18.3818C16.1829 18.3411 16.1508 18.2888 16.1142 18.2481C16.1351 18.2959 16.1623 18.3593 16.2061 18.4158ZM16.5241 17.1081C16.5675 17.1644 16.6063 17.2324 16.6613 17.2933C16.9584 16.7398 17.319 16.2242 17.6867 15.7248C18.0294 15.2548 18.4157 14.8417 18.7288 14.3471C18.821 14.2126 18.9137 14.0782 19.0177 13.9479C18.668 13.968 18.3228 13.9766 17.9731 13.9968C17.8535 14.1339 17.7818 14.3158 17.6734 14.4573C17.5609 14.6102 17.3957 14.7294 17.2829 14.8822C17.1455 15.0645 17.0259 15.2672 16.9111 15.4589C16.6813 15.8417 16.4291 16.2158 16.1877 16.594C16.3068 16.7592 16.4099 16.9314 16.5241 17.1081ZM16.1789 15.2494C16.4316 14.8752 16.6383 14.4832 16.9731 14.168C17.0134 14.1313 17.0312 14.0861 17.0676 14.0607C16.2823 14.1194 15.4858 14.1741 14.7118 14.2372C14.587 14.2537 14.5026 14.1678 14.4726 14.0774C14.4566 14.0841 14.4294 14.0863 14.4137 14.0935C14.4249 14.0979 14.432 14.1136 14.4433 14.1181C14.6714 14.3396 14.8473 14.5931 15.0393 14.8396C15.3112 15.1833 15.5196 15.5549 15.7396 15.9307C15.8883 15.6868 16.0281 15.4657 16.1789 15.2494ZM14.164 14.6264C14.4796 15.0269 14.7496 15.4751 15.0492 15.8823C15.0742 15.9184 15.0993 15.9546 15.1291 15.9797C14.9662 15.692 14.8038 15.4045 14.6051 15.142C14.4243 14.8999 14.2687 14.6279 14.0519 14.4114C13.9859 14.3457 13.9082 14.2757 13.8421 14.21C13.9541 14.3595 14.0591 14.4927 14.164 14.6264Z" fill="#0A141E"/>
</g>
</g>
</svg>
