<svg width="99" height="91" viewBox="0 0 99 91" fill="none" xmlns="http://www.w3.org/2000/svg">
<path d="M82.995 30.9365C83.4932 30.6762 83.7423 30.2863 84.0368 29.8311C84.2859 29.4405 84.625 29.0934 84.9195 28.7249C85.7345 28.2917 86.6856 27.9879 87.569 27.7496C88.6331 27.4466 89.7426 27.2076 90.8751 27.3378C91.418 27.4032 91.8709 27.5113 92.3237 27.8364C92.732 28.1181 93.0034 28.313 93.547 28.2269C93.9768 28.1402 94.0906 27.6629 93.9314 27.3378C93.8868 27.251 93.8415 27.2076 93.7731 27.1428C93.5016 26.7957 93.0941 26.536 92.6636 26.3625C92.5282 25.9286 92.2107 25.5821 92.03 25.1048C91.6902 24.2163 91.305 23.4139 91.1919 22.4607C91.0789 21.5067 91.1012 20.4447 91.2596 19.5121C91.3734 18.7971 91.7809 18.2551 92.0523 17.6049C92.1884 17.2791 91.7809 16.9106 91.441 17.0195C90.8521 17.2144 90.3992 17.691 89.8556 17.9947C89.1537 18.3853 88.407 18.667 87.7051 19.0355C87.0708 19.3819 86.5725 19.6423 85.8029 19.5989C85.327 19.5775 85.0332 19.4039 84.7157 19.1002C84.4666 18.8619 84.1044 18.667 83.9461 18.3853C83.5609 17.7564 82.5421 18.3198 82.9273 18.9487C83.221 19.4473 83.6969 19.946 83.923 20.466C84.1044 20.8992 84.1498 21.3766 84.3312 21.8098C84.7157 22.7424 85.0555 23.6743 85.1686 24.6716C85.2816 25.7336 84.8064 26.6876 84.2175 27.5547C84.1952 27.5981 84.1498 27.6415 84.1268 27.6849C84.0821 27.7062 84.0137 27.7283 83.9684 27.7717C83.4701 28.0747 83.2664 28.5087 82.9273 28.9419C82.7912 29.1154 82.6098 29.2236 82.4967 29.3758C82.3383 29.5921 82.293 29.8311 82.1346 30.0473C81.6817 30.6114 82.4744 31.1962 82.995 30.9365ZM85.5991 21.7016C85.4407 21.3545 85.327 20.9647 85.2139 20.5962C85.8482 20.7264 86.5725 20.6609 87.1838 20.466C87.5236 20.3579 87.7951 20.1843 88.0895 19.9894C88.5201 19.707 89.0183 19.5121 89.4712 19.2951C89.811 19.1222 90.1278 18.9487 90.4676 18.7538C90.3992 18.9487 90.3539 19.1436 90.3085 19.3606C90.1732 20.2924 90.1278 21.2684 90.2408 22.2003C90.3316 23.0241 90.4899 23.8692 90.8751 24.6282C91.0559 24.9967 91.2373 25.4085 91.441 25.7557C91.5087 25.8638 91.5771 25.9506 91.6448 26.0374C91.418 25.994 91.1696 25.9506 90.9651 25.9506C89.6296 25.8418 88.3386 26.1242 87.0708 26.514C86.7309 26.6228 86.3918 26.731 86.052 26.8391C86.2781 26.2757 86.4365 25.7123 86.4365 25.1048C86.4595 23.9993 86.0743 22.7203 85.5991 21.7016Z" fill="#F0BA47"/>
<path d="M17.9557 17.833C18.6157 17.6855 19.3188 17.6084 19.9919 17.5189C21.453 17.3155 22.9341 17.3315 24.4139 17.2593C25.8274 17.1783 27.2675 17.0724 28.678 17.0432C29.372 17.0335 30.0757 17.045 30.7704 17.035C30.9108 17.0374 31.067 17.0454 31.2385 17.0601C31.2875 17.0259 31.3513 16.9981 31.4399 16.9976C31.5964 17.0063 31.7615 17.0359 31.9176 17.0439C32.3827 17.0324 32.8473 17.0206 33.2972 17.0031C33.3179 16.9049 33.4067 16.8154 33.526 16.827C34.7742 16.8937 36.0412 16.9144 37.277 16.9228C37.6902 16.9088 38.097 16.9092 38.5252 16.9012C40.4251 16.8874 42.3218 16.9259 44.2243 16.8609C45.0715 16.8226 45.9192 16.7845 46.7664 16.7461C47.1792 16.7314 47.595 16.665 47.9957 16.681C48.2776 16.6857 48.5438 16.7731 48.8343 16.7102C48.9716 16.676 49.0702 16.7857 49.1106 16.9075C49.915 16.8878 50.7259 16.9415 51.5246 16.9376C51.9162 16.9326 52.3134 16.9117 52.7085 16.9435C52.776 16.9521 52.8647 16.9516 52.9471 16.9666C53.2562 16.9465 53.5648 16.9263 53.8678 16.9218C53.8834 16.9279 53.9046 16.9183 53.9197 16.9242C55.6025 16.8784 57.2792 16.9367 58.983 16.8817C60.1272 16.854 61.2588 16.8568 62.4065 16.866C63.4495 16.8693 64.4924 16.7842 65.5354 16.7876C65.5897 16.5613 65.9033 16.3482 66.1067 16.5522C66.38 16.8017 66.452 17.1133 66.628 17.4309C66.6372 17.452 66.6617 17.4796 66.6709 17.5007C66.7293 17.4882 66.7931 17.4605 66.8666 17.454C67.2609 17.3965 67.5143 17.922 67.1821 18.1807C67.1609 18.1903 67.1609 18.1903 67.1394 18.1993C67.2657 18.3729 67.3768 18.5411 67.5032 18.7147C67.5614 18.7912 67.6139 18.8822 67.6727 18.9589C67.7055 18.8299 67.8519 18.7283 68.0236 18.8314C68.478 19.1168 68.8475 19.6165 69.1372 20.0499C69.4855 20.5592 69.8339 21.0681 70.176 21.593C71.1861 22.3986 71.9968 23.6216 72.6197 24.6467C73.752 26.4924 74.8681 28.3323 75.9727 30.2025C77.0153 31.96 78.0399 33.6748 79.293 35.3024C80.1274 36.3754 81.2753 37.7313 81.49 39.1625C81.8799 39.476 82.133 39.9124 82.4134 40.324C82.7863 40.8605 83.1321 41.4218 83.444 42.0233C83.6136 42.3558 83.7837 42.6886 83.9598 43.0062C84.7909 42.7842 85.8011 42.9165 86.5757 43.0624C87.583 43.2464 88.7538 43.6013 89.3299 44.5196C89.8729 45.3889 89.6975 46.4187 89.2946 47.3054C88.9557 48.0755 88.5312 48.7943 88.0757 49.5004C88.153 49.6198 88.2085 49.7476 88.2644 49.876L88.2733 49.8975C88.4212 50.0622 88.5783 50.2479 88.6985 50.4372C88.9387 50.815 89.0106 51.127 89.0129 51.571C89.01 51.6228 88.9707 51.6782 88.9279 51.6968C88.9318 51.9112 88.8937 52.1439 88.9342 52.3552C88.9595 52.471 88.8829 52.5298 88.7884 52.5454C88.8035 52.5514 88.7973 52.567 88.8129 52.5731C88.8593 52.6798 88.9056 52.7864 88.9367 52.8876C88.968 52.9883 88.9992 53.089 88.9996 53.1781C88.9754 53.2395 88.9663 53.3069 88.9423 53.3678C88.9095 53.4967 88.7936 53.611 88.6683 53.6145C88.6468 53.6235 88.6161 53.6114 88.5854 53.5993C88.5736 53.7191 88.5253 53.8419 88.4161 53.9402C88.2943 54.0695 88.1262 54.0917 87.9665 54.0468C87.8534 54.0197 87.7521 53.9623 87.6269 53.9659C87.5227 53.9603 87.4789 53.8012 87.5705 53.7489C87.6526 53.6748 87.7538 53.6438 87.8604 53.5974C87.8513 53.5763 87.8418 53.5546 87.8478 53.5395C87.8478 53.5395 87.8327 53.5335 87.8388 53.518C87.548 53.4917 87.2418 53.4601 86.9509 53.4338C86.4888 53.3936 86.0328 53.3378 85.5672 53.2608C84.2853 55.0769 82.948 56.8536 81.6903 58.6967C80.7729 60.0366 79.9905 61.3936 79.2446 62.8365C78.936 63.4411 78.5806 64.0274 78.2931 64.6228C78.1933 64.8318 78.0992 65.025 77.9994 65.2339C77.9814 65.2797 77.7361 65.8564 77.7899 65.6299C77.7119 65.9178 77.4772 66.1091 77.1804 66.0096C77.1648 66.0034 77.1341 65.9913 77.119 65.9854C77.049 66.1172 76.9583 66.2588 76.8884 66.3905C76.5425 66.9985 76.2735 67.6368 75.9276 68.2447C74.6169 70.4925 73.1809 72.6555 71.4831 74.6269C71.3221 74.8112 71.1237 74.9104 70.9032 74.9299C70.809 75.0346 70.7301 75.1449 70.6756 75.2833C70.7648 75.3713 70.8483 75.4752 70.9343 75.6154C71.4526 76.4575 71.1294 77.3221 70.9565 78.2111C70.7716 79.2191 70.3022 80.186 69.903 81.1091C69.8243 81.3089 69.7247 81.5174 69.6306 81.7106C69.421 82.6025 69.211 83.4943 68.94 84.362C68.7501 84.9785 68.5759 85.6006 68.2787 86.1749C68.185 86.3682 68.0879 86.5248 67.9388 86.6788C67.8441 86.7834 67.6338 86.9128 67.5703 87.0296C67.4947 87.1772 67.299 87.2239 67.1791 87.1238C67.1304 87.1575 67.0755 87.2068 67.0265 87.241C66.8711 87.3211 66.6627 87.2215 66.5977 87.072C66.557 86.9496 66.5108 86.8424 66.4645 86.7358C66.2873 86.8253 66.018 86.7901 65.8181 86.623C65.6893 86.5013 65.6243 86.3518 65.544 86.1958C65.5475 86.2326 65.5354 86.2633 65.5233 86.294C65.4507 86.4782 65.2242 86.5128 65.0435 86.4771C64.5538 86.3726 64.059 85.9653 63.6352 85.692C63.2672 85.4586 62.9387 85.1693 62.5366 84.9754C62.3925 84.9366 62.2487 84.8974 62.1046 84.8587C62.0221 84.8436 61.9667 84.8043 61.933 84.7556C61.6144 84.6655 61.2742 84.5844 60.9494 84.5099C60.8056 84.4707 60.5418 84.3313 60.3953 84.3445C60.3062 84.3449 60.1813 84.4375 60.0898 84.4899C59.9131 84.5796 59.7284 84.4184 59.7339 84.2258C59.7365 84.1733 59.7546 84.1275 59.7726 84.0817C59.7109 83.9684 59.6922 83.8372 59.7406 83.7144C59.8787 83.1839 59.9743 82.7611 60.2659 82.291C60.5054 81.9074 60.7759 81.5354 61.0557 81.1852C61.4134 80.4575 61.7949 79.7577 62.2784 79.115C63.4334 77.621 64.8768 76.2052 66.5955 75.3939C67.334 75.047 68.3507 74.6684 69.2563 74.706C69.2744 74.6602 69.2834 74.5929 69.3168 74.5525C69.4804 74.2274 69.6994 73.9416 69.9491 73.6678C70.1888 72.6994 71.2883 71.7505 71.8362 71.0802C72.8211 69.8379 73.7106 68.4347 74.5546 67.1014C75.3803 65.8144 76.1909 64.5214 76.9463 63.1886C77.2342 62.6822 77.5776 62.2151 77.915 61.7631C79.7222 58.5237 82.8265 54.5556 83.38 53.8695C83.5924 53.5991 83.8053 53.3288 84.0184 53.0581C83.201 52.9309 82.3774 52.8192 81.56 52.6919C81.4473 52.8423 81.2669 52.8956 81.0838 52.9119C80.738 52.935 80.3584 52.9098 80.0192 52.9175C79.2203 52.9219 78.3847 52.8409 77.5829 52.7198C76.8269 52.6167 76.0435 52.6273 75.287 52.524C74.7335 52.4472 74.1979 52.4135 73.6532 52.4472C73.1894 53.3099 72.7469 54.163 72.2831 55.0257C71.9165 55.7319 71.5086 56.8115 70.758 57.189C70.6237 57.26 70.479 57.1326 70.4967 56.9977C70.4999 56.9455 70.5179 56.8996 70.521 56.8474C70.4782 56.866 70.4354 56.8846 70.3771 56.8971C70.3558 56.9067 70.3407 56.9008 70.3251 56.8946C70.3191 56.9097 70.3191 56.9097 70.313 56.9253C70.2708 57.0325 70.2285 57.1397 70.171 57.2415C70.089 57.404 69.9827 57.5394 69.8855 57.6959C70.0677 57.998 69.8209 58.2199 69.5517 58.2732C69.4611 58.5032 69.3553 58.7273 69.2123 58.9546C68.9878 59.2558 68.7598 59.5201 68.4053 59.6996C68.2925 59.7616 68.1577 59.655 68.1475 59.5451C68.0988 59.5788 68.05 59.6125 68.0077 59.6313C67.8486 59.6751 67.6372 59.6272 67.5784 59.4622C67.4414 59.5855 67.2949 59.6872 67.1332 59.7833C66.8584 59.9408 66.6088 60.1256 66.3097 60.256C65.989 60.3954 65.6498 60.492 65.317 60.5737C64.9837 60.6552 64.6627 60.7055 64.3293 60.6985C64.0112 60.6971 63.7083 60.7015 63.3781 60.7308C63.0262 60.7695 62.7235 60.7746 62.3895 60.6779C62.1382 60.597 61.8595 60.54 61.6932 60.3332C61.6439 60.2783 61.6315 60.2199 61.6344 60.1682C61.4537 60.1325 61.267 60.1118 61.0863 60.0761C59.5797 59.7662 58.0581 59.5388 56.5966 59.0688C54.2121 58.2892 51.3743 57.313 49.8405 55.1847C49.0343 54.849 48.1851 54.5324 47.4035 54.1356C46.813 54.1512 46.3031 53.8264 45.7635 53.5784C45.1229 53.2725 44.4606 52.976 43.8257 52.6555C42.3476 51.9133 40.8693 51.1715 39.4213 50.3527C38.0744 49.5918 36.5377 48.8624 35.3399 47.859C34.6609 47.2903 33.9273 46.7705 33.2483 46.2018C32.5828 45.8692 31.9446 45.5113 31.395 45.0645C30.8696 44.6447 30.3381 44.2405 29.8192 43.8058C29.574 43.7092 29.3316 43.5602 29.1136 43.4388C28.5735 43.1022 28.0366 42.7133 27.554 42.2749C26.6132 41.4262 25.9872 40.3644 25.3516 39.2813C25.3179 39.2326 25.3055 39.1742 25.3079 39.1223C24.772 38.3262 24.5095 37.2837 24.4225 36.3813C24.2557 34.7387 24.8041 33.0767 25.5343 31.6276C25.5247 31.6064 25.5217 31.5697 25.5127 31.5482C25.5092 31.5113 25.4906 31.4685 25.4876 31.4319C25.3979 31.2552 25.3235 31.084 25.2278 30.9225C25.0488 30.5682 24.8848 30.2198 24.7273 29.8566C24.6931 29.8076 24.6594 29.7589 24.6195 29.7257C24.6195 29.7257 24.6039 29.7196 24.6101 29.704C24.217 29.3543 23.8234 29.0045 23.4515 28.6451C22.4767 27.6587 21.5873 26.5466 20.8351 25.3995C20.126 24.3229 19.4572 23.2797 18.9737 22.0792C18.7261 21.4502 18.3654 20.8825 18.0256 20.3061C17.7202 19.7782 17.2774 19.2845 17.0425 18.7134C16.9076 18.6958 16.8485 18.5312 16.912 18.4143C17.1759 17.9689 17.5489 17.921 17.9557 17.833ZM87.8393 53.6955C87.8272 53.7262 87.8212 53.7413 87.8393 53.6955V53.6955ZM88.0227 52.4211C88.0137 52.3996 88.0041 52.3783 87.9951 52.3568L87.98 52.3508C88.0041 52.3783 88.0137 52.3996 88.0227 52.4211ZM86.6551 51.7584C86.6395 51.7523 86.6457 51.7367 86.6306 51.7307C86.6244 51.7463 86.6244 51.7463 86.6185 51.7614C86.6244 51.7463 86.6395 51.7523 86.6551 51.7584ZM66.3267 85.5122C66.3574 85.5243 66.3725 85.5303 66.3973 85.5575C66.4123 85.475 66.4426 85.398 66.4728 85.3215C66.4119 85.3859 66.3571 85.4352 66.293 85.4635C66.3081 85.4694 66.3177 85.4907 66.3267 85.5122ZM63.7557 84.6231C63.8016 84.6411 63.8689 84.6502 63.9147 84.6683C63.933 84.622 63.9299 84.5853 63.948 84.5395C63.7336 84.455 63.5283 84.3916 63.3013 84.3376C63.4794 84.4258 63.6143 84.5319 63.7557 84.6231ZM64.0174 79.3751C63.597 79.7235 63.2563 80.1381 62.8911 80.5263C62.6535 80.7693 62.4008 81.0064 62.1728 81.2707C61.8182 81.9462 61.4451 82.5789 61.2648 83.305C61.5584 83.2788 61.8613 83.2743 62.1734 83.2909C62.3143 83.2934 62.4548 83.2953 62.5897 83.313C62.7564 82.9356 62.99 82.5672 63.1476 82.2571C63.5143 81.5509 63.9451 80.9061 64.3732 80.2241C64.8138 79.5115 65.2074 78.7811 65.5862 78.0442C65.068 78.4604 64.5475 78.9286 64.0174 79.3751ZM68.7548 75.9789C68.7179 75.9824 68.6662 75.9795 68.6234 75.9981C68.6334 76.1084 68.5911 76.2157 68.4687 76.2564C67.986 76.4028 67.5073 76.6747 67.0526 76.9741C67.0225 77.0506 66.9922 77.1276 66.9529 77.1831C66.7344 77.5575 66.4912 77.9048 66.3034 78.2913C65.9519 79.0035 65.6372 79.7121 65.2399 80.4062C64.8155 81.1246 64.3506 81.8101 63.966 82.5621C63.8204 82.8414 63.69 83.1267 63.5601 83.4122C63.612 83.4146 63.6579 83.4327 63.7101 83.4358C63.9522 83.4957 64.1879 83.5706 64.4118 83.6768C64.4632 83.5906 64.5089 83.5203 64.5482 83.4648C65.0402 82.6662 65.507 81.8401 65.9681 81.0298C66.4112 80.2653 66.7929 79.4767 67.2356 78.7115C67.6847 77.9319 68.087 77.045 68.7661 76.4445C68.821 76.3952 68.8638 76.3766 68.9158 76.379C68.8177 76.2694 68.7617 76.1415 68.7548 75.9789ZM69.2079 78.5141C69.2592 78.3395 69.7764 76.5768 69.3546 76.5699C69.3023 76.5668 69.2565 76.5488 69.2102 76.5305C69.2474 76.6161 69.2785 76.7173 69.2424 76.8089C69.0827 77.26 68.7449 77.6229 68.5389 78.0557C68.3391 78.473 68.1541 78.8966 67.9391 79.3079C67.5176 80.0634 67.1666 80.8642 66.7297 81.6131C66.4935 82.034 66.2105 82.4365 66.0141 82.8906C65.8143 83.3078 65.6204 83.7099 65.344 84.097C65.3107 84.1374 65.2709 84.1926 65.2528 84.2384C65.4678 84.4115 65.6554 84.6098 65.8216 84.8166C65.8276 84.8015 65.8335 84.7864 65.8397 84.7708C65.9238 84.4673 66.0445 84.1608 66.1962 83.8659C66.4873 83.3072 66.7904 82.7179 67.1121 82.1713C67.4273 81.6402 67.8231 81.1757 68.0924 80.6265C68.3377 80.1382 68.5558 79.6747 68.9916 79.333C69.0698 79.0446 69.1358 78.7869 69.2079 78.5141ZM29.7369 17.8151C29.0579 17.8308 28.3944 17.8531 27.715 17.8685C28.3974 17.8897 29.0644 17.9043 29.753 17.9098C29.7711 17.864 29.7983 17.8393 29.841 17.8207C29.82 17.8298 29.7676 17.8272 29.7369 17.8151ZM34.5134 17.9603C33.7241 17.9859 32.9282 17.8497 32.1198 17.744C31.4967 17.8881 30.7316 17.8523 30.1225 17.8251C30.1688 17.8434 30.2086 17.8765 30.2423 17.9253C31.6556 17.9332 33.0632 17.9558 34.4862 17.985C34.7369 17.9774 34.9874 17.9703 35.2386 17.9628C35.0151 17.9457 34.7646 17.9528 34.5134 17.9603ZM44.5408 17.7653L44.5564 17.7715C44.8439 17.7604 45.1348 17.7866 45.4162 17.791C45.6885 17.7745 45.9453 17.7512 46.2176 17.7347C45.6542 17.7255 45.0946 17.7527 44.5408 17.7653ZM52.5207 17.9144C52.5052 17.9083 52.4839 17.9179 52.4532 17.9058C51.8844 17.912 51.3096 18.0222 50.7377 18.0806C50.8419 18.0862 50.9456 18.0915 51.0498 18.0971C51.3619 18.1137 51.6799 18.1152 52.0077 18.1379C52.1547 18.1249 52.3106 18.1334 52.4571 18.1202C52.4603 18.0679 52.4748 17.9853 52.5207 17.9144ZM54.6545 17.6213C54.6273 17.6461 54.5996 17.6706 54.5784 17.6803C54.7466 17.6576 54.9147 17.6354 55.0829 17.6128C54.9419 17.6107 54.8015 17.6083 54.6545 17.6213ZM63.3894 17.6963C62.4716 17.6894 61.5631 17.7035 60.642 17.6593C60.5685 17.6658 60.5131 17.6265 60.4578 17.5867C60.1764 17.5822 59.8734 17.5867 59.5859 17.5978C59.3363 17.7826 58.8898 17.837 58.6481 17.8662C58.48 17.8883 58.327 17.9165 58.1744 17.9453C58.9516 17.9503 59.7132 17.9492 60.4995 17.9752C61.0628 17.9844 61.6289 18.0307 62.1858 18.0547C62.1942 17.9877 62.2402 17.9168 62.3161 17.8583C62.5971 17.6853 62.9399 17.714 63.2483 17.6942C63.3374 17.6938 63.4322 17.6777 63.5208 17.6771C63.478 17.6957 63.426 17.6933 63.3894 17.6963ZM67.4647 20.2055C67.1254 19.7178 66.7338 19.1384 66.2769 18.8165C66.1727 18.8109 66.0716 18.7531 66.0188 18.6613C66.0007 18.6187 65.9759 18.5915 65.9573 18.5487C65.9387 18.5059 65.9352 18.4691 65.9382 18.4173C65.7912 18.4304 65.6508 18.428 65.51 18.4254C65.5256 18.4315 65.5345 18.4531 65.5652 18.4652C65.8541 18.7209 66.1642 18.9669 66.447 19.2377C66.7455 19.5146 67.0035 19.8471 67.2961 20.1391C67.4098 20.2548 67.5446 20.3614 67.6583 20.4772C67.6 20.4007 67.5321 20.303 67.4647 20.2055ZM78.3249 35.6477C77.7553 34.8913 77.2495 34.1077 76.7498 33.3084C77.0924 33.9219 77.4291 34.5505 77.7779 35.1485C77.8302 35.24 77.8825 35.3316 77.9348 35.4231C78.1654 35.6024 78.3898 35.7972 78.6017 36.0225C78.5097 35.8973 78.417 35.7724 78.3249 35.6477ZM85.2542 43.7645C85.1139 43.7621 84.9881 43.7655 84.8627 43.7695C84.8567 43.7846 84.8295 43.8094 84.8078 43.8188C84.765 43.8374 84.7378 43.8622 84.7046 43.902C84.7046 43.902 84.6925 43.9327 84.6864 43.9483C84.7015 43.9543 84.7227 43.9446 84.7383 43.9508C84.8057 43.9599 84.8792 43.9534 84.9462 43.9618C84.9678 43.9528 84.9985 43.9649 85.0197 43.9553C85.0353 43.9614 85.0715 43.9582 85.0715 43.9582C85.1239 43.9608 85.1606 43.9578 85.2125 43.9603C85.2276 43.8778 85.2362 43.8103 85.2542 43.7645ZM87.4699 46.9941C87.4342 47.1748 87.3829 47.3494 87.3531 47.515C87.5077 47.1683 87.6829 46.8123 87.7917 46.4475C87.8788 46.1807 87.9726 45.8984 88.029 45.6195C88.08 45.3558 87.9047 45.2163 87.705 45.0487C87.6255 44.9819 87.5485 44.9516 87.4628 44.9004C87.3435 44.8888 87.2207 44.8405 87.0858 44.8228C86.8593 44.769 86.6147 44.761 86.3852 44.759C85.9321 44.7403 85.4912 44.6905 85.0447 44.6564C84.9773 44.6473 84.8887 44.6479 84.8056 44.6331C85.0094 45.0146 85.2042 45.3746 85.414 45.741L85.4231 45.762C85.5061 45.7773 85.5977 45.8134 85.6873 45.9016C86.0104 46.2946 86.3336 46.6877 86.6354 47.0903C86.6379 47.0384 86.6621 46.977 86.6803 46.9307C86.7815 46.4037 87.5808 46.4883 87.4699 46.9941ZM75.9134 51.6544C76.054 51.6563 76.1948 51.6589 76.3352 51.6613C75.8547 51.5778 75.3834 51.5165 74.9209 51.3872C74.8075 51.3606 74.7426 51.2996 74.7059 51.2142C74.5861 51.2024 74.4517 51.1849 74.3324 51.1734C74.2901 51.2806 74.2323 51.3817 74.1748 51.4834C74.7562 51.5352 75.3376 51.5869 75.9134 51.6544ZM74.8986 46.86C74.9076 46.8816 74.9076 46.8816 74.9172 46.9028C74.9293 46.8721 74.9414 46.8414 74.9473 46.8263C74.9377 46.8051 74.9226 46.7991 74.9131 46.7774C74.9226 46.7991 74.9107 46.8293 74.8986 46.86ZM73.4141 49.8191C73.6567 49.3832 73.89 48.9256 74.117 48.4836C74.123 48.4685 74.1291 48.4529 74.1351 48.4378C74.1044 48.4257 74.0737 48.4136 74.034 48.38C73.7973 48.8007 73.6467 49.2729 73.389 49.7028C73.3551 49.7429 73.3309 49.8043 73.3129 49.8501C73.3616 49.8164 73.3985 49.8129 73.4141 49.8191ZM70.5108 54.8059C70.9987 53.8818 71.5268 52.9915 72.0239 52.0885C71.9266 52.2455 71.8295 52.402 71.7323 52.5585C71.317 53.2984 70.8924 54.0173 70.4463 54.7451C70.477 54.7572 70.486 54.7787 70.5108 54.8059ZM38.0476 47.278C38.1367 47.3661 38.1155 47.4642 38.0552 47.5288C38.181 47.6138 38.2972 47.6776 38.423 47.7626C39.1751 48.2357 39.9964 48.5773 40.7272 49.0601C42.2498 50.0496 43.805 50.9106 45.3849 51.7988C45.5167 51.8687 45.6637 51.9441 45.7955 52.0141C45.7986 51.9618 45.8167 51.916 45.8349 51.8697C45.258 51.5365 44.6812 51.2029 44.1044 50.8692C42.4235 49.9232 40.7877 48.9066 39.1458 47.9056C38.787 47.6932 38.4126 47.4748 38.0476 47.278ZM35.1712 45.861C35.7439 46.0692 36.2564 46.3415 36.8237 46.565C36.8695 46.5831 36.9002 46.5951 36.946 46.6132C36.3846 46.2862 35.817 45.9736 35.2497 45.6617C35.1275 45.7019 35.0112 45.727 34.8857 45.7311C34.9563 45.7763 35.0573 45.8342 35.1712 45.861ZM27.6352 32.7211C27.8159 32.7568 27.9936 32.7559 28.1743 32.7916C28.6947 32.9083 29.2213 33.0093 29.7448 33.0737C30.253 33.1327 30.7731 33.1602 31.2724 33.286C31.5145 33.346 31.7349 33.4153 31.9589 33.5211C32.1677 33.6213 32.3732 33.7727 32.6242 33.7657C32.7863 33.7587 32.8729 33.9876 32.7022 34.0622C32.3111 34.2448 31.8542 34.0112 31.4505 33.9586C30.942 33.9001 30.4226 33.9612 29.9082 33.9178C29.4003 33.8596 28.8702 33.7217 28.3921 33.5862C28.1716 33.5173 27.9663 33.4539 27.7336 33.4157C27.5314 33.389 27.2984 33.2617 27.0843 33.2663C27.1402 33.4831 27.181 33.694 27.1794 33.9236C27.1718 34.2573 27.0756 34.5915 27.0066 34.901C28.2388 34.7841 29.5516 34.8228 30.7757 34.951C33.7389 35.2504 36.4757 36.1688 39.2309 37.2189C41.7566 38.1786 44.2801 39.3682 46.6396 40.7054C47.8295 41.369 49.0656 41.9625 50.2041 42.7122C50.7846 43.0822 51.597 43.4023 51.787 44.1331C51.9052 44.5518 51.2055 44.7546 51.0506 44.3389C50.9233 43.9876 50.3782 43.8437 50.0837 43.6922C49.6422 43.4654 49.1913 43.2167 48.7495 42.9892C48.1701 42.708 47.5872 42.3899 47.0196 42.0773C46.9803 42.1328 46.9098 42.176 46.8177 42.1397C46.3708 42.0165 45.9294 41.8781 45.4914 41.7764C45.0686 41.6808 44.6186 41.6099 44.2024 41.4988C44.1202 41.6618 43.9527 41.7725 43.7321 41.7037C40.3432 40.6871 37.078 39.2238 33.5959 38.4897C32.0949 38.164 30.5795 37.921 29.0694 37.5743C28.3742 37.4068 27.5695 37.3375 26.8472 37.2831C26.8308 37.7733 26.8825 38.2722 27.0502 38.7453C27.167 38.8977 27.278 39.0658 27.3309 39.246C27.4322 39.3033 27.5429 39.3824 27.644 39.4403C28.0306 39.7164 28.3994 40.0391 28.7346 40.4014C29.2913 41.0104 29.8389 41.5982 30.4623 42.1276C30.5697 42.081 30.6949 42.0774 30.8027 42.2082C31.0825 42.5313 31.5053 42.6269 31.8701 42.8241C32.2351 43.0209 32.5729 43.2423 32.9322 43.4549C33.7358 43.9314 34.5946 44.3581 35.4321 44.7945C36.9134 45.5729 38.4071 46.4097 39.837 47.2743C41.4789 48.2753 43.1268 49.2612 44.8198 50.1766C45.5959 50.5888 46.3505 51.0099 47.0934 51.462C47.6484 51.8051 48.3175 52.1745 48.8186 52.6557C50.2653 53.2077 51.7059 53.7753 53.1165 54.42C54.1711 54.8884 55.2138 55.3882 56.2834 55.7742C56.9177 56.0061 57.5706 56.1924 58.1926 56.4555C58.245 56.4581 58.2752 56.47 58.3154 56.5039C58.6925 56.6699 59.0634 56.8515 59.3951 57.0886C59.4902 57.1615 59.5002 57.2719 59.4639 57.364C59.6476 57.4364 59.8375 57.4932 59.991 57.5536C60.6005 57.7583 61.2318 57.8652 61.8352 58.0855L61.8508 58.0916C62.0008 58.1152 62.1447 58.1545 62.3008 58.1625C62.8182 58.2425 63.3045 58.2213 63.8215 58.2122C64.1396 58.2137 64.4582 58.3038 64.7582 58.351C64.8559 58.2831 64.9685 58.2216 65.0754 58.1748C65.1825 58.1286 65.2892 58.0823 65.396 58.0354C65.5304 57.9645 65.6491 57.8874 65.7775 57.8316C66.2171 57.6147 66.7123 57.5266 67.1825 57.4106C66.3652 56.6101 65.4648 55.8832 64.6233 55.1441C63.4281 54.0882 62.2171 53.0267 61.0219 51.9709C59.8911 50.9759 58.8185 49.9689 57.7546 48.8939C57.364 48.4922 56.9674 48.1057 56.5588 47.7494C56.4023 47.6523 56.2397 47.5707 56.068 47.4676C55.2793 46.9975 54.5244 46.4873 53.7816 45.9464C53.4101 45.6761 53.7837 45.221 54.1578 45.3503C54.2121 45.2124 54.3585 45.1108 54.5363 45.1983C56.0362 45.9311 57.5078 46.5999 58.8133 47.6457C59.9341 48.5304 60.9851 49.4579 62.0454 50.4077C62.2448 50.5746 62.4355 50.7207 62.6349 50.8876C63.6827 51.779 64.654 52.7286 65.6862 53.6138C65.802 53.5001 65.9823 53.4468 66.1423 53.5807C66.6733 53.9848 67.1438 54.4539 67.5807 54.9626C67.6205 54.9958 67.6391 55.0386 67.6793 55.0724C67.6944 55.0784 67.7191 55.1056 67.7035 55.0994C67.7281 55.1271 67.7437 55.1333 67.7684 55.1605C67.8574 55.249 67.9345 55.3678 68.0024 55.4655C68.0945 55.5902 68.1593 55.7401 68.1881 55.8928C68.317 56.0145 68.4401 56.1519 68.569 56.2736C68.6391 56.1414 68.6994 55.9883 68.769 55.8559C68.9719 55.4753 69.2 55.1221 69.4427 54.7747C70.0226 53.8874 70.5509 52.9966 71.0696 52.0846C71.5761 51.2032 72.1132 50.3345 72.6289 49.4742C73.075 48.7464 73.4753 48.0005 73.8817 47.2391C73.8782 47.2022 73.8903 47.1715 73.8811 47.1505C73.9139 46.9331 73.925 46.7247 73.9422 46.5012C73.7972 46.2848 73.668 46.074 73.529 45.8424C73.1128 45.2354 72.8159 44.5515 72.3939 43.9596C71.9319 43.3345 71.4151 42.7588 70.9319 42.1433C70.7069 41.8599 70.4729 41.5549 70.2484 41.2717C70.1895 41.1955 70.1407 41.1408 70.0758 41.0798C70.0607 41.0738 70.0361 41.0461 70.0205 41.04C69.7618 41.2038 69.29 41.1423 69.1969 40.8399C68.963 40.5349 68.7441 40.2359 68.5161 39.9158C67.7854 39.3442 67.0817 38.7483 66.3172 38.2168C65.2552 37.4972 64.3267 36.6173 63.2588 35.9128C61.9883 35.0936 60.6662 34.3599 59.3893 33.5556C56.7991 31.9507 54.03 30.5759 51.1912 29.422C49.7873 28.8514 48.3409 28.3873 46.919 27.8625C45.5211 27.3653 44.1264 26.8157 42.714 26.4011C41.0963 25.9231 39.4731 25.5492 37.8559 25.0714C37.2397 24.8821 36.5995 24.7537 35.9749 24.6315C35.2893 24.5741 34.6222 24.5596 33.9372 24.5908C33.2672 24.6281 32.5287 24.975 31.8794 24.8255L31.8643 24.8196C31.7361 24.8749 31.6077 24.9307 31.4798 24.9867C31.59 25.0656 31.6337 25.2247 31.6004 25.3535C31.4645 25.654 31.2973 25.9428 31.1368 26.2157C32.3287 25.9771 33.4976 25.9765 34.7066 26.0988C36.1392 26.2376 37.5707 26.2882 38.9736 26.5927C40.2999 26.867 41.669 27.2116 42.9258 27.7068C43.6003 27.9725 44.2863 28.2074 44.9667 28.458C45.4943 28.6479 45.9719 28.7831 46.3505 29.2154C46.4736 29.3529 46.3343 29.6167 46.1474 29.5965C44.953 29.3916 43.7607 28.8684 42.6418 28.4275C41.4001 27.9383 40.0465 27.6003 38.751 27.3376C37.486 27.0875 36.1858 27.0182 34.9033 26.9025C33.5689 26.7844 32.2827 26.6323 30.9504 26.869C30.8925 26.8817 30.8618 26.8696 30.8095 26.8664C30.6917 27.1212 30.5582 27.3698 30.4308 27.6033C31.1078 27.7282 31.7994 27.7705 32.4426 27.9355C33.5636 28.2353 34.6845 28.4467 35.8116 28.7309C37.0005 29.04 38.216 29.3241 39.3777 29.7464C40.2418 30.0694 41.5561 30.3744 42.1137 31.161C42.1816 31.2587 42.1152 31.4273 41.9863 31.3945C40.9022 31.1796 39.9085 30.7352 38.8637 30.3765C37.6808 29.9639 36.4496 29.6736 35.2244 29.3682C34.097 29.0833 32.9483 28.8081 31.8093 28.5541C31.227 28.413 30.6364 28.3402 30.0759 28.1898C29.8241 28.6045 29.5567 29.0132 29.2989 29.4431C31.261 29.6312 33.2352 29.8776 35.174 30.3048C36.1997 30.5322 37.1989 30.8724 38.1738 31.2745C38.5719 31.4314 39.6748 31.6886 39.5217 32.3016C39.5131 32.3691 39.4185 32.3848 39.3722 32.3665C39.1271 32.27 38.8974 32.2684 38.6404 32.2021C38.1869 32.0943 37.7701 31.8946 37.3257 31.7195C36.3754 31.3451 35.3767 31.0935 34.366 30.8726C32.565 30.4997 30.7348 30.2925 28.9223 30.0389C28.7858 30.2509 28.6428 30.4783 28.5063 30.6902C28.5583 30.6927 28.6256 30.7018 28.6781 30.7044C29.0726 30.736 29.4586 30.8352 29.8507 30.9187C30.6652 31.0978 31.4861 31.2619 32.3067 31.4253C33.1276 31.5894 33.927 31.7625 34.7388 31.994C35.094 32.081 35.4369 32.1981 35.768 32.3466C36.0624 32.4981 36.3509 32.6646 36.6695 32.7547C36.8597 32.8122 36.8028 33.091 36.6347 33.1131C35.9195 33.2209 35.242 32.9185 34.5559 32.7726C33.7258 32.5874 32.8863 32.3805 32.0562 32.1953C31.242 32.0158 30.427 31.8366 29.6185 31.6424C29.1345 31.5221 28.5958 31.4517 28.0904 31.3415C27.8232 31.7497 27.5562 32.1585 27.2888 32.5672C27.3567 32.6648 27.4852 32.6974 27.6352 32.7211ZM34.1168 36.7633C34.3371 36.8327 34.5733 36.9077 34.7937 36.9771C36.7763 37.6519 38.7404 38.2839 40.6897 38.999C40.3279 38.8384 39.9605 38.6937 39.5925 38.5487C37.793 37.8577 35.9913 37.2182 34.1168 36.7633ZM62.3273 34.412C62.3122 34.406 62.303 34.385 62.2874 34.3788C62.297 34.4001 62.3122 34.406 62.3273 34.412ZM53.0054 29.357C53.0299 29.3847 53.0547 29.4119 53.0728 29.4545C53.8117 29.7811 54.5389 30.1386 55.2657 30.4959C55.0785 30.3866 54.8853 30.2925 54.683 30.1773C54.1518 29.8622 53.5756 29.6172 53.0054 29.357ZM54.8763 29.1022C54.4129 28.7952 53.9342 28.4827 53.4249 28.2466C53.2471 28.1591 53.0629 28.0865 52.8641 28.0082C52.8767 28.0661 52.8738 28.1178 52.8803 28.1913C52.8954 28.1973 52.911 28.2034 52.911 28.2034C53.5823 28.5214 54.2322 28.7595 54.8763 29.1022ZM43.5855 25.6281C43.282 25.544 42.9634 25.4539 42.6544 25.3851C42.4521 25.3583 42.2502 25.3322 42.0694 25.2965C41.8273 25.2366 41.5642 25.1858 41.322 25.1259C41.2978 25.1873 41.2737 25.2487 41.2188 25.298C41.9909 25.4958 42.751 25.7243 43.52 25.9744C43.4854 25.8364 43.5126 25.7232 43.5855 25.6281ZM31.4788 24.2246C31.9123 24.0233 32.3549 23.843 32.8194 23.7428C32.8411 23.7334 32.8773 23.7302 32.9141 23.7267C32.5501 23.7077 32.1767 23.6664 31.8097 23.6991C31.7885 23.7088 31.7518 23.7118 31.7362 23.7057C31.7241 23.7364 31.712 23.7671 31.6999 23.7978C31.6395 23.9513 31.5544 24.0771 31.4788 24.2246ZM26.0729 34.7988C26.1222 34.8537 26.1564 34.9026 26.1565 34.9911C26.1931 34.988 26.2147 34.9791 26.2515 34.9756C26.3079 34.6966 26.374 34.4389 26.446 34.1661C26.4732 34.0529 26.4788 33.9487 26.4782 33.8601C26.3604 34.1149 26.23 34.4002 26.0906 34.6639C26.0723 34.7102 26.0699 34.7621 26.0729 34.7988ZM25.7129 27.4452C25.8361 27.6711 25.9227 27.9 26.0247 28.1356C26.1179 28.3491 26.2748 28.5353 26.3185 28.7828C26.3407 28.8624 26.2858 28.9117 26.243 28.9304C26.3478 29.113 26.4468 29.3118 26.5672 29.5006C26.6009 29.5493 26.6351 29.5983 26.6627 29.6626C26.7659 29.4905 26.8596 29.2972 26.9629 29.125C27.3535 28.3579 27.7419 27.6423 28.2187 26.9266C28.7165 26.2017 29.0922 25.4281 29.6366 24.721C29.8217 24.4753 30.0132 24.1251 30.2503 23.8819C30.2135 23.8854 30.1924 23.8946 30.1617 23.8825C29.7147 23.8482 29.822 23.2172 30.2287 23.2181C30.4426 23.214 30.6536 23.1727 30.8494 23.126C30.8615 23.0953 30.8674 23.0802 30.8946 23.0554C30.8293 22.8169 31.0976 22.5859 31.3336 22.7499C31.3584 22.7771 31.3891 22.7892 31.4137 22.8169C31.4137 22.8169 31.4137 22.8169 31.4293 22.823C31.5355 22.6875 31.768 22.7262 31.8426 22.8969C31.9372 22.8813 32.0379 22.85 32.1421 22.8556C32.6927 22.8068 33.2645 22.8373 33.8061 22.8559C35.0209 22.8735 36.2062 23.1457 37.4127 23.3199C38.6187 23.4939 39.8102 23.7505 41.0076 23.992C41.6473 24.1202 42.2725 24.3311 42.9309 24.4131C43.3502 24.472 43.7267 24.461 44.1007 24.6792C44.2356 24.6969 44.3794 24.7361 44.5084 24.7689C45.4395 25.012 46.3587 25.2852 47.2777 25.5589C48.2124 25.8387 49.144 26.1704 50.0636 26.5327C50.1708 26.5749 50.2624 26.611 50.3701 26.6534C50.4554 26.5271 50.6108 26.4471 50.8006 26.5039C51.7962 26.8077 52.8164 27.0504 53.7699 27.4609C54.6467 27.8419 55.4417 28.3859 56.2491 28.8988C58.1057 30.0734 59.9163 31.2293 61.633 32.579C62.3088 33.1115 63.0059 33.6339 63.6814 34.1658C63.767 34.1286 63.8556 34.128 63.9416 34.1799C65.0982 34.795 66.141 35.3832 67.1546 36.2256C68.1593 37.0465 69.1814 37.7329 70.1069 38.6645C70.2358 38.7862 70.3591 38.9232 70.482 39.06C70.5709 39.0601 70.6566 39.1113 70.7245 39.209C70.8509 39.3827 70.977 39.5568 71.1095 39.7148C71.6474 40.2815 72.2071 40.8386 72.739 41.4203C73.1728 41.8924 73.6616 42.3153 74.0736 42.7968C74.3536 43.1194 74.6707 43.4391 74.7154 43.8643C74.8905 44.0042 75.0078 44.2452 75.0333 44.4506C75.0781 44.7869 75.0277 45.1392 74.9988 45.4825C75.1541 45.3128 75.5335 45.3385 75.6205 45.6565C75.6644 45.8151 75.8088 45.9429 75.8677 46.108C75.924 46.325 75.9062 46.5488 75.874 46.7664C75.7994 47.18 75.6423 47.5787 75.4605 47.9501L75.4756 47.956C75.7172 48.5117 75.2041 49.3196 74.9739 49.8138C74.8682 50.0379 74.762 50.2617 74.6713 50.4917C75.3081 50.4944 75.969 50.5245 76.5992 50.5425C77.1101 50.549 77.5934 50.4912 78.1073 50.5343C78.7561 50.5952 79.3929 50.6862 80.0361 50.7629C81.2849 50.9182 82.57 50.9815 83.7981 51.2351C84.2578 51.3273 84.7109 51.4349 85.1642 51.5431C85.1763 51.5124 85.1824 51.4968 85.1945 51.4661C85.4487 50.911 85.6724 50.3432 85.8803 49.7698C85.8527 49.7055 85.825 49.6416 85.8029 49.562C85.7718 49.4608 85.802 49.3843 85.8477 49.3139C85.7582 49.1368 85.6625 48.9752 85.5821 48.8191C85.2761 48.2026 84.7327 47.7402 84.35 47.1824C83.5093 45.947 82.8663 44.6127 82.1802 43.2976C81.4577 41.8965 80.4668 40.7264 79.5429 39.4762C78.6683 38.281 77.9094 37.0609 77.1904 35.7851C77.1349 35.7458 77.0705 35.685 77.0153 35.6452C76.8588 35.548 76.8366 35.38 76.885 35.2572C76.11 33.8535 75.3778 32.4311 74.533 31.0703C73.7222 29.7589 72.9418 28.4589 72.2433 27.0853C72.1724 26.951 72.1015 26.8166 72.0305 26.6823C71.9998 26.6702 71.9842 26.664 71.9595 26.6368C71.3475 25.8997 70.8052 25.1186 70.2475 24.3319C69.8161 23.7194 69.3512 23.1461 68.9259 22.5181C68.7142 22.3811 68.5178 22.2508 68.3427 22.1109C67.8539 21.6881 67.3899 21.2041 66.9073 20.7657C66.4246 20.3277 66.0246 19.8155 65.5269 19.3711C65.3179 19.1829 65.1091 18.9942 64.9059 18.7898C64.8554 19.0536 64.5413 19.2665 64.2589 19.0843C63.8352 18.811 62.8077 18.9027 62.3245 18.8716C61.5287 18.8238 60.7208 18.8067 59.9189 18.7745C58.9706 18.755 58.0103 18.7662 57.0497 18.7778C56.6651 19.0339 56.0284 18.9424 55.6 18.9509C54.6335 18.9777 53.6853 18.9582 52.7212 18.933C50.363 19.0313 47.9896 19.1242 45.6128 19.1797C42.4375 19.2398 39.2387 18.954 36.0685 18.8213C34.3304 18.7388 32.5989 18.7299 30.8673 18.721C30.6378 18.719 30.4238 18.7236 30.1943 18.7216C30.0523 19.0377 29.7964 19.3271 29.6202 19.5943C29.0584 20.4358 28.5766 21.3444 28.0242 22.2076C27.505 23.0311 27.0256 23.8876 26.4115 24.6376C26.1044 25.0126 25.834 25.3846 25.5883 25.7838C25.4331 26.0419 25.2973 26.3424 25.121 26.6097C25.352 26.878 25.5458 27.1491 25.7129 27.4452ZM23.5749 24.5125C23.8735 24.8779 24.1597 25.2744 24.437 25.6494C24.6762 25.1767 25.0503 24.7217 25.3363 24.3559C25.9294 23.615 26.4546 22.8649 26.9771 22.0788C27.5053 21.277 28.0431 20.4963 28.5959 19.7222C28.7998 19.4304 29.0094 19.1228 29.2435 18.8429C29.2771 18.8033 29.3164 18.7478 29.3713 18.6985C29.3194 18.696 29.2827 18.6991 29.2303 18.6964C28.5055 18.694 27.7742 18.7071 27.0433 18.7203C26.9822 18.7852 26.9214 18.8496 26.8761 18.9202C26.642 19.2 26.429 19.4708 26.2285 19.7994C25.8097 20.5025 25.363 21.1417 24.8743 21.7992C24.3999 22.463 23.914 23.1576 23.5414 23.8789C23.4774 23.9956 23.4231 24.1335 23.3626 24.287C23.4211 24.363 23.4949 24.4456 23.5749 24.5125ZM21.9154 24.8152C21.9213 24.8001 21.9275 24.7845 21.9334 24.7694C21.8841 24.7145 21.841 24.644 21.7917 24.5891C21.8197 24.6536 21.8564 24.739 21.9154 24.8152ZM22.344 23.053C22.4024 23.129 22.4547 23.2205 22.5288 23.3026C22.9291 22.5568 23.415 21.8621 23.9104 21.1892C24.3721 20.5559 24.8927 19.9993 25.3145 19.3329C25.4389 19.1516 25.5637 18.9705 25.7038 18.7949C25.2326 18.8221 24.7676 18.8336 24.2963 18.8608C24.1352 19.0455 24.0386 19.2907 23.8925 19.4814C23.741 19.6874 23.5184 19.848 23.3663 20.0538C23.1812 20.2995 23.02 20.5726 22.8654 20.8309C22.5557 21.3468 22.2159 21.8507 21.8906 22.3604C22.0512 22.583 22.19 22.815 22.344 23.053ZM21.8788 20.5486C22.2193 20.0444 22.4978 19.5162 22.9489 19.0916C23.0033 19.0421 23.0273 18.9811 23.0762 18.9469C22.0182 19.0261 20.9448 19.0997 19.9019 19.1848C19.7338 19.2069 19.6201 19.0912 19.5797 18.9694C19.5582 18.9784 19.5215 18.9814 19.5003 18.9911C19.5154 18.997 19.525 19.0183 19.5401 19.0242C19.8476 19.3227 20.0845 19.6643 20.3432 19.9965C20.7097 20.4595 20.9904 20.9603 21.2868 21.4666C21.4872 21.138 21.6756 20.8401 21.8788 20.5486ZM19.1638 19.7092C19.5891 20.2488 19.9529 20.8527 20.3566 21.4013C20.3903 21.4501 20.424 21.4988 20.4642 21.5327C20.2448 21.145 20.0259 20.7576 19.7582 20.4039C19.5146 20.0776 19.3049 19.7112 19.0128 19.4194C18.9239 19.3309 18.8191 19.2367 18.7301 19.1481C18.8811 19.3495 19.0225 19.5291 19.1638 19.7092Z" fill="#0A141E"/>
</svg>
