<svg width="19" height="20" viewBox="0 0 19 20" fill="none" xmlns="http://www.w3.org/2000/svg">
<g id="Group 1000004364">
<path id="Vector" fill-rule="evenodd" clip-rule="evenodd" d="M12.6216 18.3743C14.433 17.8928 16.3294 17.6498 18.1691 17.4273C18.5653 17.3806 18.9332 17.641 18.9615 18.0078C19.0181 18.3749 18.7349 18.7106 18.367 18.7572C16.5839 18.9714 14.7444 19.2007 13.018 19.6643C12.65 19.7648 12.2536 19.5578 12.1404 19.2018C12.0272 18.846 12.2537 18.4751 12.6216 18.3743Z" fill="#FF6B26"/>
<path id="Vector_2" fill-rule="evenodd" clip-rule="evenodd" d="M7.13192 11.5444C10.0471 8.72612 13.3302 6.27058 16.1888 3.37665C16.4435 3.10637 16.8963 3.09189 17.1794 3.34421C17.4624 3.59678 17.4906 4.0215 17.2076 4.29178C14.349 7.19402 11.0659 9.6576 8.15071 12.4842C7.86768 12.7481 7.41495 12.7518 7.13192 12.4923C6.8772 12.233 6.8489 11.8083 7.13192 11.5444Z" fill="#FF6B26"/>
<path id="Vector_3" fill-rule="evenodd" clip-rule="evenodd" d="M1.67008 0.706728C1.58518 2.3198 1.50043 3.93287 1.41553 5.54621C1.41553 5.9157 1.07573 6.20099 0.679492 6.18302C0.283255 6.16479 0.00039494 5.85027 0.00039494 5.48052C0.0853028 3.86477 0.170045 2.24928 0.254953 0.633795C0.283255 0.264312 0.622942 -0.0191025 1.01918 0.00100732C1.38711 0.0211171 1.69839 0.337512 1.67008 0.706728Z" fill="#FF6B26"/>
</g>
</svg>
