<svg width="53" height="43" viewBox="0 0 53 43" fill="none" xmlns="http://www.w3.org/2000/svg">
<path id="Vector" d="M43.0511 21.973C48.9947 21.973 53 26.2417 53 32.5666C53 38.2583 48.3966 43 42.1615 43C35.3321 43 30.2857 37.3084 30.2857 28.6145C30.2857 8.85409 44.2399 0.949909 53 0V8.69382C47.0602 9.80009 40.3822 15.9647 40.0831 22.7665C40.3822 22.6102 41.5671 21.973 43.0511 21.973ZM12.7692 21.973C18.7052 21.973 22.7143 26.2417 22.7143 32.5666C22.7143 38.2583 18.1109 43 11.8758 43C5.04636 43 0 37.3084 0 28.6145C0 8.85409 13.9541 0.949909 22.7143 0V8.69382C16.7745 9.80009 10.0965 15.9647 9.79743 22.7665C10.0965 22.6102 11.2814 21.973 12.7692 21.973Z" fill="#FF6B26" fill-opacity="0.2"/>
</svg>
