<svg width="32" height="32" viewBox="0 0 32 32" fill="none" xmlns="http://www.w3.org/2000/svg">
<g id="bank">
<path id="Vector" d="M27.9993 15.6668H3.99935C2.71935 15.6668 1.66602 14.6135 1.66602 13.3335V8.90683C1.66602 8.00017 2.29266 7.08017 3.13266 6.74683L15.1327 1.94687C15.6393 1.74688 16.3593 1.74688 16.866 1.94687L28.866 6.74683C29.706 7.08017 30.3327 8.0135 30.3327 8.90683V13.3335C30.3327 14.6135 29.2793 15.6668 27.9993 15.6668ZM15.9993 3.78687C15.946 3.78687 15.8927 3.78681 15.866 3.80014L3.87931 8.60019C3.79931 8.64019 3.66602 8.8135 3.66602 8.90683V13.3335C3.66602 13.5201 3.81268 13.6668 3.99935 13.6668H27.9993C28.186 13.6668 28.3327 13.5201 28.3327 13.3335V8.90683C28.3327 8.8135 28.2127 8.64019 28.1193 8.60019L16.1193 3.80014C16.0927 3.78681 16.0527 3.78687 15.9993 3.78687Z" fill="#383838"/>
<path id="Vector_2" d="M29.3327 30.3333H2.66602C2.11935 30.3333 1.66602 29.88 1.66602 29.3333V25.3333C1.66602 24.0533 2.71935 23 3.99935 23H27.9993C29.2793 23 30.3327 24.0533 30.3327 25.3333V29.3333C30.3327 29.88 29.8793 30.3333 29.3327 30.3333ZM3.66602 28.3333H28.3327V25.3333C28.3327 25.1467 28.186 25 27.9993 25H3.99935C3.81268 25 3.66602 25.1467 3.66602 25.3333V28.3333Z" fill="#383838"/>
<path id="Vector_3" d="M5.33398 24.9993C4.78732 24.9993 4.33398 24.546 4.33398 23.9993V14.666C4.33398 14.1193 4.78732 13.666 5.33398 13.666C5.88065 13.666 6.33398 14.1193 6.33398 14.666V23.9993C6.33398 24.546 5.88065 24.9993 5.33398 24.9993Z" fill="#383838"/>
<path id="Vector_4" d="M10.666 24.9993C10.1193 24.9993 9.66602 24.546 9.66602 23.9993V14.666C9.66602 14.1193 10.1193 13.666 10.666 13.666C11.2127 13.666 11.666 14.1193 11.666 14.666V23.9993C11.666 24.546 11.2127 24.9993 10.666 24.9993Z" fill="#383838"/>
<path id="Vector_5" d="M16 24.9993C15.4533 24.9993 15 24.546 15 23.9993V14.666C15 14.1193 15.4533 13.666 16 13.666C16.5467 13.666 17 14.1193 17 14.666V23.9993C17 24.546 16.5467 24.9993 16 24.9993Z" fill="#383838"/>
<path id="Vector_6" d="M21.334 24.9993C20.7873 24.9993 20.334 24.546 20.334 23.9993V14.666C20.334 14.1193 20.7873 13.666 21.334 13.666C21.8807 13.666 22.334 14.1193 22.334 14.666V23.9993C22.334 24.546 21.8807 24.9993 21.334 24.9993Z" fill="#383838"/>
<path id="Vector_7" d="M26.666 24.9993C26.1193 24.9993 25.666 24.546 25.666 23.9993V14.666C25.666 14.1193 26.1193 13.666 26.666 13.666C27.2127 13.666 27.666 14.1193 27.666 14.666V23.9993C27.666 24.546 27.2127 24.9993 26.666 24.9993Z" fill="#383838"/>
<path id="Vector_8" d="M30.6673 30.334H1.33398C0.787318 30.334 0.333984 29.8807 0.333984 29.334C0.333984 28.7873 0.787318 28.334 1.33398 28.334H30.6673C31.214 28.334 31.6673 28.7873 31.6673 29.334C31.6673 29.8807 31.214 30.334 30.6673 30.334Z" fill="#383838"/>
<path id="Vector_9" d="M16 12.334C14.3467 12.334 13 10.9873 13 9.33398C13 7.68065 14.3467 6.33398 16 6.33398C17.6533 6.33398 19 7.68065 19 9.33398C19 10.9873 17.6533 12.334 16 12.334ZM16 8.33398C15.4533 8.33398 15 8.78732 15 9.33398C15 9.88065 15.4533 10.334 16 10.334C16.5467 10.334 17 9.88065 17 9.33398C17 8.78732 16.5467 8.33398 16 8.33398Z" fill="#383838"/>
</g>
</svg>
