<svg width="63" height="63" viewBox="0 0 63 63" fill="none" xmlns="http://www.w3.org/2000/svg">
<g id="Group 1000002915">
<path id="Rectangle 34624442" d="M63 48.0789C63 56.3196 56.3196 63 48.0789 63L32.3289 63C30.0399 63 28.1842 61.1443 28.1842 58.8553L28.1842 36.4737C28.1842 31.8955 31.8955 28.1842 36.4737 28.1842L58.8553 28.1842C61.1443 28.1842 63 30.0399 63 32.3289L63 48.0789Z" fill="#EBDBFF"/>
<g id="Group 1000002914">
<path id="Vector" d="M51.1512 53.0003H1.84884C0.83814 53.0003 0 52.1626 0 51.1525C0 50.1424 0.83814 49.3047 1.84884 49.3047H51.1512C52.1619 49.3047 53 50.1424 53 51.1525C53 52.1626 52.1619 53.0003 51.1512 53.0003Z" fill="#383838"/>
<path id="Vector_2" d="M32.662 12.2969C30.3448 12.2969 28.0276 11.8534 25.809 10.9665C25.1188 10.6955 24.6504 10.0056 24.6504 9.24185V1.85067C24.6504 1.23474 24.9462 0.66811 25.4639 0.323188C25.9816 -0.0217334 26.6225 -0.0956946 27.1895 0.126041C30.7146 1.53036 34.6095 1.53036 38.1346 0.126041C38.7016 -0.0956946 39.3425 -0.0217334 39.8602 0.323188C40.3778 0.66811 40.6736 1.23474 40.6736 1.85067V9.24185C40.6736 10.0056 40.2053 10.6708 39.515 10.9665C37.2964 11.8534 34.9792 12.2969 32.662 12.2969ZM28.3481 7.96067C31.1583 8.82297 34.1657 8.82297 36.976 7.96067V4.38839C34.1411 5.07823 31.1829 5.07823 28.3481 4.38839V7.96067Z" fill="#383838"/>
<path id="Vector_3" d="M26.4992 18.5047C25.4885 18.5047 24.6504 17.6671 24.6504 16.6569V9.26576C24.6504 8.25564 25.4885 7.41797 26.4992 7.41797C27.5099 7.41797 28.3481 8.25564 28.3481 9.26576V16.6569C28.3481 17.6671 27.5099 18.5047 26.4992 18.5047Z" fill="#383838"/>
<path id="Vector_4" d="M46.2204 52.9964H6.77852C5.76783 52.9964 4.92969 52.1587 4.92969 51.1486V24.0476C4.92969 18.0854 8.20829 14.8086 14.1739 14.8086H38.825C44.7906 14.8086 48.0692 18.0854 48.0692 24.0476V51.1486C48.0692 52.1587 47.2311 52.9964 46.2204 52.9964ZM8.62736 49.3008H44.3715V24.0476C44.3715 20.1549 42.7199 18.5042 38.825 18.5042H14.1739C10.279 18.5042 8.62736 20.1549 8.62736 24.0476V49.3008Z" fill="#383838"/>
<path id="Vector_5" d="M44.7906 28.3636H8.20821C7.19751 28.3636 6.35938 27.5259 6.35938 26.5158C6.35938 25.5056 7.19751 24.668 8.20821 24.668H44.7906C45.8013 24.668 46.6394 25.5056 46.6394 26.5158C46.6394 27.5259 45.8013 28.3636 44.7906 28.3636Z" fill="#383838"/>
<path id="Vector_6" d="M18.4613 26.5117H14.7637V51.149H18.4613V26.5117Z" fill="#383838"/>
<path id="Vector_7" d="M28.3246 26.5117H24.627V51.149H28.3246V26.5117Z" fill="#383838"/>
<path id="Vector_8" d="M38.184 26.5117H34.4863V51.149H38.184V26.5117Z" fill="#383838"/>
</g>
</g>
</svg>
