<svg width="63" height="63" viewBox="0 0 63 63" fill="none" xmlns="http://www.w3.org/2000/svg">
<g id="Group 1000002908">
<path id="Rectangle 34624273" d="M63 48.0789C63 56.3196 56.3196 63 48.0789 63L32.3289 63C30.0399 63 28.1842 61.1443 28.1842 58.8553L28.1842 36.4737C28.1842 31.8955 31.8955 28.1842 36.4737 28.1842L58.8553 28.1842C61.1443 28.1842 63 30.0399 63 32.3289L63 48.0789Z" fill="#EBDBFF"/>
<g id="Group 1000002901">
<path id="Vector" d="M47.8477 29.18C46.9065 29.18 46.114 28.456 45.9902 27.5074C45.3958 21.8654 42.3742 16.7477 37.718 13.5023C36.8759 12.9031 36.6778 11.7548 37.2474 10.906C37.8418 10.0572 39.0059 9.85747 39.8232 10.4317C45.371 14.3012 48.9374 20.3925 49.6557 27.1079C49.7547 28.1315 49.0365 29.0552 47.9963 29.18C47.9715 29.18 47.8972 29.18 47.8477 29.18Z" fill="#383838"/>
<path id="Vector_2" d="M5.42107 29.3062C5.34677 29.3062 5.29723 29.3062 5.22293 29.3062C4.20749 29.1813 3.46448 28.2577 3.56355 27.2341C4.23226 20.5187 7.77393 14.4523 13.2474 10.5329C14.0895 9.93372 15.2535 10.1334 15.848 10.9822C16.4424 11.831 16.2442 13.0044 15.4021 13.6035C10.7955 16.8739 7.82346 21.9916 7.25382 27.6335C7.17952 28.5822 6.36221 29.3062 5.42107 29.3062Z" fill="#383838"/>
<path id="Vector_3" d="M26.6477 53.0007C22.9822 53.0007 19.49 52.1519 16.2208 50.5042C15.3044 50.0299 14.9329 48.9065 15.4035 47.9828C15.874 47.0591 16.9885 46.6847 17.9049 47.159C23.2547 49.8801 29.6941 49.9301 35.0933 47.3088C36.0096 46.8594 37.1241 47.2589 37.5699 48.1825C38.0158 49.1062 37.6195 50.2296 36.7031 50.679C33.5329 52.2268 30.1646 53.0007 26.6477 53.0007Z" fill="#383838"/>
<path id="Vector_4" d="M26.647 17.625C21.8175 17.625 17.9043 13.6806 17.9043 8.81248C17.9043 3.94439 21.8175 0 26.647 0C31.4766 0 35.3898 3.94439 35.3898 8.81248C35.3898 13.6806 31.4518 17.625 26.647 17.625ZM26.647 3.76964C23.8731 3.76964 21.6193 6.04141 21.6193 8.83744C21.6193 11.6335 23.8731 13.9052 26.647 13.9052C29.4209 13.9052 31.6747 11.6335 31.6747 8.83744C31.6747 6.04141 29.3962 3.76964 26.647 3.76964Z" fill="#383838"/>
<path id="Vector_5" d="M8.74273 48.1562C3.91318 48.1562 0 44.2118 0 39.3437C0 34.5006 3.91318 30.5312 8.74273 30.5312C13.5723 30.5312 17.4855 34.4756 17.4855 39.3437C17.4855 44.1868 13.5723 48.1562 8.74273 48.1562ZM8.74273 34.2759C5.96883 34.2759 3.71504 36.5477 3.71504 39.3437C3.71504 42.1398 5.96883 44.4115 8.74273 44.4115C11.5166 44.4115 13.7704 42.1398 13.7704 39.3437C13.7704 36.5477 11.5166 34.2759 8.74273 34.2759Z" fill="#383838"/>
<path id="Vector_6" d="M44.2564 48.1562C39.4269 48.1562 35.5137 44.2118 35.5137 39.3437C35.5137 34.5006 39.4269 30.5312 44.2564 30.5312C49.086 30.5312 52.9991 34.4756 52.9991 39.3437C52.9744 44.1868 49.0612 48.1562 44.2564 48.1562ZM44.2564 34.2759C41.4825 34.2759 39.2287 36.5477 39.2287 39.3437C39.2287 42.1398 41.4825 44.4115 44.2564 44.4115C47.0303 44.4115 49.2841 42.1398 49.2841 39.3437C49.2593 36.5477 47.0303 34.2759 44.2564 34.2759Z" fill="#383838"/>
</g>
</g>
</svg>
