<svg width="576" height="485" viewBox="0 0 576 485" fill="none" xmlns="http://www.w3.org/2000/svg">
<mask id="mask0_11369_31083" style="mask-type:alpha" maskUnits="userSpaceOnUse" x="0" y="0" width="576" height="485">
<rect width="576" height="485" fill="#F0ECEB"/>
</mask>
<g mask="url(#mask0_11369_31083)">
<path d="M56.1129 488C55.414 440.339 99.7154 357.453 177.726 330.935C298.815 289.774 487 315.452 487 167.371C487 130.542 480.71 -2.15022 238.532 -12.9823C44.7903 -21.6479 -66.5484 -151.271 -98 -215" stroke="#FFB584" stroke-linecap="round" stroke-dasharray="20 20"/>
<path d="M424.475 164.74V380.964L385.561 397.396L331.708 402.607L320.112 232.311L331.708 182.428L378.091 165.009L424.475 164.74Z" fill="#5C9DF9"/>
<path d="M331.709 182.428V388.441L285.326 384.486L238.943 366.798C238.943 364.095 238.943 167.442 238.943 164.74L285.326 165.009L331.709 182.428Z" fill="#8EBDFF"/>
<path fillRule="evenodd" clipRule="evenodd" d="M354.747 178.036C379.979 173.225 416.641 166.234 424.475 164.74L331.709 147.32V147.32H331.708L238.943 164.74L261.707 169.081C286.946 173.893 323.844 180.929 331.708 182.428L331.708 182.429C331.708 182.428 331.708 182.428 331.709 182.428C331.709 182.428 331.709 182.428 331.709 182.429V182.428C335.11 181.78 343.866 180.11 354.747 178.036Z" fill="#7CAEF8"/>
<path d="M238.943 397.726L227.347 453.023L238.943 508.32C250.164 506.213 320.413 493.021 331.709 490.9C331.709 484.818 331.709 387.439 331.709 381.357L285.326 382.628L238.943 397.726Z" fill="#305940"/>
<path d="M134.579 379.311V488.722C171.936 495.737 202.823 501.537 238.941 508.319C238.941 502.172 238.941 403.872 238.941 397.725L186.76 381.356L134.579 379.311Z" fill="#60B590"/>
<path fillRule="evenodd" clipRule="evenodd" d="M238.943 359.712L238.942 359.712C238.985 359.722 239.297 359.795 238.943 359.712ZM238.941 359.712C238.942 359.712 238.942 359.712 238.942 359.712L238.942 359.712C239.099 359.749 243.512 360.778 285.154 370.494C294.699 372.721 306.199 375.404 320.052 378.636C323.766 379.502 327.649 380.408 331.709 381.356L285.326 389.539L238.943 397.723L238.941 397.721V397.722C226.223 395.479 147.271 381.548 134.579 379.308L238.939 359.711C238.938 359.711 238.938 359.711 238.938 359.711C238.938 359.711 238.938 359.711 238.94 359.711L238.941 359.711V359.712ZM238.941 359.712C238.942 359.712 238.942 359.712 238.942 359.712L238.941 359.714V359.712Z" fill="#AEE0CD"/>
<path d="M525.5 279.5V509L479.036 522.786L409.889 528L395 357.608L409.889 307.698L469.444 290.268L525.5 279.5Z" fill="#F2BC48"/>
<path d="M424.789 317.432V508.59C413.169 504.854 342.598 499.976 331.145 496.294V385.623V289.141C344.966 290.006 374.068 291.828 382.259 292.341C387.424 295.387 419.605 314.374 424.789 317.432Z" fill="#FDCE68"/>
<path fillRule="evenodd" clipRule="evenodd" d="M475.459 298.814C497.643 290.237 519.811 281.667 526 279.683C519.792 277.566 497.386 271.03 475.017 264.506C452.722 258.003 430.464 251.511 424.316 249.414V249.414C424.316 249.414 424.316 249.414 424.316 249.414C424.316 249.414 424.315 249.414 424.315 249.414L424.315 249.414C392.887 262.734 385.29 266.065 377.714 269.386C370.168 272.695 362.643 275.994 331.617 289.142C337.14 290.913 357.786 297.275 378.384 303.623C398.879 309.94 419.328 316.242 424.788 317.992L424.788 317.992C424.788 317.992 424.789 317.992 424.789 317.992C424.789 317.992 424.789 317.992 424.789 317.992V317.992C431.002 316.001 453.239 307.404 475.459 298.814Z" fill="#F5F2D4"/>
<path d="M313.18 128.339C311.611 128.339 310.513 127.802 309.854 127.297C308.599 126.382 306.654 124.014 307.878 118.711L309.666 110.946C309.823 110.283 309.478 109.084 309.007 108.578L302.764 102.297C299.47 98.9823 299.752 96.1098 300.191 94.6893C300.63 93.2687 302.074 90.7749 306.654 89.9857L314.655 88.66C315.251 88.5653 316.223 87.8393 316.474 87.3026L320.898 78.4009C323.031 74.1079 325.855 73.4766 327.361 73.4766C328.867 73.4766 331.691 74.1079 333.824 78.4009L338.248 87.3026C338.53 87.8393 339.471 88.5653 340.067 88.66L348.068 89.9857C352.648 90.7433 354.091 93.2687 354.531 94.6893C354.97 96.1098 355.252 98.9823 351.958 102.297L345.715 108.578C345.244 109.052 344.899 110.283 345.056 110.946L346.844 118.711C348.068 124.046 346.122 126.382 344.867 127.297C343.612 128.213 340.82 129.381 336.114 126.571L328.616 122.089C327.988 121.71 326.67 121.71 326.043 122.089L318.545 126.571C316.38 127.897 314.56 128.339 313.18 128.339Z" fill="#DFA52B"/>
<path d="M310.57 128.339C308.975 128.339 307.858 127.802 307.188 127.297C305.911 126.382 303.932 124.014 305.177 118.711L306.996 110.946C307.156 110.283 306.805 109.084 306.326 108.578L299.975 102.297C296.624 98.9823 296.911 96.1098 297.358 94.6893C297.805 93.2687 299.273 90.7749 303.932 89.9857L312.07 88.66C312.677 88.5653 313.666 87.8393 313.922 87.3026L318.422 78.4009C320.592 74.1079 323.464 73.4766 324.996 73.4766C326.528 73.4766 329.4 74.1079 331.57 78.4009L336.07 87.3026C336.358 87.8393 337.315 88.5653 337.921 88.66L346.06 89.9857C350.719 90.7433 352.187 93.2687 352.634 94.6893C353.081 96.1098 353.368 98.9823 350.017 102.297L343.666 108.578C343.187 109.052 342.836 110.283 342.996 110.946L344.815 118.711C346.06 124.046 344.081 126.382 342.804 127.297C341.528 128.213 338.687 129.381 333.9 126.571L326.273 122.089C325.634 121.71 324.294 121.71 323.655 122.089L316.028 126.571C313.826 127.897 311.975 128.339 310.57 128.339Z" fill="#FDCE68"/>
</g>
</svg>
