<svg width="359" height="274" viewBox="0 0 359 274" fill="none" xmlns="http://www.w3.org/2000/svg">
<mask id="mask0_11526_39776" style="mask-type:alpha" maskUnits="userSpaceOnUse" x="0" y="0" width="370" height="274">
<rect width="370" height="274" fill="#F0ECEB"/>
</mask>
<g mask="url(#mask0_11526_39776)">
<path d="M83.0234 275.815C82.637 249.464 107.131 203.636 150.263 188.974C217.213 166.216 321.261 180.414 321.261 98.5399C321.261 78.1772 317.783 4.81149 183.883 -1.17755C76.7631 -5.96878 15.204 -77.6376 -2.18555 -112.873" stroke="#FFB584" stroke-width="0.552899" stroke-linecap="round" stroke-dasharray="11.06 11.06"/>
<path d="M286.691 97.084V216.634L265.176 225.719L235.401 228.601L228.99 134.444L235.401 106.864L261.046 97.2323L286.691 97.084Z" fill="#5C9DF9"/>
<path d="M235.402 106.864V220.768L209.757 218.581L184.112 208.801C184.112 207.307 184.112 98.5778 184.112 97.084L209.757 97.2323L235.402 106.864Z" fill="#8EBDFF"/>
<path fill-rule="evenodd" clip-rule="evenodd" d="M248.651 104.338C262.581 101.682 282.413 97.9005 286.691 97.0846L235.402 87.4534V87.4531L235.402 87.4533L235.401 87.4531L235.401 87.4534L184.112 97.0846L196.916 99.526C210.863 102.185 231.073 106.039 235.401 106.864L235.401 106.864C235.401 106.864 235.401 106.864 235.402 106.864C235.402 106.864 235.402 106.864 235.402 106.864V106.864C237.337 106.495 242.399 105.53 248.651 104.338Z" fill="#7CAEF8"/>
<path d="M184.114 225.904L177.702 256.477L184.114 287.051C190.318 285.886 229.159 278.592 235.404 277.42C235.404 274.057 235.404 220.216 235.404 216.854L209.759 217.556L184.114 225.904Z" fill="#305940"/>
<path d="M126.41 215.723V276.216C147.064 280.095 164.141 283.301 184.111 287.052C184.111 283.653 184.111 229.302 184.111 225.904L155.26 216.854L126.41 215.723Z" fill="#60B590"/>
<path fill-rule="evenodd" clip-rule="evenodd" d="M184.116 204.885L184.116 204.885C184.139 204.891 184.312 204.931 184.116 204.885ZM184.115 204.885C184.115 204.885 184.116 204.885 184.116 204.885L184.116 204.885C184.202 204.906 186.642 205.475 209.666 210.847C214.95 212.079 221.318 213.565 228.99 215.355C231.035 215.832 233.172 216.331 235.406 216.852L209.761 221.377L184.116 225.902L184.115 225.901V225.901C177.083 224.661 133.431 216.958 126.413 215.72L184.114 204.885C184.113 204.885 184.113 204.885 184.113 204.885C184.113 204.885 184.114 204.885 184.114 204.885L184.115 204.885V204.885ZM184.115 204.885C184.115 204.885 184.116 204.885 184.116 204.885L184.115 204.886V204.885Z" fill="#AEE0CD"/>
<path d="M342.551 160.539V287.429L316.861 295.052L278.629 297.935L270.397 203.725L278.629 176.13L311.558 166.493L342.551 160.539Z" fill="#F2BC48"/>
<path d="M286.869 181.509V287.201C280.444 285.135 241.426 282.438 235.093 280.402V219.212V165.867C242.735 166.346 258.826 167.353 263.354 167.637C266.21 169.321 284.003 179.818 286.869 181.509Z" fill="#FDCE68"/>
<path fill-rule="evenodd" clip-rule="evenodd" d="M314.884 171.217C327.15 166.475 339.406 161.737 342.828 160.64C339.396 159.469 327.007 155.856 314.639 152.249C302.313 148.653 290.007 145.064 286.608 143.905L286.608 143.904C286.608 143.904 286.607 143.904 286.607 143.904C286.607 143.904 286.607 143.904 286.607 143.904L286.607 143.905C269.231 151.269 265.03 153.11 260.841 154.947C256.669 156.776 252.509 158.6 235.355 165.87C238.408 166.849 249.823 170.367 261.212 173.877C272.543 177.369 283.848 180.853 286.868 181.821L286.868 181.821C286.868 181.821 286.869 181.821 286.869 181.821C286.869 181.821 286.869 181.821 286.869 181.821L286.869 181.821C290.305 180.72 302.599 175.967 314.884 171.217Z" fill="#F5F2D4"/>
<path d="M225.158 76.9604C224.291 76.9604 223.684 76.6637 223.319 76.3844C222.626 75.8783 221.55 74.5693 222.227 71.6372L223.215 67.3438C223.302 66.9772 223.111 66.314 222.851 66.0348L219.399 62.5616C217.578 60.7291 217.734 59.1408 217.977 58.3555C218.219 57.57 219.017 56.1912 221.55 55.7549L225.973 55.0219C226.303 54.9695 226.841 54.5681 226.98 54.2714L229.425 49.3496C230.605 46.976 232.166 46.627 232.999 46.627C233.831 46.627 235.393 46.976 236.572 49.3496L239.018 54.2714C239.174 54.5681 239.694 54.9695 240.024 55.0219L244.447 55.7549C246.98 56.1737 247.778 57.57 248.021 58.3555C248.264 59.1408 248.42 60.7291 246.598 62.5616L243.146 66.0348C242.886 66.2966 242.695 66.9772 242.782 67.3438L243.771 71.6372C244.447 74.5868 243.372 75.8783 242.678 76.3844C241.984 76.8906 240.44 77.5363 237.838 75.983L233.693 73.5047C233.346 73.2952 232.617 73.2952 232.27 73.5047L228.124 75.983C226.927 76.716 225.921 76.9604 225.158 76.9604Z" fill="#DFA52B"/>
<path d="M223.716 76.9604C222.834 76.9604 222.216 76.6637 221.846 76.3844C221.14 75.8783 220.046 74.5693 220.734 71.6372L221.74 67.3438C221.828 66.9772 221.634 66.314 221.369 66.0348L217.858 62.5616C216.005 60.7291 216.164 59.1408 216.411 58.3555C216.658 57.57 217.469 56.1912 220.046 55.7549L224.545 55.0219C224.881 54.9695 225.428 54.5681 225.569 54.2714L228.057 49.3496C229.257 46.976 230.845 46.627 231.692 46.627C232.539 46.627 234.127 46.976 235.327 49.3496L237.815 54.2714C237.974 54.5681 238.503 54.9695 238.838 55.0219L243.338 55.7549C245.914 56.1737 246.726 57.57 246.973 58.3555C247.22 59.1408 247.379 60.7291 245.526 62.5616L242.015 66.0348C241.75 66.2966 241.556 66.9772 241.644 67.3438L242.65 71.6372C243.338 74.5868 242.244 75.8783 241.538 76.3844C240.832 76.8906 239.262 77.5363 236.615 75.983L232.398 73.5047C232.045 73.2952 231.304 73.2952 230.951 73.5047L226.733 75.983C225.516 76.716 224.492 76.9604 223.716 76.9604Z" fill="#FDCE68"/>
</g>
</svg>
