<svg width="64" height="56" viewBox="0 0 64 56" fill="none" xmlns="http://www.w3.org/2000/svg">
<g id="Group 1000002903">
<path id="Rectangle 157" d="M63.1523 40.618C63.1523 48.8587 56.472 55.5391 48.2313 55.5391L32.8653 55.5391C30.5763 55.5391 28.7206 53.6834 28.7206 51.3943L28.7206 29.0127C28.7206 24.4346 32.4319 20.7233 37.0101 20.7233L59.0076 20.7233C61.2967 20.7233 63.1523 22.5789 63.1523 24.868L63.1523 40.618Z" fill="#EBDBFF"/>
<g id="Group 1000002899">
<g id="Group 1000002893">
<path id="Vector" d="M22.9323 45.0422C10.3662 45.0422 0.152344 34.9444 0.152344 22.5211C0.152344 10.0978 10.3662 0 22.9323 0C35.4983 0 45.7122 10.0978 45.7122 22.5211C45.7122 23.3801 44.9917 24.0923 44.1229 24.0923C43.2541 24.0923 42.5336 23.3801 42.5336 22.5211C42.5336 11.8367 33.7395 3.14248 22.9323 3.14248C12.125 3.14248 3.33094 11.8367 3.33094 22.5211C3.33094 33.2055 12.125 41.8997 22.9323 41.8997C23.8011 41.8997 24.5216 42.612 24.5216 43.471C24.5216 44.3299 23.8011 45.0422 22.9323 45.0422Z" fill="#383838"/>
<path id="Vector_2" d="M16.5766 42.946H14.4575C13.5887 42.946 12.8682 42.2337 12.8682 41.3747C12.8682 40.5158 13.5463 39.8245 14.4151 39.8035C11.0882 28.5744 11.0882 16.4654 14.4151 5.23623C13.5675 5.21528 12.8682 4.52393 12.8682 3.66499C12.8682 2.80605 13.5887 2.09375 14.4575 2.09375H16.5766C17.0852 2.09375 17.5725 2.34515 17.8692 2.7432C18.1659 3.16219 18.2507 3.68592 18.0811 4.16777C14.0973 16.0044 14.0973 29.0562 18.0811 40.8929C18.2507 41.3747 18.1659 41.8985 17.8692 42.3175C17.5725 42.7365 17.0852 42.946 16.5766 42.946Z" fill="#383838"/>
<path id="Vector_3" d="M32.385 24.0919C31.5162 24.0919 30.7957 23.3797 30.7957 22.5207C30.7957 16.2776 29.7785 10.0973 27.7866 4.16852C27.5111 3.35148 27.9561 2.45061 28.7826 2.17827C29.609 1.90592 30.5202 2.34593 30.7957 3.16297C32.8936 9.40603 33.9743 15.9214 33.9743 22.5207C33.9743 23.3797 33.2538 24.0919 32.385 24.0919Z" fill="#383838"/>
<path id="Vector_4" d="M22.9343 33.4372C17.0009 33.4372 11.1311 32.5992 5.45203 30.9441C5.43084 31.7821 4.73155 32.4735 3.86273 32.4735C2.99392 32.4735 2.27344 31.7612 2.27344 30.9022V28.8072C2.27344 28.3044 2.52772 27.8226 2.93035 27.5293C3.35416 27.236 3.88395 27.1522 4.37133 27.3198C10.3683 29.2891 16.6195 30.2947 22.9343 30.2947C23.8031 30.2947 24.5236 31.007 24.5236 31.8659C24.5236 32.7249 23.8031 33.4372 22.9343 33.4372Z" fill="#383838"/>
<path id="Vector_5" d="M42.0043 17.8066C41.8348 17.8066 41.6653 17.7857 41.4958 17.7228C29.5231 13.7843 16.3212 13.7843 4.34854 17.7228C3.5221 17.9952 2.61093 17.5552 2.33545 16.7381C2.05997 15.9211 2.50497 15.0202 3.33141 14.7479C15.961 10.5788 29.8621 10.5788 42.4705 14.7479C43.297 15.0202 43.742 15.9211 43.4665 16.7381C43.297 17.3876 42.6613 17.8066 42.0043 17.8066Z" fill="#383838"/>
</g>
<g id="Group 1000002891">
<g id="Group 1000002890">
<path id="Vector 441" d="M27.2746 31.5226L38.9275 26.4024C39.3525 26.2157 39.8363 26.2157 40.2613 26.4024L51.9142 31.5226C52.1851 31.6417 52.1851 32.0259 51.9142 32.145L40.2613 37.2652C39.8363 37.4519 39.3525 37.4519 38.9275 37.2652L27.2746 32.145C27.0037 32.0259 27.0037 31.6417 27.2746 31.5226Z" stroke="#383838" stroke-width="3.31579" stroke-linecap="round" stroke-linejoin="round"/>
<path id="Vector 443" d="M51.8984 31.8359V37.5604" stroke="#383838" stroke-width="3.31579" stroke-linecap="round" stroke-linejoin="round"/>
<path id="Vector 442" d="M31.6328 34.6953V41.8508C31.6328 41.8508 32.3566 44.7131 39.5944 44.7131C46.8321 44.7131 47.5559 41.8508 47.5559 41.8508V34.6953" stroke="#383838" stroke-width="3.31579" stroke-linecap="round" stroke-linejoin="round"/>
</g>
</g>
</g>
</g>
</svg>
