<svg width="32" height="33" viewBox="0 0 32 33" fill="none" xmlns="http://www.w3.org/2000/svg">
<g id="search-favorite">
<g id="Group 1000002940">
<path id="Vector" d="M15.0363 19.5798C13.9676 19.5798 11.4817 18.2948 10.7151 15.9313C10.1923 14.3136 10.7964 12.1911 12.6898 11.583C13.5029 11.3191 14.3509 11.4453 15.0247 11.8698C15.6868 11.4453 16.558 11.3306 17.3711 11.583C19.2646 12.1911 19.8802 14.3136 19.3459 15.9313C18.5908 18.3407 15.9772 19.5798 15.0363 19.5798ZM12.3762 15.415C12.9105 17.0786 14.7226 17.8358 15.0479 17.8703C15.4196 17.8358 17.1969 16.9868 17.6848 15.4265C17.9519 14.5889 17.6848 13.5105 16.8368 13.2351C16.4767 13.1204 15.9888 13.1892 15.7565 13.5219C15.5939 13.7629 15.3383 13.9006 15.0479 13.912C14.7807 13.9235 14.4903 13.7858 14.3277 13.5564C14.0605 13.1777 13.5726 13.1204 13.2242 13.2236C12.3878 13.499 12.109 14.5775 12.3762 15.415Z" fill="#383838"/>
<path id="Vector_2" d="M25.0956 29.0445C25.0027 29.0445 24.9097 29.033 24.8284 29.0215C24.2824 28.9527 23.2951 28.5855 22.7375 26.9449C22.4471 26.0844 22.5516 25.2239 23.0279 24.5699C23.5042 23.916 24.3057 23.5488 25.2234 23.5488C26.4082 23.5488 27.3375 23.9963 27.7557 24.7879C28.1739 25.5796 28.0577 26.5892 27.3956 27.5644C26.5708 28.7921 25.6764 29.0445 25.0956 29.0445ZM24.3986 26.4056C24.5961 27.0022 24.8749 27.3006 25.0607 27.3235C25.2466 27.3464 25.5951 27.1285 25.9552 26.6122C26.2921 26.1188 26.3153 25.7631 26.234 25.6025C26.1527 25.4419 25.8274 25.2698 25.2234 25.2698C24.8633 25.2698 24.5961 25.3845 24.4451 25.5796C24.3057 25.7746 24.2825 26.0729 24.3986 26.4056Z" fill="#383838"/>
<path id="Vector_3" d="M15.3258 26.4176C9.07628 26.4176 4 21.4038 4 15.2312C4 9.05869 9.07628 4.04492 15.3258 4.04492C21.5753 4.04492 26.6516 9.05869 26.6516 15.2312C26.6516 21.4038 21.5753 26.4176 15.3258 26.4176ZM15.3258 5.76589C10.0404 5.76589 5.74243 10.011 5.74243 15.2312C5.74243 20.4515 10.0404 24.6966 15.3258 24.6966C20.6112 24.6966 24.9092 20.4515 24.9092 15.2312C24.9092 10.011 20.6112 5.76589 15.3258 5.76589Z" fill="#383838"/>
</g>
</g>
</svg>
