<svg width="32" height="32" viewBox="0 0 32 32" fill="none" xmlns="http://www.w3.org/2000/svg">
<path d="M14.6656 2.65234C8.03901 2.65234 2.65234 8.03901 2.65234 14.6657C2.65234 21.2924 8.03901 26.679 14.6656 26.679C21.2923 26.679 26.679 21.2924 26.679 14.6657C26.679 8.03901 21.2923 2.65234 14.6656 2.65234ZM18.9056 15.4124C18.159 17.7857 15.559 19.079 14.6656 19.079C13.7456 19.079 11.199 17.839 10.4257 15.4124C9.91901 13.8257 10.4923 11.759 12.3057 11.1857C13.1323 10.919 14.0123 11.079 14.6656 11.5723C15.3056 11.079 16.199 10.919 17.039 11.1857C18.839 11.7723 19.4123 13.839 18.9056 15.4124Z" fill="#201C1A"/>
<path d="M29.3188 25.2667C28.8788 24.4533 27.9454 24 26.6921 24C25.7454 24 24.9321 24.3867 24.4521 25.0533C23.9721 25.72 23.8654 26.6133 24.1588 27.5067C24.7321 29.24 25.7321 29.6267 26.2788 29.6933C26.3588 29.7067 26.4388 29.7067 26.5321 29.7067C27.1188 29.7067 28.0254 29.4533 28.9054 28.1333C29.6121 27.1067 29.7454 26.08 29.3188 25.2667Z" fill="#201C1A"/>
</svg>
