<svg width="63" height="63" viewBox="0 0 63 63" fill="none" xmlns="http://www.w3.org/2000/svg">
<path d="M63 48.0789C63 56.3196 56.3196 63 48.0789 63L32.3289 63C30.0399 63 28.1842 61.1443 28.1842 58.8553L28.1842 36.4737C28.1842 31.8955 31.8955 28.1842 36.4737 28.1842L58.8553 28.1842C61.1443 28.1842 63 30.0399 63 32.3289L63 48.0789Z" fill="#EBDBFF"/>
<path d="M7.72852 41.4036C6.8231 41.4036 6.07227 40.6528 6.07227 39.7474V15.4557C6.07227 5.71698 9.03143 2.75781 18.7702 2.75781H34.2285C43.9673 2.75781 46.9264 5.71698 46.9264 15.4557V37.5391C46.9264 37.8924 46.9264 38.2236 46.9044 38.577C46.8381 39.4824 46.021 40.1891 45.1377 40.1228C44.2323 40.0566 43.5256 39.2616 43.5919 38.3561C43.6139 38.0911 43.6139 37.8041 43.6139 37.5391V15.4557C43.6139 7.57198 42.1343 6.07031 34.2285 6.07031H18.7702C10.8643 6.07031 9.38477 7.57198 9.38477 15.4557V39.7474C9.38477 40.6528 8.63393 41.4036 7.72852 41.4036Z" fill="#383838"/>
<path d="M37.541 50.2396H15.4577C10.2902 50.2396 6.07227 46.0217 6.07227 40.8542V39.4188C6.07227 35.0242 9.64977 31.4688 14.0223 31.4688H45.2702C46.1756 31.4688 46.9264 32.2196 46.9264 33.125V40.8542C46.9264 46.0217 42.7085 50.2396 37.541 50.2396ZM14.0223 34.7813C11.4606 34.7813 9.38477 36.8571 9.38477 39.4188V40.8542C9.38477 44.2108 12.101 46.9271 15.4577 46.9271H37.541C40.8977 46.9271 43.6139 44.2108 43.6139 40.8542V34.7813H14.0223Z" fill="#383838"/>
<path d="M35.3327 17.1094H17.666C16.7606 17.1094 16.0098 16.3585 16.0098 15.4531C16.0098 14.5477 16.7606 13.7969 17.666 13.7969H35.3327C36.2381 13.7969 36.9889 14.5477 36.9889 15.4531C36.9889 16.3585 36.2381 17.1094 35.3327 17.1094Z" fill="#383838"/>
<path d="M28.7077 24.8438H17.666C16.7606 24.8438 16.0098 24.0929 16.0098 23.1875C16.0098 22.2821 16.7606 21.5312 17.666 21.5312H28.7077C29.6131 21.5312 30.3639 22.2821 30.3639 23.1875C30.3639 24.0929 29.6131 24.8438 28.7077 24.8438Z" fill="#383838"/>
</svg>
