<svg width="63" height="63" viewBox="0 0 63 63" fill="none" xmlns="http://www.w3.org/2000/svg">
<path d="M63 48.0789C63 56.3196 56.3196 63 48.0789 63L32.3289 63C30.0399 63 28.1842 61.1443 28.1842 58.8553L28.1842 37.17C28.1842 32.5919 31.8955 28.8805 36.4737 28.8805L58.8553 28.8805C61.1443 28.8805 63 30.7362 63 33.0253L63 48.0789Z" fill="#EBDBFF"/>
<path d="M22.3266 40.0822H13.957C13.0516 40.0822 12.3008 39.3314 12.3008 38.426V27.1193C12.3008 24.8226 14.1778 22.9453 16.4745 22.9453H22.3266C23.232 22.9453 23.9828 23.6961 23.9828 24.6016V38.4036C23.9828 39.3311 23.232 40.0822 22.3266 40.0822ZM15.6133 36.7697H20.6703V26.2801H16.4745C16.0108 26.2801 15.6133 26.6553 15.6133 27.1411V36.7697Z" fill="#383838"/>
<path d="M30.6723 40.0807H22.3027C21.3973 40.0807 20.6465 39.3298 20.6465 38.4244V17.0917C20.6465 14.7951 22.5235 12.918 24.8202 12.918H28.1769C30.4735 12.918 32.3506 14.7951 32.3506 17.0917V38.4244C32.3285 39.3298 31.5998 40.0807 30.6723 40.0807ZM23.981 36.7682H29.0381V17.0917C29.0381 16.628 28.6627 16.2305 28.1769 16.2305H24.8202C24.3565 16.2305 23.959 16.6059 23.959 17.0917V36.7682H23.981Z" fill="#383838"/>
<path d="M39.0434 40.0794H30.6738C29.7684 40.0794 29.0176 39.3286 29.0176 38.4231V28.375C29.0176 27.4696 29.7684 26.7188 30.6738 26.7188H36.5259C38.8226 26.7188 40.6997 28.5958 40.6997 30.8925V38.4231C40.6997 39.3286 39.9709 40.0794 39.0434 40.0794ZM32.3301 36.7669H37.3872V30.8925C37.3872 30.4288 37.0117 30.0312 36.5259 30.0312H32.3301V36.7669Z" fill="#383838"/>
<path d="M33.1263 50.237H19.8763C7.88505 50.237 2.76172 45.1136 2.76172 33.1224V19.8724C2.76172 7.88115 7.88505 2.75781 19.8763 2.75781H33.1263C45.1175 2.75781 50.2409 7.88115 50.2409 19.8724V33.1224C50.2409 45.1136 45.1175 50.237 33.1263 50.237ZM19.8763 6.07031C9.69588 6.07031 6.07422 9.69198 6.07422 19.8724V33.1224C6.07422 43.3028 9.69588 46.9245 19.8763 46.9245H33.1263C43.3067 46.9245 46.9284 43.3028 46.9284 33.1224V19.8724C46.9284 9.69198 43.3067 6.07031 33.1263 6.07031H19.8763Z" fill="#383838"/>
</svg>
