<svg width="63" height="59" viewBox="0 0 63 59" fill="none" xmlns="http://www.w3.org/2000/svg">
<g id="Group 1000002906">
<path id="Rectangle 34624272" d="M63 43.9344C63 52.1751 56.3196 58.8555 48.0789 58.8555L32.3289 58.8555C30.0399 58.8555 28.1842 56.9998 28.1842 54.7107L28.1842 32.3292C28.1842 27.751 31.8955 24.0397 36.4737 24.0397L58.8553 24.0397C61.1443 24.0397 63 25.8953 63 28.1844L63 43.9344Z" fill="#EBDBFF"/>
<g id="Group 1000002883">
<path id="Vector" d="M26.7395 32.6289C21.6415 32.6289 17.5039 28.6144 17.5039 23.668C17.5039 18.7215 21.6415 14.707 26.7395 14.707C31.8376 14.707 35.9751 18.7215 35.9751 23.668C35.9751 28.6144 31.8376 32.6289 26.7395 32.6289ZM26.7395 18.2914C23.6856 18.2914 21.1981 20.7049 21.1981 23.668C21.1981 26.631 23.6856 29.0445 26.7395 29.0445C29.7934 29.0445 32.2809 26.631 32.2809 23.668C32.2809 20.7049 29.7934 18.2914 26.7395 18.2914Z" fill="#383838"/>
<g id="Group 1000002902">
<path id="Vector_2" d="M34.381 48.6944C33.8638 48.6944 33.3467 48.6227 32.8295 48.5032C31.3025 48.097 30.0218 47.165 29.2091 45.8508L28.9136 45.3728C27.4605 42.9355 25.4656 42.9355 24.0125 45.3728L23.7416 45.8269C22.9289 47.165 21.6482 48.1209 20.1213 48.5032C18.5697 48.9094 16.9689 48.6944 15.6143 47.9058L11.3783 45.5401C9.87593 44.7038 8.79229 43.3417 8.32435 41.6929C7.88104 40.0441 8.10269 38.3475 8.96468 36.8898C9.6789 35.6711 9.87593 34.5719 9.45725 33.879C9.03857 33.186 7.97955 32.7798 6.52649 32.7798C2.93076 32.7798 0 29.9362 0 26.4474V22.2417C0 18.7529 2.93076 15.9093 6.52649 15.9093C7.97955 15.9093 9.03857 15.5031 9.45725 14.8101C9.87593 14.1171 9.70353 13.0179 8.96468 11.7992C8.10269 10.3416 7.88104 8.62109 8.32435 6.99618C8.76766 5.34737 9.8513 3.98531 11.3783 3.14896L15.6389 0.783272C18.4219 -0.817747 22.0915 0.114189 23.7663 2.86221L24.0618 3.34012C25.5149 5.77749 27.5098 5.77749 28.9628 3.34012L29.2337 2.8861C30.9085 0.114189 34.5781 -0.817747 37.3857 0.807168L41.6217 3.17285C43.1241 4.00921 44.2077 5.37127 44.6756 7.02008C45.119 8.66889 44.8973 10.3655 44.0353 11.8231C43.3211 13.0418 43.1241 14.141 43.5428 14.834C43.9614 15.527 45.0204 15.9332 46.4735 15.9332C50.0692 15.9332 53 18.7768 53 22.2656V26.4713C53 29.96 50.0692 32.8036 46.4735 32.8036C45.0204 32.8036 43.9614 33.2099 43.5428 33.9029C43.1241 34.5958 43.2965 35.695 44.0353 36.9137C44.8973 38.3714 45.1436 40.0919 44.6756 41.7168C44.2323 43.3656 43.1487 44.7277 41.6217 45.564L37.3611 47.9297C36.4252 48.4315 35.4154 48.6944 34.381 48.6944ZM26.4754 39.8529C28.6673 39.8529 30.7114 41.1911 32.1152 43.5568L32.3862 44.0108C32.6817 44.5126 33.1743 44.871 33.7653 45.0144C34.3564 45.1578 34.9475 45.0861 35.4401 44.7993L39.7007 42.4098C40.3411 42.0513 40.8336 41.4539 41.0307 40.7371C41.2277 40.0202 41.1292 39.2794 40.7598 38.6581C39.3559 36.3163 39.1836 33.9029 40.2672 32.0629C41.3508 30.2229 43.592 29.1715 46.3996 29.1715C47.9758 29.1715 49.2319 27.9528 49.2319 26.4235V22.2178C49.2319 20.7124 47.9758 19.4698 46.3996 19.4698C43.592 19.4698 41.3508 18.4184 40.2672 16.5784C39.1836 14.7384 39.3559 12.3249 40.7598 9.98316C41.1292 9.36187 41.2277 8.6211 41.0307 7.90422C40.8336 7.18735 40.3657 6.61385 39.7254 6.23151L35.4647 3.86583C34.4057 3.24454 33.0019 3.60298 32.3615 4.65439L32.0906 5.10841C30.6868 7.4741 28.6427 8.81226 26.4507 8.81226C24.2588 8.81226 22.2147 7.4741 20.8109 5.10841L20.54 4.6305C19.9243 3.62687 18.5451 3.26844 17.4861 3.86583L13.2254 6.25541C12.585 6.61385 12.0925 7.21124 11.8954 7.92812C11.6984 8.64499 11.7969 9.38576 12.1664 10.0071C13.5702 12.3488 13.7426 14.7623 12.6589 16.6023C11.5753 18.4423 9.33411 19.4937 6.52649 19.4937C4.95028 19.4937 3.69424 20.7124 3.69424 22.2417V26.4474C3.69424 27.9528 4.95028 29.1954 6.52649 29.1954C9.33411 29.1954 11.5753 30.2468 12.6589 32.0868C13.7426 33.9268 13.5702 36.3402 12.1664 38.682C11.7969 39.3033 11.6984 40.0441 11.8954 40.761C12.0925 41.4778 12.5604 42.0513 13.2007 42.4337L17.4614 44.7993C17.9786 45.11 18.5943 45.1817 19.1608 45.0383C19.7519 44.8949 20.2444 44.5126 20.5646 44.0108L20.8355 43.5568C22.2393 41.215 24.2835 39.8529 26.4754 39.8529Z" fill="#383838"/>
</g>
</g>
</g>
</svg>
