<svg width="32" height="32" viewBox="0 0 32 32" fill="none" xmlns="http://www.w3.org/2000/svg">
<path d="M15.999 18.668C9.31891 18.668 3.87891 23.148 3.87891 28.668C3.87891 29.0413 4.17224 29.3346 4.54557 29.3346H27.4523C27.8256 29.3346 28.119 29.0413 28.119 28.668C28.119 23.148 22.679 18.668 15.999 18.668Z" fill="#201C1A"/>
<path d="M15.9987 2.66797C14.4254 2.66797 12.9854 3.21464 11.8387 4.13464C10.3054 5.34797 9.33203 7.22797 9.33203 9.33463C9.33203 10.588 9.6787 11.7613 10.3054 12.7613C11.452 14.6946 13.5587 16.0013 15.9987 16.0013C17.6787 16.0013 19.212 15.388 20.3854 14.3346C20.9054 13.8946 21.3587 13.3613 21.7054 12.7613C22.3187 11.7613 22.6654 10.588 22.6654 9.33463C22.6654 5.65464 19.6787 2.66797 15.9987 2.66797ZM19.452 8.61463L15.892 11.8946C15.652 12.1213 15.3454 12.228 15.0387 12.228C14.7187 12.228 14.3987 12.108 14.1587 11.868L12.5187 10.2146C12.0254 9.7213 12.0254 8.93464 12.5187 8.4413C13.012 7.94797 13.7987 7.94797 14.292 8.4413L15.0787 9.22797L17.7587 6.7613C18.2654 6.29464 19.052 6.3213 19.5187 6.82797C19.9854 7.34797 19.9587 8.14797 19.452 8.61463Z" fill="#201C1A"/>
</svg>
