<svg width="32" height="32" viewBox="0 0 32 32" fill="none" xmlns="http://www.w3.org/2000/svg">
<g id="user-tick">
<path id="Vector" d="M16.0007 16.9993C11.774 16.9993 8.33398 13.5593 8.33398 9.33268C8.33398 5.10602 11.774 1.66602 16.0007 1.66602C20.2273 1.66602 23.6673 5.10602 23.6673 9.33268C23.6673 13.5593 20.2273 16.9993 16.0007 16.9993ZM16.0007 3.66602C12.8807 3.66602 10.334 6.21268 10.334 9.33268C10.334 12.4527 12.8807 14.9993 16.0007 14.9993C19.1207 14.9993 21.6673 12.4527 21.6673 9.33268C21.6673 6.21268 19.1207 3.66602 16.0007 3.66602Z" fill="#383838"/>
<path id="Vector_2" d="M4.54688 30.3333C4.00021 30.3333 3.54688 29.88 3.54688 29.3333C3.54688 23.64 9.13353 19 16.0003 19C17.3469 19 18.6668 19.1733 19.9468 19.5333C20.4801 19.68 20.7869 20.2267 20.6403 20.76C20.4936 21.2933 19.9468 21.6 19.4136 21.4533C18.3203 21.1467 17.1736 21 16.0003 21C10.2402 21 5.54688 24.7333 5.54688 29.3333C5.54688 29.88 5.09354 30.3333 4.54688 30.3333Z" fill="#383838"/>
<path id="Vector_3" d="M23.9993 30.3327C21.786 30.3327 19.706 29.1593 18.586 27.2527C17.986 26.2927 17.666 25.1593 17.666 23.9993C17.666 22.0527 18.5327 20.2527 20.0393 19.0527C21.1593 18.1593 22.5727 17.666 23.9993 17.666C27.4927 17.666 30.3327 20.506 30.3327 23.9993C30.3327 25.1593 30.0127 26.2927 29.4127 27.266C29.0793 27.826 28.6527 28.3327 28.146 28.7593C27.0394 29.7727 25.5593 30.3327 23.9993 30.3327ZM23.9993 19.666C23.0127 19.666 22.0793 19.9993 21.2927 20.626C20.266 21.4393 19.666 22.6793 19.666 23.9993C19.666 24.786 19.8793 25.5593 20.2927 26.226C21.066 27.5327 22.4927 28.3327 23.9993 28.3327C25.0527 28.3327 26.066 27.946 26.8393 27.2527C27.186 26.9593 27.4793 26.6127 27.6927 26.2393C28.1193 25.5593 28.3327 24.786 28.3327 23.9993C28.3327 21.6127 26.386 19.666 23.9993 19.666Z" fill="#383838"/>
<path id="Vector_4" d="M23.2385 26.3195C22.9852 26.3195 22.7319 26.2262 22.5319 26.0262L21.2119 24.7062C20.8252 24.3195 20.8252 23.6794 21.2119 23.2927C21.5985 22.906 22.2385 22.906 22.6252 23.2927L23.2652 23.9328L25.3985 21.9594C25.7985 21.586 26.4385 21.6128 26.8119 22.0128C27.1852 22.4128 27.1585 23.0528 26.7585 23.4262L23.9185 26.0527C23.7185 26.226 23.4785 26.3195 23.2385 26.3195Z" fill="#383838"/>
</g>
</svg>
