<svg width="1920" height="714" viewBox="0 0 1920 714" fill="none" xmlns="http://www.w3.org/2000/svg">
<g clip-path="url(#clip0_3353_23178)">
<rect width="1920" height="714" fill="#051F25"/>
<path d="M-5.5393 139.423C-4.11565 141.826 -2.21556 144.027 0.429496 146.368C0.850702 146.73 0.987606 147.044 0.987284 147.535C0.961597 149.068 1.18184 150.6 1.39388 152.069L1.46035 152.499C1.99728 156.225 3.40198 159.635 5.63064 162.638C6.92491 164.373 8.48805 165.956 10.2579 167.319C12.4198 168.984 14.9302 170.369 17.9198 171.574L17.9317 171.583C18.4627 171.803 18.8118 171.94 19.0018 172.086C19.2394 172.269 19.2429 172.461 19.1847 173.495L19.181 173.549C18.9285 178.029 19.7835 181.735 21.8091 184.904C22.7589 186.374 23.8086 187.542 25.0202 188.475C25.234 188.64 25.4688 188.802 25.6918 188.954C26.676 189.618 27.6935 189.55 28.2489 188.804C28.7677 188.106 28.611 187.229 27.8208 186.412C27.723 186.317 27.628 186.244 27.5421 186.159C27.4352 186.077 27.3402 186.004 27.2753 185.916C27.0004 185.609 26.698 185.339 26.3955 185.068C26.0218 184.742 25.6692 184.414 25.3741 184.035C23.1984 181.11 22.3853 177.645 22.8362 173.128C22.977 173.142 23.1205 173.177 23.2521 173.202C23.743 173.278 24.2128 173.356 24.6708 173.424C28.2395 173.902 31.0728 173.492 33.5887 172.118C36.035 170.784 37.5246 168.752 38.0146 166.101C38.4944 163.537 37.6137 161.118 35.6775 159.626C34.2996 158.565 32.53 158.11 30.6914 158.36C28.4112 158.666 26.3747 159.615 24.6633 161.173C22.7514 162.918 21.322 165.167 20.2926 168.027C20.1836 168.34 20.0765 168.504 19.986 168.548C19.8955 168.592 19.698 168.553 19.3937 168.432C16.4041 167.227 14.1021 165.965 12.1659 164.474C11.6551 164.08 11.1627 163.663 10.7122 163.24C6.90968 159.725 4.96452 155.198 4.61203 149.022C7.49097 150.198 10.4625 150.935 13.4517 151.231C16.4949 151.532 19.6489 151.368 22.8325 150.773C27.9673 149.808 31.5149 147.487 33.717 143.694C36.8333 138.297 37.3271 132.545 35.1753 126.592C34.2573 124.049 32.8764 122.058 31.059 120.658C30.8808 120.521 30.7145 120.392 30.5272 120.267C26.3201 117.424 21.6086 116.956 16.5336 118.876C12.1096 120.54 8.52043 123.529 5.86926 127.733C3.68938 131.202 2.28256 135.19 1.44913 140.302C1.35185 140.87 1.27286 141.415 1.17831 142.005C1.15263 142.136 1.13884 142.277 1.11589 142.43L1.104 142.421L1.09214 142.412C-1.23476 140.051 -3.03307 137.398 -4.23151 134.507C-6.76531 128.41 -7.13306 121.786 -5.37198 114.267C-5.05109 112.867 -4.59215 111.461 -4.16982 110.101C-4.04799 109.722 -3.9353 109.355 -3.81347 108.975C-3.62293 108.384 -3.46705 107.69 -3.89901 106.998C-4.04605 106.771 -4.22054 106.58 -4.4106 106.434C-4.77883 106.15 -5.2002 106.033 -5.68658 106.075C-6.75533 106.16 -7.06674 107.056 -7.29387 107.695C-9.33908 113.52 -10.2303 118.928 -10.0107 124.245C-9.77204 129.709 -8.2752 134.818 -5.5393 139.423ZM25.9696 165.473C27.2479 163.543 28.9811 162.398 31.2778 161.972C32.2488 161.793 33.1017 161.939 33.6956 162.396C34.4558 162.982 34.7422 164.035 34.4863 165.276C34.1507 166.891 33.178 168.13 31.6261 168.94C30.2251 169.678 28.089 170.436 23.9327 169.714C23.78 169.691 23.7325 169.655 23.7207 169.645L23.7088 169.636C23.7088 169.636 23.6914 169.585 23.7629 169.394C24.37 167.893 24.9687 166.575 25.9421 165.508L25.9604 165.485L25.9696 165.473ZM7.95006 131.739C8.72265 130.196 9.29923 129.201 9.73473 128.685C12.1466 125.603 14.8512 123.542 18.2666 122.179C20.1988 121.415 22.2741 121.178 24.4506 121.473C26.1481 121.701 27.6251 122.29 28.8248 123.214C30.1315 124.221 31.1389 125.64 31.8206 127.433C33.7033 132.385 33.2357 137.267 30.4462 141.97C29.0057 144.381 26.6121 146.038 23.3022 146.896C17.4586 148.413 11.7918 148.079 6.4662 145.926C6.20664 145.821 5.97998 145.722 5.78896 145.651C5.24881 145.443 4.89967 145.307 4.73338 145.178C4.57896 145.059 4.57717 144.963 4.67365 144.224C4.71041 143.93 4.77192 143.58 4.80788 143.116C5.20919 138.959 6.26298 135.133 7.95006 131.739Z" fill="#1F2F32"/>
<path d="M1866.82 689.996C1869.89 691.219 1873.26 691.911 1877.42 692.195C1878.08 692.23 1878.43 692.425 1878.79 692.886C1879.87 694.341 1881.18 695.617 1882.44 696.841L1882.82 697.196C1886.01 700.299 1889.78 702.48 1894.04 703.686C1896.5 704.377 1899.11 704.732 1901.75 704.732C1904.98 704.732 1908.33 704.218 1912 703.189H1912.02C1912.68 703.012 1913.1 702.888 1913.39 702.888C1913.74 702.888 1913.88 703.065 1914.58 704.076L1914.61 704.129C1917.61 708.509 1921.08 711.364 1925.27 712.872C1927.22 713.563 1929.05 713.9 1930.85 713.9C1931.17 713.9 1931.51 713.882 1931.83 713.865C1933.23 713.776 1934.13 712.978 1934.12 711.879C1934.1 710.85 1933.32 710.141 1931.99 709.946C1931.83 709.928 1931.69 709.928 1931.55 709.91C1931.39 709.91 1931.24 709.91 1931.12 709.875C1930.64 709.786 1930.16 709.751 1929.68 709.715C1929.1 709.68 1928.53 709.626 1927.98 709.485C1923.83 708.314 1920.57 705.654 1917.73 701.097C1917.87 701.008 1918.03 700.937 1918.17 700.866C1918.69 700.583 1919.19 700.317 1919.66 700.051C1923.35 697.923 1925.71 695.493 1927.08 692.39C1928.41 689.375 1928.34 686.396 1926.88 683.559C1925.48 680.81 1922.91 679.179 1920.02 679.179C1917.96 679.179 1915.98 680.03 1914.43 681.59C1912.52 683.523 1911.29 685.882 1910.82 688.577C1910.28 691.592 1910.57 694.731 1911.67 698.153C1911.79 698.526 1911.81 698.756 1911.76 698.862C1911.7 698.969 1911.49 699.075 1911.12 699.182C1907.45 700.21 1904.38 700.689 1901.49 700.689C1900.73 700.689 1899.96 700.653 1899.24 700.583C1893.14 700.033 1888.05 697.196 1883.26 691.663C1886.8 690.687 1890.12 689.233 1893.14 687.354C1896.2 685.438 1899.04 683.009 1901.59 680.154C1905.71 675.543 1907.36 670.809 1906.68 665.666C1905.71 658.36 1902.02 652.614 1895.71 648.589C1893.01 646.869 1890.28 646 1887.57 646C1887.3 646 1887.05 646 1886.79 646.018C1880.79 646.39 1876.04 649.352 1872.67 654.813C1869.73 659.566 1868.52 664.957 1869.07 670.809C1869.53 675.632 1871.09 680.385 1874 685.775C1874.32 686.378 1874.64 686.946 1874.98 687.566C1875.05 687.708 1875.14 687.85 1875.23 688.01H1875.21H1875.19C1871.31 687.478 1867.71 686.29 1864.5 684.445C1857.72 680.562 1852.6 674.621 1848.82 666.304C1848.11 664.762 1847.53 663.112 1846.94 661.534C1846.78 661.091 1846.62 660.665 1846.46 660.222C1846.21 659.53 1845.86 658.768 1844.95 658.431C1844.65 658.325 1844.35 658.271 1844.07 658.271C1843.52 658.271 1843.04 658.466 1842.61 658.857C1841.67 659.708 1842.03 660.772 1842.28 661.534C1844.56 668.468 1847.63 674.178 1851.68 679.001C1855.84 683.949 1860.93 687.655 1866.82 689.996ZM1915.14 691.663C1914.95 688.932 1915.75 686.609 1917.59 684.552C1918.37 683.683 1919.27 683.204 1920.16 683.204C1921.3 683.204 1922.32 683.984 1922.98 685.332C1923.83 687.088 1923.81 688.95 1922.95 690.829C1922.16 692.532 1920.71 694.784 1916.3 697.107C1916.14 697.196 1916.06 697.196 1916.05 697.196H1916.03C1916.03 697.196 1915.98 697.16 1915.91 696.93C1915.39 695.085 1915 693.418 1915.14 691.716V691.681V691.663ZM1873.91 673.061C1873.52 671.057 1873.35 669.709 1873.38 668.911C1873.42 664.283 1874.46 660.399 1876.68 656.658C1877.94 654.547 1879.71 652.827 1881.96 651.533C1883.72 650.522 1885.53 650.008 1887.32 650.008C1889.27 650.008 1891.24 650.611 1893.17 651.799C1898.51 655.079 1901.59 659.991 1902.37 666.411C1902.76 669.709 1901.72 672.99 1899.24 676.182C1894.86 681.821 1889.31 685.598 1882.76 687.425C1882.44 687.513 1882.16 687.584 1881.93 687.655C1881.27 687.85 1880.85 687.974 1880.6 687.974C1880.37 687.974 1880.3 687.886 1879.85 687.123C1879.68 686.822 1879.48 686.449 1879.18 685.988C1876.56 681.803 1874.78 677.459 1873.91 673.061Z" fill="#1F2F32"/>
<path d="M1864.79 504.998C1865.56 504.368 1866.32 503.723 1867.07 503.093C1867.55 502.683 1867.84 502.17 1867.93 501.525V501.51L1867.95 501.437L1867.93 501.364V501.349C1867.81 500.396 1867.26 499.737 1866.36 499.502C1866.13 499.444 1865.89 499.414 1865.66 499.414C1864.99 499.414 1864.35 499.678 1863.71 500.221C1861.12 502.434 1858.48 504.661 1855.94 506.816C1853.55 508.838 1851.09 510.919 1848.66 512.986C1847.24 514.202 1845.83 515.463 1844.47 516.679L1844.39 516.738C1844.03 517.06 1843.68 517.382 1843.31 517.705C1841.98 518.892 1842.43 519.947 1842.81 520.475C1843.44 521.325 1844.16 521.501 1844.64 521.501C1845.04 521.501 1845.45 521.383 1845.84 521.149C1846.27 520.9 1846.65 520.592 1846.93 520.343C1848.03 519.376 1849.14 518.408 1850.2 517.47L1850.21 517.456C1852.16 515.741 1854.17 513.982 1856.18 512.268C1858.99 509.864 1861.85 507.46 1864.62 505.13L1864.79 504.998Z" fill="#1F2F32"/>
<path d="M1849.64 502.785H1849.73C1850.34 502.741 1850.83 502.551 1851.24 502.214C1855.05 499.004 1858.16 496.381 1861.01 493.948C1861.89 493.2 1862.07 492.233 1861.48 491.368C1861.01 490.68 1860.34 490.299 1859.59 490.299C1859.36 490.299 1859.12 490.343 1858.87 490.416C1858.46 490.548 1858.02 490.797 1857.6 491.149C1855.43 492.966 1853.25 494.798 1851.14 496.586C1850.17 497.407 1849.19 498.227 1848.22 499.048C1847.43 499.708 1847.18 500.572 1847.53 501.422C1847.87 502.258 1848.61 502.741 1849.64 502.785Z" fill="#1F2F32"/>
<path d="M1873.05 505.541C1872.93 505.526 1872.8 505.511 1872.68 505.511C1872.03 505.511 1871.42 505.76 1870.8 506.259C1867.86 508.633 1865.4 510.626 1862.89 512.678C1861.85 513.528 1861.89 514.422 1862.13 515.008C1862.38 515.638 1862.93 516.415 1864.27 516.474H1864.33C1864.93 516.459 1865.47 516.239 1865.98 515.829C1867.21 514.832 1868.43 513.836 1869.66 512.839L1869.76 512.751C1871.23 511.564 1872.69 510.377 1874.16 509.175C1874.91 508.574 1875.17 507.754 1874.89 506.933C1874.67 506.391 1874.2 505.702 1873.05 505.541Z" fill="#1F2F32"/>
<path d="M1927.32 440H1927.3C1925.69 440 1923.95 440.073 1921.79 440.22C1918.3 440.469 1915.2 441.114 1912.26 442.198C1909.77 443.122 1907.4 444.353 1905.11 445.54C1904.12 446.053 1903.09 446.595 1902.06 447.093C1901.6 447.328 1901.13 447.548 1900.66 447.768C1898.14 448.969 1895.53 450.215 1893.31 452.106C1888.82 455.945 1884.99 459.668 1881.62 463.493C1881.53 463.596 1881.44 463.698 1881.36 463.801C1880.52 464.768 1879.8 465.589 1878.73 465.589C1878.45 465.589 1878.15 465.53 1877.82 465.428C1877.74 465.398 1877.63 465.384 1877.52 465.384C1877.41 465.384 1877.33 465.398 1877.25 465.413C1877.22 465.413 1877.18 465.428 1877.16 465.428C1876.8 465.442 1876.45 465.457 1876.08 465.486C1872.65 465.648 1869.1 465.823 1865.64 466.512C1861.75 467.304 1857.29 468.388 1853.58 471.407C1851.11 473.415 1848.78 475.701 1846.45 478.383C1845.08 479.952 1843.54 481.725 1842.68 483.982C1842.12 485.433 1842.22 486.605 1842.99 487.573C1843.63 488.408 1844.55 488.848 1845.62 488.848C1845.93 488.848 1846.26 488.804 1846.56 488.73C1850.29 487.866 1854.11 487.162 1857.8 486.488C1858.83 486.298 1859.9 486.107 1860.94 485.916C1861.22 485.858 1861.44 485.843 1861.63 485.843C1862.04 485.843 1862.42 485.96 1862.89 486.517C1865.56 489.698 1868.72 492.541 1871.52 495.062C1873.97 497.26 1876.15 499.81 1878.26 502.272C1879.3 503.489 1880.39 504.749 1881.49 505.951C1881.66 506.141 1881.75 506.361 1881.65 506.845C1881.37 508.003 1881.11 509.175 1880.84 510.304C1880.32 512.605 1879.76 514.994 1879.14 517.309C1879.03 517.763 1878.88 518.232 1878.73 518.687C1878.35 519.947 1877.96 521.237 1877.9 522.629C1877.85 523.582 1878.16 524.461 1878.76 525.077C1879.33 525.678 1880.14 526 1881.02 526C1881.21 526 1881.4 525.985 1881.59 525.956C1882.48 525.824 1883.35 525.516 1884.15 525.062C1887.83 523.025 1890.9 520.226 1893.97 517.294C1896.67 514.73 1898.66 511.667 1899.85 508.208C1901.7 502.888 1902.69 497.099 1902.97 489.991C1902.97 489.888 1902.97 489.786 1902.97 489.683C1902.96 489.317 1902.97 489.214 1903.16 489.067C1905.95 486.972 1908.45 484.685 1910.55 482.751C1910.97 482.355 1911.41 481.945 1911.84 481.564C1914.62 479.014 1917.51 476.361 1919.49 472.917C1921.82 468.843 1924.15 464.812 1926.13 461.412C1929.32 455.902 1930.07 449.849 1930.57 444.118V444.089L1930.58 443.913C1930.58 443.796 1930.6 443.664 1930.6 443.547C1930.67 442.36 1930.44 441.495 1929.88 440.894C1929.32 440.293 1928.49 440 1927.32 440ZM1875.3 470.176C1874.03 471.305 1872.83 472.375 1871.68 473.518C1870.32 474.881 1868.82 476.156 1867.39 477.387C1865.85 478.706 1864.27 480.054 1862.82 481.534C1862.43 481.93 1861.92 482.003 1861.37 482.091L1861.32 482.106C1856.43 482.912 1851.5 483.835 1846.65 484.876C1847.3 483.425 1848.34 482.209 1849.35 481.036C1851.82 478.178 1854.07 475.965 1856.41 474.089C1859.23 471.847 1862.54 470.88 1866.64 470.103C1869.82 469.517 1873.02 469.209 1876.43 469.165C1876.05 469.517 1875.67 469.854 1875.3 470.176ZM1904.72 450.01C1905.49 449.629 1906.27 449.233 1907.02 448.852C1911.61 446.507 1916.34 444.089 1921.76 443.972C1922.7 443.957 1923.65 443.869 1924.58 443.781C1925.19 443.723 1925.84 443.664 1926.47 443.635C1926.51 443.635 1926.54 443.635 1926.58 443.635C1926.79 443.635 1926.83 443.679 1926.83 443.679C1926.85 443.693 1926.89 443.767 1926.88 444.089C1926.66 447.533 1926.25 450.318 1925.59 452.824C1924.8 455.872 1923.64 458.496 1922.05 460.87C1921.57 461.588 1921.12 462.394 1920.56 463.464C1920.49 463.61 1920.44 463.669 1920.41 463.698C1920.38 463.684 1920.33 463.654 1920.19 463.537C1918.33 461.896 1916.44 460.24 1914.59 458.642L1913.26 457.47C1911.22 455.696 1909.19 453.923 1907.12 452.106L1904.72 450.01ZM1888.27 502.917C1890.87 500.455 1893.45 497.89 1895.95 495.399L1895.98 495.369C1897.04 494.314 1898.14 493.23 1899.22 492.16C1898.62 498.594 1897.83 504.383 1895.12 509.703C1894.59 510.729 1893.7 512.194 1891.39 514.407C1888.92 516.782 1886.21 519.229 1883.11 521.12C1882.7 521.369 1882.32 521.603 1881.85 521.735C1883.07 517.265 1884.23 513.044 1885.06 508.662C1885.46 506.435 1886.49 504.617 1888.27 502.917ZM1894.97 491.237C1891.75 494.3 1888.4 497.48 1885.33 500.807V500.821C1884.51 501.715 1883.96 502.302 1883.64 502.302C1883.32 502.302 1882.79 501.642 1882.12 500.792C1879.25 497.172 1875.87 493.963 1872.61 490.855C1871.48 489.786 1870.32 488.686 1869.19 487.587C1869.03 487.441 1868.88 487.279 1868.72 487.133L1868.69 487.104C1867.93 486.356 1867.14 485.594 1866.42 484.788C1866.11 484.451 1865.78 484.07 1865.78 483.894C1865.79 483.733 1866.17 483.381 1866.51 483.073C1867.23 482.428 1867.97 481.784 1868.69 481.168C1869.66 480.333 1870.67 479.468 1871.61 478.574C1873.06 477.182 1874.57 475.789 1876.02 474.441C1879.32 471.393 1882.72 468.242 1885.8 464.827C1889.39 460.855 1893.46 456.37 1898.49 453.234C1899.68 452.501 1900.45 452.003 1901.01 452.003C1901.57 452.003 1902.11 452.457 1903.4 453.586L1903.52 453.688C1906.81 456.59 1910.18 459.507 1913.44 462.321L1913.52 462.394C1915.02 463.684 1916.56 465.032 1918.08 466.336C1918.26 466.483 1918.42 466.644 1918.6 466.805C1918.61 466.82 1918.64 466.849 1918.65 466.864C1918.65 466.864 1918.65 466.879 1918.64 466.879C1918.57 467.025 1918.51 467.157 1918.45 467.274C1916.16 471.437 1913.33 475.013 1909.79 478.222C1908 479.849 1906.09 481.432 1904.26 482.956C1901.9 484.92 1899.48 486.942 1897.23 489.097C1896.47 489.815 1895.7 490.548 1894.97 491.237Z" fill="#1F2F32"/>
<path d="M1906.3 467.89C1905.7 466.219 1904.48 464.827 1902.59 463.654C1900.94 462.628 1899.07 462.116 1897.02 462.116C1896.82 462.116 1896.63 462.116 1896.42 462.13C1896.3 462.13 1896.17 462.13 1896.06 462.13C1895.23 462.13 1894.38 462.145 1893.52 462.555C1891.23 463.64 1889.43 465.223 1888.16 467.245C1886.66 469.634 1886.34 471.862 1887.19 473.899C1887.95 475.716 1889.24 477.358 1890.81 478.501C1892.52 479.761 1894.52 480.421 1896.57 480.421C1897.42 480.421 1898.28 480.303 1899.15 480.084C1901.08 479.571 1902.59 478.852 1903.75 477.87C1905.08 476.742 1905.98 475.218 1906.4 473.371C1906.87 471.217 1906.84 469.414 1906.3 467.89ZM1902.39 470.792C1902.42 473.225 1901.49 474.837 1899.54 475.731C1898.41 476.244 1897.42 476.493 1896.48 476.493C1895.37 476.493 1894.37 476.141 1893.45 475.408C1891.83 474.148 1890.82 472.902 1891.13 470.968C1891.39 469.253 1893.84 466.688 1895.57 466.307C1896.17 466.175 1896.74 466.117 1897.27 466.117C1898.5 466.117 1899.6 466.454 1900.63 467.157C1901.99 468.08 1902.55 469.224 1902.39 470.733V470.792Z" fill="#1F2F32"/>
<path d="M6.86858 612.293C7.57642 611.708 8.28426 611.109 8.97849 610.524C9.4277 610.143 9.69995 609.666 9.78162 609.067V609.054L9.79523 608.986L9.78162 608.918V608.904C9.67272 608.019 9.15545 607.407 8.3251 607.189C8.1073 607.134 7.88951 607.107 7.67171 607.107C7.04555 607.107 6.46022 607.352 5.86127 607.856C3.4519 609.911 1.00168 611.98 -1.35325 613.981C-3.57206 615.86 -5.85893 617.793 -8.11857 619.712C-9.43897 620.842 -10.7457 622.013 -12.0117 623.142L-12.0798 623.197C-12.4201 623.496 -12.7468 623.796 -13.0871 624.095C-14.3258 625.198 -13.9038 626.178 -13.5499 626.668C-12.9646 627.458 -12.2976 627.621 -11.8483 627.621C-11.4808 627.621 -11.0997 627.512 -10.7321 627.294C-10.3374 627.063 -9.98346 626.777 -9.72482 626.546C-8.7039 625.647 -7.66937 624.749 -6.68928 623.878L-6.67567 623.864C-4.86523 622.271 -3.00034 620.638 -1.13545 619.045C1.47811 616.813 4.13251 614.58 6.70524 612.416L6.86858 612.293Z" fill="#1F2F32"/>
<path d="M-7.20655 610.238H-7.12487C-6.55316 610.197 -6.10395 610.02 -5.7228 609.707C-2.1836 606.726 0.702207 604.289 3.35661 602.03C4.17335 601.336 4.3367 600.437 3.7922 599.634C3.35661 598.994 2.73044 598.64 2.03621 598.64C1.81842 598.64 1.60062 598.681 1.36921 598.749C0.988066 598.872 0.579696 599.103 0.184939 599.43C-1.82968 601.118 -3.85792 602.819 -5.81809 604.48C-6.7165 605.242 -7.62853 606.005 -8.52694 606.767C-9.26201 607.379 -9.49342 608.183 -9.16672 608.972C-8.85364 609.748 -8.15941 610.197 -7.20655 610.238Z" fill="#1F2F32"/>
<path d="M14.5323 612.797C14.4234 612.784 14.3009 612.77 14.192 612.77C13.5931 612.77 13.0214 613.001 12.4496 613.464C9.71356 615.669 7.42669 617.521 5.09898 619.426C4.13251 620.216 4.17335 621.046 4.39114 621.591C4.62255 622.176 5.13982 622.897 6.37854 622.952H6.43299C6.9911 622.938 7.49475 622.734 7.97118 622.353C9.11462 621.427 10.2444 620.502 11.3879 619.576L11.4832 619.494C12.8444 618.392 14.2056 617.289 15.5669 616.173C16.2611 615.615 16.5061 614.853 16.2475 614.09C16.0433 613.587 15.6077 612.947 14.5323 612.797Z" fill="#1F2F32"/>
<path d="M64.9387 551.923H64.9251C63.4278 551.923 61.8079 551.991 59.8069 552.127C56.5671 552.358 53.6813 552.957 50.9589 553.965C48.6448 554.822 46.4396 555.966 44.3161 557.068C43.3904 557.545 42.4376 558.048 41.4847 558.511C41.0491 558.729 40.6135 558.933 40.1779 559.137C37.8366 560.254 35.4136 561.411 33.3581 563.167C29.1792 566.733 25.6264 570.191 22.4955 573.743C22.4138 573.839 22.3322 573.934 22.2505 574.029C21.4746 574.928 20.8076 575.69 19.8139 575.69C19.5553 575.69 19.2694 575.636 18.9699 575.54C18.8883 575.513 18.793 575.499 18.6841 575.499C18.5888 575.499 18.5071 575.513 18.4391 575.527C18.4118 575.527 18.371 575.54 18.3574 575.54C18.0171 575.554 17.6904 575.567 17.3501 575.595C14.1648 575.744 10.8706 575.908 7.6581 576.548C4.03722 577.283 -0.100921 578.29 -3.54484 581.094C-5.84532 582.959 -8.00967 585.082 -10.174 587.573C-11.44 589.03 -12.8693 590.677 -13.6724 592.773C-14.1897 594.121 -14.0944 595.21 -13.3865 596.108C-12.7876 596.884 -11.93 597.293 -10.9363 597.293C-10.6505 597.293 -10.351 597.252 -10.0651 597.184C-6.60761 596.381 -3.05479 595.727 0.375511 595.101C1.32837 594.924 2.32207 594.747 3.28855 594.57C3.54718 594.516 3.75137 594.502 3.92833 594.502C4.30947 594.502 4.66339 594.611 5.09898 595.128C7.57642 598.082 10.5167 600.723 13.1166 603.064C15.3899 605.106 17.4181 607.475 19.3783 609.762C20.3448 610.891 21.3521 612.062 22.373 613.178C22.5364 613.355 22.618 613.559 22.5227 614.009C22.2641 615.084 22.0191 616.173 21.7741 617.221C21.284 619.358 20.7668 621.577 20.195 623.728C20.0861 624.15 19.95 624.585 19.8139 625.007C19.46 626.178 19.0924 627.376 19.038 628.669C18.9972 629.554 19.283 630.371 19.8411 630.942C20.372 631.5 21.1207 631.8 21.9374 631.8C22.1144 631.8 22.2913 631.786 22.4683 631.759C23.2986 631.637 24.1018 631.351 24.8504 630.929C28.2671 629.037 31.1121 626.437 33.9707 623.714C36.4754 621.332 38.3266 618.487 39.4292 615.275C41.1444 610.333 42.07 604.956 42.3287 598.354C42.3287 598.259 42.3287 598.164 42.3287 598.069C42.315 597.728 42.3287 597.633 42.5056 597.497C45.092 595.55 47.4197 593.427 49.3662 591.63C49.761 591.262 50.1694 590.881 50.5641 590.527C53.1505 588.159 55.8321 585.695 57.6697 582.496C59.8341 578.712 61.9985 574.968 63.8361 571.81C66.8036 566.692 67.4978 561.07 67.9607 555.748V555.721L67.9743 555.557C67.9743 555.448 67.9879 555.326 67.9879 555.217C68.0559 554.114 67.8381 553.311 67.3209 552.753C66.8036 552.195 66.0277 551.923 64.9387 551.923ZM16.6286 579.951C15.4443 580.999 14.3281 581.992 13.2664 583.054C12.0004 584.32 10.612 585.504 9.27796 586.648C7.84867 587.873 6.37854 589.125 5.03092 590.5C4.677 590.868 4.20057 590.936 3.6833 591.017L3.64247 591.031C-0.904046 591.78 -5.47778 592.637 -9.98346 593.604C-9.38452 592.256 -8.41804 591.126 -7.47879 590.037C-5.17831 587.383 -3.09563 585.327 -0.917659 583.585C1.69591 581.502 4.77229 580.604 8.58374 579.883C11.5376 579.338 14.5051 579.052 17.6768 579.011C17.3228 579.338 16.9689 579.651 16.6286 579.951ZM43.9485 561.22C44.67 560.866 45.3914 560.499 46.0857 560.145C50.3463 557.967 54.7431 555.721 59.7797 555.612C60.6508 555.598 61.5356 555.517 62.3932 555.435C62.9649 555.38 63.5639 555.326 64.1492 555.299C64.19 555.299 64.2173 555.299 64.2581 555.299C64.4487 555.299 64.4895 555.34 64.4895 555.34C64.5031 555.353 64.544 555.421 64.5303 555.721C64.3262 558.92 63.945 561.506 63.3325 563.834C62.5974 566.665 61.522 569.102 60.0519 571.307C59.6027 571.974 59.1807 572.722 58.6634 573.716C58.5954 573.852 58.5545 573.907 58.5273 573.934C58.5001 573.92 58.4456 573.893 58.3231 573.784C56.5944 572.26 54.8384 570.721 53.1232 569.238L51.8845 568.149C49.9924 566.502 48.1003 564.855 46.1809 563.167L43.9485 561.22ZM28.6755 610.361C31.0849 608.074 33.4807 605.691 35.8084 603.377L35.8356 603.35C36.8157 602.37 37.8366 601.363 38.8439 600.369C38.2858 606.345 37.5507 611.722 35.0325 616.663C34.5424 617.616 33.7121 618.977 31.5749 621.033C29.2745 623.238 26.7562 625.511 23.884 627.267C23.5028 627.498 23.1489 627.716 22.7133 627.839C23.8431 623.687 24.9185 619.767 25.6944 615.697C26.0619 613.627 27.0148 611.94 28.6755 610.361ZM34.8963 599.512C31.9016 602.356 28.798 605.31 25.9394 608.4V608.414C25.1771 609.244 24.6735 609.789 24.374 609.789C24.0745 609.789 23.5845 609.176 22.9583 608.387C20.2903 605.024 17.1595 602.043 14.1239 599.158C13.0758 598.164 12.0004 597.143 10.9523 596.122C10.8025 595.986 10.6664 595.836 10.5167 595.7L10.4895 595.673C9.78162 594.979 9.04655 594.271 8.37955 593.522C8.09369 593.209 7.78061 592.855 7.78061 592.692C7.79422 592.542 8.14814 592.215 8.46123 591.929C9.12823 591.33 9.82246 590.732 10.4895 590.16C11.3879 589.384 12.3271 588.581 13.1983 587.75C14.5459 586.457 15.948 585.164 17.2956 583.912C20.3584 581.08 23.5164 578.154 26.375 574.982C29.71 571.293 33.4943 567.128 38.1633 564.215C39.2659 563.534 39.9873 563.071 40.5046 563.071C41.0219 563.071 41.5255 563.493 42.7234 564.541L42.8323 564.637C45.8951 567.332 49.0259 570.041 52.0479 572.654L52.1295 572.722C53.518 573.92 54.9473 575.173 56.363 576.384C56.5263 576.52 56.676 576.67 56.8394 576.82C56.853 576.833 56.8802 576.861 56.8938 576.874C56.8938 576.874 56.8938 576.888 56.8802 576.888C56.8122 577.024 56.7577 577.146 56.7033 577.255C54.5797 581.121 51.9526 584.443 48.6584 587.424C46.9977 588.935 45.2281 590.405 43.5265 591.821C41.335 593.645 39.0889 595.523 36.9926 597.524C36.2848 598.191 35.577 598.872 34.8963 599.512Z" fill="#1F2F32"/>
<path d="M45.4187 577.827C44.8606 576.275 43.7307 574.982 41.9747 573.893C40.4366 572.94 38.7078 572.464 36.8021 572.464C36.6115 572.464 36.4345 572.464 36.244 572.477C36.1351 572.477 36.0126 572.477 35.9037 572.477C35.1414 572.477 34.3519 572.491 33.5487 572.872C31.4252 573.88 29.7509 575.35 28.5666 577.228C27.1782 579.447 26.8787 581.516 27.6682 583.408C28.376 585.096 29.5739 586.621 31.0304 587.682C32.6231 588.853 34.4744 589.466 36.3801 589.466C37.1696 589.466 37.9727 589.357 38.7759 589.153C40.5727 588.676 41.9747 588.009 43.0501 587.097C44.2888 586.049 45.1192 584.633 45.5139 582.918C45.9495 580.917 45.9223 579.243 45.4187 577.827ZM41.7842 580.522C41.8114 582.782 40.9538 584.279 39.1434 585.11C38.0952 585.586 37.1696 585.818 36.2984 585.818C35.2639 585.818 34.3382 585.491 33.4807 584.81C31.9833 583.64 31.0441 582.482 31.3299 580.686C31.5749 579.093 33.8482 576.711 35.4544 576.357C36.0126 576.234 36.5434 576.18 37.0335 576.18C38.1769 576.18 39.1978 576.493 40.1507 577.146C41.4166 578.004 41.9339 579.066 41.7842 580.468V580.522Z" fill="#1F2F32"/>
</g>
<defs>
<clipPath id="clip0_3353_23178">
<rect width="1920" height="714" fill="white"/>
</clipPath>
</defs>
</svg>
