<?xml version="1.0" encoding="UTF-8"?>
<svg id="Layer_1" data-name="Layer 1" xmlns="http://www.w3.org/2000/svg" viewBox="0 0 908.52 373.72">
  <defs>
    <style>
      .cls-1 {
        fill: #e46c27;
      }

      .cls-1, .cls-2 {
        stroke-width: 0px;
      }

      .cls-2 {
        fill: navy;
      }
    </style>
  </defs>
  <path class="cls-1" d="m908.52,0c-101.59,66.78-189.65,152.18-259.75,251.24-24.37,34.48-46.63,70.58-66.38,108.22-10.04,19.02-37.24,19.02-47.27,0-19.75-37.64-42.01-73.74-66.38-108.22,27.67-31.07,57.88-59.9,90.01-86.29C658.17,83.53,777.49,25.58,908.52,0h0Z"/>
  <path class="cls-2" d="m468.82,251.26c27.67-31.07,57.79-59.9,90.01-86.29C459.52,83.53,340.12,25.58,209.15,0c101.53,66.71,189.57,152.11,259.67,251.26Z"/>
  <path class="cls-1" d="m699.44,0c-101.59,66.78-189.65,152.18-259.75,251.24-24.37,34.48-46.63,70.58-66.38,108.22-10.04,19.02-37.24,19.02-47.27,0-19.75-37.64-42.01-73.74-66.38-108.22,27.67-31.07,57.88-59.9,90.01-86.29C449.07,83.53,568.39,25.58,699.44,0h0Z"/>
  <path class="cls-2" d="m259.67,251.26c27.67-31.07,57.79-59.9,90.01-86.29C250.36,83.53,130.97,25.58,0,0c101.53,66.71,189.57,152.11,259.67,251.26h0Z"/>
</svg>