<svg xmlns="http://www.w3.org/2000/svg" width="24" height="24" viewBox="0 0 24 24" fill="none">
  <g clip-path="url(#clip0_10477_593)">
    <path d="M12 24C5.3736 24 0 18.6264 0 12C0 5.3736 5.3736 0 12 0C18.6264 0 24 5.3736 24 12C24 18.6264 18.6264 24 12 24Z" fill="#FF0000"/>
    <path d="M19.637 8.13843C19.4546 7.44723 18.9146 6.90483 18.2282 6.72003C16.985 6.38403 12.0026 6.38403 12.0026 6.38403C12.0026 6.38403 7.01783 6.38403 5.77703 6.72003C5.09063 6.90483 4.55063 7.44723 4.36823 8.13843C4.03223 9.38883 4.03223 12 4.03223 12C4.03223 12 4.03223 14.6112 4.36583 15.8616C4.54823 16.5528 5.08823 17.0952 5.77463 17.28C7.01783 17.616 12.0002 17.616 12.0002 17.616C12.0002 17.616 16.985 17.616 18.2258 17.28C18.9122 17.0952 19.4522 16.5528 19.6346 15.8616C19.9682 14.6112 19.9682 12 19.9682 12C19.9682 12 19.9682 9.38883 19.637 8.13843ZM10.3706 14.3688V9.63123L14.5346 12L10.3706 14.3688Z" fill="white"/>
  </g>
  <defs>
    <clipPath id="clip0_10477_593">
      <rect width="24" height="24" fill="white"/>
    </clipPath>
  </defs>
</svg>